<svg width="113" height="104" viewBox="0 0 113 104" fill="none" xmlns="http://www.w3.org/2000/svg">
<path d="M81.5057 41.1356C79.2782 39.5084 78.0199 36.6271 78.36 33.8813C78.7001 31.1356 80.5875 28.644 83.1551 27.5762C83.2061 28.8813 83.4612 30.1864 83.9203 31.4067C87.049 29.7796 90.4157 28.5932 93.8675 27.8644C95.5679 27.5084 97.6253 26.9661 98.0674 25.3051C98.4245 28.8474 97.9654 32.4576 96.7241 35.7966L101.774 34.0508C100.618 39.2034 95.6359 43.2203 90.3477 43.2881C88.4263 43.3051 86.2498 42.6949 85.3826 40.983" fill="#74C4A3"/>
<path d="M54.0446 68.983C52.7013 69.6441 51.562 70.6271 50.6438 71.7966C50.5248 71.9661 50.5078 72.2712 50.5588 72.4576C50.6098 72.661 50.7628 72.8644 50.9499 72.9661C51.1539 73.0678 51.392 73.1186 51.613 73.0508C51.8341 72.983 51.9701 72.8474 52.1231 72.661C52.0721 72.7119 52.0211 72.7966 52.1061 72.6949L52.1912 72.5932C52.1912 72.5932 52.2932 72.4746 52.3442 72.4237C52.4462 72.3051 52.5652 72.1864 52.6673 72.0678C52.9053 71.8305 53.1434 71.6102 53.3984 71.3898L53.4834 71.322C53.5855 71.2373 53.5175 71.322 53.4494 71.339C53.5175 71.3051 53.5855 71.2373 53.6535 71.1864C53.7895 71.0847 53.9255 71 54.0616 70.9152C54.3336 70.7458 54.6397 70.5763 54.9288 70.4407C55.3369 70.2542 55.4729 69.6441 55.2348 69.2881C54.9628 68.8813 54.5037 68.7797 54.0786 68.983H54.0446Z" fill="#74C4A3"/>
<path d="M56 70.4237C55.4389 71.1695 55.0308 72.0339 54.7757 72.9322C54.6227 73.5254 55.0648 73.9322 55.5919 74C57.0202 74.1864 58.2275 73.3729 59.4688 72.8305C59.7578 72.7118 60.0469 72.6101 60.353 72.5423C60.319 72.5423 60.659 72.4915 60.625 72.5084C60.7611 72.4576 60.8291 72.5762 60.693 72.4237C60.8461 72.6101 60.7611 72.9661 60.7441 73.1864C60.7101 73.6101 60.7101 74.0339 60.8631 74.4406C61.0501 74.9491 61.5943 75.2373 62.1044 74.9491C62.9206 74.4915 63.7537 74.1356 64.6379 73.8644C65.6752 73.5593 65.2331 71.9152 64.1788 72.2373C63.1246 72.5593 62.1554 72.9661 61.2372 73.4915L62.4784 74C62.3254 73.5932 62.4444 73.1864 62.4444 72.7796C62.4444 72.3729 62.3424 71.9322 62.1384 71.5932C61.6113 70.7457 60.608 70.7457 59.7578 70.9661C58.3465 71.3051 57.0712 72.5254 55.5749 72.322L56.3911 73.3898C56.6121 72.6101 56.9522 71.9152 57.4453 71.2712C57.7174 70.8983 57.4963 70.322 57.1393 70.1186C56.6972 69.8644 56.2551 70.0508 55.983 70.4237H56Z" fill="#74C4A3"/>
<path d="M67.3585 72.6102C67.0185 72.8814 66.7464 73.2034 66.4913 73.5424C66.2363 73.8814 66.0492 74.2712 65.8792 74.661C65.7942 74.8475 65.8792 75.1526 65.9642 75.3221C66.0493 75.4916 66.2703 75.661 66.4743 75.7119C66.6954 75.7627 66.9334 75.7458 67.1375 75.6271L67.3075 75.4916C67.4096 75.3899 67.4776 75.2543 67.5286 75.1187V75.0678L67.4606 75.2712C67.5966 74.9322 67.7836 74.6271 68.0047 74.339L67.8687 74.5085C68.0727 74.2543 68.3108 74.017 68.5658 73.7966C68.7188 73.661 68.8209 73.3899 68.8209 73.2034C68.8209 73 68.7359 72.7458 68.5658 72.6102C68.3958 72.4746 68.1917 72.356 67.9707 72.356L67.7496 72.3899C67.6136 72.4238 67.4776 72.5085 67.3755 72.6102H67.3585Z" fill="#74C4A3"/>
<path d="M14.9358 13.0508C17.7074 8.57627 23.8288 7.45762 27.9777 10.7966C28.3688 11.1186 29.0489 11.1525 29.321 10.6271C31.3105 6.66101 35.2893 3.62711 39.5063 2.30508C43.7232 0.983046 48.6543 1.8305 50.6948 6C50.8988 6.42372 51.477 6.50847 51.8511 6.30508C55.2688 4.38983 59.2307 3.33898 63.1756 3.59322C66.4233 3.79661 69.8411 5.03389 71.6095 7.91525C71.8305 8.27118 72.3917 8.49152 72.7657 8.22033C75.8604 6.01694 80.0094 5.66101 83.6652 6.38983C87.321 7.11864 90.9598 9.61016 90.7558 13.678C90.7218 14.2034 91.3339 14.678 91.827 14.4915C96.6731 12.7288 101.91 15.4407 103.169 20.4407C103.441 21.4915 105.073 21.0508 104.801 19.983C103.339 14.1356 97.0812 10.7797 91.3679 12.8475L92.4392 13.661C92.6772 9.15254 88.8684 5.91525 84.8044 4.88135C80.7405 3.84745 75.5204 4.15254 71.8986 6.71186L73.0548 7.01694C68.5148 -0.338988 57.3773 1.22033 50.9669 4.81355L52.1231 5.11864C49.9126 0.576266 44.3694 -0.728818 39.7443 0.457623C34.8643 1.72881 30.1032 5.22033 27.8247 9.76271L29.168 9.59321C24.1859 5.57627 16.8572 6.72881 13.4565 12.2034C12.8783 13.1356 14.3577 13.983 14.9188 13.0508H14.9358Z" fill="#74C4A3"/>
<path d="M8.62737 18.7458C5.05657 19.6102 3.06712 23.2034 2.72705 26.6441C2.35296 30.4577 4.25739 34.8645 8.57636 35.1017L7.98123 33.6611C5.43065 35.7967 4.52945 39.5933 5.94077 42.6102C7.35209 45.6272 10.8379 47.3051 14.1366 46.8136C15.2078 46.6441 14.7487 45.017 13.6775 45.1865C11.1609 45.5594 8.42333 44.1187 7.4031 41.7628C6.38287 39.4068 7.21605 36.5085 9.1885 34.8645C9.80063 34.356 9.25651 33.4577 8.59336 33.4238C5.09058 33.2204 4.05335 29.1526 4.49544 26.2882C4.88653 23.695 6.39987 21.0339 9.08647 20.3899C10.1577 20.1356 9.69861 18.4916 8.62737 18.7628V18.7458Z" fill="#74C4A3"/>
<path d="M22.2304 51.7627C23.6418 53.1864 25.8522 53.7627 27.7567 53.1356C28.1818 53 28.4878 52.5424 28.3518 52.0847C28.2158 51.661 27.7567 51.339 27.2976 51.4915C27.1105 51.5593 26.9235 51.6102 26.7194 51.6441C26.6854 51.6441 26.5154 51.678 26.7194 51.6441C26.6684 51.6441 26.6344 51.6441 26.5834 51.6441C26.4984 51.6441 26.3964 51.6441 26.3114 51.661C26.1073 51.661 25.9203 51.661 25.7162 51.6441C25.6312 51.6441 25.5802 51.6271 25.7162 51.6441C25.6652 51.6441 25.6312 51.6441 25.5802 51.6271C25.4782 51.6102 25.3761 51.5932 25.2741 51.5593C25.0871 51.5085 24.9 51.4576 24.713 51.3898C24.628 51.3559 24.662 51.3729 24.713 51.3898C24.679 51.3729 24.628 51.3559 24.594 51.339C24.4919 51.2881 24.4069 51.2542 24.3219 51.2034C24.1519 51.1017 23.9818 51 23.8288 50.8814C23.9648 50.9831 23.7778 50.8305 23.7268 50.7966C23.6418 50.7119 23.5567 50.6441 23.4717 50.5593C23.1656 50.2373 22.5705 50.2203 22.2644 50.5593C21.9584 50.8983 21.9244 51.4237 22.2644 51.7627H22.2304Z" fill="#74C4A3"/>
<path d="M107.062 28.9152C109.154 30.4237 109.919 33.1356 110.174 35.5762C110.242 36.2373 110.412 37.0339 110.174 37.661C109.936 38.2881 109.341 38.6271 108.831 38.983C107.607 39.8474 106.297 40.7288 104.75 40.8135C104.121 40.8474 103.679 41.5084 104.019 42.0847C104.852 43.4915 104.988 45.0508 104.478 46.5932C104.138 47.6271 105.77 48.0678 106.11 47.0508C106.773 45.1017 106.535 43 105.481 41.2373L104.75 42.5084C106.688 42.4237 108.287 41.4576 109.817 40.3559C110.446 39.9152 111.092 39.4576 111.5 38.7966C112.011 37.983 112.011 37.0508 111.926 36.1186C111.653 32.8305 110.718 29.4576 107.913 27.4407C107.028 26.7966 106.178 28.2712 107.062 28.8983V28.9152Z" fill="#74C4A3"/>
<path d="M100.227 52.2712C100.023 52.4407 99.9548 52.5085 99.7168 52.661C99.4957 52.7966 99.2747 52.9153 99.0366 53.017C99.1217 52.9831 99.0196 53.017 98.9856 53.0339C98.9346 53.0509 98.8666 53.0848 98.8156 53.1017C98.6796 53.1526 98.5605 53.1865 98.4245 53.2204C98.3055 53.2543 98.1864 53.2712 98.0674 53.3051C98.0164 53.3051 97.9484 53.3221 97.8804 53.339C97.8634 53.339 97.6763 53.3729 97.7954 53.339C97.5573 53.3729 97.3193 53.3729 97.0642 53.3729C96.9282 53.3729 96.7921 53.3729 96.6561 53.356C96.6561 53.356 96.4861 53.339 96.5371 53.356C96.5881 53.3729 96.4351 53.356 96.4181 53.339C96.163 53.2882 95.9079 53.2373 95.6699 53.1526C95.3808 53.0678 95.3128 53.0339 95.0407 52.8814C94.6327 52.661 94.1225 52.7797 93.8845 53.1865C93.6634 53.5763 93.7825 54.1356 94.1906 54.339C96.5201 55.5594 99.4447 55.2034 101.417 53.4577C101.757 53.1526 101.723 52.5763 101.417 52.2543C101.077 51.9153 100.567 51.9492 100.21 52.2543L100.227 52.2712Z" fill="#74C4A3"/>
<path d="M62.5805 38.2203C59.1797 36.5254 55.4049 36.2033 51.681 36.4576C47.9572 36.7118 43.8933 37.2203 40.4075 38.8305C36.9217 40.4406 34.0651 42.9491 31.4975 45.6101C28.9299 48.2711 26.7875 51.322 25.3761 54.7457C23.8288 58.5084 23.0976 62.5762 22.7916 66.6101C22.4855 70.644 22.6895 74.6101 23.5227 78.5254C25.0021 85.4576 28.6579 92 34.3202 96.3728C40.3905 101.051 48.0932 102.271 55.5069 103.305C59.7749 103.898 63.9578 104.339 68.2257 103.407C71.8816 102.61 75.5034 101.288 78.9722 99.8983C85.2806 97.3559 91.2999 93.6779 94.2246 87.2881C95.8229 83.7966 96.5711 80 97.2513 76.2372C97.8974 72.6949 98.4415 69.1017 98.3905 65.4915C98.3395 61.8813 97.6763 58.5762 95.942 55.5593C94.0375 52.2372 90.8918 49.7796 87.8992 47.4576C81.7948 42.7457 74.8402 38.8474 67.0185 38.0847C65.063 37.8983 63.0906 37.9322 61.1522 38.1864C60.0809 38.322 60.0639 40.0169 61.1522 39.8813C68.6508 38.8983 75.9115 41.5084 82.1689 45.4745C85.2296 47.4237 88.1882 49.661 90.8578 52.1186C93.5274 54.5762 95.3638 57.3728 96.163 60.8813C96.9112 64.1525 96.7751 67.5762 96.3841 70.8813C95.993 74.1864 95.3468 77.7966 94.5306 81.1525C93.7145 84.5084 92.4562 87.9322 90.1607 90.644C88.1372 93.0508 85.5526 94.8644 82.798 96.322C80.0434 97.7796 76.9657 98.9322 73.939 99.9661C70.1642 101.254 66.3723 102.407 62.3424 102.322C58.3125 102.237 54.6397 101.559 50.8649 100.915C47.3281 100.305 43.7743 99.5254 40.4755 98.0678C34.3542 95.3559 29.7461 90.2711 27.0935 84.2033C24.1009 77.305 23.7778 69.3728 25.0871 62.0508C25.7502 58.4067 26.8895 54.8644 28.8789 51.7118C30.7493 48.7457 33.1979 46.1694 35.8675 43.9152C38.7411 41.4745 41.8868 39.7627 45.6107 39C49.1305 38.2711 52.9053 37.8644 56.4931 38.2372C58.3295 38.4237 60.1149 38.9152 61.7643 39.7288C62.7335 40.2203 63.6007 38.7457 62.6145 38.2711L62.5805 38.2203Z" fill="black"/>
<path d="M79.0402 45.0339C81.7438 42.1695 85.0595 39.9152 88.7153 38.4746C89.1404 38.3051 89.4465 37.9152 89.3105 37.4237C89.1914 37.0169 88.6983 36.661 88.2562 36.8305C84.3113 38.3729 80.7405 40.7457 77.8159 43.8305C77.0677 44.6271 78.258 45.8305 79.0232 45.0339H79.0402Z" fill="black"/>
<path d="M44.1654 39.4237C41.7508 39.9661 40.7646 43.0339 42.686 44.7457C43.6212 45.5932 44.9475 45.7457 46.1548 45.8135C47.005 45.8474 47.8722 45.8135 48.7224 45.7288C49.3175 45.661 50.2697 45.2542 50.6438 45.7627C50.9669 46.2203 51.1369 46.6779 51.579 47.0847C52.0211 47.4915 52.5482 47.7966 53.1094 48.0508C54.4527 48.644 55.949 48.8813 57.4113 48.9152C58.9927 48.9491 60.506 48.644 62.0194 48.2034C62.8866 47.9491 63.7538 47.7118 64.5019 48.3051C64.995 48.6949 65.3861 49.1864 65.8962 49.5593C68.1407 51.1864 71.3375 51.1864 73.599 49.6101C74.4832 48.983 73.633 47.5254 72.7488 48.1525C71.6265 48.9322 70.3172 49.2542 68.9569 49.0339C67.4946 48.7966 66.7124 47.9322 65.6412 47.0339C64.5699 46.1356 63.2436 46.1186 61.9343 46.4746C60.217 46.9152 58.6356 47.339 56.8502 47.2034C55.4729 47.1017 53.5855 46.8135 52.5993 45.6949C52.2082 45.2542 52.1572 44.6101 51.7321 44.1864C51.307 43.7627 50.7288 43.7457 50.1677 43.8135C48.4843 44.0339 46.784 44.3559 45.0836 44.0339C44.3524 43.8983 43.6212 43.5762 43.4342 42.7796C43.2131 41.8983 43.8593 41.2542 44.6585 41.0847C45.7297 40.8474 45.2706 39.2034 44.1994 39.4576L44.1654 39.4237Z" fill="black"/>
<path d="M78.9041 51.0509C80.5535 51.7628 81.6248 53.1356 82.3559 54.7289C82.713 55.5085 82.9681 56.3221 83.1891 57.1526C83.4442 58.1187 83.7502 59.017 84.6174 59.6102C85.3826 60.1356 86.4028 60.4068 87.304 60.5594C88.2732 60.7289 89.2935 60.7289 90.1947 60.2373C92.0821 59.1865 92.3201 56.8814 91.9631 54.9662C91.759 53.8984 90.1267 54.356 90.3307 55.4238C90.5858 56.8475 90.3477 58.9153 88.5113 58.9831C87.7121 59.017 86.8279 58.7797 86.0968 58.4916C85.2466 58.1526 85.0595 57.5424 84.8385 56.7119C84.0903 53.8645 82.628 50.8306 79.7713 49.6102C79.3462 49.4238 78.8701 49.4916 78.6151 49.9153C78.394 50.2712 78.4961 50.8984 78.9212 51.0678L78.9041 51.0509Z" fill="black"/>
<path d="M18.0135 44.7119C17.5544 43.8644 16.5512 42.2034 17.0443 41.2373C17.4354 40.4746 18.3536 40.0678 19.1867 40.0847C21.2102 40.1186 21.9074 42.4915 20.7851 43.9492C20.156 44.7627 21.4312 45.5254 22.1284 44.9831C23.0126 44.2712 24.2029 44.0509 25.3081 44.1356C26.2093 44.2034 27.6716 44.4915 27.9947 45.4915C28.2838 46.3729 27.4676 47.3051 26.7024 47.6102C25.4271 48.1186 23.9478 47.5932 22.7405 47.1017C22.0604 46.8305 21.6013 47.5932 21.6863 48.1525C21.7713 48.7119 21.8904 49.4407 21.6693 50.017C21.4312 50.6441 20.7681 50.7627 20.173 50.7966C19.5778 50.8305 18.5406 50.9153 18.1835 50.3051C17.8945 49.8136 18.3536 49.1864 18.0985 48.6271C17.4694 47.2203 15.922 48.6102 15.0888 47.5932C14.3917 46.7627 15.4459 45.5932 16.3811 46.0339C17.3673 46.4915 18.2345 45.0339 17.2313 44.5763C15.5479 43.7966 13.2694 44.8136 13.1334 46.7966C13.0654 47.7458 13.5755 48.661 14.3407 49.2034C14.7147 49.4746 15.1398 49.661 15.5989 49.7119C15.888 49.7458 16.1431 49.7458 16.4321 49.7119C16.5682 49.6949 16.7042 49.661 16.8402 49.6102C16.6362 49.1864 16.5001 49.1017 16.4831 49.3559C16.1771 49.6102 16.4491 50.6102 16.5682 50.8983C16.7722 51.3559 17.1123 51.7627 17.5544 52.017C18.4896 52.5932 19.6969 52.5932 20.7511 52.4407C21.8053 52.2881 22.7065 51.8305 23.1656 50.8644C23.6247 49.8983 23.5057 48.7627 23.3357 47.7119L22.2814 48.7627C23.9988 49.4576 26.0903 49.9492 27.8077 48.9661C29.134 48.2203 30.0862 46.5763 29.6271 45.0509C29.134 43.4237 27.3996 42.7288 25.8692 42.5085C24.0838 42.2542 22.3324 42.6441 20.9211 43.7797L22.2644 44.8136C24.2199 42.2881 22.3835 38.4407 19.1867 38.4068C17.7584 38.3898 16.2621 39.1186 15.5649 40.4068C14.6637 42.0678 15.701 44.1017 16.5342 45.5932C17.0613 46.5424 18.5406 45.6949 17.9965 44.7458L18.0135 44.7119Z" fill="black"/>
<path d="M100.89 50.661C100.567 49.983 100.091 49.0169 100.363 48.2712C100.635 47.5254 101.604 47.322 102.284 47.339C104.002 47.3729 105.107 48.8983 104.937 50.5254C104.869 51.1864 105.702 51.5424 106.212 51.2542C106.943 50.8305 107.76 50.5932 108.61 50.5763C109.154 50.5763 110.14 50.6102 110.463 51.1525C110.769 51.6441 109.868 52.0508 109.528 52.2542C108.797 52.6949 108.032 53.0847 107.232 53.3729C106.433 53.661 105.583 53.8813 104.733 54C104.053 54.1017 102.999 54.322 102.386 53.9491C101.927 53.678 101.774 53.0339 101.604 52.5593C101.366 51.8983 101.111 51.3051 100.669 50.7458C100.38 50.3898 99.7678 50.4576 99.4617 50.7458C99.1047 51.1017 99.1727 51.5932 99.4617 51.9491C99.8358 52.4237 99.9718 53.0847 100.193 53.6441C100.465 54.3051 100.805 54.9322 101.417 55.339C102.131 55.8305 103.05 55.8474 103.883 55.7966C104.784 55.7288 105.685 55.5932 106.552 55.3729C108.219 54.9322 109.902 54.2034 111.262 53.1525C111.892 52.661 112.351 51.983 112.249 51.1695C112.164 50.4068 111.619 49.7966 110.973 49.4237C109.273 48.4576 106.977 48.8813 105.362 49.7966L106.637 50.5254C106.909 47.8474 104.648 45.4746 101.944 45.6441C100.635 45.7288 99.2577 46.3559 98.7816 47.661C98.3055 48.9661 98.8666 50.3559 99.4277 51.5254C99.9038 52.5085 101.366 51.6441 100.89 50.678V50.661Z" fill="black"/>
<path d="M21.8223 92.2712C20.5641 92.1187 19.2718 92.2034 18.0475 91.8475C17.1973 91.6102 16.2451 90.9492 16.0921 90.017C15.956 89.1865 16.7042 88.6102 17.4524 88.4746C18.4726 88.3051 19.4248 89.017 20.0709 89.7289C20.445 90.1356 21.1422 90.017 21.4143 89.5594C21.7033 89.0509 21.7543 88.5085 21.7203 87.9323C21.7033 87.5933 21.6183 87.1865 21.8563 86.8984C22.3325 86.339 23.1316 86.6272 23.5057 87.1356C24.883 89.0339 22.3665 91.4407 21.3802 92.8814C20.7511 93.7797 22.2304 94.6272 22.8426 93.7289C23.7438 92.4238 24.866 91.2543 25.3421 89.7119C25.7672 88.3729 25.5802 86.8475 24.594 85.7967C23.7098 84.8475 22.2474 84.6272 21.1422 85.3221C20.5981 85.6611 20.173 86.2204 20.0539 86.8475C19.9859 87.2034 20.0029 87.5594 20.0199 87.9323C20.0199 88.2034 20.088 88.4746 19.9519 88.7119L21.2952 88.5424C20.241 87.3899 18.7447 86.5763 17.1463 86.8306C15.701 87.0678 14.4767 88.2373 14.4087 89.7289C14.3407 91.2204 15.4969 92.5594 16.7722 93.1526C18.3536 93.8984 20.139 93.7628 21.8393 93.9662C22.2985 94.017 22.6895 93.5424 22.6895 93.1187C22.6895 92.6102 22.2985 92.3221 21.8393 92.2712H21.8223Z" fill="black"/>
<path d="M47.8892 68.2542C46.0528 68.5932 44.0803 67.6271 43.1791 66.017C42.2779 64.4068 42.635 62.322 43.8423 60.9831C45.4066 59.2542 47.9062 59.322 50.0487 59.3898C50.5758 59.4068 51.1369 59.3898 51.63 59.6441C52.1401 59.9153 52.5482 60.4237 52.8883 60.8644C53.5174 61.7288 53.9595 62.7627 54.0105 63.8475C54.0276 64.4576 53.9765 65.1695 53.5855 65.661C53.2114 66.1017 52.6162 66.4068 52.1571 66.7627C51.1539 67.5424 49.9636 68.5763 48.6033 68.1017C47.5661 67.7458 47.124 69.3729 48.1442 69.7288C49.7256 70.2881 51.2559 69.5424 52.5142 68.6102C53.6875 67.7288 55.1158 66.9661 55.5409 65.4576C55.932 64.0508 55.6769 62.5254 55.0648 61.2203C54.4526 59.9153 53.4664 58.5424 52.1231 58C51.443 57.7288 50.6948 57.6949 49.9636 57.678C49.1815 57.6441 48.3993 57.6271 47.6341 57.678C46.1548 57.7797 44.6585 58.1186 43.4512 59.0339C41.4277 60.5593 40.4585 63.4237 41.2917 65.8475C42.2779 68.7288 45.4066 70.4068 48.3653 69.8644C49.4365 69.661 48.9774 68.0339 47.9062 68.2373L47.8892 68.2542Z" fill="black"/>
<path d="M67.7666 68.8644C66.6954 68.8644 66.2533 67.7288 66.2703 66.8305C66.2703 65.7797 66.6784 64.6271 67.1545 63.6949C67.6306 62.7627 68.3107 62.0678 69.314 61.7797C70.3172 61.4916 71.3374 61.6102 72.3066 61.8475C74.1771 62.3051 76.1835 63.3221 77.0167 65.1695C77.3738 65.9492 77.4758 66.8983 77.2548 67.7288C76.9997 68.6949 76.3365 69.339 75.4523 69.7627C73.2078 70.8475 70.4362 70.6949 68.2597 69.5932C67.2905 69.1017 66.4233 70.5593 67.4095 71.0509C70.0621 72.4068 73.2249 72.5763 75.9795 71.3899C77.2377 70.8475 78.258 69.9492 78.7511 68.661C79.1932 67.5085 79.1592 66.1695 78.7681 65.017C77.8839 62.4238 75.3163 60.8475 72.7657 60.2204C71.4224 59.8814 69.9261 59.7797 68.5998 60.2204C67.2735 60.661 66.2703 61.661 65.6411 62.9153C64.927 64.339 64.3659 66.1017 64.6379 67.6949C64.91 69.2882 66.1343 70.5593 67.7666 70.5424C68.8549 70.5424 68.8549 68.8475 67.7666 68.8475V68.8644Z" fill="black"/>
<path d="M45.3046 58.0508C44.3524 58.7118 43.5532 59.5084 42.873 60.4406C42.1929 61.3728 41.5638 62.5593 41.5297 63.7288C41.4617 65.9321 43.6892 67.1694 45.6447 67.2203C47.8212 67.2881 49.9636 66.2203 51.2389 64.4745C51.9021 63.5762 52.3102 62.4406 52.1911 61.322C52.0721 60.2033 51.409 59.2711 50.4738 58.6271C49.4195 57.8982 48.1102 57.6779 46.8519 57.661C45.6787 57.644 44.0463 57.5254 43.1791 58.4745C42.448 59.2881 43.6382 60.4745 44.3864 59.6779C44.5904 59.4576 44.8455 59.4237 45.1346 59.4067C45.5937 59.3728 46.0698 59.3559 46.5289 59.3559C47.3791 59.3559 48.2803 59.3898 49.0624 59.7627C49.6406 60.0338 50.1847 60.4745 50.4057 61.0847C50.6608 61.7966 50.4227 62.5932 50.0487 63.2203C49.2835 64.4915 47.8042 65.3728 46.3248 65.5084C45.2536 65.6101 43.4682 65.3389 43.2471 64.0338C43.0941 63.1525 43.7402 62.1525 44.2164 61.4745C44.7265 60.7118 45.4066 60.0508 46.1548 59.5084C46.5289 59.2372 46.6989 58.7627 46.4609 58.3559C46.2398 57.983 45.6787 57.7796 45.3046 58.0508Z" fill="black"/>
<path d="M50.4738 63.2373C49.5556 63.7796 48.5693 64.4068 48.1102 65.4068C47.6511 66.4068 47.7022 67.6949 48.6034 68.4407C50.5418 70.0339 53.7555 67.8474 53.5685 65.5254C53.5175 64.8644 53.2284 64.2203 52.7183 63.7796C52.1401 63.2712 51.46 63.0678 50.7118 63.2034C50.2697 63.2712 49.9807 63.8474 50.1167 64.2542C50.2697 64.7288 50.6948 64.9322 51.1709 64.8474C50.8989 64.8983 51.2049 64.8644 51.273 64.8474C51.1369 64.8813 51.1199 64.8135 51.2219 64.8474C51.273 64.8474 51.307 64.8644 51.358 64.8813C51.477 64.9152 51.324 64.9152 51.307 64.8474C51.307 64.8474 51.409 64.8983 51.426 64.9152C51.46 64.9322 51.494 64.9661 51.545 64.983C51.698 65.0678 51.426 64.8644 51.545 64.983C51.545 64.983 51.7491 65.1695 51.7321 65.1864C51.7321 65.1864 51.613 65 51.698 65.1525C51.7151 65.1864 51.7491 65.2373 51.7661 65.2712C51.7831 65.3051 51.8171 65.3559 51.8341 65.3898C51.9191 65.5254 51.8001 65.339 51.8171 65.339C51.8511 65.339 51.8851 65.644 51.9021 65.661C51.8851 65.661 51.9021 65.4407 51.9021 65.5932C51.9021 65.644 51.9021 65.6949 51.9021 65.7288V65.8644C51.8681 65.8644 51.9361 65.6779 51.9021 65.8135C51.8851 65.8983 51.8681 66 51.8341 66.0847L51.8001 66.1864C51.8511 66.0678 51.8511 66.0508 51.8171 66.1356L51.7831 66.2034C51.7831 66.2034 51.698 66.3559 51.647 66.4237L51.613 66.4746C51.613 66.4746 51.562 66.5423 51.647 66.4407C51.647 66.4746 51.596 66.5084 51.579 66.5254C51.511 66.5932 51.443 66.661 51.375 66.7288C51.341 66.7627 51.324 66.7796 51.29 66.8135C51.256 66.8474 51.2389 66.8644 51.2049 66.8813L51.29 66.8135C51.1879 66.9491 50.9499 67.0508 50.7968 67.1186C50.7628 67.1186 50.7288 67.1525 50.6948 67.1695C50.8479 67.0678 50.7798 67.1356 50.6948 67.1695C50.5928 67.2034 50.4908 67.2373 50.3888 67.2542C50.3718 67.2542 50.1847 67.2712 50.3207 67.2542C50.4568 67.2373 50.2697 67.2542 50.2527 67.2542C50.1677 67.2542 50.0827 67.2542 49.9977 67.2542C49.8786 67.2542 50.2187 67.3051 50.0317 67.2542C49.9977 67.2542 49.9637 67.2542 49.9297 67.2203H49.8786C49.7936 67.1695 49.8106 67.1864 49.9297 67.2203C49.9297 67.2203 49.7936 67.1356 49.7766 67.1356C49.6746 67.0847 49.8276 67.1186 49.8106 67.1695C49.8106 67.1695 49.7256 67.1017 49.7256 67.0847C49.6406 67.0169 49.7256 66.983 49.7426 67.1186C49.7426 67.1017 49.7086 67.0508 49.6916 67.0339C49.6916 67.0169 49.6406 66.9152 49.6236 66.8983C49.6236 66.8983 49.6916 67.1017 49.6576 66.9661C49.6236 66.8813 49.6236 66.7796 49.5896 66.6949C49.5556 66.5932 49.5896 66.9152 49.5896 66.7457C49.5896 66.7118 49.5896 66.6779 49.5896 66.644C49.5896 66.5593 49.5896 66.4745 49.5896 66.3898C49.5896 66.5762 49.5726 66.5254 49.5896 66.4576C49.5896 66.4068 49.6066 66.3559 49.6236 66.3051C49.6236 66.2373 49.7086 66.1186 49.7086 66.0508L49.6576 66.1525C49.6576 66.1525 49.6916 66.0847 49.7086 66.0678C49.7256 66.0169 49.7596 65.983 49.7766 65.9322C49.7936 65.8983 49.8276 65.8644 49.8446 65.8305C49.8616 65.7966 49.8956 65.7627 49.9127 65.7288L49.8616 65.7966C49.8956 65.7118 50.0317 65.5932 50.0997 65.5254C50.1677 65.4576 50.2527 65.3898 50.3207 65.322C50.3547 65.2881 50.5078 65.1525 50.3377 65.3051C50.3888 65.2712 50.4398 65.2373 50.4908 65.2034C50.5758 65.1356 50.6778 65.0678 50.7798 65.0169C50.9839 64.8813 51.1879 64.7627 51.392 64.644C51.7831 64.4237 51.9531 63.8644 51.698 63.4915C51.443 63.1186 50.9499 62.9491 50.5418 63.1864L50.4738 63.2373Z" fill="black"/>
<path d="M44.0123 66.5932C44.0463 67.0847 44.2504 67.5593 44.6415 67.8814C44.9985 68.1695 45.4066 68.3729 45.8487 68.4576C46.4098 68.5763 47.005 68.5932 47.5321 68.3559C48.1102 68.0847 48.5353 67.322 48.2803 66.6949C48.1952 66.4746 48.0932 66.3051 47.8892 66.1864C47.7021 66.0847 47.4301 66.0339 47.226 66.1017C47.022 66.1695 46.8179 66.2881 46.7159 66.4915C46.6139 66.6949 46.5459 66.9322 46.6309 67.1525C46.6309 67.1864 46.6479 67.2203 46.6649 67.2542L46.6309 67.0339C46.6309 67.0339 46.6309 67.1186 46.6309 67.1695L46.6649 66.9492C46.6649 66.9492 46.6479 67.0339 46.6309 67.0847L46.7159 66.8814C46.7159 66.8814 46.6649 66.9661 46.6479 67L46.7839 66.8305C46.7839 66.8305 46.6989 66.9153 46.6479 66.9492L46.8179 66.8136C46.8179 66.8136 46.7329 66.8644 46.6819 66.8983L46.886 66.8136C46.886 66.8136 46.7159 66.8644 46.6309 66.8814L46.8519 66.8475C46.6649 66.8644 46.4779 66.8475 46.2738 66.8475L46.4949 66.8814C46.2738 66.8475 46.0358 66.7966 45.8317 66.7119L46.0358 66.7966C45.8997 66.7458 45.7807 66.661 45.6617 66.5763L45.8317 66.7119C45.8317 66.7119 45.6957 66.5932 45.6277 66.5085L45.7637 66.678C45.7637 66.678 45.6787 66.5424 45.6447 66.4746L45.7297 66.678C45.7297 66.678 45.6787 66.5424 45.6787 66.4746L45.7127 66.6949V66.6271C45.6957 66.4068 45.6277 66.1864 45.4576 66.0339C45.3046 65.8814 45.0665 65.7797 44.8625 65.7797C44.4204 65.7966 43.9783 66.1525 44.0123 66.6271V66.5932Z" fill="black"/>
<path d="M51.324 59.4576V61.4576C51.324 61.7966 51.324 62.1356 51.324 62.4915C51.324 62.8475 51.3239 63.2373 51.528 63.5593C51.9361 64.2203 52.8033 64.3559 53.4324 63.9322C54.0616 63.5085 54.1976 62.7288 54.1126 62L52.5312 62.4237C52.5312 62.4237 52.6673 62.7288 52.6332 62.6271C52.6843 62.7458 52.7183 62.8475 52.7353 62.9661C52.7523 63.0848 52.7863 63.2034 52.8033 63.322C52.7863 63.1865 52.8033 63.4746 52.8033 63.4915C52.8033 63.5932 52.8033 63.6949 52.8033 63.7966C52.8033 63.8644 52.8033 63.9153 52.8033 63.9831C52.8033 63.8983 52.8033 63.9153 52.8033 64.017C52.7863 64.1356 52.7523 64.2542 52.7183 64.3729C52.7183 64.4068 52.5992 64.678 52.6502 64.5932C52.4632 65.017 52.5312 65.5085 52.9563 65.7458C53.3134 65.9492 53.9255 65.8644 54.1126 65.4407C54.6737 64.1865 54.6567 62.7966 53.9935 61.5593C53.8235 61.2373 53.3814 61.0678 53.0413 61.1695C52.7183 61.2542 52.3782 61.6271 52.4122 61.9831C52.4292 62.1356 52.4632 62.4237 52.4462 62.5085C52.4462 62.4576 52.4462 62.4746 52.4292 62.5763C52.4292 62.5424 52.4632 62.5085 52.4972 62.4746C52.4122 62.5763 52.5142 62.4746 52.5822 62.4407C52.4462 62.4915 52.6502 62.4407 52.7183 62.4576C52.8543 62.4915 52.9393 62.5593 52.9733 62.661C53.0243 62.7797 53.0413 62.7797 53.0073 62.661C53.0073 62.7458 53.0073 62.7458 53.0073 62.6271V62.5424C53.0073 62.4237 53.0073 62.2881 53.0073 62.1695V59.4068C53.0073 58.9661 52.6162 58.5424 52.1571 58.5593C51.698 58.5763 51.3069 58.9322 51.3069 59.4068L51.324 59.4576Z" fill="black"/>
<path d="M72.9528 60.1355C71.2864 59.9152 69.518 60.5932 68.3788 61.8305C67.1545 63.1694 66.5254 65.4406 68.0897 66.7966C68.7019 67.322 69.467 67.6271 70.2662 67.7796C71.1674 67.9322 72.1196 67.9999 73.0208 67.8135C74.8232 67.4406 75.7414 65.6271 75.4524 63.9152C75.1293 61.9322 73.0378 60.7627 71.1674 60.7627C70.0792 60.7627 70.0792 62.4576 71.1674 62.4576C71.3204 62.4576 71.4735 62.4576 71.6265 62.4745C71.4735 62.4576 71.7625 62.5084 71.7625 62.5084C71.8306 62.5084 71.8816 62.5423 71.9496 62.5423C72.3237 62.6271 72.4767 62.6949 72.7658 62.8644C73.0548 63.0338 73.1399 63.1016 73.3609 63.3559C73.4969 63.4915 73.4459 63.4406 73.5479 63.6101C73.599 63.6949 73.633 63.7627 73.684 63.8474C73.769 63.9999 73.684 63.7627 73.718 63.9322C73.752 64.0677 73.786 64.1864 73.82 64.322C73.786 64.1694 73.82 64.322 73.82 64.3728C73.82 64.4406 73.82 64.5084 73.82 64.5762C73.82 64.644 73.82 64.7118 73.82 64.7796C73.82 64.8305 73.786 64.9999 73.82 64.8305C73.786 64.983 73.752 65.1355 73.701 65.2881C73.65 65.4406 73.684 65.3389 73.701 65.2881C73.667 65.3559 73.633 65.4237 73.599 65.4915C73.5649 65.5423 73.5479 65.5762 73.5139 65.6271C73.3949 65.8135 73.616 65.5423 73.4629 65.6949C73.4289 65.7288 73.3949 65.7627 73.3609 65.8135C73.3609 65.8135 73.1569 65.983 73.2929 65.8813C73.1739 65.966 73.0548 66.0339 72.9188 66.0847C72.3237 66.305 71.5925 66.2372 70.9464 66.1694C70.7763 66.1525 71.1504 66.2033 70.8783 66.1694C70.8273 66.1694 70.7593 66.1525 70.7083 66.1355C70.5723 66.1016 70.4192 66.0847 70.2832 66.0338C70.1472 65.983 70.0112 65.9491 69.8751 65.8983C69.6371 65.8135 69.9941 65.966 69.7731 65.8474C69.7051 65.8135 69.6201 65.7796 69.5521 65.7288C69.484 65.6779 69.416 65.644 69.348 65.5932C69.382 65.6101 69.45 65.6949 69.348 65.5932C69.297 65.5423 69.229 65.4745 69.178 65.4237C69.161 65.4067 69.0759 65.305 69.161 65.4237C69.1099 65.3559 69.0759 65.2881 69.0249 65.2203C69.0249 65.2203 68.9569 65.0677 69.0079 65.2033C68.9399 65.0339 68.9059 64.8474 68.9059 64.7457C68.9059 64.1864 69.195 63.5593 69.518 63.1864C70.4192 62.1525 71.6265 61.6779 73.0038 61.8644C73.4629 61.9322 73.854 61.4237 73.854 61.0169C73.854 60.5084 73.4629 60.2372 73.0038 60.1694L72.9528 60.1355Z" fill="black"/>
<path d="M73.803 66.6102C72.6807 66.9153 71.3544 67.4915 70.7083 68.5085C70.3342 69.1017 70.3002 69.8305 70.6233 70.4576C70.8783 70.9322 71.3204 71.2882 71.7965 71.5424C72.9018 72.1187 74.2791 72.4237 75.4523 71.8475C76.0135 71.5763 76.4556 71.0509 76.6256 70.4576C76.7957 69.8644 76.6766 69.2204 76.3876 68.678C75.6904 67.3899 74.109 66.8814 72.7317 67.1187C72.2896 67.2034 72.0006 67.7627 72.1366 68.1695C72.2896 68.6441 72.7147 68.8475 73.1908 68.7627C73.3609 68.7288 73.2078 68.7627 73.1908 68.7627C73.2419 68.7627 73.2929 68.7627 73.3439 68.7627C73.4459 68.7627 73.5479 68.7627 73.6329 68.7627C73.684 68.7627 73.735 68.7627 73.786 68.7627C73.6159 68.7458 73.735 68.7627 73.786 68.7627C73.905 68.7966 74.024 68.8136 74.1431 68.8644C74.1941 68.8644 74.2281 68.8983 74.2791 68.9153C74.1261 68.8475 74.2451 68.9153 74.2791 68.9153C74.3641 68.9661 74.4491 69 74.5341 69.0678C74.5681 69.1017 74.6192 69.1187 74.6532 69.1526C74.5171 69.0509 74.6022 69.1187 74.6362 69.1526C74.7212 69.2373 74.7892 69.3051 74.8742 69.3898C74.7552 69.2543 74.9082 69.4407 74.9252 69.4915C74.9422 69.5254 74.9592 69.5763 74.9932 69.6102C75.0273 69.661 75.0273 69.7458 74.9932 69.5932C75.0102 69.678 75.0443 69.7627 75.0613 69.8475C75.0953 69.9661 75.0783 69.8475 75.0613 69.8136C75.0783 69.8305 75.0613 69.9492 75.0613 69.9661C75.0613 70.0848 75.1293 69.7797 75.0613 69.9661L75.0273 70.0848C75.0273 70.0848 75.1293 69.8983 75.0273 70.0509L74.9592 70.1526C74.9592 70.1526 74.8742 70.2204 74.9762 70.1356C74.9422 70.1695 74.9252 70.2034 74.8912 70.2204C74.8572 70.2543 74.8232 70.2712 74.7892 70.3051C74.8742 70.2373 74.8572 70.2543 74.7892 70.3051C74.7552 70.3221 74.7212 70.356 74.6702 70.3729C74.6362 70.3729 74.5171 70.4407 74.6192 70.3898C74.7212 70.339 74.6022 70.3898 74.5681 70.3898C74.5341 70.3898 74.4831 70.4068 74.4491 70.4237C74.4151 70.4407 74.3641 70.4407 74.3301 70.4576C74.2111 70.4915 74.4661 70.4576 74.3301 70.4576C74.2111 70.4576 74.092 70.4576 73.956 70.4576C73.701 70.4576 74.041 70.4746 73.905 70.4576C73.854 70.4576 73.803 70.4407 73.752 70.4237C73.6499 70.4068 73.5309 70.3729 73.4289 70.339C73.3269 70.3051 73.2248 70.2712 73.1058 70.2373C73.0548 70.2204 73.0038 70.2034 72.9528 70.1865L72.8508 70.1526L72.9358 70.1865C72.9358 70.1865 72.7487 70.1017 72.6977 70.0848C72.6127 70.0509 72.5447 70 72.4767 69.9492C72.4427 69.9322 72.4087 69.8983 72.3747 69.8814C72.2216 69.7797 72.4087 69.8814 72.3917 69.8983C72.3577 69.9153 72.2046 69.678 72.1706 69.678C72.1876 69.678 72.2726 69.8475 72.2046 69.7119C72.2046 69.7119 72.1366 69.6102 72.1536 69.6102C72.1536 69.6102 72.2046 69.7797 72.1706 69.6441C72.1706 69.6441 72.1366 69.5424 72.1366 69.5254C72.1366 69.5424 72.1366 69.6949 72.1366 69.5593C72.1366 69.3729 72.1366 69.5932 72.1366 69.5932L72.1706 69.4746C72.2216 69.3051 72.0856 69.5932 72.1876 69.4407C72.2046 69.4068 72.2386 69.356 72.2556 69.3221C72.2046 69.4238 72.2046 69.3729 72.2556 69.3221C72.3236 69.2373 72.4087 69.1695 72.4767 69.1017C72.5957 69 72.4937 69.0848 72.4767 69.1017C72.5277 69.0678 72.5957 69.017 72.6467 68.9831C72.7487 68.9153 72.8508 68.8644 72.9528 68.7966C73.0718 68.7288 73.1908 68.661 73.3099 68.6102C73.3609 68.5932 73.4119 68.5593 73.4629 68.5424C73.5139 68.5254 73.6329 68.4746 73.5139 68.5085C73.769 68.4068 74.024 68.3221 74.2791 68.2543C74.7042 68.1356 75.0102 67.6441 74.8742 67.2034C74.7382 66.7627 74.2961 66.4915 73.82 66.6102H73.803Z" fill="black"/>
<path d="M75.3503 64.5423L75.1463 67.4067C75.1123 67.8644 75.5714 68.2542 75.9965 68.2542C77.1017 68.2711 77.5268 67.1525 77.7479 66.2542C77.8669 65.7288 77.9349 65.1525 77.7819 64.6271C77.6458 64.1356 77.3398 63.7118 76.9827 63.3728C76.6426 63.0508 76.2175 62.6949 75.7754 62.5423C75.2143 62.3389 74.6362 62.5932 74.3131 63.0678C73.803 63.8135 74.058 64.9491 74.2111 65.7796C74.4151 66.8474 74.8062 67.8813 75.3503 68.8305C75.5714 69.2203 76.1325 69.3728 76.5066 69.1356C76.8807 68.8983 77.0507 68.3898 76.8127 67.983C76.3876 67.2034 76.1155 66.5423 75.9115 65.644C75.7924 65.1356 75.7584 64.8983 75.7244 64.4237C75.7244 64.3389 75.7244 64.2711 75.7244 64.1864C75.7244 64.1525 75.7244 64.1017 75.7244 64.0678C75.7244 63.9661 75.7244 63.983 75.7244 64.1017C75.7244 64.1017 75.7584 63.9322 75.7754 63.9322C75.7244 64.0508 75.7244 64.0508 75.7754 63.983C75.6904 64.0847 75.6734 64.1017 75.7414 64.0339C75.6394 64.1356 75.5204 64.1864 75.3673 64.1864C75.3163 64.1864 75.2823 64.1864 75.2483 64.1525C75.1973 64.1356 75.2143 64.1525 75.2823 64.1864C75.3333 64.2203 75.3673 64.2542 75.4184 64.2711C75.5034 64.3389 75.5884 64.3898 75.6734 64.4576C75.5544 64.3559 75.7414 64.5254 75.7584 64.5254C75.8434 64.5932 75.9115 64.661 75.9795 64.7457C76.0135 64.7796 76.0475 64.8305 76.0815 64.8644C76.0305 64.8135 76.0305 64.7966 76.0645 64.8644C76.0815 64.8983 76.2005 65.1356 76.1325 64.9661C76.1495 65.0169 76.1665 65.0847 76.1835 65.1356C76.2005 65.2372 76.2005 65.2542 76.1835 65.1864C76.2005 65.4237 76.1835 65.5084 76.1495 65.6949C76.0985 65.9152 76.0475 66.1186 75.9795 66.322C75.9795 66.3559 75.8605 66.6271 75.9455 66.4406C75.9115 66.5084 75.8775 66.5593 75.8605 66.6271C75.8094 66.7118 75.8094 66.6949 75.8775 66.6271C75.8434 66.661 75.8264 66.6949 75.7924 66.7118C75.8434 66.661 75.8945 66.6271 75.9625 66.6101C76.0985 66.6101 76.1155 66.6101 76.0135 66.6101L76.8637 67.4576L77.0677 64.5932C77.1017 64.1525 76.6596 63.7288 76.2175 63.7457C75.7244 63.7627 75.4013 64.1186 75.3673 64.5932L75.3503 64.5423Z" fill="black"/>
<path d="M67.2735 65.3559C66.5254 65.0847 65.6071 65.4576 65.2501 66.1525C64.995 66.644 65.2161 67.2372 65.7602 67.3898C65.9302 67.4406 66.1173 67.4745 66.3043 67.5084C66.4403 67.5254 66.5594 67.5423 66.6954 67.5593C66.6954 67.5593 66.9675 67.5932 66.7804 67.5593C66.9334 67.5762 67.1035 67.6101 67.2565 67.661C67.3075 67.661 67.5116 67.7796 67.3245 67.6779C67.3755 67.7118 67.4436 67.7457 67.4946 67.7627C67.6646 67.8474 67.4096 67.661 67.5286 67.7796C67.5626 67.8135 67.5966 67.8305 67.6136 67.8644L67.5626 67.7966C67.5626 67.7966 67.6136 67.8644 67.6306 67.8982C67.5966 67.7966 67.5796 67.7796 67.5966 67.8305C67.5966 67.8982 67.5966 67.8644 67.5966 67.7457C67.5966 67.7796 67.5966 67.8135 67.5966 67.8474V67.7288C67.5966 67.7288 67.5966 67.7966 67.5796 67.8305C67.6306 67.7288 67.6306 67.6949 67.6136 67.7457C67.5796 67.7966 67.6136 67.7796 67.6646 67.6779C67.6476 67.7118 67.6136 67.7288 67.5966 67.7457L67.6816 67.6779C67.8176 67.6271 67.8346 67.6271 67.7496 67.644C67.8857 67.644 67.9197 67.6271 67.8176 67.6271C67.2395 67.6101 66.8824 68.1864 67.0015 68.6949C67.1715 69.5423 68.0727 70.0677 68.8889 70.0508C69.7901 70.0338 70.4872 69.4406 71.0994 68.8305C71.5075 68.4237 71.3714 67.7966 70.9293 67.4915L69.9601 66.8474C69.552 66.5762 68.7869 66.8305 68.7188 67.3559L68.4808 69.0847C68.4468 69.322 68.4468 69.5254 68.5658 69.7457C68.6678 69.9152 68.8719 70.0847 69.0759 70.1355C69.467 70.2203 70.0621 70.0169 70.1302 69.5423L70.3682 67.8135L69.1269 68.322L70.0962 68.966L69.9261 67.6271C69.8241 67.7288 69.7221 67.8305 69.603 67.9321C69.552 67.966 69.518 68.0169 69.467 68.0508C69.416 68.1016 69.348 68.1525 69.433 68.0847C69.314 68.1694 69.195 68.2372 69.0589 68.305C69.1609 68.2542 69.1099 68.305 69.0249 68.305C68.9909 68.305 68.9569 68.322 68.9229 68.3389C68.8549 68.3389 68.8549 68.3389 68.9229 68.3389C68.9909 68.3389 68.9909 68.3389 68.9229 68.3389H68.8719C68.8719 68.3389 68.8209 68.3389 68.7869 68.3389C68.7188 68.3389 68.7529 68.3389 68.8719 68.3389L68.7018 68.305C68.5658 68.2711 68.7869 68.3728 68.7188 68.305L68.5998 68.2372C68.6848 68.305 68.7188 68.322 68.6678 68.2881C68.6508 68.2711 68.6338 68.2542 68.6168 68.2372C68.6848 68.3389 68.7018 68.3559 68.6678 68.305C68.6678 68.2881 68.6338 68.2542 68.6338 68.2372C68.6678 68.2372 68.7018 68.4406 68.6508 68.2372L67.8346 69.305C69.0759 69.3559 69.7051 67.7965 69.0249 66.8474C68.7018 66.4067 68.2427 66.1186 67.7156 65.966C67.4436 65.8813 67.1375 65.8643 66.8484 65.8305C66.8484 65.8305 66.6784 65.8135 66.7634 65.8305C66.8654 65.8305 66.6614 65.8305 66.6444 65.8135C66.5083 65.7966 66.3893 65.7627 66.2533 65.7288L66.7634 66.966L66.8144 66.8644C66.8144 66.8644 66.6784 66.9999 66.7974 66.9152L66.7124 66.983L66.7634 66.9491L66.8144 66.9152C66.7124 66.9491 66.6784 66.966 66.7464 66.9491C66.7804 66.9491 66.8314 66.9321 66.8484 66.9152C66.9505 66.8643 66.6784 66.9491 66.7974 66.9152C66.8144 66.9152 66.8314 66.9152 66.8484 66.9152C66.8994 66.9152 66.8824 66.9152 66.8144 66.9152C66.7464 66.9152 66.7464 66.9152 66.7804 66.9152C66.8144 66.9152 66.8314 66.9152 66.8654 66.9491C67.2905 67.1016 67.8176 66.7796 67.9197 66.3559C68.0217 65.8813 67.7666 65.4745 67.3245 65.305L67.2735 65.3559Z" fill="black"/>
<path d="M66.5934 63.9492C66.8314 64.5763 66.9845 65.2373 67.0865 65.8983L67.0525 65.678C67.0695 65.8644 67.1035 66.0509 67.1035 66.2373C67.1035 66.4576 67.1885 66.678 67.3586 66.8305C67.5116 66.9831 67.7496 67.0848 67.9537 67.0848C68.3958 67.0678 68.8379 66.7119 68.8039 66.2373C68.7359 65.3051 68.5488 64.3898 68.2257 63.5085C68.1407 63.3051 68.0387 63.1187 67.8347 63C67.6476 62.8983 67.3756 62.8475 67.1715 62.9153C66.7634 63.0509 66.4063 63.5085 66.5764 63.9661L66.5934 63.9492Z" fill="black"/>
<path d="M6.85899 49.1187C6.79097 49.9492 6.91 50.7966 7.16505 51.5763C7.23307 51.7797 7.3691 51.9661 7.55614 52.0848C7.74318 52.1865 8.01525 52.2373 8.21929 52.1695C8.64439 52.0339 8.96746 51.5763 8.81442 51.1187C8.6954 50.7797 8.61038 50.4238 8.55937 50.0509L8.59338 50.2712C8.54236 49.8814 8.52536 49.4916 8.55937 49.1017C8.55937 48.8983 8.45734 48.6441 8.30431 48.5085C8.15128 48.3729 7.91322 48.2543 7.70918 48.2543C7.50513 48.2543 7.26708 48.339 7.11404 48.5085C6.96101 48.678 6.87599 48.8814 6.85899 49.1017V49.1187Z" fill="black"/>
<path d="M6.75695 56.0508L8.72939 54.9491C8.91643 54.8474 9.06947 54.644 9.12048 54.4406C9.17149 54.2372 9.15449 53.966 9.03546 53.7796C8.7804 53.3898 8.28729 53.2372 7.8792 53.4745L5.90676 54.5762C5.71972 54.6779 5.56668 54.8813 5.51567 55.0847C5.46466 55.2881 5.48166 55.5593 5.60069 55.7457C5.85575 56.1355 6.34886 56.2881 6.75695 56.0508Z" fill="black"/>
<path d="M11.0249 53.5593L12.7083 53C12.9124 52.9322 13.0994 52.8136 13.2184 52.6102C13.3204 52.4237 13.3715 52.1526 13.3034 51.9492C13.2354 51.7458 13.1164 51.5424 12.9124 51.4407C12.7083 51.339 12.4703 51.2881 12.2492 51.3559L10.5658 51.9153C10.3618 51.9831 10.1747 52.1017 10.0557 52.3051C9.95369 52.4915 9.90268 52.7627 9.9707 52.9661C10.0387 53.1695 10.1577 53.3729 10.3618 53.4746C10.5658 53.5763 10.8039 53.6271 11.0249 53.5593Z" fill="black"/>
<path d="M11.0759 56.9152L11.6541 58.5932C11.7221 58.7966 11.8411 58.983 12.0451 59.1017C12.2322 59.2033 12.5042 59.2542 12.7083 59.1864C12.9123 59.1186 13.1164 59 13.2184 58.7966C13.3204 58.5932 13.3714 58.3559 13.3034 58.1356L12.7253 56.4576C12.6573 56.2542 12.5383 56.0678 12.3342 55.9491C12.1472 55.8474 11.8751 55.7966 11.6711 55.8644C11.467 55.9322 11.263 56.0508 11.1609 56.2542C11.0589 56.4576 11.0079 56.6949 11.0759 56.9152Z" fill="black"/>
<path d="M111.398 68.7796C110.191 69.1186 109.086 69.7457 108.185 70.6101C107.862 70.9152 107.845 71.5084 108.185 71.8135C108.525 72.1186 109.035 72.1355 109.392 71.8135C109.545 71.6779 109.681 71.5423 109.851 71.4237C109.902 71.3898 109.868 71.4067 109.766 71.4745L109.834 71.4237C109.834 71.4237 109.919 71.3728 109.953 71.3389C110.038 71.2881 110.106 71.2372 110.191 71.1864C110.531 70.9661 110.888 70.7796 111.245 70.6271L111.041 70.7118C111.313 70.5932 111.585 70.5084 111.858 70.4237C112.283 70.305 112.589 69.8135 112.453 69.3728C112.317 68.9322 111.858 68.661 111.398 68.7796Z" fill="black"/>
<path d="M105.702 67.5932V69.2711C105.702 69.4915 105.804 69.7118 105.957 69.8644C106.11 70.0169 106.348 70.1186 106.552 70.1186C106.756 70.1186 106.994 70.0339 107.147 69.8644C107.301 69.6949 107.403 69.4915 107.403 69.2711V67.5932C107.403 67.3728 107.301 67.1525 107.147 67C106.994 66.8474 106.756 66.7457 106.552 66.7457C106.348 66.7457 106.11 66.8305 105.957 67C105.804 67.1695 105.702 67.3728 105.702 67.5932Z" fill="black"/>
<path d="M103.186 72.644H105.719C106.161 72.644 106.586 72.2542 106.569 71.7966C106.552 71.3389 106.195 70.9491 105.719 70.9491H103.186C102.743 70.9491 102.318 71.3389 102.335 71.7966C102.352 72.2542 102.709 72.644 103.186 72.644Z" fill="black"/>
<path d="M106.892 74.5254L107.709 76.7797C107.794 76.9831 107.896 77.1695 108.1 77.2882C108.287 77.3898 108.559 77.4407 108.763 77.3729C108.967 77.3051 109.171 77.1865 109.273 76.9831C109.375 76.7797 109.443 76.5424 109.358 76.3221L108.542 74.0678C108.457 73.8644 108.355 73.678 108.151 73.5593C107.964 73.4577 107.692 73.4068 107.488 73.4746C107.283 73.5424 107.079 73.661 106.977 73.8644C106.875 74.0678 106.807 74.3051 106.892 74.5254Z" fill="black"/>
<path d="M95.5339 95.9831C95.1768 95.322 94.6837 94.5085 94.7857 93.7288C94.8367 93.2712 95.2958 92.5593 95.8229 92.8644C96.197 93.0848 96.367 93.7119 96.5031 94.0848C96.7071 94.678 96.9112 95.2712 97.2342 95.7966C97.4553 96.1526 98.0164 96.3729 98.3905 96.1017C99.0536 95.6271 99.7508 95.2881 100.567 95.1356C101.213 95.017 102.148 94.9492 102.726 95.322C103.424 95.7627 102.284 96.4237 101.876 96.6441C101.128 97.0339 100.278 97.1864 99.4447 97.0339C98.7306 96.9153 98.1014 97.5932 98.4925 98.2712C98.8836 98.9492 98.6626 99.9661 97.9144 100.322C97.1662 100.678 96.282 100.17 95.959 99.4576C95.7209 98.9492 94.9897 98.9322 94.6157 99.2881C93.6804 100.186 91.64 100.932 90.5007 99.9492C89.8886 99.4407 91.0449 98.9153 91.4359 98.7797C92.3371 98.4407 93.2553 98.322 94.2246 98.3898C95.3128 98.4576 95.3128 96.7627 94.2246 96.6949C92.7962 96.6102 91.1809 96.8644 89.9566 97.6271C88.9024 98.2881 88.1712 99.5424 88.9194 100.729C89.5825 101.763 91.0279 102.102 92.2011 102.068C93.5784 102.017 94.8537 101.458 95.8399 100.508L94.4966 100.339C95.2108 101.881 97.2682 102.627 98.7816 101.814C100.295 101 100.822 98.9322 99.9719 97.4407L99.0196 98.678C100.38 98.8983 101.757 98.7119 102.948 98C104.019 97.3559 105.192 96.1187 104.512 94.7966C103.951 93.7119 102.59 93.4068 101.485 93.3898C100.074 93.3729 98.6796 93.8305 97.5403 94.661L98.6966 94.9661C97.8294 93.5085 97.6253 90.7966 95.2788 91.1356C94.2246 91.2881 93.3914 92.2203 93.1703 93.2373C92.8813 94.5254 93.4934 95.7627 94.0885 96.8644C94.6156 97.8305 96.078 96.9661 95.5509 96.017L95.5339 95.9831Z" fill="black"/>
<path d="M33.2489 67.8983C33.2149 68.7627 33.623 69.6271 34.2691 70.2033C35.0173 70.8644 35.9525 71.1694 36.9557 71.2033C37.8569 71.2203 38.8431 71.0677 39.6933 70.7627C40.5435 70.4576 41.2917 69.9491 41.5638 69.0508C41.8868 68 40.2375 67.5593 39.9314 68.5932V68.6779C39.9314 68.6779 39.9314 68.6101 39.9144 68.6779C39.9144 68.7118 39.7954 68.8474 39.8804 68.7457C39.8464 68.7966 39.7954 68.8305 39.7614 68.8644C39.6593 68.9491 39.7614 68.8644 39.6933 68.9152C39.4383 69.0847 39.3533 69.1186 39.0812 69.2033C38.4351 69.4067 37.7549 69.5423 37.0918 69.5254C36.7687 69.5254 36.4626 69.4915 36.1565 69.3898C36.0035 69.3389 35.6804 69.1864 35.5784 69.0847C35.3404 68.8983 35.2383 68.7796 35.1193 68.5423C35.0173 68.3559 35.0683 68.4406 35.0003 68.2372C34.9663 68.1525 34.9833 68.1016 34.9833 67.9152C35.0003 67.4576 34.5752 67.0677 34.1331 67.0677C33.657 67.0677 33.2999 67.4576 33.2829 67.9152L33.2489 67.8983Z" fill="black"/>
<path d="M35.8505 70.5593C35.6464 72.0169 35.4424 73.4576 35.2553 74.9152C35.1023 76.0169 34.9493 77.1356 35.7314 78.0508C36.3606 78.7627 37.2788 79.1186 38.197 79.2712C39.4383 79.4576 41.0366 79.0339 42.1419 79.7457C43.2471 80.4576 43.2811 82.0169 43.3322 83.2034C43.3832 84.3898 43.6212 85.4407 44.5394 86.2542C46.1378 87.678 48.5353 87.5254 50.4567 87C51.766 86.6441 53.0923 86.0678 54.4696 86.1186C56.136 86.1864 57.0202 87.1525 58.1085 88.2542C59.8428 90.0169 62.5125 90.2203 64.842 89.8813C65.7432 89.7457 66.6104 89.3729 66.9845 88.4746C67.1715 88.0169 67.1375 87.5593 67.2055 87.0847C67.3075 86.2542 67.7496 85.6271 68.5148 85.2542C70.8953 84.0847 73.5309 86.5254 75.7924 84.7796C77.4588 83.4915 77.5098 80.7627 79.5163 79.8983C80.7065 79.3898 81.7438 79.0339 82.2199 77.7288C82.611 76.678 82.4749 75.4915 81.7948 74.5932C81.1146 73.6949 79.6523 74.5932 80.3324 75.4407C81.0126 76.2881 80.8596 77.4237 79.8733 77.9491C78.9721 78.4237 78.0709 78.5763 77.3398 79.3559C76.2855 80.5085 76.0305 82.339 74.8402 83.3559C73.922 84.1525 72.6467 83.5593 71.6095 83.3559C70.4532 83.1356 69.246 83.1186 68.1237 83.5593C67.3585 83.8474 66.6784 84.3559 66.2023 85.0169C65.9302 85.3898 65.7262 85.8135 65.6071 86.2542C65.4711 86.7796 65.6752 87.661 65.2161 88.0169C64.6379 88.4746 63.0566 88.2712 62.3764 88.2373C60.9141 88.1695 59.9279 87.7119 58.9587 86.6271C57.4623 84.983 55.5919 84.1864 53.3644 84.4915C51.1369 84.7966 49.0114 86.1695 46.7839 85.5424C45.5597 85.2034 45.1346 84.4407 45.0665 83.2034C44.9985 82.1356 44.9815 81.1525 44.5564 80.1525C44.1653 79.2203 43.4852 78.4407 42.533 78.0508C41.3937 77.5763 40.1864 77.7457 38.9962 77.661C37.8059 77.5763 36.7347 77.2034 36.8537 75.8644C36.9897 74.2542 37.2958 72.6271 37.5168 71.0339C37.6699 69.9661 36.0205 69.5085 35.8845 70.5763L35.8505 70.5593Z" fill="black"/>
<path d="M78.105 71.1695C77.6629 72.2373 78.071 73.4576 78.8021 74.2881C79.6013 75.1695 80.8596 75.5085 82.0158 75.5254C84.3794 75.5763 87.083 74.5085 87.7461 72.0339C88.0352 70.9831 86.3858 70.5254 86.1138 71.5763C85.6717 73.2203 83.8012 73.7966 82.2879 73.8305C81.5907 73.8305 80.7916 73.7458 80.2304 73.2881C79.7033 72.8475 79.4993 72.2203 79.7543 71.6271C79.9244 71.2034 79.5673 70.6949 79.1592 70.5763C78.6661 70.4407 78.292 70.7458 78.105 71.1695Z" fill="black"/>
<path d="M58.2105 57.1017L57.6664 58.2204C57.5984 58.3221 57.5644 58.4238 57.5644 58.5424C57.5474 58.6611 57.5474 58.7628 57.5644 58.8814C57.5984 59 57.6494 59.0848 57.7174 59.1695C57.7854 59.2543 57.8534 59.339 57.9554 59.3899C58.1595 59.4916 58.3975 59.5424 58.6186 59.4746C58.8226 59.4068 59.0267 59.2882 59.1287 59.0848L59.6728 57.9661C59.7408 57.8644 59.7749 57.7627 59.7749 57.6441C59.7919 57.5255 59.7919 57.4238 59.7749 57.3051C59.7409 57.1865 59.6898 57.1017 59.6218 57.017C59.5538 56.9322 59.4858 56.8475 59.3838 56.7966C59.1797 56.6949 58.9417 56.6441 58.7206 56.7119C58.5166 56.7797 58.3125 56.8983 58.2105 57.1017Z" fill="black"/>
<path d="M61.0671 58.2372V58.7966C61.0671 58.9152 61.0841 59.0169 61.1352 59.1186C61.1692 59.2203 61.2202 59.322 61.3052 59.3898C61.3902 59.4745 61.4752 59.5254 61.5773 59.5593C61.6793 59.6101 61.7813 59.644 61.9003 59.6271L62.1214 59.5932C62.2574 59.5593 62.3934 59.4745 62.4955 59.3728L62.6315 59.2033C62.7165 59.0678 62.7505 58.9322 62.7505 58.7796V58.2203C62.7505 58.1016 62.7335 58 62.6825 57.8983C62.6485 57.7966 62.5975 57.6949 62.5125 57.6271C62.4274 57.5423 62.3424 57.4915 62.2404 57.4576C62.1384 57.4067 62.0364 57.3728 61.9173 57.3898L61.6963 57.4237C61.5602 57.4576 61.4242 57.5423 61.3222 57.644L61.1862 57.8135C61.1011 57.9491 61.0671 58.0847 61.0671 58.2372Z" fill="black"/>
<path d="M71.7455 70.7627C71.5415 72.2034 71.3374 73.8136 72.1536 75.1187C72.3747 75.4746 72.6807 75.8475 73.0888 76.0339C73.5989 76.2712 74.1601 76.2543 74.6532 75.9661C75.3843 75.5594 75.8434 74.7119 76.0815 73.9492C76.3536 73.1017 76.3365 72.1526 76.0815 71.3051C75.9455 70.8814 75.4864 70.5763 75.0273 70.7119C74.6022 70.8475 74.2791 71.3051 74.4321 71.7627C74.4831 71.9153 74.5682 72.1356 74.5682 72.3051C74.5682 72.0848 74.5682 72.3729 74.5682 72.4238C74.5682 72.5085 74.5682 72.6102 74.5682 72.6949C74.5682 72.7797 74.5682 72.8814 74.5682 72.9661C74.5682 73.0678 74.5682 73.0509 74.5682 72.9492C74.5682 73 74.5682 73.0339 74.5512 73.0848C74.5171 73.2712 74.4661 73.4407 74.3981 73.6271C74.3981 73.678 74.3641 73.7119 74.3471 73.7627C74.3811 73.6611 74.3811 73.6611 74.3471 73.7627C74.2961 73.8475 74.2621 73.9322 74.2111 74.017C74.1771 74.0848 74.1431 74.1356 74.1091 74.1865C74.075 74.2204 74.058 74.2712 74.024 74.3051C74.092 74.2204 74.092 74.2204 74.024 74.3051C73.956 74.3729 73.905 74.4407 73.82 74.5085C73.956 74.3729 73.769 74.5594 73.701 74.5594C73.803 74.5255 73.803 74.5085 73.718 74.5424C73.837 74.5424 73.854 74.5424 73.752 74.5424C73.871 74.5594 73.871 74.5594 73.786 74.5424C73.888 74.5933 73.888 74.5763 73.786 74.5424C73.871 74.6102 73.871 74.6102 73.786 74.5424C73.752 74.5085 73.718 74.4746 73.684 74.4407C73.6159 74.3729 73.6159 74.3729 73.684 74.4407C73.6499 74.4068 73.6329 74.3729 73.6159 74.339C73.5649 74.2712 73.5309 74.1865 73.4799 74.1187C73.4629 74.0848 73.3099 73.8475 73.4289 74.0339C73.3609 73.9153 73.3269 73.7288 73.2929 73.6102C73.2759 73.5255 73.2589 73.4407 73.2419 73.356C73.2419 73.2543 73.2419 73.2712 73.2419 73.3899C73.2419 73.339 73.2419 73.3051 73.2419 73.2543C73.2079 72.8983 73.2079 72.5255 73.2419 72.1695C73.2419 71.9831 73.2759 71.8136 73.2929 71.6271C73.2929 71.5763 73.3269 71.2882 73.2929 71.5085C73.2929 71.4238 73.3099 71.339 73.3269 71.2373C73.3949 70.7966 73.2249 70.3051 72.7317 70.1865C72.3237 70.1017 71.7625 70.3051 71.6775 70.7797L71.7455 70.7627Z" fill="black"/>
<path d="M18.3366 20.8305L24.3389 20.2373C25.3081 20.1356 26.2773 20.0339 27.2466 19.9491C27.3656 19.9491 27.4676 19.9322 27.5866 19.9152C27.3996 19.5932 27.3146 19.5254 27.3146 19.6949C27.2296 19.7627 27.2126 20.3051 27.1956 20.4237L26.9405 21.8644C26.8555 22.322 27.0595 22.7796 27.5356 22.9152C27.9437 23.0339 28.5048 22.7796 28.5899 22.322L28.8959 20.6101C28.998 20.0678 29.151 19.4746 28.8959 18.9661C28.3348 17.8305 26.7194 18.322 25.7162 18.4237L18.3706 19.1525C17.9115 19.2034 17.5204 19.5085 17.5204 20C17.5204 20.4237 17.9115 20.8983 18.3706 20.8474L18.3366 20.8305Z" fill="black"/>
<path d="M17.2143 20.2882V22C17.1973 22.5424 17.2143 23.1017 17.7414 23.4238C18.2005 23.6949 18.7617 23.5255 19.2548 23.4746C19.8329 23.4068 20.394 23.356 20.9722 23.3051C23.2677 23.1187 25.5802 23.0509 27.8927 23.1017C28.9809 23.1187 28.9809 21.4238 27.8927 21.4068C26.2603 21.3729 24.628 21.4068 22.9956 21.4746C22.1964 21.5085 21.3972 21.5763 20.5981 21.6441C20.207 21.678 19.8329 21.7119 19.4418 21.7627C19.1868 21.7966 18.5746 21.9322 18.4046 21.8814L18.7787 22.1017L18.7106 22.0339L18.9317 22.4068C18.8297 22.1526 18.9317 21.7288 18.9317 21.4407V20.2882C18.9487 19.2034 17.2483 19.2034 17.2483 20.2882H17.2143Z" fill="black"/>
<path d="M17.2993 27.0509C18.7447 26.7119 20.19 26.4238 21.6693 26.2373C22.3835 26.1526 23.0976 26.0678 23.8118 26.017C24.1689 25.9831 24.526 25.9661 24.883 25.9492C25.0871 25.9492 25.3081 25.9322 25.5122 25.9322C25.5972 25.9322 25.6992 25.9322 25.7842 25.9322C25.9713 25.9322 25.9373 25.9322 25.6992 25.8644L25.4782 25.4916C25.5462 25.695 25.5122 26 25.5122 26.2204V26.7967C25.5122 26.8983 25.5122 26.8983 25.5292 26.7967L25.8353 26.4916C25.8353 26.4916 25.4782 26.4916 25.4612 26.4916L24.917 26.5424L23.9988 26.6102L21.9074 26.7797L19.9009 26.9492L18.8977 27.0339C18.6596 27.0509 18.2005 27.1865 17.9795 27.1017L18.4896 27.4916C18.3876 27.3221 18.4046 26.5933 18.3706 26.3051C18.3196 25.8475 18.0135 25.4577 17.5204 25.4577C17.0953 25.4577 16.6192 25.8475 16.6702 26.3051C16.7212 26.7119 16.7552 27.1187 16.8062 27.5085C16.8572 27.9322 16.9253 28.4068 17.3333 28.6441C17.7074 28.8644 18.1325 28.7967 18.5406 28.7628L19.8159 28.6611L24.917 28.2543C25.6992 28.1865 26.8725 28.3051 27.1615 27.3729C27.2806 27.017 27.2296 26.5933 27.2296 26.2373C27.2296 25.8475 27.2636 25.4238 27.1445 25.0509C26.8385 24.1695 25.8523 24.2543 25.0871 24.2882C24.2539 24.3221 23.4037 24.3899 22.5705 24.4746C20.6491 24.678 18.7447 25 16.8572 25.4577C15.786 25.7119 16.2451 27.356 17.3163 27.0848L17.2993 27.0509Z" fill="black"/>
<path d="M22.2644 30.322C21.4652 30.7457 21.1422 31.6779 21.2442 32.5254C21.3632 33.4237 21.9924 34.1864 22.9106 34.4067C23.8288 34.6271 24.781 34.305 25.4441 33.661C25.8012 33.322 26.0733 32.8305 26.1753 32.3559C26.2433 32.0169 26.2433 31.7288 26.1753 31.3898C26.1073 31.0508 25.9372 30.8135 25.7502 30.5593C25.4271 30.1525 24.866 29.8813 24.3559 29.7966C23.9648 29.7457 23.5907 29.7457 23.1996 29.7966C22.9106 29.8305 22.6385 29.8983 22.3494 29.9661C21.9244 30.0677 21.6183 30.5762 21.7543 31.0169C21.8903 31.4576 22.3324 31.7288 22.8085 31.6101C23.0976 31.5423 23.3697 31.4745 23.6587 31.4406L23.4377 31.4745C23.6587 31.4406 23.8968 31.4406 24.1178 31.4745L23.8968 31.4406C24.0668 31.4576 24.2199 31.5084 24.3729 31.5762L24.1689 31.4915C24.1689 31.4915 24.3219 31.5593 24.3899 31.6101C24.4239 31.6271 24.4409 31.644 24.4749 31.661C24.5429 31.7118 24.3049 31.5084 24.4239 31.6271C24.4409 31.644 24.4749 31.6779 24.4919 31.6949C24.5599 31.7796 24.5259 31.7966 24.4579 31.644C24.4919 31.7118 24.5429 31.7796 24.5769 31.8644L24.4919 31.661C24.4919 31.661 24.5429 31.8305 24.5599 31.9152L24.5259 31.6949C24.5259 31.8135 24.5259 31.9322 24.5259 32.0508L24.5599 31.8305C24.5429 31.983 24.4919 32.1355 24.4409 32.2711L24.5259 32.0677C24.4749 32.1864 24.4069 32.2881 24.3389 32.4067C24.2709 32.5084 24.4069 32.322 24.4069 32.322L24.3389 32.3898C24.3389 32.3898 24.2709 32.4745 24.2199 32.5084C24.1859 32.5423 24.1519 32.5762 24.1008 32.6101C24.3049 32.4237 24.1859 32.5593 24.1008 32.6101C23.9988 32.6779 23.8968 32.7288 23.7948 32.7796L23.9988 32.6949C23.8458 32.7627 23.6757 32.8135 23.5057 32.8305L23.7268 32.7966C23.5737 32.8135 23.4207 32.8135 23.2677 32.7966L23.4887 32.8305C23.3527 32.8135 23.2336 32.7796 23.1146 32.7288L23.3187 32.8135C23.3187 32.8135 23.1656 32.7457 23.0976 32.6949C22.9446 32.5932 23.2336 32.8135 23.1486 32.7288C23.1146 32.7118 23.0976 32.6779 23.0636 32.661C23.0296 32.644 23.0126 32.6101 22.9956 32.5762C23.1826 32.7796 23.0806 32.6949 23.0466 32.6271C23.0126 32.5593 22.9616 32.4915 22.9276 32.4237L23.0126 32.6271C22.9616 32.4915 22.9276 32.3728 22.8936 32.2372L22.9276 32.4576C22.9106 32.305 22.9106 32.1694 22.9276 32.0169L22.8936 32.2372C22.9106 32.1186 22.9446 31.9999 22.9956 31.8813L22.9106 32.0847C22.9106 32.0847 22.9616 31.966 22.9956 31.9152C22.9956 31.8983 23.0296 31.8813 23.0296 31.8474C23.0806 31.7796 22.8596 32.0338 22.9786 31.9322C23.0126 31.8983 23.0636 31.8644 23.0976 31.8135C23.0806 31.8474 22.8936 31.9491 23.0296 31.8813C23.0636 31.8813 23.0806 31.8474 23.1146 31.8305C23.5057 31.6271 23.6587 31.0508 23.4207 30.6779C23.1656 30.2711 22.6725 30.1525 22.2644 30.3728V30.322Z" fill="black"/>
<path d="M29.049 22.6949L29.4911 33.7966L31.1574 33.5763L31.0724 33C31.0044 32.5424 30.4263 32.2881 30.0182 32.4068C29.5251 32.5424 29.355 33 29.423 33.4576L29.5081 34.0339C29.6441 34.9831 31.2084 34.7458 31.1744 33.8136L30.7323 22.7119C30.6813 21.6271 28.9809 21.6271 29.0319 22.7119L29.049 22.6949Z" fill="black"/>
<path d="M30.1372 23.5932L33.1469 23.3051L32.2967 22.4576C32.3987 23.3728 32.4157 24.2881 32.3817 25.2203C32.3647 25.6779 32.7898 26.0678 33.2319 26.0678C34.3031 26.0678 35.4084 26.1017 36.4626 25.983C37.6869 25.8305 37.8229 24.5762 38.01 23.5932C38.4011 21.5423 38.4861 19.4406 38.231 17.3728C38.18 16.9152 37.8739 16.5254 37.3808 16.5254C36.9727 16.5254 36.4796 16.9152 36.5306 17.3728C36.7347 19.0847 36.7517 20.8474 36.4796 22.5593C36.4116 22.983 36.3266 23.3898 36.2416 23.7966C36.2076 23.9152 36.0375 24.3051 36.0885 24.4237C36.1055 24.4745 35.9865 24.5423 36.2076 24.3898C36.4456 24.2203 36.1906 24.322 36.0545 24.322C35.1193 24.3559 34.1671 24.3728 33.2319 24.3898L34.0821 25.2373C34.1331 24.322 34.0991 23.4067 33.9971 22.4745C33.9461 22.0508 33.64 21.5762 33.1469 21.6271L30.1372 21.9152C29.6781 21.9661 29.287 22.2712 29.287 22.7627C29.287 23.1864 29.6781 23.661 30.1372 23.6101V23.5932Z" fill="black"/>
<path d="M37.7209 17.3559C38.4011 17.339 39.0642 17.339 39.7443 17.3729C39.8634 17.3729 39.9824 17.3729 40.1014 17.4068C40.3225 17.4407 40.2545 17.3559 39.9484 17.1356C39.9314 17.1356 39.9314 18.1017 39.9314 18.1864C39.8974 19.4407 39.8634 20.7119 39.8294 21.9661C39.7444 24.5254 39.6423 27.0847 39.5233 29.661C39.4723 30.7458 41.1727 30.7458 41.2237 29.661C41.3597 26.661 41.4787 23.661 41.5638 20.661C41.5808 19.9152 41.5978 19.1864 41.6148 18.4407C41.6148 17.8136 41.7848 17 41.4957 16.4237C41.2067 15.8474 40.6115 15.7458 40.0164 15.6949C39.2682 15.6271 38.5031 15.6271 37.7549 15.6441C36.6667 15.678 36.6667 17.3729 37.7549 17.339L37.7209 17.3559Z" fill="black"/>
<path d="M39.5573 29.2373L39.3533 32.8305L40.2035 31.983L38.6391 32.0169H37.8739C37.7379 32.0339 37.6019 32.0339 37.4659 32.0339C37.4148 32.0339 37.3468 32.0339 37.2958 32.0339C37.4148 32.0339 37.5169 32.0847 37.6019 32.1525L37.8229 32.5254C37.7889 32.4407 37.7889 32.4407 37.8229 32.5254V32.4576C37.8399 32.3559 37.8229 32.2542 37.8229 32.1525L37.8569 31.5424L37.908 30.2881L38.01 27.8305C38.027 27.3898 37.6019 26.9661 37.1598 26.983C36.6837 27 36.3266 27.3559 36.3096 27.8305C36.2416 29.339 36.1736 30.8474 36.1055 32.3559C36.0885 32.8305 36.2246 33.3051 36.6667 33.5763C37.0238 33.7796 37.4659 33.7288 37.8569 33.7118L40.1695 33.661C40.6456 33.661 40.9856 33.2881 41.0196 32.8135L41.2237 29.2203C41.2407 28.7796 40.8156 28.3559 40.3735 28.3729C39.8974 28.3898 39.5573 28.7457 39.5233 29.2203L39.5573 29.2373Z" fill="black"/>
<path d="M36.9217 26.8813C35.8845 27.1695 34.8472 27.305 33.776 27.2881C33.3169 27.2881 32.9258 27.6779 32.9258 28.1356V33.6949L33.759 32.8474L30.6813 32.9491C30.2222 32.9491 29.8311 33.322 29.8311 33.7966C29.8311 34.2711 30.2222 34.661 30.6813 34.644L33.759 34.5423C34.2181 34.5423 34.6092 34.1695 34.6092 33.6949V28.1356L33.776 28.983C34.9833 29 36.2075 28.8474 37.3638 28.5254C38.418 28.2203 37.9759 26.5932 36.9047 26.8983L36.9217 26.8813Z" fill="black"/>
<path d="M46.0868 10.4915L49.3005 10.5762L48.4843 9.50842C48.1102 10.4237 47.8042 11.3559 47.5661 12.322C47.4471 12.7966 47.3451 13.2711 47.2771 13.7457C47.192 14.2711 47.005 14.8983 47.2771 15.3898C47.5831 15.9152 48.2123 15.9491 48.7564 15.9999C49.2665 16.0508 49.7766 16.0847 50.3037 16.1186C51.375 16.2033 52.4632 16.2711 53.5345 16.322C53.9936 16.3389 54.3846 15.9152 54.3846 15.4745C54.3846 14.9999 53.9936 14.644 53.5345 14.6271C52.6503 14.5762 51.7661 14.5254 50.8819 14.4576C50.4738 14.4237 50.0487 14.3898 49.6406 14.3728C49.4195 14.3559 49.1985 14.3389 48.9774 14.322L48.6034 14.2881H48.4503C48.2973 14.2542 48.3483 14.2881 48.6034 14.3728L48.8244 14.7457C48.8244 14.7457 48.7904 14.7966 48.8244 14.6779C48.8584 14.5593 48.8584 14.4406 48.8754 14.3389C48.9094 14.1355 48.9434 13.9322 48.9774 13.7288C49.0625 13.305 49.1645 12.8813 49.2665 12.4576C49.4875 11.6101 49.7766 10.7796 50.0997 9.983C50.3207 9.45758 49.7766 8.93215 49.2835 8.9152L46.0698 8.83046C44.9815 8.79656 44.9815 10.4915 46.0698 10.5254L46.0868 10.4915Z" fill="black"/>
<path d="M45.3046 9.79665C44.6755 11.4916 44.1824 13.2373 43.8253 15C43.7233 15.4746 43.6382 15.9492 43.5702 16.4238C43.5192 16.7966 43.3832 17.2204 43.5022 17.5933C43.7913 18.5255 45.1516 18.4238 45.9168 18.5085C47.7872 18.7119 49.6746 18.8136 51.562 18.8475C52.0041 18.8475 52.4462 18.8475 52.8883 18.8475C53.3644 18.8475 53.8575 18.8475 54.2316 18.5255C54.5377 18.2543 54.6227 17.9322 54.6737 17.5424C54.7417 17.0339 54.7927 16.5255 54.8438 16.0339C54.8948 15.5763 54.4187 15.1865 53.9936 15.1865C53.4834 15.1865 53.1944 15.5763 53.1434 16.0339L53.0413 16.8814C53.0413 17 53.0073 17.1356 52.9903 17.2543C52.9903 17.4407 52.9223 17.4068 53.0073 17.3221L53.3814 17.1017C53.1094 17.2034 52.7693 17.1356 52.4972 17.1356C52.1231 17.1356 51.7491 17.1356 51.375 17.1356C50.5928 17.1356 49.8106 17.0848 49.0284 17.0509C48.2463 17.017 47.5321 16.9492 46.7669 16.8814C46.3929 16.8475 46.0188 16.8136 45.6447 16.7627C45.3216 16.7289 44.9305 16.7289 44.6245 16.6102L44.9985 16.8305L44.9305 16.7627L45.1516 17.1356C45.2026 17.356 45.2026 17.017 45.2026 16.9492C45.2196 16.7966 45.2536 16.6441 45.2706 16.5085C45.3216 16.2204 45.3726 15.9153 45.4406 15.6272C45.5597 15 45.6957 14.3899 45.8487 13.7797C46.1548 12.5763 46.5119 11.4068 46.937 10.2543C47.09 9.83055 46.7669 9.32207 46.3418 9.20343C45.8657 9.06783 45.4576 9.35597 45.2876 9.79665H45.3046Z" fill="black"/>
<path d="M56.4591 8.32207C56.6972 10.2712 56.7992 12.2543 56.7482 14.2204C56.7482 14.678 57.1563 15.0678 57.5984 15.0678C58.0404 15.0678 58.4315 14.678 58.4485 14.2204C58.4996 12.2543 58.4145 10.2882 58.1595 8.32207C58.1085 7.86444 57.8024 7.47461 57.3093 7.47461C56.9012 7.47461 56.4081 7.86444 56.4591 8.32207Z" fill="black"/>
<path d="M58.4146 8.98303C58.1935 9.18642 58.1255 9.25422 58.2445 9.20337L58.6696 9.16947L59.3158 9.11862C59.7579 9.08472 60.234 8.98303 60.6931 9.03388L60.268 8.91523C60.0469 8.79659 60.0979 8.47455 60.1149 8.96608C60.1149 9.13557 60.1149 9.32201 60.1319 9.4915C60.1319 9.81354 60.1319 10.1186 60.1319 10.4407C60.1319 10.983 60.0129 11.6101 60.1659 12.1356C60.37 12.8135 60.9821 12.9491 61.5943 12.9661C62.2064 12.983 62.9376 13.0678 63.5497 12.9661C64.2129 12.8474 64.4509 12.339 64.5869 11.7457C64.723 11.1186 64.825 10.4746 64.91 9.83049C64.927 9.661 65.1821 8.22032 65.046 8.16947C64.808 8.30506 64.774 8.37286 64.927 8.35591C64.978 8.35591 65.029 8.35591 65.08 8.35591C65.2501 8.35591 65.4201 8.40676 65.5902 8.42371C65.8792 8.45761 66.1853 8.47455 66.4744 8.57625L66.1003 8.35591L66.2023 8.44066L65.9812 8.06778C66.1173 8.38981 66.0323 8.88133 66.0323 9.22032C66.0323 9.64405 66.0323 10.0847 66.0323 10.5085C66.0323 11.4068 66.0153 12.3051 65.9983 13.1864C65.9472 14.9322 65.8792 16.6949 65.7772 18.4407C65.7092 19.5254 67.4096 19.5254 67.4776 18.4407C67.5796 16.661 67.6646 14.8644 67.6986 13.0847C67.7156 12.2203 67.7326 11.3729 67.7326 10.5085C67.7326 9.64405 67.8687 8.69489 67.6986 7.86439C67.5116 6.89828 66.6274 6.86439 65.8112 6.76269C65.0971 6.661 64.2979 6.50845 63.7537 7.10167C63.2436 7.64405 63.3627 8.54235 63.2946 9.23727C63.2606 9.6271 63.2096 10.0169 63.1416 10.4237C63.0906 10.7627 63.0566 11.4068 62.8525 11.6779L63.3627 11.2881C63.0906 11.3898 62.6485 11.3051 62.3594 11.3051C62.0534 11.3051 61.6113 11.3729 61.3222 11.2712L61.6963 11.4915L61.6113 11.4068L61.8323 11.7796C61.7303 11.4915 61.8323 11.0169 61.8323 10.6949C61.8323 10.2712 61.8323 9.86439 61.8323 9.44066C61.8153 8.67795 61.8323 7.67794 60.9141 7.42371C60.54 7.32201 60.1319 7.40676 59.7409 7.42371C59.3158 7.45761 58.8907 7.4915 58.4486 7.5254C57.7344 7.5932 56.9522 7.76269 56.7652 8.57625C56.5441 9.64405 58.1765 10.1017 58.3975 9.03388L58.4146 8.98303Z" fill="black"/>
<path d="M66.4403 17.8305H64.0088C63.7877 17.8305 63.4817 17.7797 63.2606 17.8305C63.6347 18.4068 63.8048 18.5424 63.7707 18.2373V15.3221C63.7707 14.8644 63.3797 14.4746 62.9206 14.4746H60.8121C60.37 14.4746 59.9449 14.8475 59.9619 15.3051C59.9789 15.7627 60.336 16.1526 60.8121 16.1526H62.9206L62.0704 15.3221V17.2034C62.0704 17.8475 61.9173 18.6949 62.4274 19.2034C62.9376 19.7119 63.8218 19.5255 64.4339 19.5255H66.4233C66.8654 19.5255 67.2905 19.1356 67.2735 18.678C67.2565 18.2204 66.8994 17.8305 66.4233 17.8305H66.4403Z" fill="black"/>
<path d="M59.6558 15.322L59.5198 17.5762L59.4518 18.644L59.4178 19.2033C59.4178 19.305 59.4178 19.3898 59.4008 19.4915C59.4008 19.6949 59.3667 19.5254 59.4348 19.4406L59.7408 19.1355C59.7408 19.1355 59.8429 19.1355 59.8769 19.1016C59.8429 19.1355 59.6388 19.1016 59.5878 19.1016C59.4348 19.1016 59.2817 19.1016 59.1287 19.1016C58.8056 19.1016 58.4825 19.0677 58.1595 19.0508H58.0404C58.0404 19.0508 58.1425 19.0508 58.0745 19.0508C57.9894 19.0169 58.0234 19.0508 58.1765 19.1525C58.2445 19.1864 58.2955 19.2203 58.3295 19.2881C58.3805 19.305 58.3295 19.2542 58.3295 19.2542C58.3295 19.2881 58.3295 19.1355 58.3295 19.1016C58.2955 18.7627 58.2615 18.4237 58.2445 18.1016C58.1595 16.8135 58.2105 15.5084 58.3635 14.2372C58.4145 13.7796 57.9384 13.3898 57.5133 13.3898C57.0032 13.3898 56.7141 13.7796 56.6631 14.2372C56.5441 15.1864 56.4931 16.1355 56.4931 17.1016C56.4931 17.5762 56.5271 18.0338 56.5611 18.5084C56.5951 18.9999 56.5781 19.6101 56.8162 20.0677C57.0882 20.5762 57.5643 20.7288 58.1085 20.7796C58.6016 20.8304 59.0947 20.8474 59.5708 20.8474C60.1659 20.8474 60.7951 20.7457 61.0161 20.0847C61.1521 19.644 61.1181 19.1016 61.1521 18.644L61.3562 15.3728C61.3902 14.9152 60.9481 14.5254 60.506 14.5254C60.0299 14.5254 59.6898 14.9152 59.6558 15.3728V15.322Z" fill="black"/>
<path d="M48.5863 26.644C49.1985 25.4407 49.8956 24.2881 50.6778 23.1695C50.8649 22.8983 51.0689 22.6271 51.273 22.3729C51.409 22.1864 51.596 21.8983 51.7661 21.7627C51.681 21.8305 51.596 21.7966 51.8341 21.8135C52.0211 21.8305 52.2082 21.8644 52.3952 21.8983L52.9563 21.983L53.2284 22.0339C53.3644 22.0678 53.3644 22.0508 53.2114 21.983L52.9903 21.6101C52.9903 21.6101 53.0413 21.4068 52.9903 21.5763C52.9393 21.6949 52.9053 21.7966 52.8713 21.9152L52.6673 22.5254C52.5482 22.8983 52.3782 23.2712 52.2932 23.644C52.0891 24.4237 52.4462 25.1017 53.1434 25.4746C53.3644 25.5932 53.6025 25.661 53.8065 25.7796C53.9766 25.8813 54.0616 25.9322 54.0956 26.1864C54.1126 26.3559 54.0616 26.6101 53.9766 26.8474C53.8745 27.1017 53.6535 27.5254 53.5175 27.644L53.8915 27.4237H53.9255L54.3506 27.5254C53.9255 27.3051 53.5345 26.8983 53.1604 26.6101L51.8681 25.5763C51.511 25.2881 51.0179 25.2203 50.6608 25.5763C50.3717 25.8644 50.3037 26.4915 50.6608 26.7796L52.7353 28.4407C53.0924 28.7288 53.4324 29.0847 53.9085 29.1186C54.4527 29.1525 54.8097 28.8135 55.0648 28.3729C55.4559 27.7118 55.813 26.9661 55.779 26.1864C55.745 25.4068 55.3369 24.6779 54.6227 24.3051C54.4017 24.1864 54.1636 24.1186 53.9596 24C53.9085 23.9661 53.8745 23.9491 53.8235 23.9152C53.9596 24 53.8235 23.8474 53.8405 23.9152C53.8405 23.9152 53.9936 24.1695 53.9085 24.1525L54.0276 23.7966C54.1636 23.4068 54.2996 23.0169 54.4187 22.644C54.5717 22.2203 54.8097 21.7288 54.6737 21.2542C54.4187 20.3051 53.2284 20.339 52.4462 20.2034C51.9701 20.1356 51.477 20.0169 51.0179 20.2542C50.6438 20.4407 50.4228 20.7627 50.1677 21.0847C49.0114 22.5593 47.9912 24.1186 47.141 25.7966C46.937 26.2034 47.039 26.7118 47.4471 26.9491C47.8212 27.1695 48.3993 27.0508 48.6034 26.644H48.5863Z" fill="black"/>
<path d="M50.3887 25.7966C50.0317 26.4237 49.6576 27.0169 49.2665 27.6101C49.0795 27.8983 48.8754 28.1864 48.6714 28.4746C48.5693 28.6101 48.4673 28.7457 48.3653 28.8813C48.3143 28.9661 48.2463 29.0339 48.1953 29.1186C48.3143 28.9661 48.1272 29.2034 48.1102 29.2373H49.3175C49.0965 29.0678 48.8924 28.8644 48.7054 28.661C48.5863 28.5254 48.7904 28.7796 48.7054 28.644C48.6544 28.5762 48.6203 28.5085 48.5693 28.4407C48.5013 28.339 48.4333 28.2203 48.3823 28.1017C48.3483 28.0339 48.3143 27.983 48.2973 27.9152C48.3483 28.1186 48.2973 27.9491 48.2973 27.8983C48.2463 27.7627 48.2123 27.6271 48.1782 27.4915C48.1782 27.4407 48.1442 27.3729 48.1442 27.322C48.1442 27.2881 48.1442 27.2373 48.1272 27.2034C48.1272 27.1017 48.1272 27.1186 48.1272 27.2542C48.1442 27.1186 48.1102 26.9661 48.1102 26.8305C48.1102 26.3898 47.7191 25.9661 47.26 25.983C46.8009 26 46.4099 26.3559 46.4099 26.8305C46.4099 28.2034 47.056 29.5932 48.1442 30.4407C48.3143 30.5762 48.5013 30.6949 48.7394 30.6949C48.9434 30.6949 49.1985 30.6271 49.3345 30.4407C50.2867 29.2542 51.1369 28 51.8851 26.6779C52.1061 26.2881 51.9871 25.7288 51.579 25.5254C51.1709 25.322 50.6438 25.4237 50.4228 25.8305L50.3887 25.7966Z" fill="black"/>
<path d="M55.0988 31.6271C57.3943 29 59.7748 26.4407 62.0704 23.8136L61.0331 23.9492L62.1724 24.6949L62.6995 25.0339C62.6995 25.0339 63.1586 25.339 63.1246 25.2712L63.0396 24.6102C63.0056 24.7627 62.4954 25.3051 62.3254 25.5254L61.4752 26.661C61.2542 26.9492 61.3562 27.4407 61.6112 27.6949C62.6825 28.7288 63.8387 29.6949 65.046 30.5593C65.4201 30.8305 65.9982 30.6271 66.2023 30.2542C66.4573 29.8305 66.2703 29.3559 65.8962 29.1017C64.808 28.3051 63.7707 27.4407 62.8015 26.4915L62.9375 27.5254L64.0598 26.0509C64.3999 25.5932 64.876 25.1356 64.6379 24.5254C64.4509 24.0339 63.8898 23.7966 63.4647 23.5085L61.9003 22.4746C61.6112 22.2712 61.1011 22.339 60.8631 22.6102C58.5676 25.2373 56.187 27.7966 53.8915 30.4237C53.1774 31.2373 54.3676 32.4407 55.0988 31.6271Z" fill="black"/>
<path d="M64.842 29.4068C64.2468 30.0509 63.5837 30.5424 62.8015 30.9492L63.8387 31.0848C63.3286 30.5424 62.7675 30.0339 62.1894 29.5593C61.6112 29.0848 60.9141 28.4746 60.1489 28.9831C59.4518 29.4407 58.8226 30.1695 58.2105 30.7288L56.272 32.4915L57.6153 32.661C56.9182 31.678 56.034 30.8644 54.9458 30.3051C53.9765 29.7966 53.1093 31.2712 54.0956 31.7627C54.9117 32.1864 55.6259 32.7627 56.153 33.5085C56.4761 33.9661 57.0542 34.0678 57.4963 33.678L59.3497 31.9831C59.9279 31.4576 60.506 30.7627 61.1691 30.339L60.7441 30.4576H60.8801L60.455 30.3559C61.2882 30.8475 62.0023 31.5763 62.6655 32.2712C62.9375 32.5593 63.3626 32.5763 63.7027 32.4068C64.5869 31.9492 65.4031 31.339 66.0832 30.5932C66.8314 29.7966 65.6241 28.5932 64.876 29.3898L64.842 29.4068Z" fill="black"/>
<path d="M72.5957 15.3051L76.5916 15.8983C76.9147 15.9492 77.2378 15.9831 77.5438 16.0339C77.6629 16.0509 77.7649 16.1017 77.8839 16.1017C77.9689 16.1017 77.8499 16.1017 77.8329 16.0678C77.7649 15.9831 77.7479 15.9153 77.7139 15.8136C77.7139 15.8305 77.7139 15.9661 77.7139 15.8644C77.7139 15.9492 77.6799 16.0339 77.6629 16.1187L77.5779 16.5594L77.3908 17.6102L78.207 16.9831C76.8807 16.8644 75.5884 16.661 74.2791 16.3729C73.837 16.2712 73.3609 16.5085 73.2249 16.9661C73.1059 17.3899 73.3609 17.9153 73.82 18.017C75.2653 18.3221 76.7277 18.5424 78.19 18.678C78.5301 18.7119 78.9552 18.3899 79.0062 18.0509L79.2102 16.8983C79.2782 16.5085 79.3973 16.1017 79.3462 15.7119C79.2952 15.2543 79.0572 14.8475 78.6491 14.6102C78.343 14.4238 78.0029 14.3899 77.6459 14.339L72.9698 13.6441C72.5107 13.5763 72.0516 13.7627 71.9156 14.2373C71.8136 14.6441 72.0516 15.2204 72.5107 15.2882L72.5957 15.3051Z" fill="black"/>
<path d="M73.0378 17.0338C72.7487 17.9321 72.4937 18.8305 72.2556 19.7288C72.1366 20.1864 72.0346 20.644 71.9326 21.1016C71.8305 21.5593 71.6265 22.1186 71.7795 22.6101C71.9836 23.2542 72.5957 23.3559 73.1908 23.3898L74.7042 23.4406L77.6288 23.5593C78.0709 23.5593 78.496 23.1525 78.479 22.7118C78.462 22.2372 78.1049 21.8813 77.6288 21.8643L75.1463 21.7627L73.956 21.7118H73.3099C73.2078 21.6779 73.0888 21.6779 72.9868 21.6779H72.9188C73.0378 21.6779 73.1228 21.7118 73.2248 21.7796L73.4459 22.1525C73.4459 22.1525 73.4119 22.3898 73.4459 22.2033C73.4799 22.0847 73.4969 21.966 73.5309 21.8474C73.5819 21.644 73.6159 21.4406 73.6669 21.2372C73.769 20.8135 73.871 20.3898 73.973 19.966C74.1941 19.1186 74.4321 18.2881 74.7042 17.4576C74.8402 17.0338 74.5511 16.5084 74.109 16.4067C73.6499 16.305 73.2078 16.5423 73.0548 16.9999L73.0378 17.0338Z" fill="black"/>
<path d="M76.8467 22.7119C76.8127 23.1526 76.7957 23.5933 76.7447 24.0339C76.7276 24.2543 76.6936 24.4746 76.6766 24.695L76.6426 24.9153C76.5746 25.1695 76.6086 25.2034 76.7447 24.9831L77.1697 24.8644C75.6394 24.9661 74.041 24.7966 72.5107 24.6272C71.7455 24.5424 70.9804 24.3899 70.2152 24.2712C70.1472 24.2712 70.0622 24.2373 69.9941 24.2204L70.0962 24.2882C70.0962 24.1865 70.0962 24.1017 70.1132 24C70.1642 23.6102 70.2662 23.2034 70.3512 22.8136L71.2524 18.2712C71.3885 17.5763 71.5075 16.8475 71.6945 16.1695C71.7965 15.7966 71.9326 15.1865 72.3577 15.0339C73.3779 14.6611 72.9358 13.0339 71.8986 13.4068C69.9261 14.1017 69.8581 16.6611 69.501 18.3899L68.7869 21.9322C68.5998 22.8644 68.1237 24.0678 68.5318 25C68.9739 26 70.2152 26.017 71.1504 26.1526C72.3407 26.3221 73.5309 26.4577 74.7382 26.5255C75.3333 26.5594 75.9455 26.5763 76.5406 26.5763C77.1017 26.5763 77.6629 26.5763 78.0199 26.0848C78.326 25.6441 78.309 25 78.377 24.4746C78.445 23.8814 78.496 23.3051 78.53 22.7119C78.5981 21.6272 76.8977 21.6272 76.8297 22.7119H76.8467Z" fill="black"/>
<path d="M82.543 24.8475C82.4919 23.2204 82.747 21.6102 83.1211 20.0339C83.3081 19.2204 83.5292 18.4068 83.7842 17.5932C83.9033 17.2034 84.0223 16.8305 84.1583 16.4407C84.2263 16.2543 84.2943 16.0509 84.3624 15.8644C84.3964 15.7966 84.6174 15.339 84.4474 15.5254L84.0733 15.7458L84.1923 15.7119H83.7332C84.7704 15.8644 85.7907 16.1526 86.8109 16.3729C87.8311 16.5932 88.3413 14.9661 87.27 14.7458L85.2296 14.3051C84.6174 14.1695 83.7672 13.8305 83.2401 14.339C82.866 14.7119 82.73 15.3729 82.56 15.8644C82.3559 16.4577 82.1689 17.0339 81.9988 17.6441C81.3187 19.9661 80.7746 22.4238 80.8426 24.8644C80.8766 25.9492 82.577 25.9492 82.543 24.8644V24.8475Z" fill="black"/>
<path d="M86.2838 15.5593L86.1308 18.4068C86.1138 18.8475 86.0457 19.2712 86.3008 19.661C86.6239 20.1526 87.202 20.1526 87.7291 20.2034L93.4084 20.6949L92.5922 19.6271C92.5072 19.9831 92.4222 20.322 92.3031 20.661C92.2521 20.8136 92.2011 20.9661 92.1501 21.1017C92.1161 21.1695 91.9631 21.4746 91.9801 21.5424C91.9291 21.661 92.0141 21.6271 92.2521 21.4237C92.1671 21.4237 92.0821 21.4237 91.9801 21.4237C91.776 21.4237 91.589 21.4237 91.3849 21.4237H85.9437C84.8555 21.4237 84.8555 23.1187 85.9437 23.1187H91.0959C91.9291 23.1187 92.9493 23.2881 93.4254 22.4237C93.8165 21.7288 94.0375 20.8475 94.2246 20.0678C94.3606 19.4915 93.9695 19.0509 93.4084 19L90.2797 18.7288L88.7493 18.5932L88.0182 18.5254L87.5761 18.4915H87.423C87.219 18.4576 87.236 18.4576 87.4571 18.4915L87.7631 18.7966C87.7971 19.017 87.8141 19.0509 87.7971 18.8983V18.7458C87.7971 18.5932 87.8141 18.4576 87.8311 18.3051L87.8821 17.3559L87.9842 15.5254C88.0012 15.0678 87.5761 14.678 87.134 14.678C86.6579 14.678 86.3008 15.0678 86.2838 15.5254V15.5593Z" fill="black"/>
<path d="M85.0425 22.2712L84.6854 25.9152L85.5356 25.0678C85.3656 25.0678 85.2125 25.0339 85.0425 25.0169C84.9745 25.0169 84.9915 25.0169 85.0765 25.0169H84.9235C84.9235 25.0169 84.7704 24.9661 84.7024 24.9491C84.3964 24.8983 84.0903 24.8305 83.7842 24.7457C83.4782 24.661 83.1721 24.5593 82.883 24.4576C82.815 24.4237 82.747 24.4068 82.679 24.3729C82.4919 24.3051 82.764 24.4237 82.611 24.339C82.4579 24.2542 82.2879 24.1864 82.1349 24.1186C81.7438 23.9152 81.1996 24 80.9786 24.4237C80.7745 24.8135 80.8596 25.3729 81.2847 25.5763C82.628 26.2542 84.0563 26.644 85.5526 26.7627C86.0457 26.7966 86.3518 26.339 86.4028 25.9152L86.7599 22.2712C86.8109 21.8305 86.3348 21.4068 85.9097 21.4237C85.4166 21.4407 85.1105 21.7966 85.0595 22.2712H85.0425Z" fill="black"/>
<path d="M9.00146 9.3559C9.03547 10.7966 9.12049 12.5762 8.20228 13.7796C7.16505 15.1525 5.03957 14.9322 3.56024 15.5423C2.82908 15.8305 2.67604 16.9491 3.56024 17.1695C5.02257 17.5593 7.08003 17.8644 8.16827 19.0339C9.13749 20.0847 9.23951 21.6949 9.32453 23.0339C9.39255 23.9322 10.7699 24.2542 10.9909 23.2542L11.603 20.5084C11.7051 20.0678 11.7561 19.5254 11.9601 19.1017C12.1302 18.7457 12.4872 18.5762 12.8103 18.3559C13.6265 17.8474 14.4257 17.322 15.2419 16.8135C15.888 16.4067 16.9762 15.9661 17.2483 15.2034C17.7754 13.7457 15.3269 12.7457 14.2726 12.5084C14.1026 12.4745 13.7965 12.4576 13.6435 12.3389C13.5415 12.2542 13.4735 11.983 13.4054 11.8644C13.1844 11.4067 12.9633 10.9322 12.7423 10.4745L11.484 7.81352C11.0079 6.83047 9.54558 7.69488 10.0217 8.66098L11.229 11.1864C11.586 11.9322 11.8751 12.9661 12.4702 13.5593C12.9974 14.0847 13.7285 14.0508 14.3917 14.2881C14.7657 14.4237 15.1058 14.6101 15.4289 14.8474C15.4969 14.8983 15.5479 14.9491 15.6159 15C15.82 15.2203 15.854 15.0508 15.735 14.4915C15.684 14.4576 15.1908 14.8474 15.1228 14.8813L12.8103 16.3559C12.1302 16.7796 11.348 17.1695 10.8209 17.7796C10.2937 18.3898 10.1577 19.2542 9.98768 20.0508L9.37554 22.7966L11.0419 23.0169C10.9059 21.2542 10.7018 19.3898 9.52858 17.983C8.23629 16.4406 5.88976 16 4.03635 15.5084V17.1356C5.97478 16.3559 8.20228 16.5762 9.57959 14.7457C10.7358 13.2203 10.7869 11.1356 10.7358 9.30505C10.7018 8.2203 9.00146 8.2203 9.03547 9.30505L9.00146 9.3559Z" fill="black"/>
<path d="M106.314 15.8474C106.093 17.5424 105.022 19.8135 103.254 20.3729C102.318 20.661 101.723 20 101.043 19.4746C100.261 18.8644 99.3597 18.4915 98.3565 18.7627C97.7444 18.9322 97.5403 19.7288 97.9824 20.1864C99.5468 21.7627 101.23 23.2881 102.709 24.9661C104.189 26.6441 103.849 28.7627 103.39 30.8305C103.135 31.8983 104.648 32.2881 105.022 31.2881C105.991 28.678 108.899 26.8983 111.67 27.2881C112.47 27.4068 113.133 26.5424 112.504 25.8644C111.824 25.1525 110.922 25 110.106 24.5424C109.358 24.1186 109.018 23.322 108.831 22.5254C108.61 21.6271 108.576 20.7119 108.508 19.7966L108.219 16.0339C108.134 14.9491 106.433 14.9491 106.518 16.0339L106.824 20.0847C106.909 21.1186 106.96 22.1695 107.25 23.1695C107.505 24.0678 107.93 24.9661 108.661 25.5763C109.443 26.2373 110.616 26.322 111.313 27.0508L112.147 25.6271C108.389 25.1017 104.716 27.2373 103.407 30.7966L105.039 31.2542C105.566 29 105.974 26.5085 104.529 24.4915C103.832 23.5254 102.948 22.7288 102.114 21.8813L99.2067 18.9491L98.8326 20.3729C99.8018 20.1017 100.822 21.5593 101.672 21.8983C102.726 22.3051 103.866 22.0508 104.784 21.4576C106.688 20.2203 107.726 17.983 108.015 15.7966C108.151 14.7119 106.45 14.7288 106.314 15.7966V15.8474Z" fill="black"/>
<path d="M2.9141 61.7457C3.52624 67.0678 10.4468 67.2034 14.4427 66.322L13.6095 64.8983C11.9261 66.2203 10.2087 67.8813 9.68162 70.0169C9.08648 72.4067 10.2768 74.5084 11.586 76.4067L12.5383 75.1695C10.7018 74.5084 8.81442 73.644 6.87599 73.3559C4.93755 73.0678 3.06714 73.7627 1.26473 74.5254L2.30196 75.8644C6.11082 71.9152 3.76429 66.305 3.93433 61.5593C3.96834 60.4745 2.26796 60.4745 2.23395 61.5593C2.08091 65.6779 4.39343 71.2373 1.09469 74.6779C0.380533 75.4237 1.28174 76.3728 2.13193 76.0169C3.76429 75.322 5.39666 74.7457 7.18206 75.1695C8.84843 75.5593 10.4808 76.2712 12.0962 76.8474C12.7763 77.0847 13.4735 76.2034 13.0484 75.6101C11.9771 74.0508 10.7869 72.2881 11.382 70.322C11.9091 68.5762 13.4225 67.2373 14.8168 66.1525C15.5309 65.5932 14.7318 64.5762 13.9836 64.7288C12.0792 65.1525 10.0217 65.2712 8.10026 64.8305C6.55292 64.4745 4.80152 63.5254 4.59748 61.7796C4.47845 60.7118 2.77807 60.6949 2.8971 61.7796L2.9141 61.7457Z" fill="black"/>
<path d="M93.5444 30L87.9842 32.2543C87.168 32.5763 86.2498 32.8475 85.5356 33.356C84.8215 33.8644 84.3283 34.6102 84.1583 35.4916C84.0053 36.3051 83.9373 37.1695 83.9883 37.9831C84.0393 38.7967 84.2093 39.9322 84.9915 40.3899C85.3656 40.6102 85.7907 40.5933 86.2158 40.6102C86.6409 40.6272 87.066 40.6102 87.4911 40.6102C88.3923 40.6102 89.2935 40.5255 90.1777 40.3729C91.776 40.0678 94.3606 39.1017 94.2076 37.0848C94.1736 36.5085 93.6975 36.1526 93.1363 36.2712C92.1671 36.4746 91.2149 36.356 90.3137 36L90.5177 37.5424C91.606 36.7458 92.7282 35.9153 93.4424 34.7289C93.7995 34.1526 93.9865 33.5255 94.1396 32.8644C94.2756 32.3051 94.3436 31.6272 94.7347 31.1695C95.0237 30.8136 95.0748 30.3221 94.7347 29.9661C94.4286 29.6611 93.8335 29.6102 93.5274 29.9661C93.1023 30.4916 92.8303 31.0678 92.6602 31.7119C92.5072 32.3051 92.4392 32.9322 92.1671 33.4916C91.657 34.5933 90.6028 35.356 89.6335 36.0678C89.0214 36.5255 89.1404 37.339 89.8376 37.6102C91.0279 38.0848 92.3201 38.1526 93.5614 37.8814L92.4902 37.0678C92.5242 37.5763 92.0311 37.8644 91.64 38.0848C91.0789 38.3899 90.4837 38.5763 89.8546 38.695C89.2084 38.8305 88.5453 38.8814 87.8821 38.8983C87.5591 38.8983 87.236 38.8983 86.9129 38.8983C86.7259 38.8983 86.5388 38.8983 86.3518 38.8983C86.2158 38.8983 85.9267 38.8306 85.8077 38.8983C85.6036 38.9831 85.9947 38.9322 85.9267 39.017C85.9267 39.017 85.8417 38.8644 85.8417 38.8475C85.7907 38.7119 85.7567 38.5763 85.7227 38.4407C85.6546 38.1356 85.6546 37.8305 85.6546 37.5085C85.6546 36.8983 85.6717 36.2373 85.8417 35.6441C86.0117 35.0509 86.4198 34.7458 86.9639 34.4746C87.6101 34.1695 88.2902 33.9322 88.9364 33.6611L93.9865 31.6102C94.4116 31.4407 94.7177 31.0509 94.5816 30.5594C94.4626 30.1526 93.9695 29.7967 93.5274 29.9661L93.5444 30Z" fill="black"/>
</svg>
