<svg width="101" height="98" viewBox="0 0 101 98" fill="none" xmlns="http://www.w3.org/2000/svg">
<g clip-path="url(#clip0_54_12919)">
<path d="M85.1235 41.0502C84.9215 39.5896 85.174 37.9106 86.3694 37.0376C87.1102 36.4835 88.1203 36.366 89.0295 36.5843C89.9386 36.8025 90.7468 37.2894 91.4539 37.8938C92.4472 38.7165 93.2722 39.7407 93.8783 40.8824C94.6696 42.3766 95.1747 44.1731 96.5721 45.1301C95.5282 45.7513 94.215 45.5834 93.0196 45.4155C91.5717 45.1972 90.107 44.9958 88.7264 44.4585C87.3459 43.9212 86.0663 43.065 85.3255 41.8058" fill="#74C4A3"/>
<path d="M58.2194 32.8402C54.8521 31.1612 51.1145 30.8422 47.4274 31.0941C43.7403 31.3459 39.7164 31.8496 36.265 33.4446C32.8136 35.0396 29.9852 37.5244 27.4429 40.1604C24.9006 42.7963 22.7793 45.8184 21.3819 49.2099C19.8498 52.9371 19.1259 56.9666 18.8228 60.9625C18.5197 64.9584 18.7218 68.8871 19.5468 72.7655C21.0115 79.6323 24.6313 86.1131 30.2377 90.4447C36.2482 95.0786 43.875 96.2875 51.2155 97.3116C55.4414 97.8993 59.5831 98.3358 63.809 97.4124C67.4287 96.6233 71.0148 95.3137 74.4494 93.937C80.6956 91.4185 86.6556 87.7752 89.5514 81.4456C91.134 77.987 91.8748 74.2261 92.5483 70.4989C93.188 66.9899 93.7268 63.4305 93.6763 59.8544C93.6258 56.2782 92.9692 53.0043 91.2519 50.0158C89.3662 46.725 86.2515 44.2906 83.2884 41.9904C77.2442 37.3229 70.3582 33.4614 62.6136 32.7058C60.6774 32.5212 58.7245 32.5547 56.8051 32.8066C55.7445 32.9409 55.7276 34.6198 56.8051 34.4855C64.2299 33.5117 71.4189 36.0973 77.6146 40.026C80.6451 41.9568 83.5746 44.173 86.2179 46.6075C88.8611 49.042 90.6794 51.8122 91.4707 55.2876C92.2115 58.528 92.0768 61.9195 91.6896 65.1934C91.3024 68.4674 90.6626 72.0435 89.8545 75.3678C89.0463 78.6921 87.8005 82.0836 85.5276 84.7699C83.5241 87.154 80.965 88.9505 78.2375 90.3944C75.5101 91.8383 72.4627 92.98 69.4659 94.0041C65.7283 95.2801 61.9738 96.4218 57.9837 96.3378C53.9935 96.2539 50.3569 95.5823 46.6193 94.9443C43.1173 94.3399 39.5986 93.5676 36.3324 92.1237C30.2714 89.4374 25.7088 84.4005 23.0823 78.3899C20.1192 71.5566 19.7993 63.6992 21.0957 56.4461C21.7523 52.8364 22.8803 49.3274 24.8501 46.2046C26.7021 43.2664 29.1265 40.7144 31.7698 38.4814C34.6151 36.0637 37.7298 34.368 41.4169 33.6125C44.902 32.8905 48.6396 32.4876 52.192 32.8569C54.0103 33.0416 55.7781 33.5285 57.4112 34.3344C58.3709 34.8213 59.2295 33.3606 58.253 32.8905L58.2194 32.8402Z" fill="black"/>
<path d="M89.0295 39.9253C89.383 39.1698 89.1642 38.3639 88.4234 37.9274C87.5984 37.4405 86.7061 37.7595 86.0326 38.3639C85.7128 38.6493 85.4602 39.0187 85.0898 39.237C85.0562 39.2538 84.8878 39.3713 84.8373 39.3377C84.9215 39.3881 84.9215 39.237 84.9215 39.2202C84.9215 38.9683 85.0056 38.7165 84.9888 38.4647C84.9551 37.6252 84.3995 37.004 83.6251 36.7689C82.8506 36.5339 82.0425 36.7353 81.2344 36.8697C80.8303 36.9368 80.4431 37.004 80.2242 36.6178C80.0222 36.2652 79.9716 35.7951 79.7864 35.4258C78.9446 33.8308 76.4697 33.7636 75.005 34.3848C73.1698 35.1571 72.1428 37.4069 73.254 39.1866C73.8264 40.11 75.2744 39.2538 74.7019 38.3471C74.2979 37.6923 74.4662 36.8529 75.0218 36.3324C75.6784 35.728 76.6886 35.6272 77.5304 35.8119C78.5069 36.0302 78.3722 36.8193 78.7931 37.558C79.214 38.2968 80.0727 38.6661 80.9313 38.6158C81.4027 38.5822 82.7833 38.0449 83.1873 38.4311C83.4062 38.6326 83.221 39.0691 83.2042 39.3545C83.2042 39.7742 83.3052 40.194 83.5914 40.513C84.147 41.151 85.1235 41.1678 85.8138 40.7816C86.1842 40.5801 86.5041 40.2779 86.8071 39.9589C86.9755 39.7742 87.1607 39.6231 87.3459 39.472C87.3964 39.4384 87.4469 39.4049 87.4974 39.4049C87.6152 39.5224 87.6321 39.4384 87.5311 39.1362C87.0765 40.11 88.5244 40.9663 88.979 39.9757L89.0295 39.9253Z" fill="black"/>
<path d="M39.9858 34.0322C37.5951 34.5695 36.6186 37.6084 38.5211 39.3041C39.4471 40.1436 40.7603 40.2947 41.9556 40.3618C42.7974 40.3954 43.6561 40.3618 44.4979 40.2779C45.0872 40.2107 46.03 39.8078 46.4004 40.3115C46.7203 40.7648 46.8886 41.2181 47.3264 41.6211C47.7641 42.024 48.286 42.3262 48.8416 42.5781C50.1717 43.1657 51.6533 43.4007 53.1012 43.4343C54.6669 43.4679 56.1653 43.1657 57.6638 42.7292C58.5224 42.4773 59.381 42.2423 60.1218 42.8299C60.6101 43.2161 60.9973 43.7029 61.5024 44.0723C63.7248 45.6841 66.89 45.6841 69.1292 44.1227C70.0047 43.5015 69.1628 42.0576 68.2874 42.6788C67.1762 43.4511 65.8798 43.7701 64.5329 43.5518C63.085 43.3168 62.3105 42.4605 61.2499 41.5707C60.1892 40.6808 58.876 40.6641 57.5796 41.0166C55.8791 41.4532 54.3134 41.8729 52.5456 41.7386C51.1818 41.6378 49.313 41.3524 48.3365 40.2443C47.9493 39.8078 47.8988 39.1698 47.4779 38.7501C47.057 38.3303 46.4846 38.3135 45.929 38.3807C44.2622 38.599 42.5786 38.918 40.895 38.599C40.171 38.4646 39.4471 38.1456 39.2619 37.3565C39.043 36.4835 39.6828 35.8455 40.4741 35.6776C41.5347 35.4425 41.0802 33.814 40.0195 34.0658L39.9858 34.0322Z" fill="black"/>
<path d="M74.3652 45.5498C75.9983 46.255 77.059 47.6149 77.783 49.1931C78.1365 49.9654 78.3891 50.7713 78.6079 51.594C78.8605 52.551 79.1635 53.4409 80.0222 54.0285C80.7798 54.549 81.79 54.8176 82.6823 54.9687C83.6419 55.1366 84.6521 55.1366 85.5444 54.6497C87.4132 53.6088 87.6489 51.3254 87.2954 49.4282C87.0934 48.3705 85.4771 48.8238 85.6791 49.8815C85.9317 51.2918 85.696 53.3401 83.8777 53.4073C83.0864 53.4409 82.2109 53.2058 81.4869 52.9204C80.6451 52.5846 80.4599 51.9802 80.241 51.1575C79.5003 48.3369 78.0523 45.3316 75.2239 44.1227C74.803 43.938 74.3316 44.0052 74.079 44.4249C73.8602 44.7775 73.9612 45.3987 74.3821 45.5666L74.3652 45.5498Z" fill="black"/>
<path d="M52.8823 55.8585C52.394 56.7315 52.2594 57.7557 52.4951 58.7294C52.5961 59.1492 53.1012 59.4514 53.5389 59.3171C53.9766 59.166 54.246 58.7462 54.1282 58.2761C54.0945 58.1586 54.0777 58.0579 54.0608 57.9403L54.0945 58.1586C54.0608 57.89 54.0608 57.6381 54.0945 57.3695L54.0608 57.5878C54.0945 57.3191 54.1787 57.0505 54.2797 56.7819L54.1955 56.9833C54.246 56.8826 54.2965 56.7819 54.347 56.6811C54.5659 56.295 54.4481 55.7409 54.044 55.5395C53.6399 55.338 53.118 55.4387 52.8991 55.8417L52.8823 55.8585Z" fill="black"/>
<path d="M54.6333 57.4368L55.0036 60.0223C55.0373 60.207 55.2225 60.4253 55.3909 60.526C55.5761 60.6268 55.8455 60.6771 56.0475 60.61C56.2495 60.5428 56.4516 60.4253 56.5526 60.2238L56.6368 60.0223C56.6704 59.8712 56.6704 59.7201 56.6368 59.569L56.2664 56.9834C56.2327 56.7988 56.0475 56.5805 55.8791 56.4798C55.6939 56.379 55.4246 56.3287 55.2225 56.3958C55.0205 56.463 54.8185 56.5805 54.7174 56.782L54.6333 56.9834C54.5996 57.1345 54.5996 57.2857 54.6333 57.4368Z" fill="black"/>
<path d="M61.8728 59.4682C64.4656 62.3896 68.8598 63.5145 72.5469 62.2049C73.5571 61.8523 73.1194 60.2238 72.0924 60.5931C68.9272 61.718 65.2906 60.7946 63.0514 58.293C62.3274 57.4871 61.1489 58.6791 61.856 59.485L61.8728 59.4682Z" fill="black"/>
<path d="M46.6024 57.3191C44.5989 58.7126 42.1072 59.3003 39.7165 58.8134C39.2787 58.7294 38.8073 58.9477 38.6726 59.401C38.5548 59.8207 38.8073 60.3412 39.2619 60.4419C42.0903 61.0296 45.0872 60.4419 47.4442 58.7798C47.8146 58.5279 47.983 58.0411 47.7473 57.6381C47.5284 57.2687 46.9728 57.0841 46.6024 57.3359V57.3191Z" fill="black"/>
<path d="M46.5519 59.9552C46.5519 59.9552 46.4341 60.1399 46.3667 60.207C46.4172 60.1566 46.4341 60.1063 46.3667 60.1902C46.3331 60.2238 46.2994 60.2742 46.2657 60.3077C46.131 60.4588 45.9963 60.61 45.8616 60.7611C45.7101 60.9122 45.5586 61.0633 45.3902 61.1976C45.3229 61.2647 45.2387 61.3319 45.1714 61.3823C45.1377 61.4159 45.0872 61.4494 45.0535 61.483C44.9357 61.5837 45.1377 61.4326 45.0535 61.483C44.7168 61.7181 44.3801 61.9531 44.0265 62.1378C43.8413 62.2385 43.6729 62.3225 43.4877 62.4064C43.4372 62.4232 43.3867 62.4568 43.3362 62.4736C43.2184 62.524 43.5214 62.4064 43.3362 62.4736C43.2352 62.5072 43.1342 62.5575 43.0332 62.5911C42.6123 62.7422 42.2924 63.162 42.4439 63.6321C42.5786 64.035 43.0332 64.3708 43.4877 64.2197C45.3229 63.5481 46.8886 62.3728 48.0167 60.7779C48.2692 60.4253 48.1008 59.8209 47.7136 59.6362C47.2759 59.4011 46.8381 59.5522 46.5688 59.9384L46.5519 59.9552Z" fill="#74C4A3"/>
<path d="M59.7178 61.2815C60.105 62.9941 60.6606 64.6394 61.3509 66.2512C61.5192 66.6541 62.159 66.7717 62.4957 66.5534C62.9166 66.2848 62.984 65.8315 62.7988 65.4117C62.7651 65.311 62.7483 65.2942 62.782 65.3614L62.7146 65.1935C62.7146 65.1935 62.6473 65.0256 62.6136 64.9416C62.5294 64.7402 62.4621 64.5555 62.3947 64.354C62.26 63.9678 62.1253 63.5985 61.9907 63.2123C61.7381 62.4232 61.5192 61.6341 61.334 60.8282C61.233 60.3917 60.7111 60.1063 60.2902 60.2406C59.8356 60.3917 59.5999 60.8114 59.7009 61.2815H59.7178Z" fill="#74C4A3"/>
<path d="M13.8393 10.1576C12.4924 10.2751 11.3644 11.1482 10.893 12.4074C10.4384 13.5994 10.8593 15.0097 11.819 15.8324C12.8291 16.7055 14.2434 16.9069 15.4219 16.2186C16.6004 15.5302 17.2234 14.2206 16.9371 12.9279C16.6341 11.5343 15.1862 10.4094 13.7551 10.5438C13.3174 10.5773 12.8965 10.8963 12.9133 11.3832C12.9301 11.803 13.2837 12.2731 13.7551 12.2227C13.873 12.2227 13.974 12.2227 14.0918 12.2227C14.1423 12.2227 14.2434 12.2563 14.0582 12.2227C14.1087 12.2227 14.1423 12.2227 14.1929 12.2563C14.2434 12.2563 14.2939 12.2899 14.3612 12.3066C14.4117 12.3066 14.5464 12.3738 14.3612 12.3066C14.4622 12.357 14.5632 12.4074 14.6643 12.4577C14.6979 12.4745 14.7316 12.5081 14.7821 12.5249C14.6306 12.4242 14.7653 12.5081 14.7821 12.5249C14.8663 12.5921 14.9336 12.6592 15.001 12.7432C15.102 12.8439 15.001 12.7432 15.001 12.7432C15.0347 12.7767 15.0515 12.8103 15.0852 12.8607C15.1188 12.9111 15.1525 12.9614 15.1693 13.0118C15.1693 13.0286 15.2872 13.2301 15.2367 13.1293C15.1862 13.0118 15.2704 13.2133 15.2704 13.2133C15.2704 13.2636 15.304 13.2972 15.304 13.3476C15.304 13.398 15.3209 13.4315 15.3377 13.4819C15.2872 13.2972 15.3377 13.4315 15.3377 13.4819C15.3377 13.5826 15.3377 13.6834 15.3377 13.7841C15.3377 13.6162 15.3377 13.7002 15.3377 13.7505C15.3209 13.8177 15.304 13.8849 15.2872 13.952C15.2872 13.952 15.2199 14.1703 15.2704 14.036C15.3209 13.9016 15.2367 14.1031 15.2367 14.1199C15.203 14.2038 15.1525 14.271 15.102 14.355C15.102 14.355 14.9673 14.5228 15.0515 14.4389C15.1357 14.355 14.9842 14.5061 14.9842 14.5061C14.9 14.59 14.8158 14.6572 14.7316 14.7411C14.8663 14.6236 14.6474 14.7915 14.5969 14.8251C14.5464 14.8586 14.277 14.9762 14.4622 14.909C14.3612 14.9426 14.277 14.9762 14.176 14.993C14.1255 14.993 14.075 15.0097 14.0077 15.0265C14.1592 14.993 14.0582 15.0265 13.9571 15.0265C13.8561 15.0265 13.772 15.0265 13.6878 15.0265C13.8898 15.0265 13.6204 15.0097 13.5531 14.993C13.5026 14.993 13.4521 14.9594 13.4016 14.9426C13.351 14.9426 13.2837 14.8754 13.4016 14.9426C13.3005 14.8922 13.1995 14.8418 13.1153 14.7747C13.1153 14.7747 12.9301 14.6404 13.0312 14.7243C13.1322 14.8083 12.9638 14.6572 12.9638 14.6572C12.8965 14.59 12.8291 14.5396 12.7786 14.4725C12.7786 14.4725 12.6439 14.3046 12.7113 14.4053C12.7786 14.5061 12.6608 14.3214 12.6608 14.3214C12.5934 14.2206 12.5597 14.1199 12.4924 14.036C12.5766 14.1703 12.5092 14.1031 12.4924 14.036C12.4756 13.9856 12.4587 13.9352 12.4419 13.8849C12.4251 13.8345 12.3746 13.5323 12.3914 13.7505C12.3914 13.6498 12.3914 13.5491 12.3914 13.4483C12.3914 13.398 12.3914 13.3308 12.3914 13.2804C12.3914 13.4315 12.3914 13.3308 12.3914 13.2469C12.4082 13.1293 12.4587 13.0286 12.4924 12.9279C12.4419 13.079 12.4587 12.9782 12.4924 12.9279C12.5261 12.8607 12.5597 12.8103 12.5934 12.7432C12.6103 12.7096 12.6439 12.6592 12.6608 12.6256C12.6944 12.5585 12.7786 12.4745 12.6944 12.5753C12.7786 12.4745 12.8628 12.3906 12.947 12.3066C12.9807 12.2731 13.0312 12.2395 13.0817 12.1891C12.9807 12.2899 13.0817 12.1891 13.1322 12.1555C13.2332 12.0884 13.3174 12.038 13.4184 11.9876C13.5531 11.9205 13.4184 11.9876 13.4184 11.9876C13.4857 11.9709 13.5362 11.9373 13.6036 11.9205C13.6541 11.9205 13.7046 11.8869 13.772 11.8869C13.9908 11.8365 13.6709 11.8869 13.8561 11.8869C14.2939 11.8533 14.7148 11.5343 14.6979 11.0474C14.6811 10.6277 14.3275 10.1576 13.8561 10.208L13.8393 10.1576Z" fill="black"/>
<path d="M19.2774 10.6445L18.8565 16.8734C18.8228 17.3267 19.2605 17.7129 19.6983 17.7129C20.1865 17.7129 20.5064 17.3267 20.5401 16.8734L20.961 10.6445C20.9947 10.1912 20.5569 9.80505 20.1192 9.80505C19.6309 9.80505 19.311 10.1912 19.2774 10.6445Z" fill="black"/>
<path d="M20.3044 14.3382H22.6951C23.1329 14.3382 23.5538 13.9521 23.5369 13.4988C23.5201 13.0455 23.1665 12.6593 22.6951 12.6593H20.3044C19.8667 12.6593 19.4457 13.0455 19.4626 13.4988C19.4794 13.9521 19.833 14.3382 20.3044 14.3382Z" fill="black"/>
<path d="M27.847 10.1576L27.5608 15.4127C27.5439 15.8492 27.9648 16.2689 28.4026 16.2522C28.874 16.2354 29.2107 15.8828 29.2444 15.4127L29.5306 10.1576C29.5474 9.72106 29.1265 9.30132 28.6888 9.31811C28.2174 9.3349 27.8806 9.68748 27.847 10.1576Z" fill="black"/>
<path d="M27.4934 17.864L27.022 18.5859C26.9547 18.6867 26.921 18.7874 26.921 18.9049C26.9041 19.0225 26.9041 19.1232 26.921 19.2407C26.9547 19.3582 27.0052 19.4422 27.0725 19.5261C27.1399 19.6101 27.2072 19.694 27.3082 19.7444L27.5102 19.8283C27.6618 19.8619 27.8133 19.8619 27.9648 19.8283L28.1669 19.7444C28.3015 19.6772 28.3857 19.5765 28.4699 19.4422L28.9413 18.7202C29.0087 18.6195 29.0423 18.5188 29.0423 18.4012C29.0592 18.2837 29.0592 18.183 29.0423 18.0655C29.0087 17.9479 28.9582 17.864 28.8908 17.78C28.8235 17.6961 28.7561 17.6121 28.6551 17.5618L28.4531 17.4778C28.3015 17.4442 28.15 17.4442 27.9985 17.4778L27.7965 17.5618C27.6618 17.6289 27.5776 17.7297 27.4934 17.864Z" fill="black"/>
<path d="M37.6119 12.0548C37.1405 12.2731 36.6859 12.5081 36.2987 12.8607C35.861 13.2637 35.6084 13.8009 35.5579 14.3886C35.4569 15.6142 36.6018 16.4033 37.6793 16.6048C38.7568 16.8062 39.9017 16.5712 40.6424 15.7485C41.3832 14.9258 41.6526 13.7841 41.1812 12.76C40.7098 11.7358 39.4639 11.0978 38.3527 11.4C37.9318 11.5176 37.6288 12.0045 37.7635 12.441C37.8982 12.8775 38.3359 13.1461 38.8073 13.0286C38.841 13.0286 38.8746 13.0286 38.9083 12.995C39.0598 12.9615 38.8578 13.0118 38.841 12.995C38.841 12.995 39.0262 12.995 39.0598 12.995C39.2114 12.995 39.0093 12.995 38.9925 12.995C39.0093 12.995 39.0767 12.995 39.0935 13.0118C39.1272 13.0118 39.1609 13.0286 39.1945 13.0454C39.2282 13.0454 39.245 13.0622 39.2619 13.079C39.3292 13.0958 39.2956 13.079 39.1777 13.0454C39.2282 13.0958 39.3124 13.1126 39.3629 13.1461C39.3629 13.1461 39.4471 13.1965 39.4471 13.2133C39.4471 13.2133 39.3124 13.0958 39.3966 13.1797C39.4471 13.2301 39.4976 13.2805 39.5481 13.3308C39.6491 13.4316 39.5313 13.314 39.5144 13.2805C39.5313 13.3308 39.5818 13.3812 39.5986 13.4148C39.6154 13.4484 39.6323 13.4819 39.6491 13.5155C39.7165 13.633 39.5986 13.4819 39.6323 13.4651C39.6323 13.4651 39.6828 13.6498 39.6996 13.6666C39.6996 13.7002 39.6996 13.7506 39.7165 13.7841C39.7165 13.7506 39.7165 13.5827 39.7165 13.7338C39.7165 13.8177 39.7165 13.9017 39.7165 13.9856C39.7165 14.1031 39.767 13.7674 39.7165 13.952C39.7165 13.9856 39.7165 14.0192 39.6996 14.0528C39.6996 14.1031 39.6323 14.2039 39.6323 14.271C39.6323 14.2542 39.7165 14.0864 39.6491 14.2207C39.6323 14.2542 39.6154 14.2878 39.5986 14.3214C39.5649 14.3886 39.5144 14.4725 39.4639 14.5397C39.3966 14.6404 39.5649 14.4221 39.4976 14.5061C39.4639 14.5397 39.4471 14.5565 39.4302 14.59C39.3797 14.6404 39.3292 14.6908 39.2619 14.7411C39.1104 14.8755 39.3797 14.674 39.2114 14.7747C39.144 14.8251 39.0598 14.8587 38.9757 14.909C38.7905 15.0098 39.0935 14.8755 38.9757 14.909C38.942 14.909 38.8915 14.9426 38.8578 14.9426C38.7736 14.9594 38.6895 14.9762 38.6053 14.993C38.4874 15.0266 38.7568 14.993 38.6389 14.993C38.6053 14.993 38.5548 14.993 38.5211 14.993C38.4201 14.993 38.3359 14.993 38.2349 14.993C38.218 14.993 38.1339 14.993 38.1002 14.993C38.218 15.0434 38.218 15.0098 38.1339 14.993C38.0497 14.993 37.9655 14.9594 37.8813 14.9426C37.7971 14.9258 37.713 14.8922 37.6456 14.8587C37.4772 14.8083 37.6793 14.8587 37.6624 14.8587C37.6624 14.8587 37.5109 14.7747 37.4941 14.7747C37.4267 14.7411 37.3594 14.6908 37.2752 14.6404C37.1237 14.5565 37.3089 14.6404 37.2921 14.6572L37.2079 14.5732C37.09 14.4557 37.2415 14.5732 37.2247 14.6068C37.2247 14.59 37.1574 14.5229 37.1742 14.5061C37.1574 14.5565 37.2415 14.6572 37.2079 14.5397C37.2079 14.4725 37.2079 14.4725 37.2079 14.5397C37.2079 14.6068 37.2079 14.6068 37.2079 14.5397C37.2079 14.5229 37.2079 14.4221 37.2079 14.4221C37.2415 14.4557 37.1742 14.6068 37.2079 14.4389C37.2079 14.4054 37.2247 14.355 37.2415 14.3214C37.2921 14.1535 37.2584 14.3214 37.2415 14.3214C37.2415 14.3214 37.2921 14.2375 37.2921 14.2207C37.2921 14.1871 37.3257 14.1703 37.3426 14.1535C37.3762 14.1031 37.3594 14.1199 37.2921 14.2039C37.3089 14.1367 37.4436 14.0528 37.4941 14.0024C37.5278 13.9688 37.6288 13.8681 37.4941 14.0024C37.5278 13.9688 37.5783 13.9352 37.6288 13.9185C37.713 13.8681 37.7971 13.8177 37.8813 13.7674C38.0665 13.6666 38.2685 13.5827 38.4537 13.4819C38.8578 13.2972 38.9925 12.6928 38.7568 12.3403C38.4874 11.9205 38.0328 11.8366 37.6119 12.038V12.0548Z" fill="black"/>
<path d="M43.6898 10.6277V15.4127C43.6898 15.8492 44.077 16.2689 44.5316 16.2521C44.9862 16.2354 45.3734 15.8828 45.3734 15.4127V10.6277C45.3734 10.1912 44.9862 9.77142 44.5316 9.78821C44.077 9.805 43.6898 10.1576 43.6898 10.6277Z" fill="black"/>
<path d="M45.2555 13.1461H47.4106C47.8483 13.1461 48.2692 12.76 48.2524 12.3066C48.2355 11.8533 47.882 11.4672 47.4106 11.4672H45.2555C44.8178 11.4672 44.3969 11.8533 44.4137 12.3066C44.4306 12.76 44.7841 13.1461 45.2555 13.1461Z" fill="black"/>
<path d="M53.2022 6.4136C52.0573 7.97502 51.0977 9.65396 50.3064 11.4169C50.1212 11.8198 50.1717 12.3403 50.6094 12.5585C50.9798 12.7432 51.5691 12.6929 51.7543 12.2563C52.5287 10.4934 53.5052 8.81449 54.6501 7.25307C54.9026 6.90049 54.7174 6.29607 54.347 6.11139C53.9093 5.87634 53.4716 6.02744 53.2022 6.4136Z" fill="black"/>
<path d="M51.8553 10.0401L53.2864 11.4672C53.4379 11.6183 53.6736 11.7191 53.8757 11.7191C54.0777 11.7191 54.3302 11.6351 54.4649 11.4672C54.5996 11.2993 54.7175 11.0979 54.7175 10.8796C54.7175 10.6613 54.6333 10.4431 54.4649 10.292L53.0339 8.86488C52.8823 8.71377 52.6466 8.61304 52.4446 8.61304C52.2426 8.61304 51.99 8.69698 51.8553 8.86488C51.7206 9.03277 51.6028 9.23425 51.6028 9.45251C51.6028 9.67077 51.687 9.88903 51.8553 10.0401Z" fill="black"/>
<path d="M50.9967 15.5135L55.8118 14.355C56.2327 14.2543 56.5358 13.7506 56.4011 13.3141C56.2495 12.8776 55.8286 12.6257 55.3572 12.7264L50.5421 13.8849C50.1212 13.9857 49.8181 14.4893 49.9528 14.9259C50.1044 15.3624 50.5253 15.6142 50.9967 15.5135Z" fill="black"/>
<path d="M52.815 14.9426V16.3697C52.815 16.588 52.916 16.8063 53.0675 16.9574C53.219 17.1085 53.4547 17.2092 53.6568 17.2092C53.8588 17.2092 54.0945 17.1253 54.246 16.9574C54.3976 16.7895 54.4986 16.588 54.4986 16.3697V14.9426C54.4986 14.7244 54.3976 14.5061 54.246 14.355C54.0945 14.2039 53.8588 14.1031 53.6568 14.1031C53.4547 14.1031 53.219 14.1871 53.0675 14.355C52.916 14.5229 52.815 14.7244 52.815 14.9426Z" fill="black"/>
<path d="M56.8893 9.20067V15.4128C56.8893 16.4873 58.5729 16.4873 58.5729 15.4128V9.20067C58.5729 8.12614 56.8893 8.12614 56.8893 9.20067Z" fill="black"/>
<path d="M54.5154 19.4925L54.2292 22.1117C54.2124 22.3132 54.3471 22.565 54.4818 22.6993C54.6333 22.8504 54.869 22.9512 55.071 22.9512C55.2731 22.9512 55.5088 22.8672 55.6603 22.6993C55.8287 22.5314 55.8792 22.3468 55.9128 22.1117L56.199 19.4925C56.2159 19.2911 56.0812 19.0392 55.9465 18.9049C55.795 18.7538 55.5593 18.6531 55.3572 18.6531C55.1552 18.6531 54.9195 18.737 54.768 18.9049C54.5996 19.0728 54.5491 19.2575 54.5154 19.4925Z" fill="black"/>
<path d="M58.3036 18.0487C58.3709 18.8714 58.3877 19.6941 58.3541 20.5167C58.3541 20.9197 58.3204 21.3226 58.2699 21.7256C58.2362 22.1621 58.1857 22.4643 58.1352 22.8505C58.0679 23.287 58.2362 23.7739 58.7245 23.8914C59.1285 23.9754 59.6841 23.7739 59.7683 23.3038C60.0377 21.5577 60.1219 19.8116 60.004 18.0487C59.9703 17.6122 59.6336 17.1924 59.1622 17.2092C58.7413 17.226 58.2867 17.5786 58.3204 18.0487H58.3036Z" fill="black"/>
<path d="M54.8522 24.1432H59.1622C59.5999 24.1432 60.0208 23.757 60.004 23.3037C59.9872 22.8504 59.6336 22.4642 59.1622 22.4642H54.8522C54.4144 22.4642 53.9935 22.8504 54.0103 23.3037C54.0272 23.757 54.3807 24.1432 54.8522 24.1432Z" fill="black"/>
<path d="M59.179 20.0969L54.8521 21.0036C54.4144 21.0875 54.1282 21.6248 54.2629 22.0445C54.4144 22.4978 54.8353 22.7329 55.3067 22.6321L59.6336 21.7255C60.0713 21.6416 60.3575 21.1043 60.2229 20.6846C60.0713 20.2312 59.6504 19.9962 59.179 20.0969Z" fill="black"/>
<path d="M62.5294 13.1797L66.1155 12.8943C66.5533 12.8607 66.9742 12.5417 66.9573 12.0549C66.9405 11.6351 66.5869 11.1818 66.1155 11.2154L62.5294 11.5008C62.0917 11.5344 61.6708 11.8534 61.6876 12.3403C61.7045 12.76 62.058 13.2133 62.5294 13.1797Z" fill="black"/>
<path d="M62.6304 12.0716C62.1085 13.5323 61.9907 15.0769 62.2264 16.6047C62.2937 17.0413 62.8661 17.3267 63.2702 17.1924C63.7416 17.0413 63.9268 16.6215 63.8595 16.1514C63.8595 16.0843 63.8595 16.0843 63.8595 16.1514V16.0339C63.8426 15.95 63.8258 15.866 63.8258 15.7653C63.8258 15.6142 63.809 15.4631 63.809 15.312C63.809 14.9762 63.809 14.6404 63.8426 14.3046C63.8426 14.271 63.8763 14.0024 63.8426 14.1871C63.8426 14.1199 63.8595 14.036 63.8763 13.9688C63.91 13.8009 63.9437 13.6498 63.9773 13.4819C64.0615 13.1461 64.1457 12.8271 64.2635 12.5081C64.4151 12.0884 64.0952 11.5679 63.6743 11.4672C63.2029 11.3664 62.7988 11.6183 62.6304 12.0548V12.0716Z" fill="black"/>
<path d="M63.0008 17.461H68.0348C68.4726 17.461 68.8935 17.0749 68.8766 16.6216C68.8598 16.1683 68.5063 15.7821 68.0348 15.7821H63.0008C62.5631 15.7821 62.1422 16.1683 62.159 16.6216C62.1759 17.0749 62.5294 17.461 63.0008 17.461Z" fill="black"/>
<path d="M70.5266 9.68749C70.6445 12.1555 70.6108 14.6404 70.4087 17.1084C70.3751 17.5617 70.8128 17.9479 71.2506 17.9479C71.7388 17.9479 72.0587 17.5617 72.0924 17.1084C72.2776 14.6404 72.3112 12.1555 72.2102 9.68749C72.1934 9.23418 71.8398 8.84802 71.3684 8.84802C70.9307 8.84802 70.5098 9.23418 70.5266 9.68749Z" fill="black"/>
<path d="M72.3617 13.1461H75.4764C75.9141 13.1461 76.335 12.76 76.3182 12.3066C76.3014 11.8533 75.9478 11.4672 75.4764 11.4672H72.3617C71.924 11.4672 71.5031 11.8533 71.5199 12.3066C71.5367 12.76 71.8903 13.1461 72.3617 13.1461Z" fill="black"/>
<path d="M75.6279 16.8734L75.3922 17.8304C75.3586 17.9479 75.3586 18.0487 75.3922 18.1662C75.3922 18.2837 75.4259 18.3845 75.4932 18.4852C75.5438 18.5859 75.6111 18.6699 75.7121 18.7202C75.7963 18.7874 75.8805 18.8378 75.9983 18.8713L76.2172 18.9049C76.3687 18.9049 76.5034 18.8713 76.6381 18.7874C76.8233 18.6699 76.9748 18.502 77.0253 18.2837L77.261 17.3267C77.2947 17.2092 77.2947 17.1085 77.261 16.9909C77.261 16.8734 77.2274 16.7727 77.16 16.6719C77.1095 16.5712 77.0422 16.4872 76.9412 16.4369C76.857 16.3697 76.7728 16.3194 76.6549 16.2858L76.4361 16.2522C76.2845 16.2522 76.1499 16.2858 76.0152 16.3697C75.83 16.4872 75.6784 16.6551 75.6279 16.8734Z" fill="black"/>
<path d="M79.6686 17.2092L79.1972 17.6793C79.1972 17.6793 79.0625 17.8472 79.0288 17.948C78.9783 18.0487 78.9447 18.1494 78.9615 18.267C78.9615 18.3845 78.9783 18.4852 79.0288 18.586C79.0625 18.6867 79.113 18.7874 79.1972 18.8546L79.3656 18.9889C79.5003 19.0729 79.6349 19.1064 79.7865 19.1064L80.0053 19.0729C80.14 19.0393 80.2747 18.9553 80.3757 18.8546L80.8471 18.3845C80.8471 18.3845 80.9818 18.2166 81.0155 18.1159C81.066 18.0151 81.0997 17.9144 81.0829 17.7969C81.0829 17.6793 81.066 17.5786 81.0155 17.4779C80.9818 17.3771 80.9313 17.2764 80.8471 17.2092L80.6788 17.0749C80.5441 16.991 80.4094 16.9574 80.2579 16.9574L80.039 16.991C79.9043 17.0246 79.7696 17.1085 79.6686 17.2092Z" fill="black"/>
<path d="M83.6251 18.8882C84.7026 18.8882 84.7026 17.2092 83.6251 17.2092C82.5476 17.2092 82.5476 18.8882 83.6251 18.8882Z" fill="black"/>
<path d="M6.22937 41.0838C4.34372 43.2161 5.11818 46.0703 6.46507 48.2697C7.29005 49.5961 8.35072 50.8553 8.77163 52.3831C9.24304 54.0789 8.65377 55.2205 7.44157 56.3622C6.58293 57.1681 5.69061 57.974 5.28655 59.1157C4.83197 60.442 5.16869 61.802 5.67378 63.0444C6.22937 64.4211 6.98699 65.7307 7.00383 67.2586C7.02067 68.7864 6.38089 70.331 5.26971 71.4391C4.51208 72.2114 5.69061 73.3867 6.46507 72.6312C8.40123 70.6836 9.19253 67.8126 8.36756 65.1767C7.92982 63.7831 7.0375 62.4904 6.81863 61.0297C6.56609 59.4515 7.60993 58.5448 8.65377 57.5711C9.57976 56.698 10.3711 55.7578 10.5899 54.465C10.8425 53.0715 10.4216 51.6612 9.81547 50.4188C8.72112 48.2361 5.2192 44.8279 7.44157 42.2927C8.14869 41.4868 6.97016 40.2947 6.2462 41.1006L6.22937 41.0838Z" fill="black"/>
<path d="M11.2297 44.66C10.4552 46.7922 11.0613 48.6726 12.1725 50.553C12.7786 51.5604 13.2669 52.5342 13.1659 53.743C13.0817 54.7336 12.7113 55.6906 12.4082 56.6308C11.8021 58.4441 11.3644 60.2406 12.0883 62.0874C12.5934 63.3298 12.223 64.354 12.1388 65.63C12.0547 66.822 12.1725 68.0141 12.4251 69.1725C12.6439 70.2303 14.277 69.777 14.0413 68.7192C13.7888 67.5775 13.7214 66.4023 13.8561 65.2438C13.9908 64.1357 14.2939 63.1787 13.9066 62.0874C13.5699 61.1136 13.25 60.3413 13.4184 59.2836C13.5699 58.3266 13.9235 57.4031 14.2265 56.4797C14.7821 54.784 15.1694 53.0043 14.4622 51.2918C14.075 50.3516 13.4857 49.5457 13.0312 48.6558C12.4419 47.4974 12.4082 46.3221 12.846 45.0965C13.2164 44.0723 11.5833 43.6358 11.2297 44.6432V44.66Z" fill="black"/>
<path d="M17.779 40.6137C17.1055 43.3 16.954 46.0367 17.3917 48.7733C17.6106 50.2004 18.0315 51.6275 17.9305 53.0714C17.8295 54.5153 17.2234 55.7745 16.8193 57.0841C15.9943 59.7201 16.4489 62.2049 17.257 64.7905C18.0652 67.376 19.1427 70.1799 17.981 72.7655C17.5433 73.7392 18.9912 74.5955 19.4289 73.6049C20.4559 71.3048 20.2034 68.8703 19.5299 66.4862C18.7386 63.632 17.4759 60.8617 18.3177 57.8732C18.6881 56.5804 19.2605 55.3548 19.4794 54.0116C19.6983 52.6685 19.5636 51.3757 19.3279 50.0661C18.7723 46.9937 18.6208 44.0891 19.3952 41.0334C19.6646 39.9925 18.0315 39.5391 17.779 40.5801V40.6137Z" fill="black"/>
<path d="M22.4089 40.3115L22.8803 45.3148C22.914 45.7513 23.2339 46.171 23.7221 46.1542C24.143 46.1375 24.6144 45.7849 24.5639 45.3148L24.0925 40.3115C24.0589 39.875 23.739 39.4553 23.2507 39.472C22.8298 39.4888 22.3584 39.8414 22.4089 40.3115Z" fill="black"/>
<path d="M1.31322 46.5235C0.454581 47.6652 0.437745 49.1427 0.774467 50.469C1.12803 51.8961 2.57593 53.978 1.73413 55.4219C1.3469 56.0767 0.858648 56.5972 0.555598 57.3191C0.252547 58.0411 0.117858 58.7127 0.0505133 59.4514C-0.117848 61.0296 0.168366 62.6246 0.437745 64.1692C0.622942 65.227 2.25605 64.7737 2.05401 63.7159C1.80147 62.272 1.53209 60.7442 1.75096 59.2835C1.85198 58.5784 2.07085 57.89 2.45808 57.2856C2.82848 56.7147 3.29989 56.2614 3.50192 55.5898C4.36057 52.8867 0.909156 49.8478 2.76113 47.3966C3.41774 46.5235 1.953 45.7008 1.31322 46.5571V46.5235Z" fill="black"/>
<path d="M94.9221 48.8405C95.7639 50.6369 95.0568 52.8532 94.9558 54.7336C94.838 56.8826 95.0232 59.0485 95.3094 61.1807C95.5787 63.1451 96.1848 65.1598 96.168 67.141C96.168 68.1987 95.7808 68.8871 95.2252 69.7433C95.0232 70.0623 94.8716 70.3981 94.8043 70.7675C94.7201 71.204 94.8885 71.7749 94.6359 72.161C94.0635 73.0844 95.5114 73.9239 96.0838 73.0005C96.6057 72.1778 96.269 71.2712 96.7741 70.4485C97.2792 69.6258 97.6833 68.9374 97.8011 67.9637C98.0705 65.7978 97.3465 63.548 97.0267 61.4326C96.6731 59.0149 96.4711 56.5636 96.6731 54.1292C96.8415 52.0137 97.3129 49.9989 96.37 47.9842C95.9155 47.0104 94.4676 47.8499 94.9221 48.8237V48.8405Z" fill="black"/>
<path d="M98.3231 48.5551C99.8888 53.8774 98.2725 59.5186 99.3501 64.908C99.5689 65.9658 101.185 65.5125 100.966 64.4547C99.8888 59.0485 101.522 53.4576 99.9393 48.1018C99.6363 47.0609 98.0032 47.5142 98.3231 48.5551Z" fill="black"/>
<path d="M30.6586 76.7446C30.6586 75.0656 32.4096 73.6049 34.0764 74.1254C34.9013 74.394 35.5916 75.032 36.3997 75.3846C37.09 75.7036 37.8308 75.8715 38.5716 75.8883C41.6695 75.989 44.3127 73.8568 47.1749 72.9837C48.808 72.4968 50.3064 72.564 51.8048 73.4035C53.3032 74.2429 54.6333 75.5021 56.2495 76.2241C60.1219 77.9198 63.9268 75.4182 67.8496 75.7204C68.8093 75.7876 69.8026 76.073 70.5434 76.6942C71.2337 77.2818 71.6883 78.0877 72.2102 78.7929C72.6816 79.4141 73.1867 80.0185 73.877 80.3879C74.2137 80.5725 74.6009 80.6733 74.9882 80.7069C75.1902 80.7069 76.3519 80.7404 76.4024 80.5054C76.133 81.5463 77.7493 81.9997 78.0187 80.9587C78.2207 80.1864 77.884 79.4644 77.1432 79.1119C76.2172 78.6921 75.2575 79.3469 74.3989 78.7425C73.6918 78.2556 73.2541 77.3825 72.7658 76.711C72.2776 76.0394 71.6883 75.4014 70.9475 74.9481C66.8563 72.4465 62.4284 75.8379 58.1857 75.0992C56.1317 74.7298 54.6164 73.1684 52.8823 72.1275C51.3334 71.1872 49.6666 70.8011 47.8652 71.1033C46.0637 71.4055 44.4474 72.2618 42.8143 73.0005C41.2991 73.6889 39.5649 74.4948 37.8645 74.159C36.787 73.9407 35.962 73.1684 34.9687 72.7319C34.0764 72.3289 33.0999 72.245 32.157 72.5304C30.2882 73.0845 28.9077 74.797 28.9245 76.7613C28.9245 77.8359 30.6249 77.8359 30.6081 76.7613L30.6586 76.7446Z" fill="black"/>
<path d="M71.4357 60.7106C70.1898 60.7946 69.4491 62.0874 69.7858 63.2458C70.1225 64.4043 71.402 64.9919 72.5132 65.1766C73.7591 65.3613 75.2744 65.2774 76.335 64.505C77.4631 63.6824 77.4462 62.2385 76.6044 61.2311C75.6616 60.1062 74.0958 60.1398 72.7658 60.3077C72.328 60.3581 71.9071 60.6603 71.924 61.1472C71.9408 61.5501 72.2944 62.0538 72.7658 61.9866C73.2035 61.9363 73.6581 61.8691 74.0958 61.8859C74.4494 61.8859 74.8029 61.9363 75.0723 62.1042C75.1228 62.1377 75.2407 62.2385 75.1397 62.1377C75.207 62.1881 75.2744 62.2553 75.3249 62.3224C75.3922 62.3896 75.3249 62.3224 75.3249 62.3056C75.3585 62.3392 75.3754 62.3896 75.4091 62.4232C75.4427 62.4735 75.5437 62.7086 75.4932 62.5575C75.5101 62.6246 75.5269 62.6918 75.5606 62.7589C75.5774 62.8261 75.5606 62.8933 75.5606 62.7589C75.5606 62.7925 75.5606 62.8261 75.5606 62.8597C75.5606 62.8933 75.5606 62.9268 75.5606 62.9604C75.5606 62.9101 75.5942 62.8093 75.5606 62.9436C75.5606 62.9436 75.5101 63.0612 75.5606 62.9772C75.6111 62.8933 75.5269 63.0276 75.5269 63.0276C75.4596 63.1283 75.6111 62.9604 75.5101 63.0444C75.4764 63.0779 75.4427 63.1115 75.4259 63.1283C75.4259 63.1283 75.5101 63.0779 75.4259 63.1283C75.3754 63.1619 75.3249 63.1955 75.2744 63.2123C75.2407 63.2291 75.0723 63.313 75.106 63.2962C75.1902 63.2626 75.005 63.3298 74.9881 63.3298C74.9208 63.3466 74.8703 63.3802 74.8029 63.3969C74.3484 63.5313 74.0453 63.5816 73.5571 63.5816C73.0688 63.5816 72.8163 63.5481 72.3785 63.4137C72.2944 63.3802 72.1934 63.3634 72.1092 63.3298C71.9745 63.2794 72.1428 63.3634 72.0082 63.2794C71.924 63.2291 71.8398 63.1955 71.7724 63.1451C71.7388 63.1283 71.7051 63.0947 71.6714 63.0779C71.7724 63.1451 71.6714 63.0779 71.6378 63.0444C71.6041 63.0108 71.4694 62.8429 71.5367 62.9436C71.5031 62.8933 71.4862 62.8597 71.4526 62.8093C71.402 62.7254 71.4526 62.7422 71.4526 62.8093C71.4526 62.7757 71.4357 62.7086 71.4189 62.6918C71.4357 62.7422 71.4189 62.8261 71.4189 62.7254C71.4189 62.6918 71.4189 62.6582 71.4189 62.6246C71.4189 62.5071 71.4526 62.5239 71.4189 62.6246C71.4357 62.5575 71.5367 62.356 71.4357 62.5239C71.4526 62.4903 71.5704 62.3224 71.5031 62.3896C71.4357 62.4735 71.5031 62.3896 71.5367 62.356C71.6378 62.2888 71.4021 62.44 71.5031 62.3728C71.5872 62.3224 71.4357 62.3896 71.4357 62.3896C71.4862 62.3896 71.6546 62.356 71.4526 62.3896C71.8903 62.356 72.3112 62.0202 72.2944 61.5501C72.2775 61.1136 71.924 60.6771 71.4526 60.7106H71.4357Z" fill="black"/>
<path d="M50.6768 79.0615C50.2559 79.0615 49.8013 79.1958 49.4646 79.4477C49.3467 79.5316 49.2457 79.6156 49.1447 79.7163C49.0437 79.817 48.9595 79.9346 48.8753 80.0353C48.7406 80.2032 48.6565 80.4215 48.5891 80.6229C48.5218 80.8244 48.5723 81.093 48.6733 81.2777C48.7743 81.4624 48.9763 81.6135 49.1784 81.6639C49.3972 81.7143 49.6329 81.6975 49.835 81.5799C50.037 81.4624 50.1549 81.2945 50.2222 81.0763C50.2222 81.0427 50.239 81.0091 50.2559 80.9755L50.1717 81.177C50.2222 81.0763 50.2727 80.9755 50.3401 80.8748L50.2054 81.0427C50.2727 80.9419 50.3737 80.858 50.4579 80.7908L50.2896 80.9252C50.3906 80.858 50.4916 80.7908 50.6094 80.7405L50.4074 80.8244C50.5253 80.774 50.6431 80.7405 50.761 80.7237L50.5421 80.7573C50.5421 80.7573 50.6431 80.7573 50.6936 80.7573C50.9125 80.7573 51.1314 80.6733 51.2829 80.5054C51.4344 80.3543 51.5354 80.1193 51.5354 79.9178C51.5354 79.7163 51.4512 79.4813 51.2829 79.3302C51.1145 79.179 50.9125 79.0783 50.6936 79.0783L50.6768 79.0615Z" fill="black"/>
<path d="M52.3267 80.6733L53.0002 82.9063C53.0675 83.1078 53.2022 83.2925 53.3874 83.41C53.5726 83.5275 53.842 83.5611 54.044 83.4939C54.4649 83.3596 54.768 82.9063 54.6333 82.453L53.9598 80.22C53.8925 80.0185 53.7578 79.8338 53.5726 79.7163C53.3874 79.5988 53.118 79.5652 52.916 79.6324C52.4951 79.7667 52.192 80.22 52.3267 80.6733Z" fill="black"/>
<path d="M55.997 83.2757L56.1822 84.0144C56.2159 84.132 56.2664 84.2159 56.3337 84.2999C56.4011 84.3838 56.4684 84.4678 56.5694 84.5181C56.6704 84.5853 56.7715 84.6189 56.8893 84.6189C57.0072 84.6357 57.1082 84.6357 57.226 84.6189L57.4281 84.5349C57.5628 84.4678 57.6469 84.367 57.7311 84.2327L57.8153 84.0312C57.849 83.8801 57.849 83.729 57.8153 83.5779L57.6301 82.8392C57.5964 82.7217 57.5459 82.6377 57.4786 82.5538C57.4112 82.4698 57.3439 82.3859 57.2429 82.3355C57.1419 82.2683 57.0408 82.2348 56.923 82.2348C56.8051 82.218 56.7041 82.218 56.5863 82.2348L56.3842 82.3187C56.2495 82.3859 56.1654 82.4866 56.0812 82.6209L55.997 82.8224C55.9633 82.9735 55.9633 83.1246 55.997 83.2757Z" fill="black"/>
<path d="M44.7 81.1769C44.4643 82.4194 44.6326 83.6954 45.2387 84.8203C45.4407 85.2064 46.0132 85.3575 46.3836 85.1225C46.7876 84.8706 46.9055 84.3837 46.6866 83.9808C46.6529 83.9136 46.6193 83.8633 46.6024 83.7961C46.5688 83.7457 46.5014 83.5275 46.5856 83.7625C46.5519 83.645 46.5014 83.5443 46.4678 83.4267C46.3836 83.1749 46.3331 82.9231 46.2994 82.6712L46.3331 82.8895C46.2826 82.4865 46.2826 82.0668 46.3331 81.6638L46.2994 81.8821C46.2994 81.7982 46.3331 81.7142 46.3331 81.6303C46.3836 81.412 46.3667 81.1937 46.2489 80.9755C46.1479 80.8076 45.9458 80.6397 45.7438 80.5893C45.3229 80.4886 44.801 80.7068 44.7 81.1769Z" fill="black"/>
<path d="M50.239 84.921L49.6835 85.2904C49.5824 85.3407 49.4983 85.4079 49.4477 85.5086C49.3804 85.5926 49.3299 85.6765 49.2962 85.794C49.2625 85.9116 49.2625 86.0123 49.2962 86.1298C49.2962 86.2474 49.3299 86.3481 49.3972 86.4488L49.5319 86.6167C49.6329 86.7175 49.7676 86.7846 49.9023 86.835L50.1212 86.8686C50.2727 86.8686 50.4074 86.835 50.5421 86.751L51.0977 86.3817C51.1987 86.3313 51.2829 86.2642 51.3334 86.1634C51.4007 86.0795 51.4512 85.9955 51.4849 85.878C51.5186 85.7605 51.5186 85.6597 51.4849 85.5422C51.4849 85.4247 51.4512 85.3239 51.3839 85.2232L51.2492 85.0553C51.1482 84.9546 51.0135 84.8874 50.8788 84.837L50.6599 84.8035C50.5084 84.8035 50.3737 84.8371 50.239 84.921Z" fill="black"/>
<path d="M31.5341 33.8811C30.8607 33.4614 30.4061 32.8234 30.2377 32.0343C30.0357 31.0941 30.3724 30.4561 30.7765 29.6502C31.5004 28.2399 30.9953 26.7792 29.5474 26.0908C27.8638 25.2849 26.1802 26.2587 24.5639 26.7288C22.712 27.2661 20.7253 27.2661 18.8565 26.7792C16.9877 26.2923 15.5229 25.201 13.9235 24.1097C12.3241 23.0183 10.7583 22.6322 8.87266 22.9344C7.17221 23.203 5.26972 24.0761 3.55244 23.4381C1.39741 22.6322 2.18871 20.0634 2.84532 18.502C3.55244 16.8063 4.02385 15.2448 4.07436 13.3812C4.12487 11.7526 3.93967 9.90579 4.7478 8.42832C5.55594 6.95084 7.3069 6.56469 8.88949 6.34642C10.4721 6.12816 12.0379 5.99385 13.5026 5.32227C15.2704 4.4828 16.5499 2.97175 18.4356 2.30017C20.2034 1.67896 22.1059 1.59501 23.9578 1.71254C28.2342 2.01475 32.3254 3.60975 36.6355 3.62653C38.7905 3.62653 40.8613 3.10606 42.9658 2.68633C45.1882 2.2498 47.3937 2.28338 49.633 2.55201C51.8722 2.82064 53.9598 3.25717 56.1317 3.49222C58.3036 3.72727 60.3912 3.62653 62.5294 3.45864C64.6676 3.29075 66.7216 3.07248 68.8093 3.25717C71.0148 3.44185 72.8837 4.33169 74.8535 5.2719C76.6213 6.12816 78.3722 6.68221 80.3252 6.76616C82.4466 6.85011 84.6016 6.48074 86.723 6.79974C88.2551 7.018 89.9724 7.60563 90.8983 8.932C92.0769 10.6109 91.5886 12.8607 91.5213 14.7579C91.4539 16.6551 91.8412 18.183 92.5819 19.8284C93.3227 21.4737 94.2487 22.9512 94.5686 24.6637C95.2421 28.3574 91.3866 30.3553 88.1877 30.0867C85.9317 29.902 83.8103 28.945 81.7563 28.0384C80.0727 27.2997 78.3217 26.4434 76.4361 26.477C72.7321 26.5441 69.8868 29.5494 66.166 29.5998C62.4453 29.6502 58.775 27.7698 55.071 27.0646C53.1012 26.6952 51.1819 26.7792 49.1952 26.8967C47.0233 27.031 45.0199 26.712 42.9322 26.158C39.6323 25.2849 36.1977 24.3615 32.9147 25.8222C31.6183 26.4098 30.5408 27.35 29.901 28.626C29.4127 29.583 30.8607 30.4393 31.3489 29.4655C33.1335 25.9061 37.8645 26.5441 41.0297 27.3668C43.0163 27.8873 45.003 28.4917 47.057 28.5924C49.2794 28.6932 51.4849 28.2231 53.7073 28.5085C57.6133 29.0122 61.1994 30.943 65.1559 31.2284C67.0584 31.3627 68.843 30.9933 70.5771 30.2378C72.3112 29.4823 74.1127 28.307 76.0825 28.1559C78.2544 27.988 80.3421 29.264 82.2782 30.0867C84.2144 30.9094 86.2179 31.6313 88.3392 31.7656C91.3866 31.9503 94.9053 30.4393 95.9828 27.4004C97.2456 23.841 94.4171 20.7686 93.4574 17.545C92.3967 13.952 94.6191 9.68752 91.2182 6.88369C88.1035 4.3149 83.9618 5.23832 80.2747 5.08722C77.9345 4.98648 76.0657 3.97911 73.9949 3.02211C72.0755 2.11548 70.1225 1.62859 68.0012 1.52785C65.762 1.42712 63.5396 1.71254 61.3172 1.86364C59.0949 2.01475 56.7883 1.9308 54.5154 1.6118C52.2426 1.2928 50.0539 0.856275 47.7978 0.70517C45.5418 0.554065 43.3362 0.873065 41.097 1.35996C38.8578 1.84685 36.5513 2.08191 34.1774 1.79648C31.8035 1.51106 29.4296 0.873065 27.0557 0.453329C23.4359 -0.20146 19.2942 -0.386144 15.9775 1.62859C15.1189 2.14906 14.3781 2.82064 13.5531 3.37469C12.7281 3.92874 11.8863 4.19738 10.9435 4.38206C9.29356 4.70106 7.57627 4.70106 5.99368 5.33906C2.5086 6.71579 2.52543 10.208 2.40758 13.398C2.37391 14.3214 2.28973 15.228 2.00351 16.1179C1.64995 17.2092 1.09436 18.2334 0.757637 19.3247C0.303061 20.8525 0.269389 22.6826 1.36374 23.9418C4.25955 27.2829 8.65379 23.3206 11.9537 24.882C13.6878 25.7047 15.0178 27.115 16.8025 27.8537C18.5871 28.5924 20.4222 28.9114 22.2911 28.7939C23.2002 28.7435 24.1262 28.5924 25.0017 28.3406C25.995 28.0552 27.0389 27.434 28.0995 27.4508C28.5541 27.4508 29.2949 27.6522 29.4296 28.1895C29.5474 28.626 29.1097 29.0961 28.9413 29.4655C28.5878 30.1706 28.4363 30.943 28.4868 31.7153C28.5878 33.2095 29.3959 34.5191 30.6755 35.3082C31.6014 35.8791 32.4433 34.4352 31.5173 33.8643L31.5341 33.8811Z" fill="#74C4A3"/>
</g>
<defs>
<clipPath id="clip0_54_12919">
<rect width="101" height="98" fill="white"/>
</clipPath>
</defs>
</svg>
