<svg width="149" height="115" viewBox="0 0 149 115" fill="none" xmlns="http://www.w3.org/2000/svg">
<g clip-path="url(#clip0_54_12383)">
<path d="M34.1485 92.9537L34.4353 93.2724L34.216 94.0944C34.3003 93.9937 34.216 94.0273 34.1991 94.0608C34.216 94.0105 34.3341 94.044 34.2328 94.0608C34.2497 94.0608 34.351 94.0944 34.3003 94.0608C34.1991 94.0105 34.351 94.0944 34.3847 94.1111C34.4353 94.1447 34.5197 94.2118 34.5872 94.2957C34.874 94.6144 35.0596 95.0002 35.144 95.4195C35.144 95.4531 35.2452 95.8556 35.1946 95.8724C35.1777 95.8724 35.2452 95.7214 35.2283 95.7382C35.2958 95.6208 35.4139 95.6208 35.4983 95.5705C35.6502 95.4866 35.6333 95.5705 35.5152 95.5202C35.4646 95.5034 35.3802 95.4866 35.3296 95.4698C34.9415 95.3692 34.6378 95.2015 34.2666 94.9498C34.0304 94.7821 33.6592 94.4298 33.4904 94.2118C33.3723 94.0608 33.2711 93.8931 33.1867 93.7253C33.153 93.6582 33.0855 93.5073 33.0686 93.4737C33.0855 93.5241 33.0349 93.3731 33.0349 93.3899C32.9843 93.2557 33.0349 93.306 33.0011 93.4234C32.9674 93.5912 32.8493 93.6415 32.7312 93.7086C32.6637 93.7421 32.7312 93.7086 32.7649 93.7086C32.7312 93.7086 32.6974 93.7086 32.6637 93.6918C32.6468 93.6918 32.5962 93.6247 32.5793 93.6247C32.5793 93.6247 32.6637 93.7421 32.6299 93.675C32.6805 93.7589 32.6805 93.7589 32.7143 93.8763C32.8493 94.346 32.8661 94.8324 33.0855 95.2685C33.6085 96.3085 34.9753 96.4427 35.9876 96.6943C36.6119 96.8453 37.2193 96.8788 37.8099 96.5601C38.2823 96.2918 38.6367 95.8724 38.9404 95.4363C39.4972 94.6311 39.784 93.6415 39.8009 92.6686C39.8178 91.6957 39.5816 90.2699 38.4005 90.0854C37 89.8841 36.2745 91.2931 36.2576 92.4673C36.2576 93.0041 36.3588 93.5744 36.2407 94.0608C36.1226 94.5137 35.9201 94.8827 35.5658 95.2014L36.8988 96.2247L38.7548 92.6183C38.9573 92.2157 38.856 91.7125 38.4511 91.4776C38.0799 91.2596 37.5062 91.377 37.3037 91.7796L35.4477 95.386C35.0259 96.2247 36.072 97.0801 36.7807 96.4092C37.6074 95.6208 38.0292 94.5305 37.9955 93.3899C37.9955 93.1047 37.9618 92.8363 37.9618 92.5512C37.9618 92.2996 37.9618 92.1486 38.0292 91.9808C38.0799 91.8634 38.1474 91.7796 38.198 91.7628C38.1642 91.7628 38.0799 91.7628 38.1642 91.7628C38.2823 91.7628 38.1642 91.7628 38.1642 91.7628C38.1642 91.7628 37.9955 91.6454 37.9786 91.6454C37.9786 91.6454 37.9786 91.6118 37.9786 91.6957C38.063 92.1654 38.1474 92.5176 38.0967 93.0376C38.063 93.3899 37.9111 93.8763 37.7255 94.2118C37.5568 94.5305 37.2531 95.0169 36.9831 95.1176C36.8144 95.1847 36.6288 95.1344 36.4432 95.084C36.1226 95.0002 35.8189 94.9163 35.4983 94.8492C35.2283 94.7821 34.9584 94.7318 34.7053 94.6311C34.5872 94.5976 34.5534 94.4802 34.5197 94.3627C34.3847 93.8595 34.3678 93.3395 34.1147 92.8699C33.8279 92.3499 33.288 92.0144 32.6974 92.0312C32.1069 92.0479 31.5163 92.417 31.3813 93.0208C31.2463 93.6247 31.5332 94.2453 31.8369 94.7318C32.09 95.1679 32.4274 95.5705 32.7987 95.906C33.1699 96.2414 33.5917 96.5434 34.0641 96.7614C34.5703 96.9963 35.1946 97.2479 35.7514 97.1976C37.4218 97.013 36.8819 94.7989 36.342 93.8428C36.0382 93.3228 35.5996 92.8028 35.0427 92.5512C34.3847 92.2492 33.5242 92.3163 33.0517 92.9034C32.8661 93.1215 32.7143 93.4234 32.8324 93.7253C33.0011 94.1615 33.2711 94.4466 33.7098 94.5808C34.1485 94.715 34.6378 94.4131 34.7559 93.9937C34.874 93.5408 34.604 93.1047 34.1654 92.9537H34.1485Z" fill="#74C4A3"/>
<path d="M101.623 46.3388C100.24 45.8356 98.856 44.8291 98.6198 43.3866C98.4848 42.464 98.8392 41.5247 99.4466 40.8202C100.054 40.1157 100.881 39.6292 101.741 39.277C102.939 38.7905 104.239 38.5221 105.521 38.5221C107.225 38.5221 109.047 38.9079 110.549 38.1028C110.616 39.3105 109.874 40.4008 109.149 41.3737C108.288 42.5647 107.411 43.7556 106.314 44.7285C105.217 45.7014 103.85 46.4227 102.382 46.5065" fill="#74C4A3"/>
<path d="M77.6974 42.9001C74.3229 41.2227 70.5771 40.904 66.8819 41.1556C63.1868 41.4072 59.1541 41.9105 55.6952 43.504C52.2362 45.0975 49.4016 47.5801 46.8538 50.2136C44.306 52.8471 42.18 55.8664 40.7796 59.2547C39.2441 62.9786 38.5186 67.0043 38.2149 70.9965C37.9112 74.9887 38.1136 78.9139 38.9404 82.7886C40.4084 89.6492 44.036 96.1239 49.6547 100.452C55.6783 105.081 63.3217 106.289 70.6783 107.312C74.9134 107.899 79.0642 108.335 83.2992 107.413C86.9269 106.624 90.5208 105.316 93.9629 103.941C100.223 101.425 106.196 97.7846 109.098 91.4608C110.684 88.0053 111.426 84.248 112.101 80.5242C112.742 77.0184 113.282 73.4623 113.232 69.8895C113.181 66.3166 112.523 63.0457 110.802 60.0599C108.912 56.7722 105.791 54.34 102.821 52.0419C96.7638 47.3788 89.8628 43.5208 82.1013 42.7659C80.1609 42.5814 78.2036 42.615 76.2801 42.8666C75.2171 43.0008 75.2003 44.6782 76.2801 44.544C83.7211 43.5711 90.9258 46.1543 97.135 50.0794C100.172 52.0084 103.108 54.2226 105.757 56.6548C108.406 59.087 110.228 61.8547 111.021 65.3269C111.764 68.5643 111.629 71.9527 111.241 75.2236C110.853 78.4945 110.212 82.0674 109.402 85.3886C108.592 88.7099 107.343 92.0982 105.065 94.782C103.057 97.1639 100.493 98.9588 97.7593 100.401C95.0259 101.844 91.9719 102.985 88.9685 104.008C85.2228 105.283 81.4601 106.423 77.4612 106.339C73.4623 106.255 69.8178 105.584 66.072 104.947C62.5625 104.343 59.036 103.572 55.7627 102.129C49.6884 99.4452 45.1159 94.413 42.4837 88.4079C39.5141 81.5809 39.1935 73.7307 40.4927 66.4843C41.1508 62.8779 42.2812 59.3722 44.2554 56.2522C46.1114 53.3168 48.5411 50.7671 51.1901 48.5362C54.0416 46.1207 57.1631 44.4266 60.8583 43.6717C64.351 42.9504 68.0968 42.5479 71.6569 42.9169C73.4792 43.1014 75.2509 43.5879 76.8875 44.393C77.8493 44.8795 78.7098 43.4201 77.7312 42.9504L77.6974 42.9001Z" fill="black"/>
<path d="M94.0304 49.6433C96.7132 46.8085 100.003 44.5776 103.631 43.1518C104.053 42.9841 104.357 42.5983 104.222 42.1118C104.104 41.7093 103.614 41.357 103.176 41.5247C99.261 43.0512 95.7177 45.3995 92.8156 48.4524C92.0731 49.2408 93.2542 50.4317 94.0135 49.6433H94.0304Z" fill="black"/>
<path d="M58.9854 69.5037C59.8459 68.6818 61.0776 68.5476 62.2419 68.6483C62.7987 68.6986 63.3892 68.7824 63.9292 68.9837C64.0979 69.0508 64.4016 69.185 64.5534 69.3024C64.5366 69.3024 64.6716 69.4031 64.6716 69.4199C64.6884 69.4366 64.7559 69.5205 64.7053 69.4534C64.7559 69.5373 64.7728 69.5876 64.8065 69.7553C64.874 70.2082 65.4308 70.4598 65.8527 70.3424C66.3251 70.2082 66.5107 69.7553 66.4432 69.3024C66.1395 67.5579 63.9291 67.1386 62.4781 66.9876C60.8077 66.8199 59.0529 67.1386 57.8043 68.3295C57.0113 69.0676 58.2092 70.2586 59.0023 69.5205L58.9854 69.5037Z" fill="black"/>
<path d="M80.9201 70.5605C81.7132 69.6211 82.9449 69.2521 84.1429 69.4534C84.8178 69.5708 85.4589 69.8224 86.0495 70.1747C86.5219 70.4598 87.1294 70.8121 87.3318 71.3488C87.4837 71.7682 87.9055 72.0534 88.378 71.9359C88.7829 71.8185 89.1204 71.3321 88.9685 70.896C88.3442 69.2018 86.3026 68.1282 84.5984 67.8263C82.8943 67.5244 80.9201 67.9605 79.739 69.3695C79.4522 69.7218 79.4016 70.2082 79.739 70.5605C80.0428 70.8624 80.6333 70.9127 80.937 70.5605H80.9201Z" fill="black"/>
<path d="M66.7638 75.6598C70.7458 75.4249 74.7278 75.7604 78.6086 76.6662L77.9843 75.8611C78.0686 77.1862 77.5456 78.4442 76.5332 79.2997C75.369 80.3062 73.7154 80.3229 72.2306 80.3733C70.7458 80.4236 69.2272 80.2894 68.2149 79.1488C67.7593 78.6455 67.4556 78.0081 67.2025 77.3875C66.8819 76.6159 66.5445 75.7772 66.7975 74.9385C67.1181 73.8985 65.4983 73.4624 65.1777 74.4856C64.8572 75.5088 65.1103 76.6327 65.5152 77.6559C65.8695 78.5617 66.2914 79.4339 66.9157 80.1887C68.1811 81.6984 70.1384 82.0842 72.045 82.0506C73.9517 82.0171 76.027 81.8661 77.5962 80.5913C78.9966 79.4507 79.8065 77.6391 79.6884 75.8443C79.6716 75.492 79.4522 75.123 79.0641 75.0391C75.0315 74.0998 70.8977 73.7308 66.7638 73.9656C65.6839 74.0327 65.6839 75.7101 66.7638 75.643V75.6598Z" fill="black"/>
<path d="M59.4241 44.0911C57.0281 44.6278 56.0495 47.6639 57.9562 49.3581C58.8842 50.1968 60.2002 50.3478 61.3982 50.4149C62.2419 50.4484 63.1024 50.4149 63.946 50.331C64.5366 50.2639 65.4815 49.8613 65.8527 50.3645C66.1732 50.8174 66.342 51.2703 66.7807 51.6729C67.2194 52.0755 67.7424 52.3774 68.2992 52.629C69.6322 53.2161 71.117 53.4509 72.5681 53.4845C74.1373 53.518 75.6389 53.2161 77.1406 52.78C78.0011 52.5284 78.8617 52.2935 79.6041 52.8806C80.0934 53.2664 80.4815 53.7529 80.9876 54.1219C83.2149 55.7322 86.387 55.7322 88.6311 54.1722C89.5085 53.5516 88.6648 52.109 87.7874 52.7297C86.6738 53.5013 85.3746 53.82 84.0248 53.6019C82.5737 53.3671 81.7975 52.5116 80.7346 51.6226C79.6716 50.7336 78.3555 50.7168 77.0563 51.069C75.3521 51.5052 73.7829 51.9245 72.0113 51.7903C70.6446 51.6897 68.7717 51.4045 67.793 50.2974C67.405 49.8613 67.3544 49.2239 66.9325 48.8046C66.5107 48.3852 65.937 48.3684 65.3802 48.4355C63.7098 48.6536 62.0225 48.9723 60.3352 48.6536C59.6097 48.5194 58.8842 48.2007 58.6986 47.4123C58.4792 46.5401 59.1204 45.9027 59.9134 45.7349C60.9764 45.5001 60.5208 43.873 59.4578 44.1246L59.4241 44.0911Z" fill="black"/>
<path d="M93.8954 55.5981C95.5321 56.3026 96.5951 57.6613 97.3206 59.2381C97.6749 60.0097 97.928 60.8148 98.1474 61.6367C98.4005 62.5928 98.7042 63.4819 99.5647 64.069C100.324 64.589 101.336 64.8573 102.231 65.0083C103.192 65.176 104.205 65.176 105.099 64.6896C106.972 63.6496 107.208 61.3684 106.854 59.4729C106.651 58.4161 105.032 58.869 105.234 59.9258C105.487 61.3348 105.251 63.3812 103.429 63.4483C102.636 63.4819 101.758 63.247 101.033 62.9619C100.189 62.6264 100.003 62.0225 99.784 61.2006C99.0416 58.3826 97.5906 55.38 94.7559 54.1723C94.3341 53.9878 93.8617 54.0549 93.6086 54.4742C93.3892 54.8265 93.4905 55.4471 93.9123 55.6149L93.8954 55.5981Z" fill="black"/>
<path d="M33.4736 49.3414C33.018 48.5027 32.0225 46.8589 32.5118 45.9027C32.8999 45.1479 33.811 44.7453 34.6378 44.7621C36.6457 44.7957 37.3375 47.144 36.2239 48.5866C35.5996 49.3917 36.865 50.1466 37.5568 49.6098C38.4342 48.9053 39.6153 48.6872 40.712 48.7711C41.6063 48.8382 43.0574 49.1233 43.378 50.113C43.6648 50.9853 42.8549 51.9078 42.0956 52.2098C40.8302 52.713 39.3622 52.193 38.1642 51.7065C37.4893 51.4381 37.0338 52.193 37.1181 52.7465C37.2025 53.3001 37.3206 54.0213 37.1012 54.5917C36.865 55.2123 36.207 55.3297 35.6164 55.3633C35.0259 55.3968 33.9966 55.4807 33.6423 54.8768C33.3555 54.3904 33.811 53.7697 33.5579 53.2162C32.9336 51.824 31.3982 53.1994 30.5714 52.193C29.8796 51.3711 30.9258 50.2136 31.8538 50.6498C32.8324 51.1027 33.6929 49.6601 32.6974 49.2072C31.027 48.4356 28.766 49.442 28.6311 51.4046C28.5636 52.3439 29.0697 53.2497 29.829 53.7865C30.2002 54.0549 30.6221 54.2394 31.0776 54.2897C31.3645 54.3233 31.6176 54.3233 31.9044 54.2897C32.0394 54.273 32.1744 54.2394 32.3093 54.1891C32.1069 53.7697 31.9719 53.6859 31.955 53.9375C31.6513 54.1891 31.9213 55.1787 32.0394 55.4639C32.2419 55.9168 32.5793 56.3194 33.018 56.571C33.946 57.1413 35.144 57.1413 36.1901 56.9903C37.2362 56.8394 38.1305 56.3865 38.5861 55.4304C39.0416 54.4742 38.9235 53.3504 38.7548 52.3104L37.7087 53.3504C39.4128 54.0381 41.4882 54.5246 43.1924 53.5517C44.5084 52.8136 45.4533 51.1865 44.9978 49.6769C44.5084 48.0666 42.7874 47.3788 41.2688 47.1608C39.4972 46.9092 37.7593 47.295 36.3588 48.4188L37.6918 49.442C39.6322 46.9427 37.8099 43.135 34.6378 43.1015C33.2205 43.0847 31.7357 43.806 31.0439 45.0808C30.1496 46.7247 31.1789 48.7375 32.0056 50.2136C32.5287 51.153 33.9966 50.3143 33.4567 49.3749L33.4736 49.3414Z" fill="black"/>
<path d="M115.712 55.2122C115.391 54.5413 114.919 53.5851 115.189 52.8471C115.459 52.109 116.421 51.9077 117.096 51.9245C118.8 51.9581 119.897 53.4677 119.728 55.078C119.66 55.7322 120.487 56.0845 120.993 55.7993C121.719 55.38 122.529 55.1451 123.372 55.1283C123.912 55.1283 124.891 55.1619 125.211 55.6987C125.515 56.1851 124.621 56.5877 124.283 56.789C123.558 57.2251 122.799 57.6109 122.006 57.8961C121.213 58.1812 120.369 58.3993 119.525 58.5167C118.85 58.6173 117.804 58.8354 117.197 58.4664C116.741 58.198 116.589 57.5606 116.421 57.0909C116.184 56.4367 115.931 55.8496 115.493 55.2961C115.206 54.9438 114.598 55.0109 114.295 55.2961C113.94 55.6483 114.008 56.1348 114.295 56.487C114.666 56.9567 114.801 57.6109 115.02 58.1644C115.29 58.8186 115.628 59.4393 116.235 59.8418C116.944 60.3283 117.855 60.3451 118.682 60.2947C119.576 60.2276 120.47 60.0934 121.331 59.8754C122.984 59.4393 124.655 58.718 126.005 57.678C126.629 57.1915 127.084 56.5206 126.983 55.7154C126.899 54.9606 126.359 54.3567 125.718 53.9877C124.03 53.0316 121.753 53.4509 120.15 54.3567L121.415 55.078C121.685 52.4277 119.441 50.0794 116.758 50.2471C115.459 50.331 114.092 50.9516 113.62 52.2432C113.147 53.5348 113.704 54.9103 114.261 56.0677C114.733 57.0406 116.184 56.1851 115.712 55.229V55.2122Z" fill="black"/>
<path d="M37.2531 96.3924C36.0045 96.2414 34.7222 96.3253 33.5073 95.973C32.6637 95.7382 31.7188 95.084 31.5669 94.1614C31.4319 93.3395 32.1744 92.7692 32.9168 92.635C33.9291 92.4672 34.874 93.1718 35.5152 93.8763C35.8864 94.2788 36.5782 94.1614 36.8481 93.7085C37.135 93.2053 37.1856 92.6685 37.1519 92.0982C37.135 91.7627 37.0506 91.3602 37.2868 91.075C37.7593 90.5215 38.5523 90.8066 38.9235 91.3098C40.2902 93.1885 37.793 95.5704 36.8144 96.9962C36.1901 97.8852 37.658 98.7239 38.2655 97.8349C39.1597 96.5433 40.2733 95.3859 40.7458 93.8595C41.1676 92.5343 40.982 91.0247 40.0034 89.9847C39.126 89.0454 37.6749 88.8273 36.5782 89.515C36.0382 89.8505 35.6164 90.4041 35.4983 91.0247C35.4308 91.3769 35.4477 91.7292 35.4646 92.0982C35.4646 92.3666 35.5321 92.635 35.3971 92.8698L36.73 92.7021C35.6839 91.5615 34.1991 90.7563 32.613 91.0079C31.1789 91.2427 29.964 92.4001 29.8965 93.8763C29.829 95.3524 30.9764 96.6775 32.2418 97.2646C33.811 98.0027 35.5827 97.8685 37.27 98.0698C37.7255 98.1201 38.1136 97.6504 38.1136 97.2311C38.1136 96.7278 37.7255 96.4427 37.27 96.3924H37.2531Z" fill="black"/>
<path d="M49.9584 71.4159C48.811 71.9191 47.7649 72.5901 46.7863 73.3785C46.4994 73.6133 46.4826 74.0998 46.6513 74.4017C46.8538 74.7539 47.225 74.8378 47.5962 74.7875L49.6378 74.5191L50.6164 74.3849C50.8695 74.3514 51.2407 74.2172 51.4769 74.301L51.1057 74.083C51.0551 73.8314 51.0214 73.7643 51.0214 73.8649C51.0214 73.9488 50.9876 74.0327 50.9708 74.1165C50.937 74.2675 50.9201 74.4352 50.9201 74.5862C50.9201 74.9552 51.072 75.3243 51.3251 75.5926C51.7975 76.0791 52.5568 76.1797 53.1811 75.9784C53.8054 75.7771 54.3116 75.3075 54.9528 75.1733C55.189 75.123 55.9145 75.1733 55.8133 75.5926C55.5771 76.6494 57.2137 77.0855 57.4331 76.0455C57.6862 74.8714 56.8763 73.7475 55.6952 73.5294C55.0877 73.4288 54.4803 73.5294 53.9066 73.7643C53.6029 73.8817 53.3161 74.0494 53.0461 74.2004C52.9618 74.2507 52.5906 74.3681 52.5399 74.4185C52.5399 74.4185 52.5399 74.7707 52.6074 74.4352C52.6749 74.1836 52.7087 73.8985 52.6749 73.6301C52.5737 72.9256 51.9494 72.5565 51.2576 72.6069C49.874 72.7411 48.4904 72.9759 47.1237 73.1604L47.9505 74.5694C48.811 73.8817 49.7728 73.3114 50.7852 72.8753C51.207 72.6907 51.3082 72.0869 51.0889 71.7346C50.8358 71.3153 50.3465 71.2482 49.9415 71.4327L49.9584 71.4159Z" fill="#74C4A3"/>
<path d="M91.6007 74.6868C90.4027 75.0894 89.3229 75.7101 88.3949 76.5488C88.0743 76.8507 88.0743 77.4378 88.3949 77.7397C88.7492 78.0584 89.2385 78.0584 89.5928 77.7397C89.6772 77.6558 89.7616 77.5887 89.8459 77.5216C89.8797 77.4881 89.9134 77.4546 89.964 77.4378L90.0484 77.3707C89.9472 77.4546 89.9303 77.4713 89.9978 77.421C90.1665 77.3036 90.3352 77.1694 90.5208 77.0688C90.892 76.8339 91.2801 76.6326 91.6851 76.4649L91.4826 76.5488C91.6851 76.4649 91.8707 76.3978 92.0731 76.3307C92.495 76.1965 92.8156 75.7436 92.6637 75.2907C92.5287 74.8714 92.0731 74.5527 91.6176 74.7036L91.6007 74.6868Z" fill="#74C4A3"/>
<path d="M91.955 76.1965L91.7694 77.3035C91.6682 77.9242 92.1406 78.4945 92.8155 78.3435C93.9629 78.0584 95.0934 77.7732 96.2407 77.4881C96.5444 77.421 96.865 77.3371 97.1519 77.3874C97.1856 77.3874 97.4218 77.4881 97.2868 77.3874C97.2868 77.3874 97.2868 77.3371 97.2868 77.3203C97.2868 77.3539 97.2868 77.4545 97.27 77.5048C97.2025 77.941 97.0675 78.3268 97.2025 78.7629C97.3881 79.3164 97.9111 79.6519 98.4679 79.6687C99.0079 79.6854 99.5647 79.4506 100.054 79.2996L101.758 78.7964C102.787 78.4777 102.349 76.8674 101.303 77.1861L99.5984 77.6893C99.3116 77.7732 99.0247 77.8571 98.7379 77.941C98.6873 77.941 98.5186 77.9745 98.4848 78.008C98.3667 77.9745 98.4173 78.0248 98.6198 78.1758C98.7548 78.3939 98.8223 78.4274 98.7885 78.2429C98.9741 77.9745 98.9573 77.4042 98.9066 77.1023C98.8392 76.6494 98.5692 76.2636 98.1811 76.0119C97.4556 75.5758 96.5444 75.6932 95.7683 75.8778C94.6209 76.1629 93.4904 76.4481 92.3431 76.7332L93.3892 77.7732L93.5748 76.6661C93.6423 76.2132 93.4567 75.7603 92.9843 75.6261C92.5793 75.5087 92.0225 75.7603 91.9381 76.2132L91.955 76.1965Z" fill="#74C4A3"/>
<path d="M52.5906 41.3736L51.3589 38.9749C50.9877 38.2369 50.6503 37.3646 50.0935 36.744C49.0811 35.6034 47.3094 35.7711 45.909 35.6537L34.4017 34.7815C31.4827 34.5634 27.5513 34.7647 25.2903 32.5841C23.0293 30.4034 23.6199 26.8474 24.1767 24.1132C24.531 22.3184 24.9191 20.5068 25.2903 18.712C25.6446 17.0681 26.0496 15.4914 27.4163 14.3843C28.6649 13.3779 30.2847 12.7237 31.7695 12.1534C33.4737 11.4992 35.2453 11.0127 37.0676 10.8282C40.7628 10.4424 44.576 10.7611 48.2881 10.8282L59.8291 11.0295L82.7088 11.4153C86.522 11.4824 90.3353 11.4992 94.1317 11.6166C95.9034 11.6669 97.6244 11.8682 99.1261 12.8746C100.375 13.7301 101.438 14.854 102.821 15.5082C104.34 16.2127 106.027 16.4307 107.377 17.4875C108.541 18.3933 109.385 19.6346 110.077 20.9094C111.511 23.5597 112.996 27.3674 111.038 30.1351C109.216 32.6847 105.808 34.0769 102.889 34.8989C99.6491 35.8047 96.2746 36.2576 92.9337 36.6601C89.1711 37.0963 85.4759 37.1634 81.7301 36.593C77.9844 36.0227 74.576 35.6537 70.8977 35.7208C69.0417 35.7543 67.1857 35.8382 65.3297 35.7711C63.4737 35.704 61.6008 35.4189 59.711 35.335C56.7583 35.2176 53.6536 35.9556 52.0001 38.6227C51.3252 39.713 51.1396 40.9207 51.3927 42.162C51.612 43.2188 53.2487 42.7659 53.0125 41.7091C52.675 40.1156 53.7718 38.673 55.0878 37.8846C56.7076 36.9117 58.6818 36.9285 60.504 37.0627C62.3263 37.1969 64.2498 37.4485 66.1396 37.4653C68.1306 37.4821 70.1216 37.3982 72.1126 37.3646C75.9596 37.3311 79.6379 38.0524 83.4512 38.4885C87.2644 38.9246 91.1452 38.5724 94.9585 38.0524C98.3162 37.5995 101.725 37.113 104.947 35.9892C107.748 34.9995 110.735 33.4563 112.473 30.9738C114.362 28.2732 113.603 24.8009 112.422 21.9829C111.308 19.3326 109.672 16.5817 106.989 15.2733C105.369 14.4849 103.631 14.2501 102.163 13.143C100.931 12.2205 99.8516 11.1805 98.4005 10.6102C96.8145 9.98952 95.0766 9.95597 93.3893 9.92242C91.3646 9.88887 89.3229 9.85532 87.2982 9.82178L63.1531 9.4192L51.1902 9.21791C47.2419 9.11727 43.2262 8.93276 39.2273 9.01663C35.6334 9.10049 32.2926 9.98952 29.0361 11.4992C27.6525 12.1366 26.2858 12.9082 25.3072 14.1159C24.3286 15.3236 23.9405 16.9004 23.6199 18.4268C22.5232 23.6771 19.5704 32.215 26.1677 35.1337C29.1879 36.4589 32.8325 36.3414 36.0721 36.5763L42.1463 37.0292C44.0867 37.1801 46.0946 37.1801 48.0181 37.4821C49.0305 37.633 49.2836 38.6227 49.7054 39.4278L51.1396 42.2123C51.6289 43.1684 53.0968 42.3297 52.5906 41.3736Z" fill="#74C4A3"/>
<path d="M32.6974 18.7959L29.9134 22.4862C29.7953 22.6539 29.7784 22.9391 29.829 23.1404C29.8796 23.3417 30.0315 23.543 30.2171 23.6436C30.6558 23.8784 31.0945 23.7107 31.3645 23.3417L34.1485 19.6514C34.2666 19.4837 34.2835 19.1985 34.2329 18.9972C34.1822 18.7959 34.0304 18.5946 33.8448 18.494C33.4061 18.2592 32.9674 18.4269 32.6974 18.7959Z" fill="black"/>
<path d="M32.0563 21.5636C32.1744 21.5972 32.3093 21.6475 32.4275 21.681L32.225 21.5972C32.4612 21.6978 32.6637 21.8152 32.8662 21.9662L32.6974 21.832C32.9168 21.9997 33.1024 22.1842 33.2711 22.4023L33.1361 22.2346C33.288 22.4359 33.4061 22.6371 33.5073 22.872L33.423 22.6707C33.4567 22.7546 33.4904 22.8552 33.5242 22.9559C33.5917 23.1571 33.7267 23.3417 33.9123 23.4591C34.0979 23.5765 34.3678 23.61 34.5703 23.5429C34.9921 23.4088 35.2958 22.9559 35.1609 22.503C34.7897 21.2785 33.7773 20.2888 32.5287 19.9365C32.3093 19.8862 32.0731 19.903 31.8707 20.0204C31.7019 20.1211 31.5332 20.3223 31.4826 20.5236C31.3813 20.9597 31.6176 21.4294 32.0731 21.5636H32.0563Z" fill="black"/>
<path d="M36.2576 18.6953C36.2576 18.7792 36.2914 18.8798 36.3082 18.9637C36.3082 19.0308 36.3251 19.0811 36.342 19.1482C36.342 19.0979 36.342 19.0979 36.342 19.1482C36.3589 19.3327 36.3757 19.5173 36.3926 19.7018C36.4263 20.0876 36.4432 20.4734 36.4432 20.8592C36.4432 21.245 36.4432 21.5972 36.4095 21.9663C36.3757 22.4024 36.342 22.654 36.2914 23.023C36.2239 23.4591 36.4095 23.9456 36.8819 24.063C37.2869 24.1469 37.8437 23.9456 37.928 23.4759C38.2149 21.7314 38.2149 19.9869 37.9112 18.2424C37.8437 17.8063 37.27 17.5212 36.865 17.6553C36.3926 17.8063 36.1901 18.2257 36.2745 18.6953H36.2576Z" fill="black"/>
<path d="M40.0878 18.0411C40.6277 17.9908 41.1845 17.974 41.7244 17.9908C41.9944 17.9908 42.2644 18.0244 42.5343 18.0579C42.7199 18.0747 42.3825 18.0244 42.5849 18.0579C42.6356 18.0579 42.703 18.0747 42.7537 18.0914C42.9055 18.1082 43.0405 18.1418 43.1924 18.1753L42.6862 16.9508L40.5264 20.3056C40.2902 20.6746 40.4421 21.245 40.8302 21.4462C41.252 21.6643 41.7244 21.5469 41.9775 21.1443L44.1372 17.7895C44.4241 17.3534 44.1541 16.6657 43.6311 16.565C42.4668 16.3302 41.2689 16.2463 40.0709 16.3637C39.8347 16.3805 39.6491 16.4476 39.4803 16.6153C39.3285 16.7663 39.2272 17.0011 39.2272 17.2024C39.2441 17.6218 39.5984 18.0914 40.0709 18.0411H40.0878Z" fill="black"/>
<path d="M42.4668 19.9869C42.6524 20.1378 42.838 20.272 43.0405 20.4062C43.243 20.5404 43.4623 20.6243 43.6817 20.7081C44.0698 20.8759 44.4747 20.943 44.8965 20.9933C45.099 21.0101 45.3521 20.8759 45.4871 20.7417C45.6389 20.5907 45.7402 20.3559 45.7402 20.1546C45.7402 19.9533 45.6558 19.7185 45.4871 19.5675L45.3184 19.4333C45.1834 19.3495 45.0484 19.3159 44.8965 19.3159H45.0315C44.7109 19.2991 44.3903 19.1985 44.1035 19.0811L44.306 19.1649C44.0191 19.0475 43.7661 18.8966 43.5298 18.712L43.6986 18.8462L43.6479 18.8127C43.6479 18.8127 43.4792 18.6785 43.378 18.6449C43.2767 18.5946 43.1755 18.5611 43.0574 18.5778C42.8549 18.5778 42.6018 18.6617 42.4668 18.8295C42.3319 18.9972 42.2137 19.1985 42.2137 19.4165C42.2137 19.6178 42.2812 19.8694 42.4668 20.0036V19.9869Z" fill="black"/>
<path d="M46.7019 15.8773L47.0394 21.4127C47.0731 21.8488 47.4106 22.2682 47.883 22.2514C48.3217 22.2346 48.7604 21.8824 48.7267 21.4127L48.3892 15.8773C48.3555 15.4411 48.018 15.0218 47.5456 15.0386C47.1069 15.0553 46.6682 15.4076 46.7019 15.8773Z" fill="black"/>
<path d="M48.0855 19.0979L50.1271 19.316C50.3296 19.3327 50.5827 19.1985 50.7177 19.0643C50.8695 18.9134 50.9708 18.6785 50.9708 18.4773C50.9708 18.276 50.8864 18.0411 50.7177 17.8902L50.5489 17.756C50.414 17.6721 50.279 17.6386 50.1271 17.6386L48.0855 17.4205C47.883 17.4037 47.6299 17.5379 47.4949 17.6721C47.3431 17.8231 47.2419 18.0579 47.2419 18.2592C47.2419 18.4605 47.3262 18.6953 47.4949 18.8463L47.6637 18.9805C47.7987 19.0643 47.9336 19.0979 48.0855 19.0979Z" fill="black"/>
<path d="M43.2261 24.7843L44.6434 24.9856C44.7447 24.9856 44.8628 25.0192 44.964 25.0359C44.9978 25.0359 45.1159 25.0862 44.9978 25.0359C44.9303 25.0024 44.9303 25.0024 44.9978 25.0359L44.9134 24.9688L44.8459 24.885C44.8459 24.885 44.8796 24.9521 44.8459 24.885C44.7953 24.7675 44.8459 24.885 44.8459 24.9185C44.8796 25.0192 44.8459 24.734 44.8459 24.885C44.8459 24.9353 44.8459 24.9688 44.8459 25.0192C44.8459 25.472 44.8459 25.9249 44.8122 26.3778C44.8122 26.4953 44.7953 26.5959 44.7784 26.7133C44.7784 26.7804 44.7784 26.8307 44.7615 26.8978C44.7615 26.9817 44.7615 26.9817 44.7615 26.8978C44.7278 27.1494 44.6772 27.3843 44.6434 27.6359C44.5591 28.072 44.7615 28.5585 45.234 28.6759C45.6558 28.7765 46.1789 28.5585 46.2801 28.0888C46.3982 27.5017 46.4826 26.9146 46.5163 26.3107C46.5501 25.8075 46.6007 25.2875 46.5332 24.8011C46.4826 24.4321 46.3982 24.1134 46.1451 23.8282C45.9426 23.5934 45.6389 23.4424 45.3352 23.3921C44.7953 23.2914 44.2385 23.2411 43.6985 23.1572C43.4623 23.1237 43.2598 23.1237 43.0405 23.2411C42.8718 23.3418 42.703 23.543 42.6524 23.7443C42.5681 24.1469 42.7705 24.7172 43.243 24.7843H43.2261Z" fill="black"/>
<path d="M54.396 18.0244C54.5816 18.0244 54.7503 18.0579 54.9359 18.0747L54.7165 18.0411C55.3577 18.125 55.9989 18.276 56.6063 18.5108C56.8088 18.5779 57.0787 18.5276 57.2643 18.4269C57.4499 18.3263 57.6018 18.125 57.6524 17.9237C57.703 17.7057 57.6862 17.4708 57.5681 17.2695C57.4499 17.0683 57.2812 16.9676 57.0619 16.8837C56.2182 16.5818 55.324 16.3973 54.4128 16.3302C54.2104 16.3302 53.9573 16.4308 53.8223 16.5818C53.6873 16.7328 53.5692 16.9676 53.5692 17.1689C53.5861 17.6553 53.9404 17.974 54.4128 18.0076L54.396 18.0244Z" fill="black"/>
<path d="M54.396 21.161H56.6232C57.0619 21.161 57.4837 20.7752 57.4668 20.3223C57.4499 19.8694 57.0956 19.4836 56.6232 19.4836H54.396C53.9573 19.4836 53.5354 19.8694 53.5523 20.3223C53.5692 20.7752 53.9235 21.161 54.396 21.161Z" fill="black"/>
<path d="M54.7672 22.3689C53.7885 22.3018 53.1136 23.3921 53.3667 24.2643C53.6029 25.0863 54.4803 25.5727 55.3071 25.5559C56.0832 25.5392 56.8088 25.1366 57.2306 24.4992C57.4162 24.214 57.5343 23.8114 57.5174 23.4592C57.5006 23.0231 57.3318 22.654 57.045 22.3186C56.5219 21.6979 55.5096 21.4295 54.8009 21.916C54.6153 22.0334 54.4803 22.2011 54.4128 22.4192C54.3622 22.6205 54.3791 22.8889 54.4972 23.0734C54.7334 23.4256 55.2565 23.6437 55.6445 23.3753C55.6783 23.3418 55.7289 23.325 55.7795 23.3082L55.5771 23.3921C55.5771 23.3921 55.6952 23.3418 55.7627 23.3418L55.5433 23.3753C55.5433 23.3753 55.6952 23.3753 55.7627 23.3753L55.5433 23.3418C55.5433 23.3418 55.6952 23.3753 55.7627 23.4089L55.5602 23.325C55.6445 23.3585 55.7289 23.4089 55.8133 23.476L55.6445 23.3418C55.6445 23.3418 55.7964 23.476 55.8639 23.5598L55.7289 23.3921C55.7289 23.3921 55.8301 23.5431 55.8639 23.6269L55.7795 23.4256C55.7795 23.4256 55.8301 23.5766 55.847 23.6605L55.8133 23.4424C55.8133 23.4424 55.8133 23.5766 55.8133 23.6605L55.847 23.4424C55.847 23.5431 55.8133 23.6269 55.7627 23.7276L55.847 23.5263C55.8133 23.6101 55.7627 23.694 55.6952 23.7779L55.8301 23.6101C55.7627 23.7108 55.6614 23.7947 55.5771 23.8618L55.7458 23.7276C55.6445 23.8114 55.5264 23.8785 55.3915 23.9289L55.5939 23.845C55.4758 23.8953 55.3577 23.9289 55.2396 23.9456L55.4589 23.9121C55.3408 23.9121 55.2059 23.9289 55.0877 23.9121L55.3071 23.9456C55.1721 23.9289 55.054 23.8953 54.9359 23.845L55.1384 23.9289C55.054 23.8953 54.9696 23.845 54.9021 23.7947L55.0709 23.9289C55.0709 23.9289 54.9528 23.8282 54.9021 23.7611L55.0371 23.9289C55.0371 23.9289 54.9528 23.7947 54.919 23.7276L55.0034 23.9289C55.0034 23.9289 54.9696 23.8282 54.9696 23.7779L55.0034 23.996C55.0034 23.996 55.0034 23.8785 55.0034 23.8114L54.9696 24.0295C54.9696 24.0295 55.0034 23.9121 55.0202 23.845L54.9359 24.0463C54.9359 24.0463 54.9865 23.9456 55.0371 23.8953L54.9021 24.063C54.9021 24.063 54.9696 23.996 55.0034 23.9624L54.8346 24.0966C54.8346 24.0966 54.919 24.0463 54.9528 24.0127L54.7503 24.0966C54.7503 24.0966 54.8178 24.063 54.8684 24.063L54.649 24.0966C54.649 24.0966 54.7334 24.0966 54.7672 24.0966C55.2058 24.1301 55.6277 23.694 55.6108 23.2579C55.5939 22.7715 55.2396 22.4527 54.7672 22.4192V22.3689Z" fill="black"/>
<path d="M59.1204 19.2488C59.1204 19.2488 59.1372 19.383 59.1541 19.4501C59.1204 19.2321 59.1541 19.4837 59.1541 19.534C59.1541 19.6682 59.1879 19.8024 59.2047 19.9533C59.2385 20.2385 59.2553 20.5237 59.2722 20.8088C59.306 21.3791 59.3228 21.9494 59.306 22.5365C59.306 22.9727 59.694 23.392 60.1496 23.3752C60.6052 23.3585 60.9933 23.0062 60.9933 22.5365C61.0101 21.2953 60.9258 20.054 60.7402 18.8127C60.7064 18.6114 60.5208 18.4101 60.3521 18.3095C60.1665 18.2088 59.8965 18.1585 59.694 18.2256C59.4916 18.2927 59.2891 18.4101 59.1879 18.6114C59.0697 18.8295 59.0697 19.014 59.1035 19.2656L59.1204 19.2488Z" fill="black"/>
<path d="M60.3352 21.3456H62.3768C62.5962 21.3456 62.8155 21.245 62.9674 21.094C63.1193 20.943 63.2205 20.7082 63.2205 20.5069C63.2036 20.054 62.8493 19.6682 62.3768 19.6682H60.3352C60.1159 19.6682 59.8965 19.7689 59.7447 19.9198C59.5928 20.0708 59.4916 20.3056 59.4916 20.5069C59.5085 20.9598 59.8628 21.3456 60.3352 21.3456Z" fill="black"/>
<path d="M61.8707 17.9237L62.09 22.1675C62.1069 22.6036 62.4612 23.0229 62.9337 23.0062C63.3724 22.9894 63.7942 22.6371 63.7773 22.1675L63.558 17.9237C63.5411 17.4875 63.1868 17.0682 62.7143 17.085C62.2756 17.1017 61.8538 17.454 61.8707 17.9237Z" fill="black"/>
<path d="M57.5006 26.3442L55.2734 28.7429C54.9696 29.0616 54.9359 29.6151 55.2734 29.9338C55.5939 30.2358 56.1507 30.2861 56.4713 29.9338L58.6985 27.5351C59.0023 27.2164 59.036 26.6629 58.6985 26.3442C58.378 26.0423 57.8212 25.9919 57.5006 26.3442Z" fill="black"/>
<path d="M56.9438 29.0449L58.0911 30.4875C58.0911 30.4875 58.2599 30.6216 58.3611 30.6552C58.4623 30.7055 58.5636 30.7391 58.6817 30.7223C58.8842 30.7223 59.1372 30.6384 59.2722 30.4707C59.4072 30.3029 59.5253 30.1017 59.5253 29.8836L59.4916 29.6655C59.4578 29.5313 59.3735 29.3972 59.2722 29.2965L58.1249 27.8539C58.1249 27.8539 57.9561 27.7198 57.8549 27.6862C57.7537 27.6359 57.6524 27.6023 57.5343 27.6191C57.3318 27.6191 57.0787 27.703 56.9438 27.8707C56.8088 28.0385 56.6907 28.2397 56.6907 28.4578L56.7244 28.6759C56.7582 28.8101 56.8425 28.9443 56.9438 29.0449Z" fill="black"/>
<path d="M60.6221 26.0423C60.6221 26.3274 60.6221 26.6126 60.6221 26.8977C60.6221 27.0319 60.6052 27.1829 60.5883 27.3171C60.5883 27.3842 60.5883 27.5519 60.5883 27.3339C60.5883 27.401 60.5714 27.4848 60.5546 27.5519C60.4533 28.1055 60.3015 28.6422 60.0821 29.1454C59.9978 29.33 60.0821 29.6319 60.1665 29.7996C60.2509 29.9674 60.4702 30.1351 60.6727 30.1854C60.892 30.2358 61.1282 30.219 61.3307 30.1016C61.5332 29.9841 61.6344 29.8164 61.7188 29.5983C62.1744 28.4913 62.3768 27.25 62.3093 26.059C62.2925 25.6229 61.9381 25.2036 61.4657 25.2203C61.027 25.2371 60.5883 25.5894 60.6221 26.059V26.0423Z" fill="black"/>
<path d="M61.2126 28.2565L63.2542 29.5649C63.6254 29.7997 64.1991 29.6487 64.4016 29.2629C64.6209 28.8436 64.5028 28.3739 64.0979 28.1223L62.0563 26.8139C61.6851 26.5791 61.1114 26.7301 60.9089 27.1159C60.6896 27.5352 60.8077 28.0049 61.2126 28.2565Z" fill="black"/>
<path d="M66.865 21.312C66.6288 21.6139 66.3757 21.9326 66.207 22.3017C66.0214 22.6875 65.8695 23.1236 65.9033 23.5597C65.937 23.9958 66.0889 24.4655 66.4263 24.7842C66.6626 25.0191 66.9831 25.1868 67.2869 25.2539C67.9955 25.3881 68.7042 25.2036 69.2441 24.7339C69.784 24.2642 69.9696 23.392 69.7503 22.6875C69.4972 21.8655 68.8223 21.1946 67.9955 20.9598C67.5737 20.8423 67.0506 21.1107 66.9494 21.5468C66.8482 21.983 67.0844 22.4526 67.54 22.5868C67.6074 22.6036 67.6749 22.6204 67.7424 22.6539L67.54 22.5701C67.6749 22.6204 67.793 22.7042 67.9112 22.7881L67.7424 22.6539C67.8605 22.7546 67.9618 22.8552 68.063 22.9726L67.928 22.8049C68.0124 22.9223 68.0968 23.0565 68.1474 23.1907L68.063 22.9894C68.1136 23.1068 68.1474 23.2242 68.1642 23.3584L68.1305 23.1404C68.1305 23.2578 68.1474 23.3752 68.1305 23.4926L68.1642 23.2746C68.1642 23.3752 68.1305 23.4758 68.0799 23.5765L68.1642 23.3752C68.1642 23.3752 68.0799 23.5262 68.0293 23.61L68.1642 23.4423C68.1642 23.4423 68.0461 23.5765 67.9786 23.6268L68.1474 23.4926C68.063 23.5597 67.9618 23.61 67.8605 23.6604L68.063 23.5765C67.9449 23.6268 67.8268 23.6604 67.7087 23.6771L67.928 23.6436C67.8099 23.6436 67.6918 23.6436 67.5737 23.6436L67.793 23.6771C67.6918 23.6771 67.6074 23.6436 67.5231 23.61L67.7256 23.6939C67.7256 23.6939 67.5737 23.6268 67.5062 23.5765L67.6749 23.7107C67.6749 23.7107 67.5737 23.6268 67.5231 23.5597L67.6581 23.7275C67.6581 23.7275 67.5737 23.5933 67.54 23.5094L67.6243 23.7107C67.5906 23.6268 67.5737 23.5429 67.5568 23.4423L67.5906 23.6604C67.5906 23.5429 67.5906 23.4423 67.5906 23.3249L67.5568 23.5429C67.5737 23.3752 67.6243 23.2242 67.6918 23.0733L67.6074 23.2746C67.7424 22.9726 67.928 22.6875 68.1305 22.4191L67.9955 22.5868L68.0461 22.5365C68.198 22.352 68.2992 22.1843 68.2992 21.9494C68.2992 21.7481 68.2149 21.4965 68.0461 21.3623C67.8774 21.2281 67.6749 21.1107 67.4556 21.1107C67.2531 21.1107 67 21.1778 66.865 21.3623V21.312Z" fill="black"/>
<path d="M71.0664 23.0062L72.9224 23.3585C73.1417 23.4088 73.3611 23.392 73.5804 23.2746C73.7492 23.174 73.9179 22.9727 73.9685 22.7714C74.0191 22.5533 74.0023 22.3185 73.8841 22.1172C73.766 21.9495 73.5973 21.765 73.378 21.7314L71.5219 21.3792C71.3026 21.3288 71.0832 21.3456 70.8639 21.463C70.6952 21.5637 70.5264 21.765 70.4758 21.9663C70.4252 22.1843 70.4421 22.4192 70.5602 22.6204C70.6783 22.7882 70.847 22.9727 71.0664 23.0062Z" fill="black"/>
<path d="M72.6524 19.6347C72.9393 21.2953 73.0742 23.023 73.0742 24.7507C73.0742 25.1869 73.4623 25.6062 73.9179 25.5894C74.3735 25.5727 74.7615 25.2204 74.7615 24.7507C74.7615 22.8888 74.6097 21.0269 74.2891 19.1818C74.2216 18.7456 73.6479 18.4605 73.243 18.5947C72.7705 18.7456 72.5681 19.165 72.6524 19.6347Z" fill="black"/>
<path d="M78.423 17.9908C78.2542 18.2089 78.153 18.3599 78.0518 18.6115C77.9843 18.7792 77.9674 18.9469 77.9336 19.1315C77.8999 19.4166 77.9336 19.7186 78.018 19.9869C78.2542 20.6411 78.7773 21.245 79.5028 21.3624C80.2284 21.4798 80.9539 21.2785 81.477 20.7753C82 20.2721 82.2025 19.4669 81.9494 18.7792C81.6457 17.9405 80.9201 17.3366 80.0259 17.3031C79.5872 17.2863 79.1654 17.7057 79.1822 18.1418C79.1991 18.6115 79.5534 18.9637 80.0259 18.9805C80.0596 18.9805 80.0934 18.9805 80.1271 18.9805L79.9078 18.9469C80.009 18.9469 80.1102 18.9805 80.2115 19.0308L80.009 18.9469C80.1102 18.9973 80.1946 19.0476 80.279 19.0979L80.1102 18.9637C80.1946 19.0308 80.279 19.1147 80.3465 19.1986L80.2115 19.0308C80.2958 19.1315 80.3465 19.2321 80.3971 19.3495L80.3127 19.1482C80.3633 19.2489 80.3802 19.3663 80.3971 19.4837L80.3633 19.2657C80.3633 19.3663 80.3633 19.4502 80.3633 19.5508L80.3971 19.3328C80.3971 19.4166 80.3633 19.5173 80.3296 19.6011L80.414 19.3998C80.3802 19.5005 80.3127 19.5844 80.2452 19.6682L80.3802 19.5005C80.3802 19.5005 80.2284 19.6515 80.144 19.7186L80.3127 19.5844C80.2115 19.6515 80.1102 19.7186 80.009 19.7521L80.2115 19.6682C80.1102 19.7186 79.9921 19.7521 79.874 19.7689L80.0934 19.7353C79.9753 19.7353 79.8572 19.7353 79.739 19.7353L79.9584 19.7689C79.8572 19.7689 79.7728 19.7353 79.6716 19.685L79.874 19.7689C79.874 19.7689 79.7222 19.685 79.6547 19.6347L79.8234 19.7689C79.8234 19.7689 79.6716 19.6347 79.6041 19.5508L79.739 19.7186C79.6716 19.6347 79.6209 19.5508 79.5872 19.4502L79.6716 19.6515C79.6209 19.534 79.5872 19.4166 79.5703 19.2992L79.6041 19.5173C79.6041 19.3998 79.6041 19.2657 79.6041 19.1482L79.5703 19.3663C79.5703 19.2657 79.6209 19.165 79.6547 19.0644L79.5703 19.2657C79.5703 19.2657 79.6547 19.1147 79.7053 19.0476L79.5703 19.2153H79.5872C79.739 19.014 79.8403 18.8463 79.8403 18.5947C79.8403 18.3934 79.7559 18.1418 79.5872 18.0076C79.4185 17.8734 79.216 17.756 78.9966 17.756C78.7942 17.756 78.5411 17.8231 78.4061 18.0076L78.423 17.9908Z" fill="black"/>
<path d="M77.6974 24.0126V26.9649C77.6974 27.401 78.0855 27.8203 78.5411 27.8036C78.9966 27.7868 79.3847 27.4345 79.3847 26.9649V24.0126C79.3847 23.5765 78.9966 23.1572 78.5411 23.1739C78.0855 23.1907 77.6974 23.543 77.6974 24.0126Z" fill="black"/>
<path d="M80.1103 24.1972V27.1494C80.1103 27.5856 80.4983 28.0049 80.9539 27.9881C81.4095 27.9714 81.7975 27.6191 81.7975 27.1494V24.1972C81.7975 23.7611 81.4095 23.3417 80.9539 23.3585C80.4983 23.3753 80.1103 23.7275 80.1103 24.1972Z" fill="black"/>
<path d="M77.0563 28.9106C78.7267 28.8603 80.3971 28.9274 82.0675 29.1119C82.5062 29.1622 82.928 28.6926 82.9112 28.2732C82.8943 27.77 82.5399 27.4848 82.0675 27.4345C80.3971 27.25 78.7267 27.1829 77.0563 27.2332C76.6176 27.2332 76.1957 27.6022 76.2126 28.0719C76.2295 28.5416 76.5838 28.9274 77.0563 28.9106Z" fill="black"/>
<path d="M88.3442 21.7315L90.7571 22.0837C90.9933 22.1173 91.1957 22.1173 91.4151 21.9998C91.5838 21.8992 91.7526 21.6979 91.8032 21.4966C91.8538 21.2786 91.8369 21.0437 91.7188 20.8424C91.6007 20.6747 91.432 20.4902 91.2126 20.4566L88.7998 20.1044C88.5636 20.0708 88.3611 20.0708 88.1418 20.1883C87.973 20.2889 87.8043 20.4902 87.7537 20.6915C87.7031 20.9095 87.7199 21.1444 87.838 21.3457C87.9562 21.5134 88.1249 21.6979 88.3442 21.7315Z" fill="black"/>
<path d="M87.8043 24.3985L90.7739 24.8178C91.0101 24.8513 91.2126 24.8513 91.432 24.7339C91.6007 24.6333 91.7694 24.432 91.82 24.2307C91.8707 24.0127 91.8538 23.7778 91.7357 23.5765C91.6176 23.4088 91.4488 23.2243 91.2295 23.1907L88.2599 22.7714C88.0236 22.7378 87.8212 22.7378 87.6018 22.8552C87.4331 22.9559 87.2644 23.1572 87.2137 23.3585C87.1631 23.5765 87.18 23.8114 87.2981 24.0127C87.4162 24.1804 87.5849 24.3649 87.8043 24.3985Z" fill="black"/>
<path d="M89.8459 25.3043C89.0697 25.2707 88.2936 25.7907 87.973 26.4784C87.8886 26.6462 87.8043 26.8307 87.7874 27.0152C87.7368 27.3004 87.7368 27.5184 87.7874 27.7868C87.838 28.1558 88.0405 28.5081 88.3105 28.7597C88.5804 29.0113 88.901 29.2126 89.2554 29.3132C89.6097 29.4139 89.9978 29.4307 90.3858 29.3636C90.7739 29.2965 91.0945 29.0952 91.3645 28.8436C91.6344 28.592 91.8369 28.2229 91.9381 27.8707C92.0394 27.4681 92.0394 27.032 91.9381 26.6294C91.8369 26.2268 91.6007 25.841 91.2801 25.5894C91.0945 25.4385 90.9258 25.3378 90.6895 25.3378C90.4871 25.3378 90.234 25.4217 90.099 25.5894C89.964 25.7572 89.8459 25.9585 89.8459 26.1765C89.8459 26.3778 89.9303 26.6294 90.099 26.7636C90.1834 26.8307 90.2509 26.8978 90.3183 26.9817L90.1834 26.8139C90.2509 26.8978 90.3015 26.9984 90.3521 27.0991L90.2677 26.8978C90.3183 27.032 90.3521 27.1494 90.369 27.3004L90.3352 27.0823C90.3352 27.2165 90.3352 27.3507 90.3352 27.5017L90.369 27.2836C90.3521 27.401 90.3183 27.5184 90.2846 27.6191L90.369 27.4178C90.3183 27.5184 90.2677 27.6191 90.2002 27.7029L90.3352 27.5352C90.3352 27.5352 90.2002 27.6862 90.1327 27.7533L90.3015 27.6191C90.3015 27.6191 90.1496 27.7197 90.0484 27.77L90.2509 27.6862C90.1496 27.7365 90.0315 27.7533 89.9303 27.77L90.1496 27.7365C90.0146 27.7365 89.8797 27.7365 89.7615 27.7365L89.9809 27.77C89.8459 27.7533 89.7278 27.7197 89.5928 27.6694L89.7953 27.7533C89.694 27.7029 89.5928 27.6526 89.5084 27.5855L89.6772 27.7197C89.6772 27.7197 89.5253 27.5855 89.4578 27.5017L89.5928 27.6694C89.5928 27.6694 89.4916 27.5184 89.441 27.4178L89.5253 27.6191C89.4916 27.5352 89.4747 27.4513 89.4578 27.3507L89.4916 27.5688C89.4916 27.4681 89.4916 27.3675 89.4916 27.2668L89.4578 27.4849C89.4747 27.3675 89.5084 27.2668 89.5422 27.1662L89.4578 27.3675C89.5084 27.2501 89.5759 27.1494 89.6434 27.0488L89.5084 27.2165C89.5759 27.1159 89.6772 27.032 89.7615 26.9649L89.5928 27.0991C89.5928 27.0991 89.7615 26.9817 89.8628 26.9481L89.6603 27.032C89.7447 26.9984 89.829 26.9649 89.9303 26.9649L89.7109 26.9984C89.7109 26.9984 89.8459 26.9984 89.9134 26.9984C90.3521 26.9984 90.7739 26.5959 90.757 26.1597C90.7402 25.6901 90.3858 25.3378 89.9134 25.321L89.8459 25.3043Z" fill="black"/>
<path d="M96.9663 22.5869L98.2655 22.4024C98.3836 22.3688 98.4679 22.3185 98.5523 22.2514C98.6367 22.1843 98.721 22.1172 98.7717 22.0166C98.8729 21.832 98.9235 21.5637 98.856 21.3624C98.7885 21.1611 98.6704 20.9598 98.4679 20.8592L98.2655 20.7753C98.1136 20.7417 97.9618 20.7417 97.8099 20.7753L96.5107 20.9598C96.3926 20.9933 96.3082 21.0437 96.2238 21.1108C96.1395 21.1779 96.0551 21.245 96.0045 21.3456C95.9033 21.5301 95.8526 21.7985 95.9201 21.9998C95.9876 22.2011 96.1057 22.4024 96.3082 22.503L96.5107 22.5869C96.6625 22.6204 96.8144 22.6204 96.9663 22.5869Z" fill="black"/>
<path d="M96.5951 25.7236L99.0079 25.3378C99.2104 25.3042 99.4128 25.1197 99.5141 24.952C99.6153 24.7675 99.6659 24.4991 99.5984 24.2978C99.531 24.0965 99.4128 23.8952 99.2104 23.7946C98.991 23.6772 98.7885 23.6772 98.5523 23.7107L96.1395 24.0965C95.937 24.1301 95.7346 24.3146 95.6333 24.4823C95.5321 24.6668 95.4815 24.9352 95.549 25.1365C95.6164 25.3378 95.7346 25.5391 95.937 25.6397C96.1564 25.7571 96.3588 25.7571 96.5951 25.7236Z" fill="black"/>
<path d="M96.9325 26.881C96.0214 27.0488 95.7345 28.223 96.1564 28.9442C96.3757 29.3133 96.7975 29.5817 97.2194 29.6655C97.6412 29.7494 98.0124 29.7326 98.4342 29.6655C99.1091 29.5481 99.7672 29.2126 100.155 28.6423C100.645 27.9378 100.442 26.9817 99.8515 26.4114C99.1597 25.7404 98.2148 25.7069 97.3206 25.7907C97.0844 25.8075 96.8988 25.8746 96.73 26.0423C96.5782 26.1933 96.4769 26.4282 96.4769 26.6294C96.4938 27.0488 96.8481 27.5185 97.3206 27.4681C97.658 27.4346 98.0124 27.401 98.3498 27.4514L98.1305 27.4178C98.2992 27.4346 98.4511 27.4849 98.6029 27.5352L98.4004 27.4514C98.5186 27.5017 98.6198 27.5688 98.721 27.6359L98.5523 27.5017C98.5523 27.5017 98.7042 27.6359 98.7717 27.7197L98.6367 27.552C98.6367 27.552 98.7548 27.7197 98.7885 27.8036L98.7042 27.6023C98.7042 27.6023 98.7548 27.7365 98.7548 27.8036L98.721 27.5856C98.721 27.5856 98.721 27.7533 98.721 27.8372L98.7548 27.6191C98.7548 27.6191 98.721 27.7701 98.6873 27.8372L98.7717 27.6359C98.7717 27.6359 98.7042 27.7701 98.6535 27.8204L98.7885 27.6526C98.721 27.7365 98.6367 27.8036 98.5523 27.8707L98.721 27.7365C98.6029 27.8204 98.4679 27.8875 98.333 27.9546L98.5354 27.8707C98.333 27.9546 98.1136 28.0049 97.8943 28.0385L98.1136 28.0049C97.9111 28.0385 97.7087 28.0385 97.4893 28.0049L97.7087 28.0385C97.6074 28.0385 97.5062 28.0049 97.4218 27.9546L97.6243 28.0385C97.6243 28.0385 97.4893 27.9714 97.4387 27.921L97.6074 28.0552C97.6074 28.0552 97.5231 27.9881 97.4893 27.9378L97.6243 28.1055C97.6243 28.1055 97.5737 28.0217 97.5568 27.9881L97.6412 28.1894C97.6412 28.1894 97.6074 28.0888 97.5906 28.0217L97.6243 28.2397C97.6243 28.2397 97.6243 28.1223 97.6243 28.072L97.5906 28.2901C97.5906 28.2901 97.6074 28.1894 97.6243 28.1223L97.5399 28.3236C97.5399 28.3236 97.5737 28.2397 97.6074 28.2062L97.4724 28.3739C97.4724 28.3739 97.5231 28.3236 97.5399 28.3068L97.3712 28.441C97.3712 28.441 97.4218 28.4075 97.4556 28.3907L97.2531 28.4746C97.2531 28.4746 97.3037 28.4746 97.3375 28.4578C97.5399 28.4243 97.7424 28.2397 97.8436 28.072C97.9449 27.8875 97.9955 27.6191 97.928 27.4178C97.8605 27.2165 97.7424 27.0152 97.5399 26.9146C97.3375 26.7972 97.1181 26.7804 96.8819 26.8307L96.9325 26.881Z" fill="black"/>
</g>
<defs>
<clipPath id="clip0_54_12383">
<rect width="105" height="99" fill="white" transform="translate(22 9)"/>
</clipPath>
</defs>
</svg>
