<svg width="149" height="115" viewBox="0 0 149 115" fill="none" xmlns="http://www.w3.org/2000/svg">
<g clip-path="url(#clip0_54_12438)">
<path d="M41.9873 19.6951C42.6919 19.8639 43.4133 19.9652 44.1179 20.0496C44.7554 20.1172 45.4097 20.1847 46.0472 20.1003C46.5169 20.0496 46.9699 19.8639 47.188 19.425C47.4061 18.9861 47.3893 18.4291 47.037 18.0746C46.7183 17.7538 46.3156 17.7201 45.8962 17.7538L44.8728 17.8214C44.4367 17.8551 44.0172 18.1927 44.034 18.6654C44.0508 19.1043 44.4031 19.5432 44.8728 19.5094L45.5775 19.4757H45.9298C45.9298 19.4757 46.064 19.4588 46.1311 19.4419C46.2317 19.425 46.1646 19.4419 46.0975 19.425C45.6446 19.29 45.5439 18.8173 45.8123 18.5472C45.8459 18.4797 45.913 18.4291 45.9801 18.4291H45.913C45.913 18.4291 46.0304 18.4291 45.9298 18.4291C45.6781 18.4291 45.4432 18.4291 45.1916 18.4291C44.7051 18.4291 44.2186 18.3615 43.7488 18.3278C43.6146 18.3278 43.8663 18.3447 43.7321 18.3278C43.6649 18.3278 43.5978 18.3109 43.5307 18.294C43.4133 18.2771 43.2959 18.2603 43.1784 18.2265C42.9268 18.1759 42.6751 18.1252 42.4235 18.0746C42.0041 17.9733 41.5008 18.2096 41.3834 18.6654C41.2827 19.0874 41.5176 19.5939 41.9705 19.712L41.9873 19.6951Z" fill="#74C4A3"/>
<path d="M39.6218 24.6919L48.4798 24.8607C49.5535 24.8776 49.5535 23.1895 48.4798 23.1726L39.6218 23.0038C38.5481 22.9869 38.5481 24.675 39.6218 24.6919Z" fill="#74C4A3"/>
<path d="M44.5373 29.1992L44.5709 29.1654L44.4367 29.3342C44.4367 29.3342 44.5541 29.216 44.6044 29.1654L44.4367 29.3004C44.4367 29.3004 44.5709 29.216 44.6547 29.1823L44.4534 29.2667C44.5373 29.2329 44.6212 29.1992 44.7218 29.1992L44.5038 29.2329C44.5876 29.2329 44.6883 29.2329 44.7722 29.2329L44.5541 29.1992C44.5541 29.1992 44.7051 29.2329 44.7722 29.2667L44.5709 29.1823C44.5709 29.1823 44.7218 29.2667 44.789 29.3173L44.6212 29.1823C44.6212 29.1823 44.7386 29.3004 44.8057 29.368L44.6715 29.1992C44.6715 29.1992 44.7722 29.3342 44.8057 29.4186L44.7218 29.216C44.7218 29.216 44.7722 29.368 44.789 29.4524L44.7554 29.2329C44.7554 29.2329 44.7554 29.368 44.7554 29.4355L44.789 29.216C44.789 29.216 44.7722 29.3173 44.7554 29.368L44.8393 29.1654C44.8393 29.1654 44.8057 29.2329 44.789 29.2667L44.9232 29.0979C44.9232 29.0979 44.8896 29.1485 44.8561 29.1654L45.0238 29.0304C45.0238 29.0304 44.9735 29.0641 44.9567 29.0641L45.158 28.9797C45.158 28.9797 45.1245 28.9797 45.1077 28.9797L45.3258 28.946H45.2922L45.5103 28.9797C45.5103 28.9797 45.46 28.9797 45.4432 28.9628L45.6446 29.0472C45.6446 29.0472 45.5942 29.0135 45.5774 28.9966L45.7452 29.1316C45.46 28.9122 45.2084 28.6252 44.9903 28.3382L45.1245 28.507C45.1245 28.507 45.0406 28.4058 45.007 28.3551C44.8728 28.1694 44.7218 28.0344 44.5038 27.9669C44.3024 27.9162 44.034 27.9331 43.8495 28.0513C43.6649 28.1694 43.5139 28.3382 43.4636 28.5577C43.4133 28.7771 43.4133 29.0304 43.5475 29.216C43.8159 29.5874 44.1179 29.9419 44.4534 30.2627C44.6212 30.4146 44.7722 30.5328 44.9903 30.6003C45.1916 30.6678 45.4097 30.6678 45.5942 30.6003C45.9969 30.499 46.2485 30.1445 46.3827 29.7731C46.4834 29.503 46.4666 29.1992 46.3827 28.9122C46.3156 28.6252 46.1646 28.3889 45.9801 28.1525C45.9298 28.085 45.8794 28.0344 45.8291 27.9837C45.7117 27.8825 45.5942 27.798 45.4768 27.7305C45.2084 27.5955 44.9567 27.528 44.6547 27.528C44.336 27.528 44.0508 27.6124 43.7824 27.7474C43.5139 27.8825 43.2959 28.1188 43.1281 28.372C43.0107 28.5408 42.9939 28.8278 43.0442 29.0304C43.0945 29.2329 43.2455 29.4355 43.4301 29.5368C43.6314 29.6381 43.8663 29.6887 44.0843 29.6212C44.3024 29.5537 44.4534 29.4186 44.5876 29.2329L44.5373 29.1992Z" fill="#74C4A3"/>
<path d="M54.0999 18.4628C53.3114 18.0239 52.6068 18.716 52.5732 19.4926C52.5564 20.1678 52.6236 20.8599 52.6571 21.5351L52.741 23.5777C52.7578 24.2192 52.6403 25.1814 53.1101 25.671C53.6637 26.228 54.5864 26.0086 54.989 25.384C55.3413 24.8269 55.3078 24.0166 55.3581 23.392C55.4588 22.0585 55.442 20.708 55.4252 19.3744C55.4252 18.9524 55.1065 18.5979 54.7038 18.5472C54.3347 18.4966 53.8482 18.7329 53.7811 19.1549C53.6805 19.8302 53.6301 20.4885 53.6805 21.1806C53.7308 21.8221 53.7811 22.5986 54.1838 23.1388C54.4186 23.4427 54.7542 23.6284 55.14 23.6621C55.4252 23.6621 55.7104 23.6115 55.9956 23.5946C56.6163 23.5609 57.2035 23.6453 57.7907 23.8141L57.4216 22.3961C57.1196 22.6662 56.5828 22.7675 56.1634 22.8012C55.5762 22.8687 54.9722 22.8856 54.4019 23.0713C53.7811 23.2739 53.2611 23.6115 52.892 24.1686C52.6068 24.5906 52.4893 25.2152 52.1538 25.519C51.8183 25.8229 51.8518 26.3968 52.1538 26.7176C52.4893 27.0552 53.0094 27.0214 53.3449 26.7176C53.7979 26.3124 53.9489 25.7554 54.2173 25.2321C54.4354 24.8269 54.7542 24.7088 55.2407 24.6075C55.7272 24.5062 56.3144 24.4893 56.868 24.4049C57.5223 24.3036 58.1262 24.0504 58.6127 23.5946C59.0992 23.1388 58.8308 22.3454 58.2437 22.1766C57.7404 22.0247 57.2035 21.9403 56.6834 21.9065C56.4318 21.9065 56.1802 21.8896 55.9453 21.9065C55.8278 21.9065 55.6936 21.9234 55.5762 21.9403C55.4588 21.9572 55.1065 21.9065 55.3749 22.0416C55.442 22.0416 55.4923 22.0922 55.5259 22.126C55.5259 22.1766 55.5259 22.1597 55.5259 22.126C55.5259 22.0247 55.4755 21.9065 55.4588 21.8052C55.4084 21.5858 55.3917 21.3663 55.3749 21.13C55.3413 20.6236 55.3413 20.1172 55.4252 19.6276L53.7811 19.4082C53.7811 20.3704 53.8147 21.3326 53.7811 22.2948C53.7811 22.7675 53.7476 23.2401 53.6972 23.6959C53.6805 23.9154 53.6637 24.1517 53.6301 24.3543C53.6301 24.388 53.5798 24.5568 53.5798 24.5737C53.5127 24.388 54.0495 24.2867 54.167 24.3711L54.469 24.675C54.5025 24.8438 54.5025 24.8776 54.5025 24.7594V24.2867L54.4522 23.544L54.4019 22.126L54.3515 20.7755L54.318 20.0327C54.318 19.9146 54.318 19.7964 54.318 19.6951V19.5601C54.2341 19.7627 54.2341 19.8133 54.318 19.6951L54.016 19.999L53.9153 20.0327L53.2611 19.9483L53.3114 19.9821C54.2509 20.5054 55.1065 19.0537 54.1502 18.5303L54.0999 18.4628Z" fill="#74C4A3"/>
<path d="M50.4258 32.1533L53.0262 32.0014H53.3785C53.5798 32.0014 53.563 31.9507 53.3282 31.8495C53.3282 31.8495 53.4456 32.1871 53.4456 32.2039C53.563 32.5922 53.563 32.9805 53.5295 33.3856L54.5864 32.5753C53.4624 32.2715 52.4222 32.1702 51.2982 32.5247C50.2413 32.8623 49.2179 33.1324 48.1107 33.2337C47.1209 33.335 45.8291 33.1493 45.4936 34.3816C45.1916 35.5126 45.0909 36.728 44.8896 37.8759C44.8225 38.298 44.9567 38.7031 45.3761 38.8719C45.7284 39.007 46.2485 38.9225 46.4163 38.5343L47.6074 35.7321L46.0472 35.31L45.9801 36.7618C45.9801 36.9644 45.9465 37.1669 45.9465 37.3526C45.9465 37.4201 45.8794 37.5383 45.9633 37.4201C45.9298 37.4877 45.913 37.4877 45.8626 37.5046C45.2587 37.8759 44.6044 38.0616 44.4031 38.855C44.3024 39.277 44.5373 39.8004 44.9903 39.9016C46.4498 40.1886 47.9094 40.0705 49.3857 39.9692C50.1406 39.9185 50.8788 39.8848 51.6337 39.8848C52.0028 39.8848 52.3551 39.8848 52.7242 39.9016C52.9087 39.9016 53.0933 39.9016 53.261 39.9354C53.6301 39.9692 53.3449 39.986 53.2946 39.7328V39.277C53.3617 38.8381 53.7811 39.0576 53.412 38.9901C53.261 38.9732 53.0933 38.9901 52.9423 38.9563C52.6571 38.9225 52.3551 38.8381 52.0867 38.7369C51.0633 38.3992 50.6104 40.0198 51.6337 40.3574C52.4893 40.6444 54.167 41.0664 54.7709 40.1042C55.1065 39.564 54.9219 38.8719 54.4018 38.5343C53.9321 38.2304 53.3617 38.2304 52.8249 38.2136C51.5666 38.1629 50.3084 38.2136 49.0502 38.298C47.7919 38.3824 46.6176 38.5005 45.4432 38.2642L46.0304 39.3108C45.9969 39.4121 45.913 39.3783 46.0807 39.3108C46.2149 39.2433 46.3659 39.1758 46.5001 39.1082C46.8525 38.9225 47.188 38.6862 47.3893 38.3317C47.6242 37.9097 47.6409 37.4202 47.6577 36.9475L47.7248 35.3269C47.7584 34.5335 46.5001 34.1115 46.1646 34.9049L44.9735 37.7071L46.5001 38.3655L47.0034 35.4282C47.0202 35.31 47.037 35.1919 47.0705 35.0737C47.0873 34.9387 47.188 34.8036 47.0034 34.9555C46.7518 35.1581 47.2048 35.0231 47.339 35.0231C47.8255 34.9893 48.312 34.9387 48.7985 34.888C49.7212 34.7698 50.6104 34.5673 51.5163 34.2634C51.9525 34.1284 52.3887 33.9764 52.8416 33.9933C53.2946 34.0102 53.7308 34.1284 54.1502 34.2465C54.7038 34.3985 55.1736 33.9764 55.2071 33.4363C55.291 32.4403 55.1065 30.7522 53.9824 30.3977C53.4791 30.2458 52.8416 30.3639 52.3216 30.3977L50.4091 30.5159C49.3354 30.5834 49.3354 32.2715 50.4091 32.2039L50.4258 32.1533Z" fill="#74C4A3"/>
<path d="M65.4072 16.5385C64.4677 17.8214 64.7361 19.5264 64.4342 21.0119C64.2664 21.8222 64.0147 22.6156 63.6624 23.3752C63.3101 24.1349 62.9411 24.8607 62.8404 25.7048L63.6792 24.8607L62.9914 24.7932L63.4108 26.3631C65.2898 25.1308 66.6319 23.1051 66.9506 20.86L65.7259 21.3664L68.1921 22.8519L68.7792 23.2064C68.7792 23.2064 68.9806 23.3583 69.0644 23.3752L69.1483 23.4259L68.947 23.122C68.947 23.122 68.7792 23.4427 68.7625 23.4765C68.645 23.5947 68.5108 23.6622 68.3598 23.7466L69.5006 24.0505L67.7056 21.2482C67.1184 20.3367 65.6756 21.1807 66.2628 22.0923L68.0579 24.8945C68.3263 25.3165 68.7792 25.384 69.1987 25.1984C70.2891 24.7088 71.2789 22.9363 70.071 22.0416C69.5677 21.6702 68.9973 21.3833 68.4605 21.0457L66.5815 19.9146C66.1621 19.6614 65.424 19.864 65.3569 20.4211C65.1052 22.2442 64.1322 23.8985 62.5888 24.9114C61.8674 25.384 62.1861 26.4138 63.0082 26.4813L63.696 26.5488C64.1825 26.5995 64.4845 26.1268 64.5348 25.7048C64.6019 25.0296 65.0549 24.405 65.3233 23.7804C65.6421 23.0207 65.9105 22.2611 66.0615 21.4508C66.2125 20.6405 66.2628 19.9146 66.3299 19.1381C66.3802 18.4966 66.4809 17.9058 66.85 17.3825C67.1184 17.0111 66.9171 16.4372 66.548 16.2346C66.1286 15.9814 65.6756 16.1671 65.4072 16.5385Z" fill="#74C4A3"/>
<path d="M62.8739 30.6341C61.8673 30.7016 61.364 31.8832 62.0183 32.6766C62.79 33.6051 64.0818 32.9805 65.0045 32.6766C65.9272 32.3728 65.7259 31.0898 64.7864 31.0223C64.0315 30.9548 63.2933 30.8873 62.5384 30.8366C61.8506 30.786 61.1124 30.9379 60.7601 31.5963C60.3742 32.3053 60.693 33.1324 61.4983 33.2675C62.119 33.3856 62.7733 33.2337 63.2766 32.8623C63.545 32.6767 63.7631 32.4403 63.9308 32.1533C63.9979 32.0352 64.0315 31.917 64.1154 31.8157C64.0147 31.9339 63.8973 31.9339 64.216 31.8832C64.971 31.782 65.7259 31.7651 66.4809 31.7482C67.2358 31.7313 67.9236 31.7651 68.645 31.8326C69.0141 31.8664 69.3832 31.9001 69.7523 31.9508C69.9871 31.9845 70.6246 32.0352 70.7253 32.0858L70.4233 31.782C70.3898 31.6976 70.3898 31.6132 70.4401 31.5287C70.4065 31.5625 70.373 31.5963 70.3394 31.6132C70.1381 31.6132 69.9871 31.6132 69.7858 31.5794C69.3161 31.4781 68.8799 31.3431 68.4101 31.2755C67.4371 31.1405 66.4473 31.1911 65.491 31.4106C64.5348 31.63 63.7463 32.0521 63.6792 33.1493C63.6121 34.1622 63.6624 35.2088 63.6624 36.2216C63.6624 37.0994 63.4779 38.3824 64.5851 38.6525C65.491 38.8888 66.5815 38.8719 66.9003 37.8084C67.4203 36.036 67.2022 33.9596 66.5144 32.2715C66.2628 31.63 65.3736 31.3937 64.9878 32.0689C64.5683 32.7948 64.6187 33.6051 64.6187 34.4154V37.015C64.6187 38.0954 66.2795 38.0954 66.2963 37.015V34.8036C66.2963 34.2466 66.1621 33.4194 66.4473 32.9299L64.9207 32.7273C65.2226 33.4869 65.4407 34.2803 65.491 35.1075C65.5246 35.5126 65.5078 35.9178 65.491 36.3229C65.4575 36.6437 65.4575 37.167 65.273 37.4371L65.5749 37.1332L65.4575 37.2007L65.8769 37.0826C65.7091 37.0994 65.1891 37.1163 65.0716 37.0319L65.3736 37.3358C65.3736 37.3358 65.3401 37.4708 65.3736 37.302C65.4072 37.1839 65.3736 37.0319 65.3736 36.9138C65.3736 36.7112 65.3736 36.5255 65.3736 36.3229C65.3736 35.8334 65.3736 35.3438 65.3736 34.8543C65.3736 34.4323 65.3736 34.0102 65.3736 33.5882C65.3736 33.5038 65.4072 33.1324 65.3568 33.1831C65.3065 33.2337 65.6253 33.1324 65.7091 33.0987C66.4641 32.8792 67.2526 32.8286 68.0411 32.913C68.8296 32.9974 69.6348 33.3856 70.4569 33.3012C71.2286 33.2168 71.9332 32.6767 72.0842 31.8832C72.1345 31.5456 72.0842 31.208 71.8996 30.921C71.6312 30.5159 71.2118 30.4653 70.7588 30.3808C69.0309 30.0939 67.2861 29.9926 65.5414 30.077C64.7697 30.1108 63.5953 30.0263 62.9746 30.5834C62.5384 30.9717 62.4545 31.782 61.6996 31.5625L62.2868 32.1533C62.0687 32.4066 62.0519 32.5247 62.2532 32.491C62.3539 32.491 62.4713 32.491 62.572 32.491C62.8236 32.491 63.0752 32.5247 63.3269 32.5585L64.82 32.6766L64.6019 31.0223C64.2496 31.1405 63.9141 31.2587 63.5618 31.3599C63.4947 31.3768 63.2262 31.4106 63.1927 31.4612L63.4275 31.7482C63.4443 31.917 63.394 32.0689 63.243 32.1871L62.8236 32.3053H62.9075C63.9812 32.2377 63.9812 30.5497 62.9075 30.6172L62.8739 30.6341Z" fill="#74C4A3"/>
<path d="M79.7007 21.2313C79.5665 21.2313 79.4323 21.2482 79.3148 21.2988C79.1974 21.3326 79.0632 21.3832 78.9625 21.4676C78.7444 21.6196 78.5599 21.8053 78.4257 22.0416C78.2915 22.2779 78.2244 22.5311 78.2076 22.8012C78.2076 22.9363 78.2076 23.0713 78.2411 23.1895C78.2747 23.3077 78.325 23.4427 78.3921 23.5609C78.5263 23.8141 78.8283 23.9829 79.1135 23.9829C79.2645 23.9829 79.3987 23.9491 79.5329 23.8647C79.6671 23.7972 79.751 23.6959 79.8349 23.5609C80.1033 23.2064 80.2208 22.7506 80.2711 22.3117C80.3214 21.8728 80.204 21.417 80.0194 21.0119C79.9356 20.8262 79.7007 20.6742 79.5161 20.6236C79.3148 20.573 79.0464 20.5898 78.8619 20.708C78.6773 20.8262 78.5263 20.995 78.476 21.2144L78.4425 21.4339C78.4425 21.5858 78.476 21.7209 78.5599 21.8559L78.5934 21.9234L78.5096 21.7209C78.5599 21.8559 78.5934 21.9741 78.6102 22.126L78.5767 21.9065C78.5934 22.0585 78.5934 22.2104 78.5767 22.3623L78.6102 22.1429C78.5934 22.2948 78.5431 22.4299 78.4928 22.5649L78.5767 22.3623C78.5263 22.4805 78.4592 22.5987 78.3753 22.6999H79.8181L79.7846 22.6493L79.8684 22.8519C79.8684 22.8519 79.8349 22.7506 79.8349 22.6999L79.8684 22.9194C79.8684 22.9194 79.8684 22.8012 79.8684 22.7337L79.8349 22.9532C79.8349 22.9532 79.8684 22.8181 79.8852 22.7506L79.8013 22.9532C79.8013 22.9532 79.8684 22.835 79.902 22.7675L79.7678 22.9363C79.7678 22.9363 79.8517 22.835 79.902 22.7844L79.7342 22.9194C79.7342 22.9194 79.8349 22.8519 79.8852 22.835L79.6839 22.9194C79.6839 22.9194 79.7846 22.8856 79.8349 22.8688L79.6168 22.9025H79.6504C79.8684 22.8856 80.0865 22.8181 80.2375 22.6493C80.3885 22.4974 80.4892 22.261 80.4892 22.0585C80.4892 21.8559 80.4053 21.6196 80.2375 21.4676C80.0698 21.3157 79.8684 21.1975 79.6504 21.2144L79.7007 21.2313Z" fill="#74C4A3"/>
<path d="M86.1596 17.6019L85.9918 21.4001L85.908 23.2233L85.8744 24.1349C85.8744 24.3374 85.908 24.7088 85.8073 24.827L86.1093 24.5231H86.6293L86.5622 24.4725L87.0655 24.8607C86.9313 24.675 86.9984 24.1517 87.0152 23.9154C87.0488 23.4596 86.6126 23.0714 86.1764 23.0714C85.6899 23.0714 85.3711 23.4596 85.3376 23.9154C85.2705 24.7763 85.4047 26.4813 86.7132 26.1099C87.7534 25.8229 87.5521 24.2699 87.6024 23.4427L87.8708 17.5851C87.9211 16.5047 86.2435 16.5047 86.1932 17.5851L86.1596 17.6019Z" fill="#74C4A3"/>
<path d="M78.4425 30.1951C77.5365 31.0729 77.0668 32.2377 76.3957 33.3012C76.228 33.5713 76.1273 33.7063 75.9428 33.9258C75.7079 34.1959 75.4563 34.4322 75.2549 34.7361C74.8355 35.3269 74.6845 36.2047 75.1375 36.8293C75.3724 37.1669 75.8924 37.4201 76.2783 37.1332C76.9326 36.6436 77.4694 36.0359 77.805 35.2594C77.8888 35.0737 77.9559 34.888 78.0398 34.7023C78.0734 34.6348 78.0901 34.5673 78.1237 34.4997C78.0734 34.6348 78.1573 34.4153 78.174 34.3985C78.2411 34.2465 78.325 34.1115 78.4089 33.9764C78.325 34.0946 78.4592 33.9258 78.476 33.9089C78.5934 33.7907 78.4089 33.9427 78.5599 33.8414L77.3352 33.335L78.0566 35.2425C78.2915 35.884 78.476 36.6436 78.8954 37.1669C79.3987 37.8084 80.4221 37.9603 80.9589 37.2682C81.4119 36.7111 81.2441 36.0021 80.9589 35.4113C80.7576 35.0062 80.1872 34.888 79.8181 35.1075C79.3987 35.3438 79.3148 35.8502 79.5161 36.2554C79.6168 36.4579 79.4994 36.1203 79.5497 36.3398C79.5497 36.3904 79.5497 36.5254 79.5832 36.4579C79.6 36.3904 79.5833 36.3229 79.6336 36.2554C79.751 36.0865 79.8852 36.0021 80.053 36.019C80.1201 36.019 80.1704 36.0528 80.2208 36.1034C80.204 36.1203 80.1201 35.9177 80.1033 35.884C80.0194 35.6814 79.9523 35.4788 79.8685 35.2763L78.9625 32.8792C78.778 32.3896 78.2244 32.0689 77.7378 32.3727C77.05 32.7948 76.748 33.4869 76.4628 34.2128C76.3622 34.466 76.2783 34.6685 76.077 34.9724C75.926 35.1919 75.6576 35.5126 75.4562 35.6645L76.597 35.9684C76.597 35.9684 76.5132 35.9009 76.5635 35.9684C76.5467 35.9515 76.5299 35.8333 76.5635 35.9515C76.5635 35.9009 76.5635 35.8333 76.5635 35.9177C76.5635 35.9177 76.6306 35.7152 76.597 35.7827C76.6474 35.6814 76.8319 35.4788 76.9829 35.31C77.3855 34.888 77.7211 34.4153 78.0063 33.9258C78.5263 33.0311 78.9457 32.0858 79.6336 31.4105C79.9523 31.0898 79.9523 30.5327 79.6336 30.212C79.3148 29.8913 78.778 29.8913 78.4425 30.212V30.1951Z" fill="#74C4A3"/>
<path d="M82.1836 37.5721C82.1333 38.4499 83.0392 38.7031 83.727 38.6187C84.331 38.5512 85.0356 38.433 85.5556 38.0785C86.7803 37.2514 86.277 35.6308 86.2435 34.3985C86.2435 33.8414 86.3945 33.335 86.579 32.8117C86.7803 32.2546 87.0991 31.5794 86.7971 31.0054C86.3945 30.2627 85.4718 30.3133 84.9517 30.8873C84.5658 31.3093 84.3142 31.8833 84.1632 32.4403C83.9954 33.0818 83.9451 33.7402 83.9283 34.3985C83.9283 34.7361 83.9116 35.0906 83.878 35.4282C83.878 35.5802 83.8445 35.749 83.8277 35.9009C83.8277 35.9684 83.8109 36.0191 83.7941 36.0866C83.7941 36.1372 83.7606 36.2048 83.7438 36.2554C83.7102 36.3567 83.7438 36.3229 83.7773 36.1541L84.1464 35.9347C84.5155 35.9009 84.7001 36.0191 84.7336 36.306C84.7168 36.3567 84.7336 36.3398 84.7336 36.2385C84.6665 36.3061 84.8678 36.0191 84.8175 36.0866C84.9685 35.8671 85.2033 35.6815 85.4047 35.5295C85.7402 35.2763 86.1931 35.04 86.6293 34.9049C87.6024 34.5842 88.5586 34.6011 89.5317 34.9725C89.9511 35.1244 90.4544 34.8036 90.5718 34.3816C90.706 33.909 90.404 33.5038 89.9846 33.335C88.0553 32.6091 85.8241 33.048 84.2303 34.331C83.3915 35.0062 82.4856 36.3567 83.4754 37.3189C84.0793 37.9097 85.0188 37.6059 85.304 36.8631C85.5221 36.306 85.5389 35.6477 85.5724 35.0569C85.606 34.466 85.5724 33.8246 85.6899 33.2675C85.7402 33.0312 85.7905 32.7611 85.8744 32.5416C85.9079 32.4403 85.9751 32.3222 86.0422 32.2209C86.0757 32.1702 86.1093 32.1365 86.126 32.0858C86.2435 31.8495 86.3609 32.3728 85.757 32.1365L85.3879 31.917C85.3376 31.4275 85.2872 31.2924 85.2369 31.5288C85.2201 31.5963 85.1866 31.6807 85.1698 31.7482C85.1195 31.9001 85.0691 32.0521 85.0188 32.1871C84.9181 32.491 84.8007 32.7779 84.7336 33.0818C84.5658 33.7233 84.5491 34.3816 84.6162 35.04C84.6497 35.3776 84.7001 35.7152 84.7001 36.0697C84.7001 36.2554 84.7168 36.5424 84.6497 36.6605C84.7 36.593 84.5323 36.7112 84.5994 36.6943C84.4484 36.7618 84.2974 36.7956 84.1464 36.8462C84.0122 36.88 83.878 36.9138 83.7438 36.9306C83.6599 36.9306 83.576 36.9306 83.4921 36.9475C83.2237 36.9475 83.3076 37.015 83.7606 37.2007L83.878 37.6228V37.5552C83.9116 37.0995 83.4754 36.7112 83.0392 36.7112C82.5694 36.7112 82.2171 37.0995 82.2004 37.5552L82.1836 37.5721Z" fill="#74C4A3"/>
<path d="M97.4501 23.7803C97.4501 23.7803 97.5676 23.6959 97.5843 23.6791C97.6514 23.6622 97.6347 23.6791 97.5508 23.6791H97.4837C97.685 23.6622 97.1985 23.6622 97.383 23.6791C97.0643 23.6284 96.7455 23.5102 96.4268 23.409C96.0577 23.2908 95.6886 23.1895 95.3363 23.0713C95.0175 22.9532 94.7491 22.7337 94.4471 22.5987C94.011 22.413 93.5244 22.4468 93.1386 22.7337C92.7192 23.0376 92.6521 23.4934 92.6689 23.9829L92.7192 26.4982C92.7192 26.9202 93.0379 27.2747 93.4406 27.3253C93.8768 27.376 94.1955 27.1228 94.3633 26.7176C94.5646 26.1943 94.682 25.6541 94.7491 25.0802C94.7995 24.675 94.3968 24.3037 94.0277 24.253C93.5915 24.2024 93.256 24.4556 93.105 24.8607C92.6017 26.1943 92.5514 27.7305 92.6185 29.1485C92.6353 29.5874 92.7863 29.9925 93.1889 30.2288C93.5412 30.4314 93.9942 30.3808 94.3633 30.3977L96.6952 30.4483C97.1482 30.4483 97.534 30.06 97.534 29.6043C97.534 29.1485 97.1482 28.7771 96.6952 28.7602L95.135 28.7264H94.0613L93.8264 28.6927C93.6754 28.6927 93.7258 28.6927 93.9774 28.7264L94.2794 29.0303C94.2794 29.0303 94.2794 29.2329 94.3129 29.0978C94.3129 29.0134 94.3129 28.8953 94.3129 28.8277C94.3129 28.6589 94.3129 28.4901 94.3129 28.3213C94.3129 27.9668 94.3129 27.6123 94.3465 27.2578C94.3968 26.5995 94.5143 25.958 94.7491 25.3165L93.105 25.0971C93.0547 25.5022 92.9373 25.9073 92.7863 26.2787L94.4304 26.4982L94.3968 24.1686C94.3968 24.0673 94.3968 23.966 94.3968 23.8647C94.3968 23.8141 94.3968 23.7635 94.3968 23.6959L93.9271 24.1686C93.9271 24.1686 93.7929 24.0842 93.8767 24.1686C93.9271 24.2192 94.0277 24.253 94.0781 24.2868C94.3968 24.4893 94.7491 24.6244 95.1014 24.7426C96.2926 25.1308 98.0541 25.9411 98.96 24.6075C99.2117 24.2361 99.0271 23.6791 98.658 23.4596C98.2386 23.2233 97.7689 23.3921 97.5172 23.7635L97.4501 23.7803Z" fill="#74C4A3"/>
<path d="M103.892 20.3873C103.875 21.5183 103.875 22.6662 103.875 23.7972C103.875 24.7088 105.385 24.9957 105.52 24.0167C105.654 23.0376 105.905 22.1935 106.275 21.3326L104.63 21.1131C104.547 23.1557 104.429 25.2152 104.245 27.2578L105.889 27.0383L104.865 23.9998C104.63 23.2908 103.406 23.122 103.255 23.9998C102.751 26.9202 103.255 29.9587 102.533 32.8454L104.144 33.3012C104.245 32.6934 104.362 32.0857 104.496 31.478C104.547 31.2586 104.597 31.0222 104.647 30.8028C104.698 30.6002 104.731 30.1275 104.865 29.9756C105.05 29.7899 105.754 29.8406 106.056 29.8574C106.694 29.8743 107.298 30.0094 107.902 30.1951C108.791 30.482 109.412 29.0809 108.556 28.6589L104.899 26.8526C103.926 26.38 103.087 27.8317 104.06 28.3044L107.717 30.1107L108.372 28.5745C107.583 28.3213 106.778 28.1862 105.956 28.1694C105.268 28.1694 104.345 28.1525 103.792 28.642C103.305 29.064 103.188 29.773 103.037 30.3639C102.835 31.191 102.668 32.0351 102.533 32.8791C102.349 33.9257 103.875 34.3984 104.144 33.3349C104.882 30.4314 104.345 27.4097 104.865 24.4893H103.255L104.278 27.5279C104.597 28.4563 105.838 28.2538 105.922 27.3084C106.09 25.2658 106.224 23.2233 106.308 21.1638C106.342 20.134 105 20.134 104.664 20.9443C104.295 21.8053 104.06 22.6999 103.909 23.6284L105.553 23.8478C105.553 22.7168 105.553 21.5689 105.57 20.4379C105.587 19.3069 103.909 19.3575 103.892 20.4379V20.3873Z" fill="#74C4A3"/>
<path d="M37.7596 99.5249C36.8369 99.2548 35.8639 98.9341 35.109 98.3095C34.7734 98.0394 34.4882 97.7187 34.2869 97.3473C34.1863 97.1785 34.1359 97.0603 34.0688 96.8746C34.0353 96.7734 34.0017 96.6721 33.9849 96.5708C33.9682 96.4695 33.9682 96.4357 33.9682 96.4864C33.9682 96.2163 33.8843 96.3345 33.6997 96.7902L33.2803 96.9084C33.4481 96.8915 33.2803 96.9084 33.2468 96.8915C33.3474 96.9422 33.4481 97.0097 33.532 97.0603C33.7165 97.1785 33.9178 97.3135 34.0856 97.4486C34.4211 97.7018 34.7231 97.9888 35.0251 98.2758C35.3271 98.5627 35.5955 98.8835 35.8304 99.238C36.1491 99.6769 36.4511 100.116 37.0215 100.234C38.1623 100.487 38.9675 99.3899 39.387 98.4783C39.8064 97.5668 40.0245 96.5708 40.2258 95.5917H38.6152C38.8166 96.115 38.8669 96.6045 38.7327 97.1279C38.6152 97.6005 38.3468 98.1576 37.8603 98.3939C37.7764 98.4446 37.7093 98.4614 37.6087 98.4446C37.7429 98.4614 37.6422 98.4446 37.6422 98.4108C37.6422 98.4277 37.6422 98.6978 37.6422 98.6809C37.6254 98.664 37.8939 98.5121 37.9274 98.4952C38.2797 98.3095 38.632 98.1576 38.9843 97.9719L39.5379 97.7018L39.7896 97.5836L39.9741 97.4992C40.058 97.4655 40.058 97.4655 39.9406 97.4992L39.5212 97.3811L39.5883 97.4317L39.2863 97.1279C39.236 96.9253 39.2192 96.8915 39.2192 97.0772C39.2192 97.1447 39.2192 97.2291 39.2024 97.2967C39.2024 97.4148 39.1689 97.5161 39.1353 97.6343C39.0682 97.9044 39.0011 98.1914 38.8837 98.4446C38.6823 98.9172 38.3971 99.373 38.0616 99.7444C37.7596 100.082 37.7261 100.605 38.0616 100.943C38.3636 101.247 38.934 101.281 39.2527 100.943C40.0748 100.031 40.6452 98.9172 40.8297 97.6849C40.9472 96.9422 40.9639 95.8449 39.9406 95.8111C39.5715 95.8111 39.2527 95.9968 38.934 96.1488L37.9442 96.6214C37.3738 96.8915 36.7195 97.1279 36.3169 97.6512C35.8639 98.242 35.931 99.0692 36.4343 99.6093C36.904 100.099 37.6087 100.251 38.2629 100.065C38.9172 99.8794 39.387 99.4068 39.756 98.8835C40.511 97.8369 40.7123 96.3682 40.2425 95.1528C40.1083 94.7983 39.8231 94.5282 39.4373 94.5282C39.085 94.5282 38.6991 94.7814 38.632 95.1528C38.5146 95.7774 38.3804 96.3851 38.1958 96.9928C38.0448 97.4824 37.8603 98.0901 37.4912 98.4614C37.4744 98.4783 37.3235 98.6134 37.3235 98.5965C37.3235 98.5965 37.5248 98.6303 37.508 98.6471C37.508 98.6471 37.0215 98.0057 36.9879 97.9381C36.6356 97.4824 36.233 97.0435 35.7968 96.6552C35.3438 96.25 34.8405 95.8618 34.3205 95.541C33.7333 95.1866 32.8441 95.0009 32.4583 95.7436C32.1731 96.3007 32.3744 97.0603 32.5925 97.6005C32.8106 98.1407 33.1461 98.664 33.5655 99.1198C34.5721 100.183 35.9813 100.723 37.357 101.129C38.3971 101.432 38.8333 99.8119 37.81 99.5081L37.7596 99.5249Z" fill="#74C4A3"/>
<path d="M98.4064 48.6797C96.6281 47.1436 95.135 44.8478 95.6383 42.552C95.9402 41.1002 97.0139 39.8848 98.3225 39.1758C99.6311 38.4668 101.124 38.1967 102.6 38.1629C104.647 38.0954 106.727 38.4499 108.64 39.1589C111.173 40.1042 113.656 41.7248 116.34 41.3872C115.753 43.2441 114.025 44.4426 112.415 45.523C110.469 46.8228 108.506 48.1227 106.325 48.9498C104.144 49.777 101.695 50.1146 99.4633 49.4056" fill="#74C4A3"/>
<path d="M51.1975 75.1828C50.0568 75.6892 49.0166 76.3644 48.0436 77.1579C47.7584 77.3942 47.7416 77.8837 47.9094 78.1876C48.1107 78.5421 48.4798 78.6265 48.8489 78.5758L50.8788 78.3058L51.8518 78.1707C52.1035 78.1369 52.4726 78.0019 52.7074 78.0863L52.3383 77.8668C52.288 77.6136 52.2545 77.5461 52.2545 77.6474C52.2545 77.7318 52.2209 77.8162 52.2041 77.9006C52.1706 78.0525 52.1538 78.2214 52.1538 78.3733C52.1538 78.7447 52.3048 79.116 52.5564 79.3861C53.0262 79.8757 53.7811 79.977 54.4018 79.7744C55.0226 79.5718 55.5259 79.0992 56.1634 78.9641C56.3982 78.9135 57.1196 78.9641 57.019 79.3861C56.7841 80.4496 58.4114 80.8885 58.6295 79.8419C58.8812 78.6603 58.0759 77.5292 56.9015 77.3098C56.2976 77.2085 55.6936 77.3098 55.1232 77.5461C54.8213 77.6643 54.5361 77.8331 54.2676 77.985C54.1838 78.0357 53.8147 78.1538 53.7643 78.2045C53.7643 78.2045 53.7643 78.559 53.8314 78.2214C53.8986 77.9681 53.9321 77.6812 53.8986 77.4111C53.7979 76.7021 53.1772 76.3307 52.4893 76.3813C51.1137 76.5164 49.738 76.7527 48.3791 76.9384L49.2012 78.3564C50.0568 77.6643 51.013 77.0903 52.0196 76.6514C52.439 76.4657 52.5397 75.858 52.3216 75.5035C52.0699 75.0815 51.5834 75.014 51.1808 75.1997L51.1975 75.1828Z" fill="#74C4A3"/>
<path d="M92.6018 78.4576C91.4106 78.8628 90.3369 79.4873 89.4142 80.3314C89.0955 80.6353 89.0955 81.2261 89.4142 81.5299C89.7665 81.8507 90.2531 81.8507 90.6054 81.5299C90.6892 81.4455 90.7731 81.378 90.857 81.3105C90.8906 81.2767 90.9241 81.243 90.9744 81.2261L91.0583 81.1586C90.9577 81.243 90.9409 81.2598 91.008 81.2092C91.1758 81.091 91.3435 80.956 91.5281 80.8547C91.8971 80.6184 92.283 80.4158 92.6856 80.247L92.4843 80.3314C92.6856 80.247 92.8702 80.1795 93.0715 80.1119C93.4909 79.9769 93.8097 79.5211 93.6587 79.0653C93.5245 78.6433 93.0715 78.3226 92.6185 78.4745L92.6018 78.4576Z" fill="#74C4A3"/>
<path d="M92.954 79.9769L92.7695 81.091C92.6688 81.7156 93.1386 82.2896 93.8097 82.1377C94.9504 81.8507 96.0745 81.5637 97.2153 81.2767C97.5172 81.2092 97.836 81.1248 98.1212 81.1754C98.1547 81.1754 98.3896 81.2767 98.2554 81.1754C98.2554 81.1754 98.2554 81.1248 98.2554 81.1079C98.2554 81.1417 98.2554 81.243 98.2386 81.2936C98.1715 81.7325 98.0373 82.1208 98.1715 82.5597C98.3561 83.1167 98.8761 83.4544 99.4297 83.4712C99.9666 83.4881 100.52 83.2518 101.007 83.0999L102.701 82.5934C103.725 82.2727 103.288 80.6521 102.248 80.9729L100.554 81.4793C100.269 81.5637 99.9834 81.6481 99.6982 81.7325C99.6478 81.7325 99.4801 81.7663 99.4465 81.8C99.3291 81.7663 99.3794 81.8169 99.5807 81.9688C99.7149 82.1883 99.7821 82.2221 99.7485 82.0364C99.933 81.7663 99.9163 81.1923 99.8659 80.8885C99.7988 80.4327 99.5304 80.0444 99.1446 79.7912C98.4232 79.3523 97.5172 79.4705 96.7455 79.6562C95.6047 79.9431 94.4807 80.2301 93.3399 80.5171L94.38 81.5637L94.5646 80.4496C94.6317 79.9938 94.4472 79.538 93.9774 79.4029C93.5748 79.2848 93.0212 79.538 92.9373 79.9938L92.954 79.9769Z" fill="#74C4A3"/>
<path d="M61.5486 7.59157L57.4719 12.8922L58.4953 12.7571C56.264 11.356 54.2676 9.68481 52.4893 7.7435C52.0196 7.22019 51.013 7.60846 51.0633 8.33433C51.1976 10.2925 50.9291 12.2169 50.1574 14.0232L51.0969 13.6349L39.1353 10.7989C38.7327 10.6977 38.1791 10.9171 38.0952 11.3898C37.8267 13.061 37.5919 14.7322 37.3067 16.4034C37.2228 16.9267 37.1725 16.8254 36.6188 16.8254C36.1994 16.8254 35.7968 16.8254 35.3774 16.8254H32.8945L22.577 16.7748C21.973 16.7748 21.4865 17.5007 21.8556 18.0409C24.6405 22.0754 26.9556 26.4138 28.7507 30.9716L29.3379 29.925C26.9892 30.4483 24.6573 31.1911 22.4763 32.2039C20.0102 33.3518 21.973 35.6139 23.0132 37.1163C23.6507 38.0447 24.3385 38.9394 25.0431 39.8003C25.429 40.273 25.8316 40.7457 26.251 41.2183C26.5362 41.556 27.1569 41.9611 27.3079 42.3831C27.526 42.9233 26.6704 44.0206 26.4356 44.4595L25.4122 46.2995L23.3822 49.9795C23.1474 50.4184 23.3319 51.1105 23.8855 51.2118C26.4523 51.6845 29.0191 51.9546 31.6362 52.0052C32.7099 52.0221 32.7099 50.334 31.6362 50.3171C29.1869 50.2665 26.7543 50.0302 24.3385 49.5744L24.8418 50.8067C26.1 48.5278 27.375 46.2657 28.5997 43.9868C29.0024 43.2272 29.3043 42.4675 28.8681 41.6572C28.3816 40.7794 27.4925 40.0704 26.8382 39.3108C26.0833 38.4161 25.3619 37.5045 24.6908 36.5592C24.3721 36.1034 24.0533 35.6476 23.7513 35.175C23.6003 34.9555 22.8454 34.0777 22.8957 33.8583C22.9628 33.5882 24.4392 33.1661 24.7076 33.0649C25.2444 32.8623 25.7813 32.6597 26.3181 32.4909C27.4589 32.1195 28.6165 31.7988 29.7908 31.5456C30.1935 31.4612 30.529 30.921 30.378 30.499C28.5326 25.7892 26.1839 21.3158 23.3151 17.163L22.5938 18.4291L34.7567 18.4798C35.9981 18.4798 38.1958 18.9693 38.783 17.4669C39.0682 16.741 39.085 15.7957 39.2024 15.0192L39.7057 11.8118L38.6656 12.4026L50.6272 15.2386C50.9459 15.323 51.4324 15.188 51.5666 14.8504C52.4558 12.7571 52.8584 10.5795 52.6907 8.30057L51.2647 8.8914C53.1436 10.934 55.2575 12.6896 57.6061 14.1582C57.8913 14.3271 58.4114 14.3102 58.6295 14.0232L62.7062 8.72259C63.3605 7.87855 62.1861 6.66312 61.5151 7.52405L61.5486 7.59157Z" fill="#74C4A3"/>
<path d="M38.0113 59.281C38.0616 60.547 38.1791 61.7962 38.33 63.0454C38.3636 63.3155 38.4307 63.535 38.6656 63.7038C38.8669 63.8557 39.1521 63.9401 39.4037 63.8557L43.883 62.2351C44.3024 62.0832 44.6212 61.6612 44.4702 61.1885C44.336 60.7834 43.883 60.4457 43.4301 60.5977L38.9508 62.2182L40.0077 63.0285C39.8399 61.7793 39.7393 60.5133 39.6889 59.2641C39.6722 58.8252 39.3199 58.4032 38.8501 58.42C38.4139 58.4369 37.9945 58.7914 38.0113 59.2641V59.281Z" fill="#74C4A3"/>
<path d="M61.9009 8.70575C63.4108 9.65108 64.9374 10.5458 66.5144 11.3729C67.9404 12.1157 69.0644 12.352 70.4737 11.4236C73.3592 9.53291 76.077 7.28775 78.627 4.97507L77.3017 4.80626L80.3718 11.086C80.5898 11.5249 81.1267 11.5586 81.5126 11.3898C84.9349 9.81989 88.4915 8.5707 92.132 7.62537L91.0751 6.81509C91.2764 10.1406 91.7629 13.4324 92.5514 16.6567C92.6521 17.0618 93.1722 17.4163 93.5916 17.2475C98.0877 15.4919 102.701 14.1245 107.415 13.1454L106.375 12.5546L107.835 18.4967C108.086 19.4926 108.237 20.5561 108.59 21.5352C108.774 22.0585 109.11 22.4974 109.68 22.6494C110.402 22.8519 111.291 22.6663 112.029 22.6325L115.283 22.4806L121.407 22.1936L120.602 21.1301C120.031 22.9364 119.545 24.7426 119.142 26.5995C118.807 28.1863 118.152 30.2289 118.437 31.8495C118.706 33.3856 120.216 34.2128 121.34 35.0568L125.987 38.5343V37.0826C124.846 37.7071 123.739 38.3655 122.665 39.0914C121.91 39.5978 120.92 40.138 120.635 41.0833C120.333 42.0962 120.92 43.109 121.323 44.0037L123.152 48.1058L123.655 46.8735L120.216 47.8694C119.192 48.1564 118.018 48.3421 117.062 48.8148C116.357 49.1524 116.055 49.777 116.122 50.5535C116.223 51.7352 116.609 52.9506 116.844 54.0985C117.062 55.162 118.689 54.7062 118.454 53.6427L117.968 51.2794C117.884 50.8911 117.699 50.5704 117.968 50.2497C118.152 50.0302 119.025 49.9458 119.31 49.8614L124.091 48.4772C124.662 48.3084 124.812 47.7344 124.594 47.2449L123.269 44.2569C122.967 43.5817 122.011 42.1975 122.279 41.4885C122.497 40.9314 123.789 40.3406 124.292 40.0367C125.131 39.5134 125.987 39.007 126.842 38.5343C127.446 38.1967 127.312 37.437 126.842 37.0826L123.001 34.1959C121.86 33.335 119.964 32.4741 120.098 30.8366C120.367 27.7136 121.273 24.54 122.229 21.569C122.397 21.0626 121.944 20.4717 121.424 20.5055L111.022 20.995C110.72 20.995 110.301 21.1132 110.15 20.9275C109.982 20.6912 109.932 19.9315 109.848 19.6446L109.261 17.2644L108.003 12.1157C107.885 11.6599 107.399 11.4405 106.962 11.5249C102.248 12.504 97.6179 13.8713 93.1386 15.6269L94.1787 16.2178C93.4238 13.1285 92.9541 9.9887 92.7695 6.81509C92.736 6.25802 92.2662 5.85287 91.7126 6.0048C87.9211 6.9839 84.2471 8.30061 80.6905 9.93805L81.8313 10.2419L78.7612 3.96221C78.5096 3.45579 77.8217 3.45579 77.4359 3.7934C75.2382 5.76847 72.9566 7.62537 70.5408 9.33034C70.0543 9.68484 69.3832 10.3094 68.7625 10.4107C68.0243 10.5289 67.1184 9.81989 66.4977 9.48227C65.2226 8.79015 63.9644 8.04739 62.723 7.27087C61.8003 6.69692 60.9614 8.14868 61.8841 8.72263L61.9009 8.70575Z" fill="#74C4A3"/>
<path d="M114.998 55.4996C113.555 54.9594 112.062 54.5374 110.536 54.2336C109.999 54.1323 109.496 54.4699 109.479 55.0438L109.311 61.3404C109.311 61.7962 109.697 62.1845 110.15 62.1845C110.603 62.1845 110.972 61.7962 110.989 61.3404L111.156 55.0438L110.1 55.8541C111.609 56.158 113.103 56.58 114.562 57.1202C114.981 57.2721 115.485 56.9345 115.602 56.5294C115.736 56.0567 115.434 55.6515 115.015 55.4827L114.998 55.4996Z" fill="#74C4A3"/>
<path d="M78.778 46.4852C75.4227 44.7971 71.6984 44.4764 68.0243 44.7296C64.3503 44.9828 60.3407 45.4892 56.9016 47.0929C53.4624 48.6966 50.6439 51.195 48.1107 53.8453C45.5775 56.4956 43.4636 59.5342 42.0712 62.9441C40.5445 66.6917 39.8232 70.7431 39.5212 74.7607C39.2192 78.7784 39.4205 82.7285 40.2426 86.628C41.7021 93.5323 45.309 100.048 50.8956 104.404C56.8848 109.063 64.4845 110.278 71.799 111.308C76.0099 111.899 80.1369 112.338 84.3478 111.409C87.9547 110.616 91.5281 109.299 94.9505 107.915C101.175 105.383 107.113 101.72 109.999 95.3554C111.576 91.878 112.314 88.0966 112.985 84.3491C113.623 80.821 114.159 77.2422 114.109 73.6466C114.059 70.051 113.405 66.7592 111.693 63.7544C109.814 60.4457 106.711 57.998 103.758 55.6853C97.7354 50.9924 90.8738 47.1098 83.1566 46.3502C81.2274 46.1645 79.2813 46.1982 77.3688 46.4515C76.3119 46.5865 76.2951 48.2746 77.3688 48.1395C84.7672 47.1605 91.9307 49.7601 98.1044 53.7102C101.124 55.6516 104.043 57.8798 106.677 60.3276C109.311 62.7753 111.123 65.5606 111.911 69.055C112.65 72.313 112.515 75.7229 112.13 79.0147C111.744 82.3065 111.106 85.9021 110.301 89.2446C109.496 92.587 108.254 95.9969 105.989 98.6979C103.993 101.095 101.443 102.901 98.7252 104.353C96.0074 105.805 92.9709 106.953 89.9846 107.982C86.2603 109.265 82.5191 110.413 78.5431 110.329C74.5671 110.244 70.9434 109.569 67.219 108.928C63.7296 108.32 60.2233 107.543 56.9687 106.092C50.9291 103.391 46.3827 98.3265 43.7656 92.2831C40.813 85.4126 40.4942 77.5123 41.786 70.2198C42.4403 66.5904 43.5643 63.0623 45.5271 59.9224C47.3725 56.9683 49.7883 54.4024 52.4222 52.1572C55.2575 49.7264 58.3611 48.0214 62.0351 47.2617C65.5079 46.5359 69.2322 46.1307 72.772 46.5021C74.5839 46.6878 76.3454 47.1773 77.9727 47.9876C78.929 48.4772 79.7846 47.0085 78.8116 46.5359L78.778 46.4852Z" fill="black"/>
<path d="M95.0176 53.2545C97.685 50.4016 100.956 48.1564 104.563 46.7215C104.983 46.5527 105.285 46.1645 105.151 45.6749C105.033 45.2698 104.547 44.9153 104.11 45.0841C100.218 46.6203 96.6952 48.9836 93.8097 52.0559C93.0715 52.8493 94.2458 54.0479 95.0008 53.2545H95.0176Z" fill="black"/>
<path d="M60.6091 47.6837C58.2269 48.2239 57.2539 51.2794 59.1496 52.9843C60.0723 53.8284 61.3809 53.9803 62.572 54.0478C63.4108 54.0816 64.2664 54.0478 65.1052 53.9634C65.6924 53.8959 66.6319 53.4907 67.001 53.9972C67.3197 54.453 67.4875 54.9087 67.9237 55.3139C68.3598 55.719 68.8799 56.0229 69.4335 56.2761C70.7589 56.8669 72.2352 57.1033 73.678 57.137C75.2382 57.1708 76.7313 56.8669 78.2244 56.428C79.08 56.1748 79.9356 55.9385 80.6737 56.5293C81.1602 56.9176 81.5461 57.4071 82.0494 57.7785C84.2639 59.3991 87.4179 59.3991 89.6491 57.8291C90.5215 57.2045 89.6827 55.7528 88.8103 56.3774C87.703 57.1539 86.4113 57.4746 85.0692 57.2552C83.6264 57.0189 82.8547 56.1579 81.7978 55.2632C80.7408 54.3686 79.4323 54.3517 78.1405 54.7062C76.4461 55.1451 74.8859 55.5671 73.1243 55.4321C71.7655 55.3308 69.9033 55.0438 68.9302 53.9297C68.5444 53.4907 68.4941 52.8493 68.0746 52.4273C67.6552 52.0052 67.0848 51.9883 66.5312 52.0559C64.8703 52.2753 63.1927 52.5961 61.5151 52.2753C60.7937 52.1403 60.0723 51.8195 59.8878 51.0261C59.6697 50.1483 60.3072 49.5069 61.0957 49.338C62.1526 49.1017 61.6996 47.4643 60.6427 47.7175L60.6091 47.6837Z" fill="black"/>
<path d="M94.8834 59.2472C96.5107 59.9562 97.5676 61.3236 98.289 62.9104C98.6413 63.6869 98.8929 64.4972 99.111 65.3243C99.3627 66.2865 99.6646 67.1812 100.52 67.7721C101.275 68.2954 102.282 68.5655 103.171 68.7174C104.127 68.8862 105.134 68.8862 106.023 68.3967C107.885 67.35 108.12 65.0542 107.768 63.1467C107.566 62.0832 105.956 62.539 106.157 63.6025C106.409 65.0205 106.174 67.08 104.362 67.1475C103.574 67.1812 102.701 66.9449 101.98 66.6579C101.141 66.3203 100.956 65.7126 100.738 64.8854C100 62.0494 98.5574 59.0278 95.7389 57.8123C95.3195 57.6266 94.8498 57.6942 94.5982 58.1162C94.3801 58.4707 94.4807 59.0953 94.9001 59.2641L94.8834 59.2472Z" fill="black"/>
<path d="M34.807 52.9506C34.354 52.1066 33.3642 50.4523 33.8507 49.4901C34.2366 48.7304 35.1425 48.3253 35.9646 48.3422C37.961 48.3759 38.6488 50.7392 37.5416 52.191C36.9208 53.0013 38.1791 53.7609 38.8669 53.2207C39.7393 52.5117 40.9136 52.2923 42.0041 52.3767C42.8932 52.4442 44.336 52.7312 44.6548 53.7272C44.94 54.605 44.1347 55.5334 43.3797 55.8373C42.1215 56.3437 40.662 55.8204 39.4708 55.3308C38.7998 55.0608 38.3468 55.8204 38.4307 56.3775C38.5146 56.9345 38.632 57.6604 38.4139 58.2344C38.1791 58.859 37.5248 58.9771 36.9376 59.0109C36.3504 59.0446 35.3271 59.129 34.9748 58.5213C34.6896 58.0318 35.1425 57.4072 34.8909 56.8501C34.2701 55.449 32.7435 56.8332 31.9215 55.8204C31.2336 54.9932 32.2738 53.8284 33.1965 54.2673C34.1695 54.7231 35.0251 53.2714 34.0353 52.8156C32.3744 52.0391 30.1264 53.0519 29.9922 55.027C29.9251 55.9723 30.4284 56.8839 31.1833 57.4241C31.5524 57.6942 31.9718 57.8799 32.4247 57.9305C32.7099 57.9643 32.9616 57.9643 33.2468 57.9305C33.381 57.9136 33.5152 57.8799 33.6494 57.8292C33.4481 57.4072 33.3139 57.3228 33.2971 57.576C32.9951 57.8292 33.2636 58.8252 33.381 59.1122C33.5823 59.568 33.9178 59.9731 34.354 60.2263C35.2767 60.8003 36.4679 60.8003 37.508 60.6483C38.5481 60.4964 39.4373 60.0406 39.8903 59.0784C40.3432 58.1162 40.2258 56.9852 40.058 55.9386L39.0179 56.9852C40.7123 57.6773 42.7758 58.1668 44.4702 57.1877C45.7788 56.445 46.7183 54.8075 46.2653 53.2883C45.7788 51.6677 44.0676 50.9756 42.5577 50.7561C40.7962 50.5029 39.0682 50.8912 37.6758 52.0222L39.0011 53.0519C40.9304 50.5367 39.1185 46.7047 35.9646 46.6709C34.5553 46.6541 33.079 47.3799 32.3912 48.6629C31.502 50.3172 32.5254 52.3429 33.3474 53.8284C33.8675 54.7738 35.3271 53.9297 34.7902 52.9844L34.807 52.9506Z" fill="black"/>
<path d="M116.575 58.8589C116.257 58.1837 115.787 57.2215 116.055 56.4787C116.324 55.7359 117.28 55.5334 117.951 55.5503C119.645 55.584 120.736 57.1033 120.568 58.7239C120.501 59.3822 121.323 59.7367 121.826 59.4497C122.548 59.0277 123.353 58.7914 124.192 58.7745C124.729 58.7745 125.702 58.8083 126.02 59.3485C126.322 59.838 125.433 60.2431 125.098 60.4457C124.376 60.8846 123.621 61.2729 122.833 61.5599C122.044 61.8468 121.206 62.0663 120.367 62.1845C119.696 62.2857 118.656 62.5052 118.052 62.1338C117.599 61.8637 117.448 61.2222 117.28 60.7496C117.045 60.0912 116.793 59.5004 116.357 58.9433C116.072 58.5888 115.468 58.6563 115.166 58.9433C114.814 59.2978 114.881 59.7874 115.166 60.1419C115.535 60.6145 115.669 61.2729 115.887 61.8299C116.156 62.4883 116.491 63.1129 117.095 63.518C117.8 64.0076 118.706 64.0245 119.528 63.9738C120.417 63.9063 121.306 63.7713 122.162 63.5518C123.806 63.1129 125.467 62.387 126.809 61.3404C127.43 60.8509 127.883 60.1756 127.782 59.3653C127.698 58.6057 127.161 57.998 126.524 57.6266C124.846 56.6644 122.581 57.0864 120.987 57.998L122.246 58.7239C122.514 56.0567 120.283 53.6934 117.615 53.8622C116.324 53.9466 114.965 54.5712 114.495 55.871C114.025 57.1708 114.579 58.5551 115.132 59.7198C115.602 60.6989 117.045 59.838 116.575 58.8758V58.8589Z" fill="black"/>
<path d="M38.5649 100.302C37.3234 100.15 36.0484 100.234 34.8405 99.8795C34.0017 99.6432 33.0622 98.9848 32.9112 98.0564C32.777 97.2292 33.5152 96.6553 34.2534 96.5202C35.2599 96.3514 36.1994 97.0604 36.8369 97.7694C37.206 98.1746 37.8938 98.0564 38.1623 97.6006C38.4475 97.0942 38.4978 96.554 38.4642 95.98C38.4475 95.6424 38.3636 95.2373 38.5984 94.9503C39.0682 94.3932 39.8567 94.6802 40.2258 95.1866C41.5847 97.0773 39.1017 99.4744 38.1287 100.909C37.508 101.804 38.9675 102.648 39.5715 101.753C40.4606 100.453 41.5679 99.2887 42.0376 97.7525C42.457 96.4189 42.2725 94.8997 41.2995 93.853C40.4271 92.9077 38.9843 92.6883 37.8938 93.3804C37.357 93.718 36.9376 94.2751 36.8202 94.8997C36.753 95.2542 36.7698 95.6087 36.7866 95.98C36.7866 96.2501 36.8537 96.5202 36.7195 96.7566L38.0448 96.5878C37.0047 95.4399 35.5284 94.6296 33.9514 94.8828C32.5254 95.1191 31.3175 96.2839 31.2504 97.7694C31.1833 99.2549 32.3241 100.589 33.5823 101.179C35.1425 101.922 36.904 101.787 38.5817 101.99C39.0346 102.04 39.4205 101.568 39.4205 101.146C39.4205 100.639 39.0346 100.352 38.5817 100.302H38.5649Z" fill="black"/>
<path d="M62.5552 73.4608C61.3473 73.6803 60.0555 73.0219 59.4683 71.9584C58.8812 70.8949 59.116 69.5107 59.9045 68.6329C60.9614 67.4344 62.7062 67.5019 64.1657 67.5694C64.5012 67.5694 64.8536 67.5694 65.1723 67.7213C65.4911 67.8901 65.7763 68.2278 65.9776 68.5147C66.397 69.1056 66.7157 69.8146 66.7325 70.5404C66.7325 70.9118 66.7325 71.3676 66.4976 71.6715C66.246 71.9922 65.793 72.2117 65.4743 72.4649C64.82 72.9713 64.0483 73.6803 63.1759 73.3764C62.1526 73.0219 61.7164 74.6425 62.723 74.997C63.8973 75.419 65.0716 74.8788 66.0111 74.1698C66.9506 73.4608 67.9572 72.9206 68.2759 71.7727C68.5611 70.6924 68.3766 69.5445 67.9236 68.5485C67.4707 67.5525 66.699 66.5228 65.6924 66.1176C65.1891 65.9151 64.6355 65.8982 64.0986 65.8813C63.5618 65.8644 62.9914 65.8475 62.4378 65.8813C61.3473 65.9657 60.24 66.2189 59.3341 66.8942C57.8075 68.0421 57.0693 70.2028 57.69 72.0428C58.4282 74.2542 60.7769 75.5203 63.0082 75.0983C63.4611 75.0139 63.7128 74.4737 63.5953 74.0517C63.4611 73.579 63.0081 73.3764 62.5552 73.4608Z" fill="black"/>
<path d="M84.5491 74.9127C83.9451 74.9127 83.7438 74.2206 83.7606 73.731C83.7606 73.0389 84.029 72.2624 84.3477 71.6547C84.6497 71.0807 85.0691 70.6081 85.7066 70.4224C86.3441 70.2367 87.032 70.3042 87.6695 70.473C88.8941 70.7769 90.253 71.4521 90.7899 72.6675C91.008 73.174 91.0919 73.7817 90.9409 74.305C90.7731 74.9296 90.3705 75.3178 89.8001 75.5879C88.3237 76.2969 86.4783 76.1956 85.0356 75.4698C84.0793 74.9802 83.2237 76.432 84.1967 76.9215C86.126 77.9175 88.4244 78.0357 90.4208 77.1579C91.3603 76.7527 92.0984 76.0606 92.4675 75.0815C92.7863 74.2375 92.7695 73.2415 92.4675 72.3806C91.8132 70.473 89.9846 69.3082 88.1057 68.8356C87.1326 68.5992 86.0422 68.5148 85.0691 68.8356C84.0961 69.1563 83.3244 69.916 82.8546 70.8444C82.3178 71.9079 81.9319 73.2077 82.1332 74.4063C82.3346 75.6048 83.3244 76.6008 84.5491 76.6008C85.6227 76.6008 85.6227 74.9127 84.5491 74.9127Z" fill="black"/>
<path d="M60.6594 66.1515C59.9548 66.6579 59.3509 67.2487 58.8476 67.9577C58.3443 68.6667 57.8913 69.5445 57.8578 70.4392C57.8075 72.1442 59.5019 73.1402 61.0118 73.1908C62.6391 73.2415 64.2496 72.4143 65.2059 71.0976C65.6924 70.4223 66.0111 69.5445 65.9105 68.7174C65.8098 67.8227 65.3065 67.0968 64.5684 66.5735C63.7799 66.0333 62.8068 65.8645 61.8841 65.8476C60.9614 65.8307 59.7703 65.7632 59.116 66.506C58.814 66.8436 58.7805 67.3669 59.116 67.7045C59.418 68.0084 59.9884 68.0421 60.3071 67.7045C60.3742 67.6201 60.3407 67.6539 60.4078 67.6201C60.4749 67.5864 60.5252 67.5864 60.5756 67.5864C60.7266 67.5526 60.391 67.5864 60.6762 67.5864C61.0118 67.5864 61.3305 67.5526 61.666 67.5526C61.9512 67.5526 62.2532 67.5526 62.5384 67.5864C62.8236 67.6201 63.1927 67.7383 63.3437 67.8058C63.4443 67.8564 63.5618 67.924 63.6624 67.9915C63.7463 68.0421 63.7631 68.059 63.8805 68.1772C63.9308 68.2109 63.9644 68.2616 63.998 68.3122C64.0986 68.4135 63.9476 68.2278 64.0315 68.346C64.0986 68.4473 64.1825 68.6161 64.1825 68.6161C64.3335 69.0719 64.216 69.5108 63.9476 69.9666C63.4443 70.8106 62.4042 71.4183 61.4983 71.5027C61.3641 71.5027 61.2466 71.5196 61.1124 71.5027C61.0285 71.5027 60.9614 71.5027 60.8775 71.5027C60.8608 71.5027 60.693 71.4858 60.7769 71.5027C60.8943 71.5027 60.6259 71.469 60.6427 71.469C60.5923 71.469 60.5252 71.4352 60.4749 71.4183C60.4246 71.4014 60.3742 71.3846 60.3071 71.3677C60.089 71.3002 60.391 71.4352 60.1897 71.317C60.0891 71.2664 59.9884 71.2157 59.9045 71.1482C59.7703 71.0638 59.8542 71.0976 59.871 71.1482C59.8206 71.0976 59.7703 71.0638 59.72 71.0132C59.72 71.0132 59.6025 70.8781 59.6529 70.9457C59.7032 71.0132 59.6193 70.8781 59.6025 70.8612C59.5858 70.8275 59.5187 70.6756 59.569 70.8106C59.5522 70.7431 59.5186 70.6756 59.5186 70.608C59.4348 70.051 59.8877 69.3926 60.1897 68.9368C60.5252 68.4473 61.0118 67.9577 61.4815 67.6201C61.8506 67.35 62.0183 66.8774 61.7835 66.4722C61.5654 66.1008 61.0118 65.8983 60.6427 66.1684L60.6594 66.1515Z" fill="black"/>
<path d="M64.3503 69.8821C63.6624 70.2873 62.9243 70.7599 62.5887 71.5196C62.2364 72.313 62.2532 73.3765 62.9746 73.9842C63.3772 74.3218 63.8805 74.4906 64.4174 74.4231C64.8703 74.3725 65.3065 74.2374 65.6756 73.9673C66.397 73.4609 66.9674 72.6337 66.9003 71.7222C66.8667 71.182 66.6319 70.6587 66.2292 70.3042C65.9944 70.1016 65.7595 69.9497 65.4575 69.8484C65.1555 69.7471 64.8703 69.764 64.5684 69.8146C64.367 69.8484 64.1657 70.0341 64.0651 70.2029C63.9644 70.3886 63.9141 70.6587 63.9812 70.8612C64.0483 71.0638 64.1657 71.2664 64.367 71.3677C64.5851 71.4858 64.7865 71.4858 65.0213 71.4521H64.8368C64.8368 71.4521 64.9878 71.4521 65.0717 71.4689L64.8536 71.4352C64.9374 71.4352 65.0213 71.4689 65.1052 71.5027L64.9039 71.4183C64.9039 71.4183 65.0381 71.4858 65.1052 71.5365C65.2226 71.604 64.971 71.4183 65.0381 71.4858C65.0717 71.5196 65.0884 71.5365 65.122 71.5702C65.1388 71.5871 65.1555 71.6209 65.1891 71.6378C65.0381 71.5027 65.1052 71.5196 65.1555 71.5871C65.2059 71.6546 65.2394 71.7222 65.273 71.7897L65.1891 71.5871C65.2226 71.6884 65.2562 71.7897 65.273 71.891L65.2394 71.6715C65.2394 71.7728 65.2394 71.891 65.2394 71.9923L65.273 71.7728C65.2562 71.9079 65.2226 72.0429 65.1723 72.1611L65.2562 71.9585C65.2059 72.0767 65.1388 72.1779 65.0717 72.2792C65.0045 72.3805 65.122 72.2286 65.122 72.2117C65.122 72.2455 65.0717 72.2623 65.0549 72.2961C65.0213 72.3468 64.971 72.3805 64.9207 72.4312C64.8871 72.4649 64.8368 72.4987 64.8032 72.5493C64.9878 72.3636 64.8536 72.5156 64.8032 72.5493C64.6858 72.6168 64.5851 72.6844 64.4509 72.735L64.6522 72.6506C64.5013 72.7012 64.367 72.7519 64.2161 72.7688L64.4341 72.735C64.3167 72.735 64.1825 72.735 64.0651 72.735L64.2832 72.7688C64.1825 72.7688 64.0986 72.735 64.0147 72.7013L64.2161 72.7857C64.2161 72.7857 64.1154 72.735 64.0818 72.7181C63.9812 72.6506 64.1657 72.7688 64.1489 72.7857L64.0818 72.7181C64.0818 72.7181 63.998 72.6169 64.0818 72.735C64.1657 72.8532 64.1154 72.7857 64.0818 72.735C64.0483 72.6844 64.0315 72.6506 64.0147 72.6L64.0986 72.8025C64.0651 72.7012 64.0315 72.6 64.0147 72.4987L64.0483 72.7181C64.0483 72.6 64.0483 72.4649 64.0483 72.3468L64.0147 72.5662C64.0315 72.4312 64.0651 72.2961 64.1154 72.1779L64.0315 72.3805C64.0315 72.3805 64.0986 72.2455 64.1322 72.1779C64.1489 72.1442 64.1657 72.1104 64.1993 72.0935C64.2832 71.9754 64.1825 72.0935 64.1657 72.1442C64.2328 72.0091 64.4006 71.891 64.518 71.7897C64.6355 71.6884 64.4845 71.7897 64.4677 71.8234C64.4677 71.8066 64.5516 71.7559 64.5684 71.739C64.6355 71.6884 64.7026 71.6546 64.7697 71.604C64.9039 71.5196 65.0549 71.4183 65.2059 71.3339C65.5917 71.1144 65.7595 70.5574 65.5078 70.186C65.2562 69.8146 64.7697 69.6458 64.367 69.8821H64.3503Z" fill="black"/>
<path d="M59.6193 72.4987C59.6361 72.9207 59.8039 73.309 60.1394 73.5791C60.4246 73.8154 60.7433 73.9842 61.1124 74.0518C61.297 74.0855 61.4815 74.1193 61.666 74.1193C61.9512 74.1193 62.2197 74.0686 62.4881 73.9505C62.7062 73.8492 62.9075 73.6466 63.0249 73.444C63.1759 73.1739 63.243 72.8026 63.1256 72.4987C63.092 72.3805 63.0417 72.2961 62.9746 72.2117C62.9075 72.1273 62.8404 72.0429 62.7397 71.9923C62.5552 71.891 62.2868 71.8404 62.0855 71.9079C61.8841 71.9754 61.6828 72.0936 61.5822 72.2961C61.4815 72.4987 61.4144 72.735 61.4983 72.9545C61.4983 72.9714 61.4983 73.0051 61.5151 73.022L61.4815 72.8026C61.4815 72.8026 61.4815 72.8701 61.4815 72.9039L61.5151 72.6844C61.5151 72.6844 61.5151 72.7519 61.4815 72.7857L61.5654 72.5831C61.5654 72.5831 61.5318 72.6506 61.5151 72.6675L61.6493 72.4987C61.6493 72.4987 61.5989 72.5662 61.5654 72.5831L61.7332 72.4481C61.7332 72.4481 61.666 72.4818 61.6325 72.4987L61.8338 72.4143C61.8338 72.4143 61.7164 72.4481 61.6493 72.465L61.8674 72.4312C61.7332 72.4312 61.5989 72.4312 61.4647 72.4312L61.6828 72.465C61.5151 72.4481 61.3641 72.3974 61.2131 72.3299L61.4144 72.4143C61.3137 72.3805 61.2299 72.3299 61.146 72.2624L61.3137 72.3974C61.3137 72.3974 61.2131 72.313 61.1795 72.2624L61.3137 72.4312C61.3137 72.4312 61.2466 72.3299 61.2299 72.2793L61.3137 72.4818C61.3137 72.4818 61.2802 72.3805 61.2802 72.3299L61.3137 72.5494V72.4987C61.3137 72.2793 61.2299 72.0598 61.0621 71.9079C60.9111 71.756 60.6762 71.6547 60.4749 71.6547C60.2736 71.6547 60.0387 71.7391 59.8877 71.9079C59.7368 72.0767 59.6361 72.2793 59.6361 72.4987H59.6193Z" fill="black"/>
<path d="M64.82 67.3669V68.8018C64.82 69.3082 64.7193 69.9666 65.0045 70.4224C65.3568 70.9963 66.1286 71.1651 66.6822 70.7769C67.2358 70.3886 67.3532 69.7978 67.2861 69.1901L65.7259 69.6121C65.7259 69.6121 65.7595 69.6796 65.793 69.7303C65.8266 69.8147 65.8266 69.8147 65.793 69.7134C65.8434 69.764 65.8601 69.8822 65.8769 69.9497C65.8937 70.0172 65.9272 70.1185 65.9272 70.2029C65.9272 69.9835 65.9272 70.2029 65.9272 70.2705C65.9272 70.338 65.9272 70.4224 65.9272 70.4899C65.9272 70.5406 65.9272 70.5743 65.9272 70.625C65.944 70.5068 65.944 70.4899 65.9272 70.5912C65.9105 70.6756 65.8937 70.76 65.8601 70.8444C65.8601 70.8951 65.7427 71.1483 65.8266 70.9457C65.642 71.3508 65.6924 71.8741 66.1286 72.0936C66.4976 72.2793 67.0848 72.2286 67.2694 71.7897C67.7055 70.8106 67.7055 69.7303 67.1855 68.7681C67.0177 68.4473 66.5815 68.2616 66.246 68.3798C65.9272 68.4811 65.5917 68.8187 65.6253 69.1901C65.6253 69.2745 65.642 69.342 65.642 69.4264C65.642 69.4602 65.642 69.6627 65.642 69.5446C65.642 69.4771 65.642 69.4771 65.642 69.5446C65.6588 69.4771 65.6924 69.4264 65.7595 69.3758L65.7259 69.4095C65.7259 69.4095 65.8434 69.3082 65.9272 69.2914C65.8601 69.3082 65.8601 69.3082 65.944 69.2914C66.0111 69.2914 66.0782 69.2914 66.1453 69.2914C66.2963 69.3251 66.4138 69.4095 66.4641 69.5446C66.5312 69.6796 66.548 69.6965 66.5144 69.5952C66.5647 69.8147 66.5144 69.6459 66.5144 69.5783C66.5144 69.4939 66.5144 69.3926 66.5144 69.3082V67.3332C66.5144 66.8943 66.1286 66.4723 65.6756 66.4891C65.2226 66.506 64.8368 66.8605 64.8368 67.3332L64.82 67.3669Z" fill="black"/>
<path d="M88.156 68.768C86.9313 68.5992 85.6228 69.1225 84.8007 70.0341C84.2974 70.5912 83.9619 71.2495 83.878 72.0092C83.8109 72.7013 84.0793 73.4272 84.5994 73.8829C85.0524 74.2881 85.6228 74.5244 86.2267 74.6257C86.8978 74.7439 87.6024 74.7945 88.2902 74.6595C89.6827 74.3725 90.3873 72.9376 90.1692 71.604C89.9175 70.1016 88.3573 69.2069 86.9481 69.2069C86.5119 69.2069 86.0925 69.5952 86.1093 70.051C86.1261 70.5068 86.4784 70.895 86.9481 70.895C87.032 70.895 87.183 70.8781 87.2668 70.895H87.1662C87.1662 70.895 87.2501 70.895 87.3004 70.895C87.334 70.895 87.3843 70.9119 87.4178 70.9288C87.5185 70.9625 87.6192 70.9963 87.7198 71.0301C87.9211 71.0976 87.5688 70.9457 87.7534 71.047C87.8037 71.0807 87.8708 71.0976 87.9211 71.1314C87.9715 71.1651 88.0218 71.1989 88.0889 71.2326C88.156 71.2664 88.2063 71.2664 88.0721 71.2326C88.156 71.2664 88.2399 71.3846 88.307 71.4521L88.3405 71.5027C88.3405 71.5027 88.3909 71.5703 88.3405 71.4859C88.3573 71.4859 88.4076 71.5703 88.4076 71.5871C88.4412 71.6378 88.4747 71.7053 88.4915 71.7559C88.5754 71.891 88.4412 71.5871 88.4915 71.7559L88.5586 72.026C88.5251 72.026 88.5586 71.8235 88.5586 71.9923C88.5586 72.0429 88.5586 72.0936 88.5586 72.1273C88.5586 72.1611 88.5586 72.2286 88.5586 72.2624C88.5586 72.4481 88.5419 72.2286 88.5586 72.2286C88.5586 72.2286 88.4748 72.5325 88.4748 72.5494C88.4244 72.7013 88.4747 72.4987 88.4915 72.4987C88.5083 72.4987 88.4244 72.6338 88.4076 72.6506C88.3909 72.6844 88.3741 72.7182 88.3573 72.7519C88.2567 72.9038 88.4915 72.6338 88.3573 72.7519C88.3238 72.7688 88.307 72.8026 88.2902 72.8363C88.156 72.9714 88.2902 72.8363 88.2902 72.8363C88.2902 72.8363 88.2063 72.887 88.2063 72.9038C88.1728 72.9207 88.1392 72.9376 88.1057 72.9545C88.1896 72.9207 88.1896 72.9207 88.1057 72.9545C88.0553 72.9545 88.005 72.9883 87.9547 73.0051C87.9379 73.0051 87.6863 73.0558 87.8708 73.022C87.7366 73.022 87.6192 73.0389 87.4849 73.0389C87.2501 73.0389 87.0152 73.022 86.7971 73.0051C86.6629 73.0051 87.0152 73.0389 86.7971 73.0051C86.7636 73.0051 86.7132 73.0051 86.6797 72.9883C86.579 72.9714 86.4784 72.9545 86.3777 72.9207C86.277 72.887 86.1932 72.8532 86.0925 72.8363C85.908 72.7688 86.2435 72.9207 86.0925 72.8363C86.0422 72.8026 85.9918 72.7857 85.9415 72.7519C85.9415 72.7519 85.8073 72.6844 85.8073 72.6675C85.8073 72.6675 85.9583 72.8026 85.8409 72.7013C85.8073 72.6675 85.757 72.6169 85.7234 72.5831C85.6228 72.4987 85.757 72.6169 85.757 72.6169C85.757 72.6169 85.5221 72.2793 85.6731 72.5156C85.6395 72.4649 85.6228 72.3805 85.606 72.313C85.5556 72.1611 85.5892 72.4312 85.606 72.2624C85.606 72.2117 85.606 72.1442 85.606 72.0936C85.606 71.9754 85.5556 72.2793 85.606 72.0767C85.6395 71.9585 85.6731 71.8404 85.7066 71.7391C85.6395 71.891 85.7066 71.7391 85.7234 71.7053C85.757 71.6547 85.7737 71.604 85.8073 71.5534C85.8409 71.5027 85.8576 71.469 85.8912 71.4183C86.0086 71.2326 85.8241 71.4859 85.9415 71.3677C86.0254 71.2664 86.1093 71.182 86.2099 71.0976C86.2435 71.0638 86.277 71.047 86.3106 71.0132C86.428 70.895 86.1932 71.0976 86.3609 70.9625C86.4616 70.895 86.5622 70.8275 86.6629 70.7769C86.7132 70.7431 86.7803 70.7093 86.8307 70.6924C86.881 70.6587 87.0152 70.5743 86.8642 70.6756C86.9481 70.608 87.1159 70.5912 87.2333 70.5574C87.2836 70.5574 87.334 70.5236 87.3843 70.5236C87.4178 70.5236 87.4514 70.5236 87.4849 70.5068C87.5856 70.5068 87.5688 70.5068 87.4514 70.5068C87.4514 70.5236 87.8037 70.4899 87.8372 70.4899C87.9715 70.4899 88.0889 70.4899 88.2231 70.5236C88.6593 70.5743 89.0787 70.1016 89.0619 69.6796C89.0451 69.1732 88.6928 68.9031 88.2231 68.8356L88.156 68.768Z" fill="black"/>
<path d="M88.6928 73.3258C87.8372 73.5622 86.881 74.0011 86.3945 74.7776C86.0925 75.2672 86.0757 75.8917 86.3441 76.3982C86.5455 76.7695 86.881 77.0565 87.2501 77.2422C88.1057 77.6811 89.1458 77.9006 90.0517 77.4617C90.4879 77.2422 90.857 76.8202 90.9912 76.3306C91.1254 75.8411 91.0248 75.3347 90.7899 74.8958C90.555 74.4569 90.1524 74.1024 89.7162 73.8998C89.1458 73.6466 88.5754 73.5791 87.9714 73.6803C87.5353 73.7647 87.2501 74.3218 87.3843 74.727C87.5353 75.1996 87.9547 75.4022 88.4244 75.3178C88.5754 75.3009 88.3741 75.3178 88.3573 75.3178C88.3909 75.3178 88.4244 75.3178 88.458 75.3178C88.5251 75.3178 88.5922 75.3178 88.6593 75.3178C88.6761 75.3178 88.7432 75.3178 88.7599 75.3178C88.6257 75.3347 88.609 75.284 88.6928 75.3178C88.7767 75.3516 88.8606 75.3516 88.9445 75.3853C88.9445 75.3853 89.0284 75.4191 89.0451 75.4191C88.9445 75.4191 88.8942 75.3516 88.978 75.4022C89.0451 75.436 89.0955 75.4697 89.1626 75.5035C89.1794 75.5035 89.2129 75.5541 89.2465 75.5541C89.1122 75.5035 89.129 75.4528 89.1794 75.5035C89.2297 75.5541 89.28 75.6216 89.3471 75.6723C89.3471 75.6723 89.2297 75.5035 89.2968 75.6216C89.2968 75.6554 89.3303 75.6723 89.3471 75.7061C89.3639 75.7398 89.3807 75.7567 89.3974 75.7905C89.4478 75.8749 89.3639 75.8411 89.3639 75.7229C89.3639 75.7736 89.3974 75.8411 89.4142 75.8917C89.431 75.993 89.3639 75.8917 89.4142 75.8073C89.4142 75.8411 89.4142 75.8917 89.4142 75.9255C89.4142 76.0268 89.4813 75.7061 89.4142 75.858L89.3974 75.9424C89.3974 75.9424 89.5149 75.7398 89.431 75.858C89.431 75.8749 89.3974 75.9086 89.3807 75.9424C89.3303 76.0268 89.3471 75.9255 89.431 75.8749C89.431 75.8749 89.3807 75.9255 89.3639 75.9424C89.3471 75.9593 89.3136 75.9761 89.2968 76.0099C89.3303 75.9761 89.4478 75.8917 89.3303 75.9761C89.2968 75.9761 89.1122 76.0943 89.2465 76.0268C89.3807 75.9593 89.1794 76.0268 89.1458 76.0437C89.1122 76.0437 89.0787 76.0437 89.0619 76.0605C88.9613 76.0774 89.2465 76.0605 89.129 76.0605C89.0451 76.0605 88.9613 76.0605 88.8774 76.0605C88.6928 76.0605 89.0284 76.0943 88.8942 76.0605C88.8606 76.0605 88.8271 76.0606 88.7767 76.0437C88.7096 76.0437 88.6257 76.0099 88.5586 75.993C88.4915 75.9762 88.4076 75.9424 88.3405 75.9255L88.2399 75.8917C88.0889 75.8411 88.2399 75.9255 88.2902 75.9086C88.2567 75.9086 88.156 75.8411 88.1224 75.8242C88.0721 75.7905 88.0218 75.7736 87.9714 75.7398C87.9379 75.7398 87.9211 75.7061 87.9043 75.6892C87.7869 75.6217 87.9547 75.7229 87.9714 75.7398L87.8205 75.5879C87.8205 75.5879 87.9379 75.7736 87.8708 75.6554C87.8708 75.6554 87.8372 75.6048 87.8372 75.5879C87.9379 75.6892 87.8876 75.7567 87.8708 75.6723C87.8708 75.6554 87.8708 75.6048 87.854 75.5879C87.9211 75.7229 87.854 75.7736 87.8708 75.6723C87.8708 75.5204 87.8708 75.7567 87.8708 75.7567V75.6723C87.8708 75.6723 87.9211 75.6216 87.8708 75.6723C87.8372 75.7398 87.8372 75.7567 87.8708 75.6892C87.8708 75.6723 87.9211 75.6216 87.9211 75.6048C87.9211 75.6554 87.8037 75.7567 87.8876 75.6385C87.9379 75.5879 87.9882 75.5372 88.0386 75.4866C88.1392 75.3853 88.005 75.5204 87.9882 75.5204C88.0218 75.5035 88.0721 75.4697 88.1057 75.436C88.1728 75.3853 88.2399 75.3516 88.307 75.3009C88.3909 75.2503 88.4747 75.2165 88.5586 75.1659L88.6593 75.1152L88.7432 75.0815L88.6425 75.1152C88.7264 75.1152 88.827 75.0477 88.9109 75.0139C88.9948 74.9802 89.0955 74.9633 89.1794 74.9295C89.5988 74.8114 89.9007 74.3218 89.7665 73.8829C89.6323 73.444 89.1961 73.1739 88.7264 73.2921L88.6928 73.3258Z" fill="black"/>
<path d="M89.5988 72.1273L89.4478 74.1361C89.4142 74.5919 89.8672 74.9801 90.2866 74.9801C91.1758 74.997 91.5616 74.1361 91.7462 73.3933C91.8468 72.9713 91.8804 72.5324 91.7797 72.1104C91.6791 71.7221 91.4442 71.3845 91.159 71.1144C90.8906 70.8612 90.555 70.5911 90.2027 70.4729C89.6994 70.3041 89.1794 70.5236 88.911 70.9625C88.5083 71.5533 88.6929 72.4142 88.8103 73.0557C88.9613 73.8322 89.2465 74.575 89.6323 75.2671C89.8504 75.6554 90.4041 75.8073 90.7731 75.571C91.1422 75.3346 91.31 74.8282 91.0751 74.4231C90.9912 74.2711 90.9073 74.1192 90.8402 73.9673C90.8067 73.9166 90.7899 73.8491 90.7564 73.7985C90.8402 74.0179 90.7396 73.7478 90.7228 73.6972C90.6222 73.4102 90.5383 73.1232 90.4712 72.8363C90.4376 72.6843 90.4208 72.5493 90.3873 72.3974C90.3873 72.2961 90.3873 72.313 90.3873 72.4311V72.2961C90.3705 72.2117 90.3537 72.1273 90.3537 72.0429C90.3537 71.9922 90.3537 71.9247 90.3537 71.874C90.3537 71.8403 90.3537 71.8234 90.3537 71.7896C90.3537 71.7052 90.3537 71.739 90.3537 71.8909C90.3537 71.8572 90.3873 71.7896 90.3873 71.7728C90.3202 71.9078 90.3202 71.9416 90.3537 71.8572C90.2531 71.9753 90.2363 72.0091 90.2866 71.9416C90.1692 72.0597 90.035 72.1104 89.8504 72.1273C89.7833 72.1273 89.733 72.1273 89.6659 72.0935C89.5988 72.0597 89.5988 72.0597 89.6659 72.0935L89.7498 72.161C89.7498 72.161 89.884 72.2454 89.9343 72.2961C89.8001 72.1441 89.9008 72.2623 89.9343 72.2961C89.9846 72.3467 90.0518 72.3974 90.0853 72.448C90.1021 72.4818 90.1356 72.4986 90.1524 72.5324C90.0853 72.448 90.0685 72.4142 90.1021 72.4649C90.1021 72.4818 90.1356 72.5155 90.1524 72.5324C90.186 72.6168 90.186 72.5999 90.1524 72.4818C90.1524 72.5155 90.186 72.5662 90.186 72.5999C90.2027 72.7012 90.2027 72.6843 90.186 72.5662V72.7519C90.186 72.8531 90.186 72.8363 90.186 72.7181C90.186 72.7687 90.186 72.8025 90.1692 72.8531C90.1356 73.0051 90.1021 73.157 90.0517 73.292C90.035 73.3596 89.9343 73.5284 90.0517 73.3089C90.035 73.3427 90.0014 73.3933 89.9846 73.444C89.9343 73.5115 89.9511 73.4946 90.035 73.3933C90.0182 73.4102 90.0014 73.444 89.9679 73.4609C90.035 73.3933 90.1021 73.3427 90.2027 73.3258C90.3537 73.3258 90.3873 73.3089 90.3034 73.3089L91.1422 74.153L91.2932 72.1441C91.3268 71.7052 90.8906 71.2832 90.4544 71.3001C89.9679 71.317 89.6491 71.6715 89.6156 72.1441L89.5988 72.1273Z" fill="black"/>
<path d="M84.2807 72.4481C83.6599 72.2117 82.8882 72.5494 82.5862 73.1233C82.3346 73.6128 82.5527 74.2037 83.0895 74.3556C83.207 74.3894 83.3412 74.4231 83.4754 74.44C83.5928 74.44 83.6935 74.4738 83.8109 74.4907H83.8948C83.8948 74.4907 83.9284 74.4907 83.8109 74.4907C83.8109 74.5075 83.9451 74.5075 83.9787 74.5244C84.029 74.5244 84.0961 74.5413 84.1464 74.5582H84.2136C84.2136 74.5582 84.2639 74.5919 84.1464 74.5582C84.18 74.5919 84.2303 74.6088 84.2639 74.6257C84.3142 74.6595 84.3142 74.6595 84.2639 74.6257C84.1968 74.5751 84.1968 74.5751 84.2639 74.6257C84.2807 74.6426 84.2974 74.6595 84.331 74.6932L84.2471 74.5919C84.2471 74.5919 84.2807 74.6426 84.2974 74.6763C84.2471 74.5413 84.2303 74.5075 84.2471 74.5751C84.2471 74.6426 84.2471 74.5919 84.2471 74.44C84.2471 74.4738 84.2471 74.4907 84.2471 74.5244C84.2639 74.5244 84.2639 74.2712 84.2471 74.4569C84.2471 74.3556 84.2974 74.305 84.3645 74.2543C84.3645 74.2712 84.331 74.2881 84.3142 74.305L84.4317 74.2206C84.5826 74.1699 84.6162 74.153 84.5323 74.1699C84.7001 74.1699 84.7336 74.153 84.6497 74.153C84.3813 74.153 84.1464 74.2881 83.9955 74.4907C83.8277 74.7101 83.7941 74.9633 83.8445 75.2334C83.9955 75.9255 84.7168 76.3813 85.4047 76.3644C86.0925 76.3476 86.6461 75.9086 87.1159 75.436C87.5185 75.0308 87.3843 74.4062 86.9481 74.1024L86.2771 73.6466C86.059 73.4947 85.757 73.5116 85.5389 73.596C85.3208 73.6804 85.0859 73.8998 85.0524 74.1362L84.8846 75.3516C84.8511 75.5879 84.8511 75.7905 84.9685 76.0099C85.0692 76.1787 85.2705 76.3476 85.4718 76.3982C85.6899 76.4488 85.9247 76.432 86.1261 76.3138C86.2938 76.1956 86.4784 76.0268 86.5119 75.8074L86.6797 74.5919L85.455 75.0984L86.1261 75.5541L85.9583 74.2206C85.9583 74.2206 85.8073 74.3725 85.7402 74.44C85.7067 74.4738 85.6731 74.4907 85.6395 74.5244C85.5221 74.6257 85.6228 74.5244 85.6731 74.5075C85.6395 74.5075 85.5724 74.5751 85.5557 74.5919C85.5389 74.6088 85.455 74.6426 85.4215 74.6595C85.455 74.6257 85.606 74.5919 85.455 74.6426C85.4215 74.6426 85.2537 74.6763 85.4215 74.6595C85.5892 74.6426 85.455 74.6595 85.4215 74.6595C85.304 74.6595 85.3208 74.6088 85.4886 74.6595C85.455 74.6595 85.4047 74.6426 85.3711 74.6257C85.2369 74.5919 85.5221 74.7101 85.4382 74.6595C85.4215 74.6595 85.3879 74.6257 85.3544 74.6088C85.4718 74.6932 85.5053 74.727 85.455 74.6763L85.4215 74.6426C85.5053 74.7607 85.5389 74.7945 85.4886 74.7439C85.4886 74.7439 85.4718 74.7101 85.455 74.6932C85.455 74.6932 85.5389 74.9296 85.4886 74.7439L84.6833 75.8074C85.7234 75.8411 86.3106 74.5244 85.7234 73.7141C85.455 73.3428 85.0859 73.1064 84.6665 72.9714C84.4484 72.9038 84.2136 72.887 83.9955 72.8701C83.9619 72.8701 83.8445 72.8532 83.9619 72.8701C84.0961 72.887 83.9451 72.8701 83.9116 72.8701C83.8277 72.8701 83.727 72.8363 83.6432 72.8026L84.1464 74.0349L84.18 73.9673C84.18 73.9673 84.029 74.1193 84.1297 74.0518C84.1297 74.0518 83.9619 74.1699 84.0458 74.1024C84.1632 74.0349 83.878 74.153 83.9787 74.1193C83.9955 74.1193 84.029 74.1193 84.0626 74.1024C84.1464 74.0686 83.8612 74.1362 83.9619 74.1193C83.9955 74.1193 84.1129 74.1193 83.9619 74.1193C83.8109 74.1024 83.9284 74.1193 83.9619 74.1362C84.3813 74.2881 84.9014 73.9673 85.002 73.5453C85.1027 73.0727 84.8511 72.6675 84.4149 72.4987L84.2807 72.4481Z" fill="black"/>
<path d="M82.7372 72.0936C82.9721 72.7182 83.1231 73.3765 83.2237 74.0349L83.1902 73.8154C83.207 74.0011 83.2405 74.1868 83.2405 74.3725C83.2405 74.5919 83.3244 74.8114 83.4922 74.9633C83.6432 75.1152 83.878 75.2165 84.0793 75.2165C84.5155 75.1996 84.9517 74.8451 84.9182 74.3725C84.8511 73.444 84.6665 72.5325 84.3478 71.6547C84.2639 71.4521 84.1632 71.2664 83.9619 71.1482C83.7774 71.0469 83.5089 70.9963 83.3076 71.0638C82.905 71.1989 82.5527 71.6547 82.7205 72.1104L82.7372 72.0936Z" fill="black"/>
<path d="M65.2059 77.0565C71.5977 75.571 78.3753 76.6008 84.0625 79.8757L83.6767 78.9303C82.603 81.7157 83.3747 85.1594 81.2273 87.4889C79.449 89.4302 76.597 90.1224 74.047 90.0548C72.5707 90.0211 71.044 89.7341 69.7187 89.0251C68.2256 88.2317 67.2358 86.8981 66.4138 85.4463C65.642 84.079 65.0716 82.6104 64.7697 81.0742C64.6019 80.247 64.518 79.3861 64.5348 78.5421C64.5348 78.1538 64.5348 76.6852 64.8032 76.6176C65.8434 76.3307 65.4072 74.6932 64.3503 74.9971C63.1424 75.3347 62.9914 76.6176 62.9075 77.6811C62.7733 79.2004 62.941 80.7366 63.3101 82.2221C64.0147 84.9737 65.491 88.0291 67.7894 89.7847C71.7822 92.8571 78.9457 92.4182 82.4017 88.6875C84.8678 86.0372 84.0625 82.5091 85.2872 79.3692C85.4214 79.0316 85.2033 78.5927 84.9014 78.4239C78.8115 74.9127 71.5809 73.8492 64.7529 75.436C63.696 75.6723 64.1489 77.3098 65.2059 77.0565Z" fill="black"/>
<path d="M40.4606 18.2096V20.4379C40.4606 20.8768 40.8465 21.2989 41.2995 21.282C41.7524 21.2651 42.1383 20.9106 42.1383 20.4379V18.2096C42.1383 17.7707 41.7524 17.3487 41.2995 17.3656C40.8465 17.3825 40.4606 17.737 40.4606 18.2096Z" fill="black"/>
<path d="M41.484 18.7836L47.1712 18.3278L46.3324 17.4838C46.3827 18.0915 46.4666 18.7161 46.5002 19.3238C46.5002 19.3745 46.5002 19.4251 46.5002 19.4926C46.5002 19.5264 46.5002 19.577 46.5002 19.6108V19.5433L46.6008 19.3744L46.7518 19.29C46.7518 19.29 46.6176 19.3069 46.7015 19.29C46.3827 19.3238 46.0472 19.3238 45.7284 19.3407L41.8195 19.5264C41.3666 19.5433 40.9807 19.8978 40.9807 20.3704C40.9807 20.8093 41.3666 21.2313 41.8195 21.2145L46.4331 20.995C46.8189 20.9781 47.2048 20.9613 47.5403 20.7418C47.9429 20.4886 48.1275 20.0666 48.161 19.5939C48.1778 19.2563 48.1107 18.9187 48.0939 18.5979L47.9933 17.4669C47.9597 17.0449 47.641 16.5891 47.1544 16.6229L41.4672 17.0786C41.0143 17.1124 40.6284 17.4331 40.6284 17.9227C40.6284 18.3447 41.0143 18.8005 41.4672 18.7667L41.484 18.7836Z" fill="black"/>
<path d="M39.6386 23.7804C43.0106 23.6116 46.3827 23.4765 49.7548 23.3753L48.9159 22.5312L48.9495 23.7129C48.9495 24.0167 49.0502 24.4388 48.9663 24.7257L49.1844 24.3544L49.1005 24.4556L49.4696 24.2362C49.1005 24.3712 48.463 24.2868 48.0603 24.2868L46.4498 24.3206L43.4301 24.3881L40.4103 24.4556C40.1587 24.4556 39.8399 24.405 39.605 24.4556C39.454 24.4894 39.5212 24.405 39.5715 24.5232C39.454 24.3037 39.6554 23.8648 39.7392 23.6454C40.1083 22.6156 38.4978 22.1767 38.1287 23.1896C37.7261 24.3037 37.81 25.8399 39.2192 26.0931C39.9741 26.2281 40.8297 26.0931 41.6014 26.0931L44.0843 26.0424L49.0502 25.9412C49.7548 25.9412 50.4594 25.8399 50.6439 25.0296C50.7278 24.6413 50.6607 24.2024 50.6439 23.7973L50.6104 22.5143C50.6104 22.0754 50.2413 21.6534 49.7715 21.6703C46.3995 21.7716 43.0274 21.9066 39.6554 22.0754C38.5817 22.1261 38.5817 23.8142 39.6554 23.7635L39.6386 23.7804Z" fill="black"/>
<path d="M43.9334 26.532C43.2455 26.4139 42.608 26.5995 42.1047 27.0891C41.6853 27.5111 41.4169 28.1357 41.4169 28.7265C41.4337 30.0095 42.4738 30.9717 43.5978 31.36C44.7219 31.7482 46.1982 31.5625 47.0202 30.6172C47.8423 29.6719 47.9597 28.2708 47.1041 27.2917C46.3324 26.397 44.9903 26.2788 43.883 26.2788C43.4468 26.2788 43.0274 26.6671 43.0442 27.1229C43.061 27.5786 43.4133 27.9669 43.883 27.9669C44.0508 27.9669 44.2186 27.9669 44.3863 27.9669C44.4702 27.9669 44.5709 27.9669 44.6547 27.9838H44.7722C44.9567 28.0175 44.6044 27.9669 44.789 27.9838C44.9399 28.0175 45.1077 28.0344 45.2587 28.0851C45.3258 28.1019 45.4097 28.1357 45.4768 28.1526C45.6613 28.2032 45.3594 28.0851 45.4768 28.1526C45.5103 28.1695 45.5607 28.1863 45.611 28.2201C45.6446 28.237 45.6781 28.2539 45.7117 28.2708C45.7452 28.2876 45.8794 28.3383 45.762 28.3045C45.6613 28.2708 45.762 28.3045 45.7788 28.3214C45.8123 28.3552 45.8291 28.372 45.8627 28.4058C45.8794 28.4227 45.9633 28.4902 45.9465 28.5071C45.9465 28.5071 45.8291 28.3214 45.913 28.4733C45.9298 28.5071 45.9465 28.5408 45.9633 28.5746C46.0472 28.7097 45.9298 28.4227 45.9633 28.5915C45.9633 28.6253 45.9801 28.6759 45.9969 28.7097C46.0304 28.7941 46.0472 28.7434 45.9969 28.659C46.0304 28.7097 45.9969 28.8447 45.9969 28.9122C45.9969 29.081 45.9969 28.8785 45.9969 28.8785C45.9969 28.8785 45.9801 28.9798 45.9801 28.9966C45.9801 29.0473 45.9465 29.0979 45.9298 29.1486C45.8794 29.3174 45.9298 29.1486 45.9298 29.1486C45.9298 29.1486 45.7955 29.3849 45.7955 29.4018C45.7788 29.4355 45.6949 29.5199 45.762 29.4355C45.8291 29.3511 45.7452 29.4355 45.7284 29.4693C45.6949 29.5031 45.6446 29.5368 45.611 29.5875C45.5607 29.6381 45.5607 29.6888 45.6278 29.5875C45.5775 29.655 45.4097 29.7225 45.3258 29.7563C45.4768 29.6719 45.2587 29.7732 45.2084 29.79C45.1245 29.8238 45.0238 29.8238 44.9399 29.8576C45.1077 29.8238 45.0071 29.8576 44.9399 29.8576C44.8896 29.8576 44.8225 29.8576 44.7722 29.8576C44.6715 29.8576 44.5541 29.8576 44.4534 29.8576C44.2353 29.8576 44.5541 29.8913 44.4367 29.8576C44.3863 29.8576 44.336 29.8407 44.3024 29.8238C44.2018 29.8069 44.1011 29.7732 44.0005 29.7394C43.9669 29.7394 43.9166 29.7056 43.883 29.6888C43.9166 29.6888 44.034 29.7732 43.8998 29.6888C43.7992 29.6381 43.7153 29.5875 43.6146 29.5368C43.5643 29.5031 43.3797 29.3511 43.5307 29.4693C43.4636 29.4018 43.3965 29.3511 43.3462 29.3005C43.3126 29.2667 43.2959 29.233 43.2623 29.1992C43.1281 29.0473 43.3126 29.3005 43.2623 29.1992C43.212 29.1148 43.1616 29.0304 43.1113 28.9629C43.0107 28.7941 43.1449 29.081 43.1113 28.9629C43.1113 28.9122 43.0778 28.8616 43.061 28.8109C43.061 28.7772 43.0274 28.7265 43.0442 28.6928C43.0274 28.8953 43.0442 28.7265 43.0442 28.6759C43.0442 28.524 43.0442 28.6928 43.0442 28.7265C43.0442 28.7265 43.0778 28.5746 43.0945 28.5408C43.1281 28.372 43.0945 28.5746 43.0778 28.5746C43.0778 28.5746 43.1616 28.4227 43.1616 28.4058L43.2288 28.3045C43.1616 28.3889 43.1449 28.4058 43.1952 28.3552C43.212 28.3383 43.2288 28.3045 43.2623 28.2876L43.3462 28.2032L43.2623 28.2539C43.2623 28.2539 43.3294 28.2032 43.363 28.1864C43.4468 28.1188 43.363 28.1357 43.3126 28.1864C43.3462 28.1526 43.4133 28.1526 43.4468 28.1357C43.5307 28.0851 43.2455 28.1357 43.4301 28.1357C43.4804 28.1357 43.6649 28.1695 43.4301 28.1357C43.8663 28.2201 44.3528 28.0175 44.4702 27.5449C44.5709 27.1397 44.3528 26.5995 43.883 26.4983L43.9334 26.532Z" fill="black"/>
<path d="M51.1808 18.7668V21.9235C51.1808 22.3624 51.5666 22.7844 52.0196 22.7676C52.4726 22.7507 52.8584 22.3962 52.8584 21.9235V18.7668C52.8584 18.3279 52.4726 17.9059 52.0196 17.9227C51.5666 17.9396 51.1808 18.2941 51.1808 18.7668Z" fill="black"/>
<path d="M52.0028 19.1213C53.1604 19.0369 54.3347 19.02 55.4923 19.0875L54.6535 18.2435L54.687 20.438C54.687 21.0626 54.6199 21.8054 55.1736 22.2443C55.7272 22.6832 56.3311 22.3455 56.9686 22.3793C57.3209 22.3793 57.7403 22.4975 57.8913 22.8351C58.0088 23.0883 57.9752 23.274 57.69 23.3415C57.2203 23.4597 56.6499 23.274 56.1801 23.2909C55.3916 23.3246 54.8883 23.7298 54.7709 24.5232C54.6703 25.2153 54.5864 25.8905 54.4857 26.5827L55.291 25.9581L53.7643 25.8568C53.3449 25.823 52.7577 25.8905 52.3887 25.7386L52.7577 25.9581C52.8249 26.2282 52.8584 26.2957 52.8584 26.1606C52.8584 26.0931 52.8584 26.0256 52.8584 25.9412C52.8584 25.7724 52.8584 25.6204 52.8584 25.4516V22.6832C52.8584 21.6028 51.1975 21.6028 51.1975 22.6832V24.8102C51.1975 25.4179 51.0633 26.1606 51.2982 26.7346C51.6002 27.4942 52.4054 27.4605 53.11 27.5111L55.3078 27.6462C55.6265 27.663 56.0627 27.3761 56.113 27.0216L56.2976 25.7555L56.3815 25.1309C56.3815 25.0127 56.3815 24.7933 56.4486 24.7089L56.1466 25.0127C56.3143 24.8777 56.868 25.0127 57.0861 25.0296C57.4719 25.0634 57.8913 25.0634 58.2772 24.9452C59.1328 24.6751 59.6864 23.8817 59.6361 22.987C59.6025 22.143 59.0992 21.3665 58.3443 21.012C57.9417 20.8094 57.5055 20.7081 57.0525 20.6912C56.6331 20.6743 56.2137 20.8263 55.8278 20.7925L56.2472 20.9107C56.3815 20.9782 56.415 21.434 56.3982 21.0288C56.3982 20.9107 56.3982 20.8094 56.3982 20.6912V19.8472L56.3647 18.2435C56.3647 17.7708 55.9788 17.4163 55.5259 17.3994C54.3683 17.3488 53.1939 17.3657 52.0364 17.4332C51.5834 17.467 51.1975 17.8046 51.1975 18.2772C51.1975 18.7162 51.5834 19.1551 52.0364 19.1213H52.0028Z" fill="black"/>
<path d="M49.2515 30.9716C50.5265 30.8703 51.8015 30.7859 53.0765 30.7353C53.3617 30.7353 53.6637 30.7184 53.9489 30.7184C54.1838 30.7184 54.3851 30.7184 54.5361 30.8028C54.6199 30.8535 54.6199 30.8703 54.5528 30.8028L54.6032 30.8535C54.6032 30.8535 54.6703 30.9379 54.62 30.8703C54.6535 30.921 54.6703 30.9547 54.7038 31.0054C54.7542 31.0898 54.7542 31.1067 54.7206 31.0392C54.7374 31.0898 54.7542 31.1404 54.7709 31.208C54.8045 31.3092 54.8213 31.4105 54.838 31.5118C54.838 31.5625 54.838 31.5962 54.8548 31.6469C54.8548 31.5793 54.8548 31.5793 54.8548 31.6975C54.8548 31.8157 54.8716 31.9338 54.8716 32.052C54.8716 32.2546 54.8716 32.474 54.8716 32.6766C54.8716 32.7104 54.838 33.0311 54.8716 32.9129C54.8716 33.0311 54.8213 33.1493 54.7877 33.2674C54.7542 33.4194 54.8213 33.2505 54.7374 33.3856C54.7038 33.4362 54.6871 33.4869 54.6535 33.5206C54.7038 33.4531 54.6871 33.4531 54.62 33.5206C54.7542 33.47 54.4857 33.5544 54.5025 33.5544C54.318 33.605 54.5025 33.5544 54.318 33.5882C53.9824 33.6219 53.6469 33.6388 53.3114 33.6557L51.3989 33.7907C50.9459 33.8245 50.5601 34.1621 50.5601 34.6348C50.5601 35.0737 50.9459 35.5126 51.3989 35.4788L53.194 35.3438C53.7644 35.2931 54.3851 35.31 54.9555 35.175C56.0627 34.888 56.4821 33.8414 56.5492 32.8116C56.6163 31.9338 56.5492 30.921 56.1131 30.1445C55.8614 29.6718 55.442 29.3342 54.9555 29.1654C54.4186 28.9628 53.7979 29.0303 53.2275 29.0472C51.8854 29.081 50.5433 29.1654 49.2179 29.2835C48.765 29.3173 48.3791 29.638 48.3791 30.1276C48.3791 30.5496 48.765 31.0054 49.2179 30.9716H49.2515Z" fill="black"/>
<path d="M48.0436 30.1107C47.9262 30.9378 47.9933 31.765 48.1778 32.5753C48.2785 32.9973 48.7818 33.3012 49.2179 33.1661C49.6709 33.0142 49.9058 32.5922 49.8051 32.1195C49.7548 31.9169 49.7212 31.6975 49.6877 31.4949L49.7212 31.7144C49.6541 31.1742 49.6541 30.634 49.7212 30.0938C49.7548 29.8912 49.6038 29.638 49.4696 29.503C49.3186 29.351 49.0837 29.2498 48.8824 29.2498C48.6811 29.2498 48.4462 29.3342 48.2952 29.503L48.161 29.6718C48.0771 29.8068 48.0436 29.9419 48.0436 30.0938V30.1107Z" fill="black"/>
<path d="M52.5061 31.2417L48.6811 31.8494L46.7686 32.1533C46.1982 32.2377 45.5942 32.2883 45.1077 32.6428C44.6715 32.9636 44.487 33.47 44.3695 33.9933C44.2353 34.6179 44.1011 35.2594 43.9837 35.8839C43.732 37.1838 43.4972 38.5005 43.2959 39.8003C43.2287 40.2561 43.3965 40.695 43.883 40.8469C47.4564 41.8767 51.1975 40.7963 54.7709 41.7247C55.1736 41.826 55.7272 41.5897 55.8111 41.1339C55.9788 40.1886 56.1634 39.0913 55.9788 38.146C55.7943 37.2007 54.9555 36.9137 54.0999 36.9137C51.9357 36.9137 49.7883 36.9137 47.6242 36.9137L48.463 37.7577C48.4965 37.0319 48.614 36.3229 48.7817 35.597L47.9765 36.2216C49.6038 36.1203 51.2143 35.9177 52.8081 35.6139C53.865 35.4113 53.412 33.7907 52.3551 33.9933C50.9123 34.2634 49.4528 34.4491 47.9765 34.5335C47.6242 34.5504 47.2551 34.7867 47.1712 35.1581C46.9699 36.019 46.8525 36.8799 46.8021 37.7577C46.7686 38.2135 47.2048 38.6018 47.6409 38.6018H53.7811C53.9657 38.6018 54.4689 38.7199 54.3683 38.5342C54.4689 38.7368 54.3683 39.277 54.3683 39.5133C54.3515 39.9185 54.3012 40.3236 54.2173 40.7119L55.2574 40.1211C51.6841 39.1926 47.9094 40.273 44.3695 39.2432L44.9567 40.2899C45.1245 39.1588 45.3258 38.0278 45.5439 36.8968C45.6446 36.3397 45.762 35.7658 45.8794 35.2087C45.9465 34.9049 45.9633 34.1621 46.2317 33.9933C46.4163 33.892 46.735 33.892 46.9363 33.8582L47.7919 33.7232L49.4864 33.4531L52.9926 32.896C53.4456 32.8285 53.6972 32.2546 53.5798 31.8494C53.4456 31.3767 52.9926 31.1911 52.5397 31.2586L52.5061 31.2417Z" fill="black"/>
<path d="M63.7463 15.9814C63.5953 17.7539 63.243 19.4926 62.7397 21.1807C62.4881 22.0247 62.1861 22.8688 61.8338 23.6791C61.5318 24.3881 60.9111 25.2152 60.9614 26.0086C61.0118 26.9371 61.8338 27.2241 62.572 27.5279C63.3101 27.8318 64.4509 28.5914 65.1891 27.9499C65.5079 27.6798 65.5917 27.2578 65.7092 26.8864L66.095 25.5866L66.9506 22.7844L65.424 22.987C66.2628 24.3205 67.1687 25.6204 68.1082 26.8864C68.4941 27.3929 69.1819 27.4604 69.551 26.8864L71.8997 23.2739C72.0842 22.987 72.0507 22.4805 71.7655 22.2442L69.2658 20.2016C68.9135 19.9146 68.5444 19.6277 68.1921 19.3238C68.0411 19.2056 67.8062 19.0706 67.7559 18.8849C67.7056 18.733 67.823 18.4291 67.8566 18.2772C67.9908 17.5344 68.4102 16.4034 67.9908 15.7113C67.5714 15.0192 66.2628 14.9685 65.5414 14.7997C64.4845 14.5634 64.0483 16.184 65.0884 16.4203L66.4138 16.7241L66.7158 16.7917C66.5648 16.2346 66.4641 16.1502 66.4473 16.5385C66.3635 16.7241 66.3635 16.9942 66.3299 17.1799C66.1789 17.9902 65.8266 19.0031 66.2796 19.7796C66.699 20.5055 67.6049 21.0288 68.2424 21.5352L70.5576 23.4259L70.4233 22.3961L68.0746 26.0086H69.5174C68.5779 24.7426 67.672 23.4427 66.8332 22.1091C66.4473 21.4846 65.5079 21.6027 65.3065 22.3117L64.5851 24.6919L64.2496 25.7723L64.0483 26.4138L63.9812 26.6332C63.8973 26.8864 63.8973 26.9202 63.9812 26.7345L64.5684 26.4813C64.3503 26.4982 64.0315 26.2956 63.8302 26.2281L62.9914 25.8905L62.6223 25.7385C62.6223 25.9074 62.6223 25.9411 62.6559 25.8398C62.723 25.6204 62.8572 25.4178 62.9578 25.1984C63.4108 24.2361 63.8134 23.2402 64.149 22.2273C64.82 20.2016 65.2227 18.0915 65.4072 15.9645C65.5079 14.8841 63.8302 14.8841 63.7296 15.9645L63.7463 15.9814Z" fill="black"/>
<path d="M61.4312 31.1911L67.9236 31.0729C68.9973 31.0561 70.0878 31.0223 71.1615 31.0054C71.2957 31.0054 71.4299 31.0054 71.5641 31.0054C71.497 30.8535 71.4802 30.8197 71.497 30.9041C71.5641 31.0392 71.497 31.3093 71.497 31.4612C71.497 31.7144 71.4635 31.9676 71.4467 32.2209C71.4299 32.4234 71.3125 32.761 71.3628 32.9636C71.2789 33.2675 71.3964 33.1999 71.7487 32.7779H71.6145C71.4299 32.6429 70.9602 32.6766 70.7421 32.6598C70.2388 32.5922 69.7187 32.5585 69.2154 32.5078C68.3934 32.4403 67.0848 32.1196 66.5312 32.9467C66.2628 33.335 66.2963 33.8077 66.2963 34.2803V39.0914L67.1351 38.2473L65.2897 38.3486C64.971 38.3655 64.6355 38.3824 64.3167 38.3993C64.2832 38.3993 63.9309 38.3993 63.9141 38.4161C64.1322 38.6862 64.2328 38.72 64.1993 38.5343C64.1993 38.4668 64.1993 38.3993 64.1993 38.3486C64.2328 37.0319 64.3503 35.7152 64.3503 34.3816C64.3503 33.3012 63.696 32.6598 62.6391 32.6598C62.3706 32.6598 61.8338 32.8117 61.6157 32.5922C61.297 32.2715 61.6325 31.5287 61.7499 31.1911C62.0854 30.1614 60.4749 29.7056 60.1394 30.7353C59.7535 31.9339 59.6361 33.5207 60.9782 34.179C61.4647 34.4154 61.9848 34.3647 62.5049 34.3478C62.9578 34.3478 62.6558 34.3985 62.6726 34.2128C62.6223 34.6011 62.6391 35.0062 62.6223 35.4113L62.5384 37.6734C62.5049 38.3486 62.3874 39.1083 62.8572 39.6653C63.3269 40.2224 64.0818 40.1042 64.7193 40.0705L67.1016 39.9354C67.5546 39.9017 67.9404 39.564 67.9404 39.0914V35.4282C67.9404 35.3269 68.0075 33.8414 67.9404 33.8245C67.5546 34.0778 67.5378 34.179 67.8733 34.1284C68.0243 34.1284 68.1585 34.1284 68.3095 34.1453C68.5947 34.1453 68.8967 34.179 69.1819 34.1959C69.769 34.2466 70.3394 34.2972 70.9266 34.3647C71.346 34.4154 71.7822 34.5335 72.1849 34.3647C73.1747 33.9933 73.0908 32.4403 73.1243 31.5625C73.1747 30.6003 72.9733 29.6043 71.8997 29.3511C71.4131 29.2498 70.8763 29.3173 70.3898 29.3173L68.5444 29.3511L61.3641 29.4861C60.2904 29.503 60.2904 31.1911 61.3641 31.1742L61.4312 31.1911Z" fill="black"/>
<path d="M78.8954 19.4926C77.0332 20.1003 76.1273 22.3455 76.899 24.118C77.3688 25.1984 78.4928 25.8905 79.6504 25.5866C80.8918 25.2659 81.5461 24.1011 81.6803 22.8857C81.8145 21.6703 81.4622 20.2354 80.3382 19.6783C79.9523 19.4926 79.4155 19.5602 79.1974 19.9822C78.9961 20.3536 79.08 20.9275 79.4994 21.1301C79.5497 21.147 79.6839 21.1976 79.7007 21.2482C79.6504 21.1638 79.6168 21.1638 79.6671 21.2314C79.7007 21.2651 79.7342 21.2989 79.7678 21.3326C79.8517 21.4171 79.6839 21.1976 79.751 21.2989C79.7678 21.3326 79.8014 21.3664 79.8181 21.4002C79.8349 21.4339 79.8517 21.4677 79.8685 21.5015C79.9523 21.6703 79.8685 21.5015 79.8685 21.5015C79.8685 21.5015 80.0027 21.9741 80.0027 22.0079C80.0362 22.2273 80.0027 21.8728 80.0027 22.0923C80.0027 22.1936 80.0027 22.3117 80.0027 22.413C80.0027 22.5143 80.0027 22.6156 80.0027 22.7C80.0027 22.7 79.9691 22.9363 80.0027 22.8013C80.0027 22.6831 80.0027 22.835 80.0027 22.8688C79.9859 22.9701 79.9691 23.0545 79.9356 23.1558C79.9356 23.2064 79.902 23.2402 79.8852 23.2908C79.8685 23.3752 79.9523 23.1895 79.8852 23.3246C79.8349 23.409 79.7846 23.4934 79.7342 23.5778C79.6168 23.7635 79.8181 23.5103 79.7342 23.5778C79.7007 23.6116 79.6839 23.6453 79.6504 23.6791C79.6168 23.7129 79.5833 23.7297 79.5497 23.7635C79.4658 23.8479 79.6671 23.696 79.5665 23.7635C79.4994 23.7973 79.3987 23.9154 79.3148 23.9154C79.4155 23.9154 79.4155 23.8817 79.3484 23.9154C79.2981 23.9154 79.2477 23.9492 79.1974 23.9661C79.1638 23.9661 79.0296 23.9829 79.1638 23.9661C79.2981 23.9492 79.1639 23.9661 79.1135 23.9661C79.08 23.9661 79.0296 23.9661 78.9961 23.9661C78.8787 23.9661 79.1471 24.0167 79.0296 23.9661C78.9961 23.9661 78.9458 23.9323 78.9122 23.9323C78.8451 23.9323 79.0129 23.9998 78.8954 23.9323C78.8954 23.9323 78.6941 23.8141 78.8115 23.8817C78.8954 23.9323 78.778 23.8479 78.7612 23.831C78.6941 23.7635 78.627 23.696 78.5599 23.6285C78.476 23.544 78.627 23.7466 78.5767 23.6453C78.5767 23.6116 78.5431 23.5778 78.5263 23.5609C78.4928 23.4934 78.4425 23.4259 78.4089 23.3584C78.325 23.2064 78.4592 23.5103 78.4089 23.3921C78.4089 23.3584 78.3921 23.3246 78.3754 23.2908C78.3586 23.2233 78.3418 23.1558 78.325 23.0883C78.325 23.0545 78.325 23.0207 78.3083 22.987C78.2747 22.8857 78.3083 23.1727 78.3083 23.0545C78.3083 22.9701 78.3083 22.8857 78.3083 22.7844C78.3083 22.7169 78.3083 22.6494 78.3083 22.565C78.3083 22.3624 78.2747 22.7338 78.3083 22.5312C78.3418 22.3793 78.3754 22.2273 78.4257 22.0754C78.4257 22.0416 78.4592 22.0079 78.4592 21.9741C78.4928 21.8728 78.3754 22.1429 78.4592 22.0079C78.4928 21.9235 78.5431 21.856 78.5767 21.7716C78.5935 21.7378 78.7277 21.569 78.7277 21.5521C78.7277 21.5521 78.5935 21.704 78.6941 21.6027C78.7277 21.569 78.7444 21.5352 78.778 21.5015C78.8283 21.4508 78.8954 21.3833 78.9458 21.3326C78.9458 21.3326 79.0296 21.282 79.0296 21.2651C78.929 21.3326 78.9122 21.3495 78.9625 21.3158L79.0296 21.2651C79.0296 21.2651 79.1806 21.1807 79.2645 21.1301C79.3652 21.0794 79.2645 21.1807 79.2142 21.147C79.231 21.147 79.3484 21.0963 79.3652 21.0963C79.7846 20.9613 80.0866 20.5055 79.9523 20.0497C79.8181 19.6277 79.3652 19.3069 78.9122 19.4589L78.8954 19.4926Z" fill="black"/>
<path d="M84.9014 16.5385C84.784 19.2732 84.5323 21.9911 84.1297 24.692C84.0626 25.1478 84.2471 25.6036 84.7168 25.7386C85.1195 25.8568 85.6731 25.6036 85.757 25.1478C86.1932 22.2949 86.4784 19.4252 86.5958 16.5554C86.6461 15.475 84.9685 15.475 84.9182 16.5554L84.9014 16.5385Z" fill="black"/>
<path d="M85.8073 17.4669L87.3172 17.6188C87.3172 17.6188 87.703 17.6695 87.7198 17.6526C87.6359 17.7539 87.5688 17.1293 87.5688 17.7876C87.5688 18.6823 87.5353 19.577 87.4682 20.4886C87.4011 21.4002 87.3172 22.278 87.2165 23.1727C87.1662 23.5947 87.0991 23.9998 87.032 24.4218C86.9984 24.6751 86.9481 24.9114 86.9145 25.1477C86.8978 25.2659 86.8642 25.3841 86.8474 25.5191C86.7971 25.6541 86.7971 25.6879 86.8474 25.6035L87.2165 25.3841C86.9313 25.5022 86.428 25.3503 86.1093 25.3334L84.8678 25.2152C84.4148 25.1646 84.029 25.6373 84.029 26.0593C84.029 26.5488 84.4148 26.8527 84.8678 26.9033C85.5724 26.9709 86.277 27.0721 86.9816 27.1228C87.7534 27.1734 88.2902 26.7345 88.458 25.9918C88.7767 24.5738 88.9109 23.0714 89.0451 21.6196C89.1794 20.1679 89.3471 18.7499 89.2297 17.3656C89.1626 16.6735 88.7264 16.1502 88.0386 16.032C87.3004 15.897 86.5287 15.8801 85.7905 15.8126C85.3376 15.7619 84.9517 16.2346 84.9517 16.6566C84.9517 17.1462 85.3376 17.45 85.7905 17.5007L85.8073 17.4669Z" fill="black"/>
<path d="M74.5168 37.3021C75.9595 34.6517 77.4191 32.0183 78.8954 29.3849L77.5701 29.5537C78.5096 30.3471 79.5832 30.8873 80.7911 31.1236C81.2441 31.208 81.6971 31.0055 81.8313 30.5328C81.9487 30.1277 81.6971 29.5875 81.2441 29.4862C80.3382 29.3174 79.4826 28.946 78.778 28.3552C78.3753 28.0176 77.7378 28.0176 77.4526 28.524C75.9931 31.1574 74.5335 33.8077 73.074 36.4411C72.5539 37.3865 73.9967 38.2474 74.5168 37.2852V37.3021Z" fill="black"/>
<path d="M80.1872 30.1107L79.1974 31.7819C78.8619 32.3559 78.2747 33.048 78.4592 33.757C78.627 34.3478 79.2645 34.8205 79.6839 35.2256L81.1267 36.6605L80.9925 35.6308L79.3316 37.8759L80.6569 37.7071L78.2411 34.8374C77.9056 34.4491 77.1507 34.5335 76.9158 35.0062L76.379 36.1541C76.2112 36.5086 75.9595 36.8968 75.8589 37.2682C75.8589 37.2682 75.7918 37.3695 75.8086 37.3695L76.228 37.302L76.1273 37.2345C76.0099 37.0994 75.8086 36.9981 75.6743 36.8968L74.6007 36.1034C74.2316 35.8333 73.6612 36.0359 73.4599 36.4073C73.2082 36.8293 73.3928 37.2851 73.7618 37.5552C74.2148 37.8928 74.6845 38.2304 75.1375 38.5681C75.624 38.9226 76.2112 39.0914 76.7648 38.7537C77.2178 38.4668 77.4191 37.9266 77.6372 37.4708L78.4089 35.8502L77.0836 36.019L79.4994 38.8888C79.8852 39.3446 80.5227 39.1082 80.8247 38.72L82.4856 36.4748C82.7037 36.1878 82.603 35.6983 82.3514 35.4451L81.177 34.2803L80.6402 33.757L80.3214 33.4363C80.3214 33.4363 80.1536 33.2168 80.0698 33.183C80.0027 33.0986 80.0027 33.1493 80.0698 33.335C80.0865 33.5544 80.1369 33.5713 80.204 33.3856C80.2879 33.3181 80.3382 33.1493 80.3885 33.0649L80.8079 32.3559L81.6468 30.9379C82.2004 30.0094 80.7576 29.1485 80.204 30.0938L80.1872 30.1107Z" fill="black"/>
<path d="M84.3813 34.4154L85.1363 31.2418C85.153 31.1405 85.3711 30.5834 85.3208 30.499C85.4382 30.6509 84.6497 30.7522 85.1363 30.8366C85.2537 30.8535 85.3711 30.8704 85.4886 30.8873L87.0991 31.1405L86.5958 30.7522C86.5287 30.6003 86.579 30.6509 86.5623 30.8029C86.5623 30.9042 86.5623 30.921 86.5623 30.8366C86.5623 30.8873 86.5455 30.9548 86.5287 31.0054C86.4784 31.2418 86.3945 31.4612 86.3442 31.6976C86.21 32.2715 86.2267 32.8961 86.6461 33.3519C87.1662 33.909 87.9211 33.8921 88.6258 33.9258L90.857 34.0609L90.0182 33.2168C90.0182 33.8414 90.0182 34.6011 89.8001 35.1919L90.0182 34.8205C90.2866 34.753 90.3369 34.7192 90.1356 34.7192H89.9175L89.4981 34.6517L88.5922 34.5504L86.7803 34.331C86.3274 34.2803 85.9415 34.753 85.9415 35.175C85.9415 35.6815 86.3274 35.9684 86.7803 36.0191L88.5922 36.2385C89.1458 36.306 89.733 36.4242 90.2866 36.4242C91.0416 36.4242 91.4106 35.8334 91.5281 35.1581C91.6287 34.5167 91.6958 33.8752 91.6958 33.2337C91.6958 32.7611 91.31 32.4234 90.857 32.3897L88.76 32.2715C88.5083 32.2715 88.1896 32.1871 87.9379 32.2209C87.485 32.2884 87.8708 32.1702 87.8373 32.2209C87.9044 32.1365 87.8876 32.6091 87.9211 32.3559C87.9211 32.204 87.8876 32.4234 87.9211 32.2209C87.9379 32.1196 87.9715 32.0183 87.9883 31.9339C88.0386 31.7313 88.1057 31.5288 88.1392 31.3262C88.2567 30.7353 88.2399 29.8744 87.6024 29.6043C87.2836 29.4693 86.8642 29.4693 86.5287 29.4186L85.5557 29.2667C85.2201 29.2161 84.8511 29.1148 84.5155 29.2161C84.1297 29.3342 83.8613 29.6212 83.7103 30.0095C83.4922 30.6172 83.3915 31.2755 83.2405 31.9001L82.7372 34.0271C82.4856 35.0906 84.0961 35.5295 84.3478 34.4829L84.3813 34.4154Z" fill="black"/>
<path d="M85.6899 35.3101L85.5556 37.032C85.5389 37.3189 85.5053 37.589 85.4885 37.876V37.9942C85.4885 37.9942 85.4885 38.0448 85.4885 37.9266V37.9942C85.4885 37.9942 85.455 38.0786 85.4885 38.011C85.5221 37.9098 85.5724 37.8422 85.6899 37.7916L85.6395 37.8254C85.8408 37.7241 85.6899 37.8085 85.6395 37.8254C85.5221 37.8591 85.4047 37.876 85.2872 37.8929C85.2033 37.8929 85.1362 37.9098 85.0523 37.9266H84.9685C84.9685 37.9266 85.0524 37.9266 85.002 37.9266C84.7336 37.9604 84.4484 37.9773 84.18 37.9942C83.6096 38.0279 83.0224 38.011 82.452 37.9773L83.2573 39.0408L83.8612 34.9894C83.8948 34.753 83.8948 34.5505 83.7773 34.331C83.6767 34.1622 83.4754 33.9934 83.274 33.9427C82.8714 33.8583 82.3178 34.0609 82.2339 34.5336L81.63 38.585C81.5461 39.1589 81.8481 39.5978 82.4352 39.6485C83.0727 39.6991 83.7102 39.6991 84.3477 39.6485C84.7168 39.6147 85.1027 39.581 85.4718 39.5134C85.7905 39.4628 86.1093 39.429 86.4112 39.2771C87.183 38.9057 87.1494 38.0279 87.1997 37.302L87.3675 35.2932C87.4011 34.8543 86.9649 34.4323 86.5287 34.4492C86.0422 34.4661 85.7234 34.8206 85.6899 35.2932V35.3101Z" fill="black"/>
<path d="M93.5412 23.0882C95.1853 23.544 96.863 23.8141 98.5574 23.9154C98.9936 23.9491 99.413 23.5102 99.3962 23.0713C99.3794 22.5987 99.0271 22.2611 98.5574 22.2273C98.1547 22.2104 97.7689 22.1767 97.3663 22.126C96.9636 22.0754 96.7455 22.0585 96.3093 21.9741C95.5208 21.839 94.7491 21.6702 93.9774 21.4508C93.558 21.3326 93.0379 21.6027 92.9373 22.0416C92.8366 22.4805 93.0715 22.9532 93.5244 23.0882H93.5412Z" fill="black"/>
<path d="M98.44 23.2402C98.5406 24.1011 98.4903 24.9451 98.289 25.7892L99.0942 25.1646C97.7354 25.2321 96.41 25.0802 95.1015 24.7426C94.7659 24.6582 94.313 24.7932 94.162 25.1308C93.86 25.7554 93.6755 26.3969 93.6251 27.089C93.5748 27.6798 93.5916 28.4395 94.0278 28.8784C94.4975 29.3679 95.2692 29.351 95.8899 29.4186L98.0038 29.7055L97.2824 28.4395C97.0307 28.8615 96.9972 29.3342 96.9636 29.8237C96.9636 29.9419 96.9636 30.06 96.9469 30.1782C96.9636 30.0263 96.9133 30.2795 96.9133 30.2795C96.8127 30.1782 97.3159 30.1445 96.7791 30.1107C95.4705 30.06 94.1452 29.9925 92.8366 29.925C91.7629 29.8744 91.7629 31.5624 92.8366 31.6131L95.0679 31.7144L96.259 31.765C96.6449 31.7819 97.0307 31.8325 97.4166 31.765C98.0373 31.63 98.4567 31.1404 98.5742 30.5327C98.6245 30.2626 98.6245 29.9925 98.6413 29.7224C98.6413 29.6887 98.6748 29.3679 98.6413 29.4861C98.6413 29.4355 98.6581 29.3679 98.6916 29.3173C98.6581 29.3848 98.6748 29.3679 98.7084 29.2835C99.0607 28.6758 98.591 28.1019 97.987 28.0175L96.561 27.8318L95.8899 27.7474C95.6886 27.7136 95.4538 27.6461 95.2524 27.663H95.135L95.3363 27.8824C95.3363 27.8824 95.3028 27.7136 95.3028 27.6967C95.286 27.4942 95.3028 27.2916 95.3028 27.089C95.3363 26.7007 95.437 26.3125 95.6048 25.9749L94.6653 26.3631C96.108 26.7514 97.6179 26.9202 99.111 26.8527C99.4633 26.8527 99.8324 26.5995 99.9163 26.2281C100.151 25.249 100.235 24.2361 100.118 23.2402C100.067 22.7844 99.7653 22.3961 99.2788 22.3961C98.8594 22.3961 98.3896 22.7844 98.44 23.2402Z" fill="black"/>
<path d="M93.2057 30.6846C92.9205 27.8487 92.9205 24.9789 93.2057 22.126C93.256 21.6702 92.7863 21.282 92.3669 21.282C91.8804 21.282 91.5784 21.6702 91.5281 22.126C91.2596 24.9789 91.2596 27.8318 91.5281 30.6846C91.5784 31.1404 91.8804 31.5287 92.3669 31.5287C92.7863 31.5287 93.256 31.1404 93.2057 30.6846Z" fill="black"/>
<path d="M102.768 18.7161C102.399 21.1976 102.114 23.6791 101.913 26.1775C101.879 26.6333 102.332 27.0215 102.751 27.0215C103.238 27.0215 103.557 26.6333 103.59 26.1775C103.775 23.831 104.043 21.4846 104.396 19.155C104.463 18.6992 104.278 18.2435 103.808 18.1084C103.406 18.0071 102.852 18.2435 102.768 18.6992V18.7161Z" fill="black"/>
<path d="M104.194 19.9147C104.765 20.1004 105.402 20.3874 106.006 20.4886C106.241 20.6406 106.308 20.6406 106.241 20.4886C106.191 20.3198 106.174 20.3874 106.174 20.6912C106.107 20.9782 106.09 21.2821 106.056 21.5859L105.503 25.5698C105.369 26.5151 105.083 27.6124 105.956 28.2876C106.342 28.5915 106.862 28.6759 107.315 28.8109L109.244 29.3511L108.741 28.1188C108.556 28.4902 108.489 28.8278 108.405 29.2498C108.405 29.3342 108.372 29.4186 108.372 29.5031C108.288 29.7056 108.338 29.7225 108.506 29.5368C108.271 29.4355 108.036 29.3511 107.801 29.2836C106.962 29.0135 105.603 28.5746 104.832 29.1992C104.06 29.8238 104.077 31.2755 103.909 32.1534L103.741 33.0143C103.708 33.2169 103.691 33.7233 103.574 33.8752C103.909 33.4701 103.523 33.5714 103.221 33.5207L102.164 33.3013C101.107 33.0818 100.654 34.7024 101.711 34.9218C102.668 35.1244 104.412 35.884 105.033 34.7361C105.352 34.1284 105.385 33.2675 105.52 32.5923L105.754 31.4444C105.788 31.2755 106.023 30.6341 105.956 30.4821C106.023 30.3133 105.956 30.3471 105.754 30.5665C105.939 30.5665 106.124 30.6003 106.308 30.6341C106.66 30.7016 107.013 30.786 107.365 30.9042C107.902 31.073 108.422 31.36 108.992 31.1911C110.116 30.8366 109.781 29.79 110.2 28.9797C110.452 28.4902 110.234 27.8994 109.697 27.7474L107.768 27.2072C107.6 27.1566 107.13 27.1228 107.029 26.9878C106.962 26.9034 107.046 26.532 107.063 26.4814C107.214 25.1984 107.415 23.9155 107.6 22.6325C107.734 21.7041 108.237 20.2692 107.566 19.4589C107.281 19.1213 106.862 19.0031 106.459 18.8681C105.855 18.6655 105.251 18.4798 104.647 18.2941C103.624 17.9565 103.171 19.594 104.194 19.9147Z" fill="black"/>
<path d="M102.735 34.196C102.953 31.4781 103.238 28.7603 103.59 26.0425C103.657 25.5867 103.49 25.1309 103.003 24.9959C102.617 24.8946 102.03 25.1309 101.963 25.5867C101.577 28.4396 101.275 31.3093 101.04 34.1791C101.007 34.6349 101.46 35.0231 101.879 35.0231C102.366 35.0231 102.684 34.6349 102.718 34.1791L102.735 34.196Z" fill="black"/>
<path d="M23.8017 57.3397C23.7346 58.1668 23.852 59.0109 24.1036 59.7874C24.1707 59.99 24.305 60.1757 24.4895 60.2938C24.674 60.3951 24.9425 60.4458 25.1438 60.3783C25.5632 60.2432 25.8819 59.7874 25.731 59.3316C25.6135 58.994 25.5296 58.6395 25.4793 58.2681L25.5129 58.4876C25.4625 58.0993 25.4458 57.7111 25.4793 57.3228C25.4793 57.1202 25.3786 56.867 25.2277 56.732C25.0767 56.5969 24.8418 56.4788 24.6405 56.4788C24.4392 56.4788 24.2043 56.5632 24.0533 56.732C23.9023 56.9008 23.8184 57.1034 23.8017 57.3228V57.3397Z" fill="black"/>
<path d="M23.701 64.2439L25.6471 63.1467C25.8316 63.0454 25.9826 62.8428 26.0329 62.6403C26.0833 62.4377 26.0665 62.1676 25.9491 61.9819C25.6974 61.5936 25.2109 61.4417 24.8083 61.678L22.8622 62.7753C22.6777 62.8766 22.5267 63.0792 22.4763 63.2817C22.426 63.4843 22.4428 63.7544 22.5602 63.9401C22.8119 64.3283 23.2984 64.4803 23.701 64.2439Z" fill="black"/>
<path d="M27.9119 61.7624L29.5727 61.2053C29.7741 61.1378 29.9586 61.0196 30.076 60.817C30.1767 60.6314 30.227 60.3613 30.1599 60.1587C30.0928 59.9561 29.9754 59.7535 29.7741 59.6523C29.5727 59.551 29.3379 59.5003 29.1198 59.5679L27.4589 60.1249C27.2576 60.1925 27.0731 60.3106 26.9556 60.5132C26.855 60.6989 26.8046 60.969 26.8717 61.1715C26.9388 61.3741 27.0563 61.5767 27.2576 61.678C27.4589 61.7793 27.6938 61.8299 27.9119 61.7624Z" fill="black"/>
<path d="M27.9454 65.1048L28.5158 66.776C28.5829 66.9786 28.7004 67.1643 28.9017 67.2825C29.0862 67.3838 29.3547 67.4344 29.556 67.3669C29.7573 67.2993 29.9586 67.1812 30.0593 66.9786C30.1599 66.776 30.2103 66.5397 30.1432 66.3203L29.5728 64.649C29.5056 64.4465 29.3882 64.2608 29.1869 64.1426C29.0024 64.0413 28.7339 63.9907 28.5326 64.0582C28.3313 64.1257 28.13 64.2439 28.0293 64.4465C27.9287 64.649 27.8783 64.8854 27.9454 65.1048Z" fill="black"/>
<path d="M126.943 76.9215C125.752 77.2591 124.661 77.8837 123.772 78.7446C123.454 79.0485 123.437 79.6393 123.772 79.9432C124.108 80.247 124.611 80.2639 124.963 79.9432C125.114 79.8081 125.249 79.6731 125.416 79.5549C125.467 79.5211 125.433 79.538 125.333 79.6055L125.4 79.5549C125.4 79.5549 125.484 79.5043 125.517 79.4705C125.601 79.4198 125.668 79.3692 125.752 79.3186C126.087 79.0991 126.44 78.9134 126.792 78.7615L126.591 78.8459C126.859 78.7277 127.128 78.6433 127.396 78.5589C127.815 78.4408 128.117 77.9512 127.983 77.5123C127.849 77.0734 127.396 76.8033 126.943 76.9215Z" fill="black"/>
<path d="M121.323 75.7398V77.411C121.323 77.6305 121.424 77.8499 121.575 78.0018C121.726 78.1538 121.961 78.2551 122.162 78.2551C122.363 78.2551 122.598 78.1706 122.749 78.0018C122.9 77.833 123.001 77.6305 123.001 77.411V75.7398C123.001 75.5203 122.9 75.3009 122.749 75.149C122.598 74.997 122.363 74.8958 122.162 74.8958C121.961 74.8958 121.726 74.9802 121.575 75.149C121.424 75.3178 121.323 75.5203 121.323 75.7398Z" fill="black"/>
<path d="M118.84 80.7534H121.34C121.776 80.7534 122.195 80.3651 122.179 79.9094C122.162 79.4536 121.809 79.0653 121.34 79.0653H118.84C118.404 79.0653 117.984 79.4536 118.001 79.9094C118.018 80.3651 118.37 80.7534 118.84 80.7534Z" fill="black"/>
<path d="M122.481 82.6441L123.286 84.8893C123.37 85.0919 123.47 85.2776 123.672 85.3957C123.856 85.497 124.125 85.5476 124.326 85.4801C124.527 85.4126 124.729 85.2944 124.829 85.0919C124.93 84.8893 124.997 84.653 124.913 84.4335L124.108 82.1883C124.024 81.9858 123.923 81.8001 123.722 81.6819C123.537 81.5806 123.269 81.53 123.068 81.5975C122.866 81.665 122.665 81.7832 122.564 81.9858C122.464 82.1883 122.397 82.4247 122.481 82.6441Z" fill="black"/>
<path d="M111.291 103.998C110.938 103.34 110.452 102.53 110.553 101.753C110.603 101.298 111.056 100.589 111.576 100.892C111.945 101.112 112.113 101.736 112.247 102.108C112.448 102.699 112.65 103.289 112.968 103.813C113.186 104.167 113.74 104.387 114.109 104.117C114.763 103.644 115.451 103.306 116.256 103.154C116.894 103.036 117.817 102.969 118.387 103.34C119.075 103.779 117.951 104.437 117.548 104.657C116.81 105.045 115.971 105.197 115.149 105.045C114.445 104.927 113.824 105.602 114.21 106.277C114.596 106.953 114.378 107.965 113.639 108.32C112.901 108.674 112.029 108.168 111.71 107.459C111.475 106.953 110.754 106.936 110.385 107.29C109.462 108.185 107.449 108.928 106.325 107.949C105.721 107.442 106.862 106.919 107.248 106.784C108.137 106.446 109.043 106.328 109.999 106.396C111.073 106.463 111.073 104.775 109.999 104.707C108.59 104.623 106.996 104.876 105.788 105.636C104.748 106.294 104.026 107.543 104.765 108.725C105.419 109.755 106.845 110.092 108.003 110.059C109.361 110.008 110.62 109.451 111.593 108.506L110.267 108.337C110.972 109.873 113.002 110.616 114.495 109.805C115.988 108.995 116.508 106.936 115.669 105.45L114.73 106.683C116.072 106.902 117.431 106.716 118.605 106.007C119.662 105.366 120.82 104.134 120.149 102.817C119.595 101.736 118.253 101.433 117.162 101.416C115.77 101.399 114.394 101.855 113.27 102.682L114.411 102.986C113.555 101.534 113.354 98.8329 111.039 99.1705C109.999 99.3224 109.177 100.251 108.959 101.264C108.674 102.547 109.278 103.779 109.865 104.876C110.385 105.838 111.828 104.978 111.307 104.032L111.291 103.998Z" fill="black"/>
<path d="M102.5 45.658C102.164 45.2867 101.997 44.7296 102.148 44.24C102.215 44.0037 102.231 43.97 102.466 43.97C102.919 43.97 103.372 44.0037 103.825 44.0206L109.21 44.2569L108.992 42.6026C107.818 42.8727 106.627 43.2103 105.754 44.105C105.369 44.4933 105.067 44.9659 104.58 45.236C104.177 45.4724 103.674 45.5399 103.221 45.4555C102.768 45.3711 102.315 45.5905 102.181 46.0463C102.064 46.4683 102.315 46.9916 102.768 47.0929C104.127 47.363 105.469 46.941 106.409 45.8944C106.811 45.4386 107.164 45.0166 107.717 44.7465C108.271 44.4764 108.858 44.3582 109.429 44.2232C110.385 44.0037 110.116 42.6026 109.21 42.5688C106.962 42.4676 104.714 42.2819 102.466 42.2819C101.275 42.2819 100.587 43.109 100.453 44.24C100.336 45.2023 100.671 46.1476 101.326 46.8397C102.064 47.6331 103.238 46.4346 102.517 45.6412L102.5 45.658Z" fill="black"/>
</g>
<defs>
<clipPath id="clip0_54_12438">
<rect width="107" height="109" fill="white" transform="translate(21 3)"/>
</clipPath>
</defs>
</svg>
