<svg width="86" height="86" viewBox="0 0 86 86" fill="none" xmlns="http://www.w3.org/2000/svg">
<g clip-path="url(#clip0_697_2861)">
<path d="M2.66667 2.66664C0.133333 5.19998 0 7.06664 0 42.6666C0 78.2666 0.133333 80.1333 2.66667 82.6666C5.2 85.2 7.06667 85.3333 42.6667 85.3333C78.2667 85.3333 80.1333 85.2 82.6667 82.6666C85.2 80.1333 85.3333 78.2666 85.3333 42.6666C85.3333 7.06664 85.2 5.19998 82.6667 2.66664C80.1333 0.133309 78.2667 -2.47955e-05 42.6667 -2.47955e-05C7.06667 -2.47955e-05 5.2 0.133309 2.66667 2.66664ZM78.6667 42.6666V78.6666H42.6667H6.66667V42.6666V6.66664H42.6667H78.6667V42.6666Z" fill="black"/>
<path d="M26.2667 14.4C23.6 17.3333 23.3334 21.4667 25.6 23.7333C26.5334 24.6667 30.9334 25.3333 35.8667 25.3333H44.6667L37.6 31.4667C28.1334 39.7333 28.2667 46.6667 38 46.6667C43.8667 46.6667 48.2667 50.1333 47.7334 54.4C47.2 59.6 41.7334 61.2 34.9334 58.1333C28.9334 55.4667 24.8 56.6667 23.3334 61.4667C21.0667 68.4 33.4667 75.6 44.6667 74C56.1334 72.4 62.9334 64.9333 62.9334 53.7333C62.9334 46.8 60.2667 42.2667 54.5334 39.3333L50.4 37.2L56.5334 30.6667C63.4667 23.2 64.1334 20 59.3334 15.3333C56.4 12.2667 55.2 12 42.2667 12C30.5334 12 28.1334 12.4 26.2667 14.4Z" fill="black"/>
</g>
<defs>
<clipPath id="clip0_697_2861">
<rect width="85.3333" height="85.3333" fill="white"/>
</clipPath>
</defs>
</svg>
