<svg width="70" height="59" viewBox="0 0 70 59" fill="none" xmlns="http://www.w3.org/2000/svg">
<path d="M14.9699 44.5156V53H15.966V46.5898H16.0363L18.673 53H19.6105L22.2473 46.5898H22.3293V53H23.3254V44.5156H22.0598L19.2004 51.5H19.0949L16.2355 44.5156H14.9699ZM25.596 55.3906C26.4984 55.3848 27.1195 54.916 27.4945 53.9141L30.1898 46.6367H29.0882L27.3538 51.6875H27.2835L25.5491 46.6367H24.4476L26.803 53.0469L26.6155 53.5273C26.2816 54.459 25.9359 54.4824 25.5257 54.4883C25.3675 54.4824 25.139 54.4766 25.0335 54.4648V55.3672C25.1624 55.3789 25.3792 55.3848 25.596 55.3906ZM31.183 55.3906H32.1909V52.0273H32.2729C32.4897 52.3789 32.9116 53.1348 34.1245 53.1289C35.7123 53.1348 36.8198 51.8574 36.8198 49.8359C36.8198 47.8203 35.7123 46.5547 34.1127 46.5547C32.8764 46.5547 32.4897 47.3047 32.2729 47.6445H32.1557V46.6367H31.183V55.3906ZM32.1674 49.8125C32.1733 48.4004 32.7944 47.457 33.9838 47.457C35.2084 47.457 35.812 48.4824 35.812 49.8125C35.812 51.166 35.1909 52.2266 33.9838 52.2266C32.812 52.2266 32.1733 51.2422 32.1674 49.8125ZM37.7076 51.1953C37.7076 52.4375 38.6685 53.1465 39.8755 53.1523C40.983 53.1465 41.563 52.5605 41.774 52.1328H41.8209V53H42.817V48.8047C42.8228 46.8008 41.2584 46.5547 40.4263 46.5547C39.0201 46.5547 38.024 47.2637 37.8951 48.2891H38.9498C39.0904 47.8027 39.5767 47.4336 40.3795 47.4336C41.3404 47.4336 41.8209 47.9023 41.8209 48.7109V49.2266C41.5337 49.2324 40.5084 49.291 40.0982 49.3203C38.9966 49.4023 37.7076 49.7363 37.7076 51.1953ZM38.7154 51.2422C38.7212 50.5449 39.3013 50.2227 40.2154 50.1641C40.5201 50.1465 41.522 50.0703 41.8209 50.0527V50.6914C41.8209 51.4941 41.188 52.2559 40.0513 52.25C39.2779 52.2559 38.7212 51.916 38.7154 51.2422ZM46.8923 55.5195C48.445 55.5195 49.652 54.8164 49.6579 53.1758V46.6367H48.6735V47.6445H48.5915C48.363 47.3047 47.9645 46.5547 46.7282 46.5547C45.1286 46.5547 44.0095 47.7734 44.0095 49.7305C44.0095 51.7344 45.1696 52.9004 46.7165 52.9062C47.947 52.9004 48.3512 52.1797 48.568 51.8281H48.6501V53.1172C48.6501 54.166 47.9821 54.6406 46.8923 54.6406C45.9899 54.6406 45.3864 54.3184 45.2516 53.668H44.197C44.3083 54.8457 45.3512 55.5195 46.8923 55.5195ZM45.029 49.7656C45.029 48.4824 45.6325 47.457 46.8571 47.457C48.0407 47.457 48.6677 48.4004 48.6735 49.7656C48.6677 51.166 48.0231 52.0039 46.8571 52.0039C45.6501 52.0039 45.029 51.084 45.029 49.7656ZM53.8152 53.1289C55.1277 53.1348 56.0711 52.4785 56.3699 51.5117H55.2918C55.0574 51.9043 54.577 52.2383 53.8152 52.2383C52.6844 52.2383 51.8992 51.5 51.8465 50.1523H56.4637V49.7305C56.4695 47.375 55.0574 46.5547 53.7215 46.5547C51.993 46.5547 50.8387 47.9141 50.8387 49.8711C50.8387 51.8223 51.9754 53.1348 53.8152 53.1289ZM51.8523 49.2969C51.9227 48.3125 52.6199 47.4453 53.7215 47.4453C54.7703 47.4453 55.4383 48.2363 55.4441 49.2969H51.8523Z" fill="#4B4B4B"/>
<path d="M43 28V26C43 24.9391 42.5786 23.9217 41.8284 23.1716C41.0783 22.4214 40.0609 22 39 22H31C29.9391 22 28.9217 22.4214 28.1716 23.1716C27.4214 23.9217 27 24.9391 27 26V28" stroke="#4B4B4B" stroke-width="2" stroke-linecap="round" stroke-linejoin="round"/>
<path d="M35 18C37.2091 18 39 16.2091 39 14C39 11.7909 37.2091 10 35 10C32.7909 10 31 11.7909 31 14C31 16.2091 32.7909 18 35 18Z" stroke="#4B4B4B" stroke-width="2" stroke-linecap="round" stroke-linejoin="round"/>
</svg>
