<svg width="70" height="59" viewBox="0 0 70 59" fill="none" xmlns="http://www.w3.org/2000/svg">
<path d="M22.1253 44.5156V53H23.8363V47.4219H23.9066L26.1214 52.9648H27.2933L29.5081 47.4453H29.5784V53H31.2894V44.5156H29.1097L26.7542 50.2695H26.6605L24.305 44.5156H22.1253ZM32.2592 51.2188C32.2651 52.4785 33.1616 53.123 34.3803 53.1172C35.3237 53.123 35.933 52.707 36.2436 52.1211H36.2905V53H37.9311V48.7109C37.937 47.1758 36.6245 46.5547 35.2358 46.5547C33.5483 46.5547 32.5873 47.4219 32.4819 48.5234H34.1342C34.228 48.0898 34.5971 47.8262 35.1889 47.8203C35.8393 47.8262 36.2026 48.1309 36.2084 48.6641V49.1797C35.9389 49.1914 35.0834 49.2324 34.6264 49.2617C33.4018 49.3379 32.2651 49.8008 32.2592 51.2188ZM33.9233 51.1719C33.9233 50.6797 34.3041 50.3926 34.9077 50.3398C35.2006 50.3164 35.9448 50.2754 36.2084 50.2637V50.7266C36.2143 51.4004 35.6635 51.916 34.8725 51.9219C34.3159 51.916 33.9233 51.6582 33.9233 51.1719ZM39.1353 53H40.8697V46.6367H39.1353V53ZM39.0533 44.9258C39.0533 45.4062 39.481 45.8047 40.0025 45.8047C40.5181 45.8047 40.9459 45.4062 40.94 44.9258C40.9459 44.4336 40.5181 44.041 40.0025 44.0352C39.481 44.041 39.0533 44.4336 39.0533 44.9258ZM43.8317 49.3203C43.8317 48.4824 44.3298 47.9961 45.0505 47.9961C45.7712 47.9961 46.193 48.4648 46.1989 49.25V53H47.9216V48.9453C47.9274 47.4629 47.0602 46.5547 45.7302 46.5547C44.7868 46.5547 44.1071 47.0176 43.82 47.75H43.7497V46.6367H42.0973V53H43.8317V49.3203Z" fill="#70CCA6"/>
<path d="M26 16L35 9L44 16V27C44 27.5304 43.7893 28.0391 43.4142 28.4142C43.0391 28.7893 42.5304 29 42 29H28C27.4696 29 26.9609 28.7893 26.5858 28.4142C26.2107 28.0391 26 27.5304 26 27V16Z" stroke="#70CCA6" stroke-width="2" stroke-linecap="round" stroke-linejoin="round"/>
<path d="M32 29V19H38V29" stroke="#70CCA6" stroke-width="2" stroke-linecap="round" stroke-linejoin="round"/>
</svg>
