<svg width="70" height="59" viewBox="0 0 70 59" fill="none" xmlns="http://www.w3.org/2000/svg">
<path d="M23.1448 44.5156V53H24.1409V46.5898H24.2113L26.848 53H27.7855L30.4222 46.5898H30.5042V53H31.5003V44.5156H30.2347L27.3753 51.5H27.2698L24.4105 44.5156H23.1448ZM32.8217 51.1953C32.8217 52.4375 33.7827 53.1465 34.9897 53.1523C36.0971 53.1465 36.6772 52.5605 36.8881 52.1328H36.935V53H37.9311V48.8047C37.937 46.8008 36.3725 46.5547 35.5405 46.5547C34.1342 46.5547 33.1381 47.2637 33.0092 48.2891H34.0639C34.2045 47.8027 34.6909 47.4336 35.4936 47.4336C36.4545 47.4336 36.935 47.9023 36.935 48.7109V49.2266C36.6479 49.2324 35.6225 49.291 35.2123 49.3203C34.1108 49.4023 32.8217 49.7363 32.8217 51.1953ZM33.8295 51.2422C33.8354 50.5449 34.4155 50.2227 35.3295 50.1641C35.6342 50.1465 36.6362 50.0703 36.935 50.0527V50.6914C36.935 51.4941 36.3022 52.2559 35.1655 52.25C34.392 52.2559 33.8354 51.916 33.8295 51.2422ZM39.4283 53H40.4361V46.6367H39.4283V53ZM39.2291 44.9141C39.2232 45.2832 39.5455 45.582 39.9322 45.582C40.3189 45.582 40.6412 45.2832 40.647 44.9141C40.6412 44.5391 40.3189 44.2402 39.9322 44.2461C39.5455 44.2402 39.2232 44.5391 39.2291 44.9141ZM42.9294 49.1797C42.9294 48.0781 43.6091 47.457 44.5348 47.457C45.4372 47.457 45.9762 48.043 45.9762 49.0273V53H46.9841V48.957C46.9899 47.3398 46.1286 46.5547 44.8395 46.5547C43.8727 46.5547 43.2751 46.9824 42.9762 47.6328H42.8942V46.6367H41.9216V53H42.9294V49.1797Z" fill="#4B4B4B"/>
<path d="M26 16L35 9L44 16V27C44 27.5304 43.7893 28.0391 43.4142 28.4142C43.0391 28.7893 42.5304 29 42 29H28C27.4696 29 26.9609 28.7893 26.5858 28.4142C26.2107 28.0391 26 27.5304 26 27V16Z" stroke="#4B4B4B" stroke-width="2" stroke-linecap="round" stroke-linejoin="round"/>
<path d="M32 29V19H38V29" stroke="#4B4B4B" stroke-width="2" stroke-linecap="round" stroke-linejoin="round"/>
</svg>
