<svg width="67" height="59" viewBox="0 0 67 59" fill="none" xmlns="http://www.w3.org/2000/svg">
<path d="M7.63625 47.4688H9.4175C9.18312 45.5176 7.70656 44.3984 5.74953 44.3984C3.51125 44.3984 1.80031 45.9863 1.80031 48.7578C1.80031 51.5176 3.48195 53.1172 5.74953 53.1172C7.90578 53.1172 9.22414 51.6875 9.4175 50.1172L7.63625 50.1055C7.46633 51.0254 6.73977 51.5527 5.77297 51.5586C4.47805 51.5527 3.59328 50.5859 3.59328 48.7578C3.59328 46.9707 4.46633 45.9629 5.78469 45.957C6.77492 45.9629 7.49562 46.5312 7.63625 47.4688ZM13.3522 53.1289C15.2799 53.123 16.4752 51.8047 16.4811 49.8359C16.4752 47.873 15.2799 46.5547 13.3522 46.5547C11.4303 46.5547 10.2291 47.873 10.235 49.8359C10.2291 51.8047 11.4303 53.123 13.3522 53.1289ZM11.9928 49.8359C11.9928 48.7168 12.4557 47.8789 13.3639 47.8789C14.2487 47.8789 14.7174 48.7168 14.7116 49.8359C14.7174 50.9492 14.2487 51.7754 13.3639 51.7812C12.4557 51.7754 11.9928 50.9492 11.9928 49.8359ZM17.4509 53H19.1853V49.1797C19.1795 48.459 19.6365 47.9844 20.2283 47.9844C20.8201 47.9844 21.2185 48.3887 21.2127 49.0156V53H22.9002V49.1094C22.8943 48.4355 23.281 47.9844 23.9314 47.9844C24.4998 47.9844 24.9334 48.3359 24.9275 49.0625V53H26.6619V48.7227C26.6619 47.334 25.8357 46.5547 24.658 46.5547C23.7263 46.5547 22.9998 47.0293 22.7361 47.75H22.6775C22.4666 47.0176 21.8162 46.5547 20.9431 46.5547C20.0877 46.5547 19.4431 47.0059 19.1736 47.75H19.1033V46.6367H17.4509V53ZM27.8778 53H29.6122V49.1797C29.6063 48.459 30.0634 47.9844 30.6552 47.9844C31.247 47.9844 31.6454 48.3887 31.6395 49.0156V53H33.327V49.1094C33.3212 48.4355 33.7079 47.9844 34.3583 47.9844C34.9266 47.9844 35.3602 48.3359 35.3544 49.0625V53H37.0887V48.7227C37.0887 47.334 36.2626 46.5547 35.0848 46.5547C34.1532 46.5547 33.4266 47.0293 33.163 47.75H33.1044C32.8934 47.0176 32.243 46.5547 31.37 46.5547C30.5145 46.5547 29.87 47.0059 29.6005 47.75H29.5302V46.6367H27.8778V53ZM42.3828 50.293C42.3828 51.1602 41.7852 51.6113 41.1523 51.6172C40.4727 51.6113 40.0391 51.1426 40.0391 50.3867V46.6367H38.3047V50.6914C38.3047 52.1797 39.1777 53.082 40.4492 53.082C41.4102 53.082 42.0957 52.5898 42.3828 51.8516H42.4531V53H44.1172V46.6367H42.3828V50.293ZM47.0792 49.3203C47.0792 48.4824 47.5773 47.9961 48.298 47.9961C49.0187 47.9961 49.4405 48.4648 49.4464 49.25V53H51.1691V48.9453C51.1749 47.4629 50.3077 46.5547 48.9777 46.5547C48.0343 46.5547 47.3546 47.0176 47.0675 47.75H46.9972V46.6367H45.3448V53H47.0792V49.3203ZM52.3967 53H54.1311V46.6367H52.3967V53ZM52.3147 44.9258C52.3147 45.4062 52.7424 45.8047 53.2639 45.8047C53.7795 45.8047 54.2073 45.4062 54.2014 44.9258C54.2073 44.4336 53.7795 44.041 53.2639 44.0352C52.7424 44.041 52.3147 44.4336 52.3147 44.9258ZM58.7103 46.6367H57.515V45.1133H55.7806V46.6367H54.9017V47.9375H55.7806V51.2891C55.7689 52.5254 56.6244 53.0879 57.8783 53.082C58.306 53.0879 58.6166 53.0527 58.8041 53.0234V51.6523C58.5931 51.6699 58.2884 51.6875 58.1127 51.6875C57.7611 51.6758 57.5091 51.5527 57.515 51.043V47.9375H58.7103V46.6367ZM60.6997 55.3906C62.0415 55.3848 62.7388 54.7285 63.102 53.7031L65.5864 46.6367H63.7466L62.3989 51.3242H62.3286L60.9927 46.6367H59.1763L61.4614 53.1758L61.3559 53.4453C61.145 53.9961 60.8696 54.0312 60.5239 54.0312C60.3071 54.0312 60.0434 54.0254 59.8208 54.0078V55.3555C60.0434 55.3789 60.3598 55.3848 60.6997 55.3906Z" fill="#70CCA6"/>
<path d="M43 25C43 25.5304 42.7893 26.0391 42.4142 26.4142C42.0391 26.7893 41.5304 27 41 27H29L25 31V15C25 14.4696 25.2107 13.9609 25.5858 13.5858C25.9609 13.2107 26.4696 13 27 13H41C41.5304 13 42.0391 13.2107 42.4142 13.5858C42.7893 13.9609 43 14.4696 43 15V25Z" stroke="#70CCA6" stroke-width="2" stroke-linecap="round" stroke-linejoin="round"/>
</svg>
