<svg width="220" height="258" viewBox="0 0 220 258" fill="none" xmlns="http://www.w3.org/2000/svg">
<g clip-path="url(#clip0_1186_5885)">
<path d="M51.0857 175.525L51.5667 176.033L51.2193 177.345C51.3529 177.184 51.2193 177.238 51.1926 177.291C51.2193 177.211 51.4064 177.265 51.2461 177.291C51.2728 177.291 51.4331 177.345 51.3529 177.291C51.1926 177.211 51.4331 177.345 51.4865 177.372C51.5667 177.425 51.7003 177.532 51.8071 177.666C52.2346 178.121 52.5018 178.71 52.6621 179.326C52.7423 179.62 52.6889 179.835 52.769 180.102C52.7957 180.263 52.7423 180.102 52.769 180.049C52.8492 179.968 52.8492 179.942 52.9293 179.835C52.9828 179.808 53.3568 179.54 53.4103 179.62C53.4103 179.594 53.1431 179.567 53.1163 179.54C52.4484 179.379 51.9942 179.165 51.4064 178.764C50.9522 178.443 50.4178 177.987 50.0437 177.479C49.9636 177.372 49.7231 176.997 49.6162 176.783C49.5361 176.649 49.4826 176.515 49.4025 176.381C49.2956 176.14 49.4559 176.515 49.349 176.274C49.349 176.221 49.3223 176.167 49.2956 176.114C49.2956 176.007 49.2689 176.007 49.2956 176.114C49.2155 176.221 49.2422 176.408 49.1353 176.542C49.0819 176.595 49.0284 176.622 48.975 176.649C48.9215 176.676 48.6811 176.703 48.8414 176.703C49.0017 176.703 48.788 176.703 48.788 176.703C48.6544 176.622 48.6009 176.515 48.7078 176.703C48.7078 176.703 48.7612 176.836 48.788 176.917C49.0017 177.639 49.0284 178.389 49.3223 179.085C50.0972 180.852 52.2346 181.066 53.8645 181.467C54.8798 181.708 55.8149 181.789 56.7768 181.307C57.5249 180.932 58.1127 180.236 58.5936 179.54C59.4753 178.282 59.9563 176.676 59.983 175.15C60.0097 173.624 59.6624 171.242 57.7654 170.947C55.5477 170.626 54.3988 172.848 54.3721 174.748C54.3721 175.605 54.5324 176.515 54.3454 177.291C54.1584 178.014 53.8377 178.603 53.2767 179.112L55.3874 180.745C56.376 178.817 57.3379 176.917 58.3265 174.989C58.6471 174.347 58.4868 173.544 57.8455 173.169C57.2577 172.821 56.3493 173.008 56.0287 173.651C55.0401 175.578 54.0782 177.479 53.0896 179.406C52.4217 180.745 54.0782 182.11 55.2004 181.039C56.5096 179.781 57.1776 178.041 57.1241 176.221C57.1241 175.766 57.0707 175.337 57.0707 174.882C57.0707 174.507 57.0707 174.186 57.1776 173.972C57.231 173.838 57.3111 173.731 57.3379 173.678C57.3646 173.651 57.4982 173.571 57.418 173.597C57.418 173.597 57.231 173.597 57.418 173.597C57.6051 173.597 57.418 173.597 57.418 173.597C57.8455 173.999 57.1241 173.437 57.1241 173.41V173.356C57.1241 173.356 57.1508 173.49 57.1776 173.571C57.5516 174.882 57.3913 176.355 56.7233 177.559C56.4562 178.041 55.9752 178.764 55.5744 178.951C55.2805 179.085 54.9599 178.951 54.6393 178.871C54.1317 178.737 53.6507 178.603 53.1431 178.496C52.769 178.389 52.3415 178.309 51.9942 178.175C51.8071 178.095 51.7537 177.934 51.7003 177.747C51.4865 176.917 51.4598 176.06 51.0056 175.311C50.5514 174.561 49.6697 173.999 48.7345 174.026C47.7459 174.079 46.8909 174.695 46.6772 175.685C46.4634 176.676 46.9978 177.639 47.452 178.416C47.8795 179.112 48.3872 179.754 49.0017 180.263C49.6162 180.771 50.2842 181.28 51.0056 181.601C51.8339 181.976 52.8759 182.431 53.7843 182.244C56.2424 181.708 55.3874 178.389 54.5057 176.89C54.0248 176.06 53.3301 175.257 52.4484 174.855C51.4064 174.374 50.0437 174.481 49.2956 175.418C49.0017 175.766 48.7612 176.247 48.9483 176.729C49.2154 177.425 49.6429 177.88 50.3376 178.095C51.0323 178.309 51.8071 177.827 51.9942 177.158C52.1812 176.435 51.7537 175.739 51.059 175.498L51.0857 175.525Z" fill="#7AC3A5"/>
<path d="M157.933 101.134C155.742 100.331 153.551 98.7246 153.177 96.4225C152.963 94.9502 153.524 93.4511 154.486 92.3268C155.448 91.2025 156.757 90.4262 158.12 89.8641C160.017 89.0878 162.074 88.6595 164.105 88.6595C166.804 88.6595 169.689 89.2751 172.067 87.9902C172.174 89.9176 170.998 91.6576 169.849 93.2102C168.487 95.1108 167.097 97.0114 165.361 98.564C163.624 100.117 161.46 101.268 159.135 101.402" fill="#7AC3A5"/>
<path d="M120.046 95.646C114.702 92.9691 108.771 92.4604 102.92 92.862C97.0683 93.2635 90.6826 94.0666 85.2053 96.6096C79.728 99.1527 75.2393 103.115 71.2048 107.317C67.1703 111.52 63.8038 116.338 61.5861 121.746C59.1547 127.689 58.0058 134.113 57.5249 140.484C57.044 146.855 57.3646 153.119 58.6738 159.303C60.9983 170.251 66.7428 180.584 75.64 187.491C85.1785 194.879 97.282 196.806 108.931 198.439C115.638 199.376 122.21 200.072 128.917 198.6C134.661 197.342 140.352 195.254 145.803 193.059C155.715 189.043 165.174 183.234 169.769 173.142C172.281 167.628 173.456 161.632 174.525 155.689C175.54 150.094 176.395 144.419 176.315 138.717C176.235 133.016 175.193 127.796 172.468 123.031C169.475 117.784 164.532 113.902 159.83 110.235C150.238 102.793 139.31 96.6364 127.02 95.4318C123.947 95.1374 120.848 95.1909 117.802 95.5924C116.119 95.8066 116.092 98.4835 117.802 98.2693C129.585 96.7167 140.993 100.839 150.826 107.103C155.635 110.182 160.284 113.715 164.479 117.597C168.674 121.478 171.559 125.895 172.815 131.436C173.991 136.603 173.777 142.01 173.163 147.23C172.548 152.45 171.533 158.152 170.25 163.452C168.968 168.752 166.991 174.16 163.384 178.443C160.204 182.244 156.143 185.108 151.814 187.41C147.486 189.712 142.65 191.533 137.894 193.166C131.963 195.2 126.004 197.02 119.672 196.886C113.34 196.753 107.569 195.682 101.637 194.665C96.0797 193.701 90.4955 192.47 85.3121 190.167C75.6935 185.884 68.4528 177.854 64.2847 168.27C59.5822 157.375 59.0746 144.847 61.1319 133.283C62.1739 127.528 63.9641 121.933 67.0901 116.954C70.0292 112.27 73.8766 108.201 78.0714 104.64C82.5868 100.786 87.5298 98.0819 93.3811 96.8773C98.9118 95.7263 104.843 95.0838 110.481 95.6727C113.367 95.9672 116.172 96.7435 118.764 98.0284C120.287 98.8047 121.649 96.4758 120.1 95.7263L120.046 95.646Z" fill="#131309"/>
<path d="M145.91 106.407C150.158 101.883 155.368 98.3231 161.112 96.0477C161.78 95.78 162.261 95.1643 162.048 94.388C161.861 93.7456 161.086 93.1834 160.391 93.4511C154.192 95.8871 148.581 99.6348 143.986 104.507C142.81 105.765 144.681 107.665 145.883 106.407H145.91Z" fill="#131309"/>
<path d="M90.4154 138.074C91.778 136.762 93.7284 136.548 95.572 136.709C96.4537 136.789 97.3889 136.923 98.2439 137.244C98.5111 137.351 98.992 137.565 99.2325 137.753C99.2057 137.753 99.4195 137.913 99.4195 137.94C99.4462 137.967 99.5531 138.101 99.4729 137.994C99.5531 138.127 99.5798 138.208 99.6332 138.475C99.7401 139.198 100.622 139.6 101.29 139.412C102.038 139.198 102.332 138.475 102.225 137.753C101.744 134.969 98.2439 134.299 95.9461 134.059C93.301 133.791 90.5222 134.299 88.5451 136.2C87.2893 137.378 89.1863 139.279 90.4421 138.101L90.4154 138.074Z" fill="#131309"/>
<path d="M125.149 139.787C126.405 138.288 128.356 137.699 130.253 138.021C131.321 138.208 132.337 138.61 133.272 139.172C134.02 139.627 134.982 140.189 135.302 141.046C135.543 141.715 136.211 142.17 136.959 141.982C137.6 141.795 138.135 141.019 137.894 140.323C136.906 137.619 133.673 135.906 130.974 135.424C128.275 134.942 125.149 135.638 123.279 137.887C122.825 138.449 122.745 139.225 123.279 139.787C123.76 140.269 124.695 140.35 125.176 139.787H125.149Z" fill="#131309"/>
<path d="M102.733 147.927C109.038 147.552 115.344 148.087 121.489 149.533L120.5 148.248C120.634 150.363 119.806 152.37 118.203 153.736C116.359 155.342 113.741 155.368 111.416 155.449C109.092 155.529 106.66 155.315 105.057 153.495C104.336 152.692 103.855 151.674 103.454 150.684C102.946 149.452 102.412 148.114 102.813 146.776C103.32 145.116 100.755 144.42 100.248 146.053C99.7401 147.686 100.141 149.479 100.782 151.112C101.343 152.558 102.011 153.95 103 155.154C105.004 157.564 108.103 158.179 111.122 158.126C114.141 158.072 117.428 157.831 119.913 155.797C122.13 153.976 123.413 151.085 123.226 148.221C123.199 147.659 122.852 147.07 122.237 146.936C115.851 145.437 109.305 144.848 102.759 145.223C101.049 145.33 101.049 148.007 102.759 147.9L102.733 147.927Z" fill="#131309"/>
<path d="M91.11 97.5469C87.316 98.4035 85.7663 103.249 88.7855 105.952C90.255 107.291 92.3391 107.532 94.2361 107.639C95.572 107.692 96.9347 107.639 98.2706 107.505C99.2057 107.398 100.702 106.755 101.29 107.558C101.797 108.281 102.065 109.004 102.759 109.646C103.454 110.289 104.282 110.771 105.164 111.172C107.275 112.109 109.626 112.484 111.924 112.538C114.409 112.591 116.786 112.109 119.164 111.413C120.527 111.012 121.89 110.637 123.065 111.574C123.84 112.19 124.455 112.966 125.256 113.555C128.783 116.125 133.806 116.125 137.36 113.635C138.749 112.645 137.413 110.342 136.024 111.333C134.26 112.564 132.203 113.073 130.066 112.725C127.768 112.35 126.539 110.985 124.855 109.566C123.172 108.147 121.088 108.121 119.031 108.683C116.332 109.379 113.847 110.048 111.042 109.834C108.878 109.673 105.912 109.218 104.362 107.451C103.748 106.755 103.668 105.738 103 105.069C102.332 104.4 101.423 104.373 100.542 104.48C97.8965 104.828 95.2247 105.337 92.5528 104.828C91.4039 104.614 90.255 104.105 89.9611 102.847C89.6138 101.455 90.6291 100.438 91.8849 100.17C93.5681 99.7955 92.8467 97.1989 91.1635 97.6004L91.11 97.5469Z" fill="#131309"/>
<path d="M145.696 115.911C148.288 117.035 149.971 119.203 151.12 121.72C151.681 122.951 152.082 124.236 152.429 125.547C152.83 127.073 153.311 128.492 154.673 129.429C155.876 130.259 157.479 130.687 158.895 130.928C160.418 131.196 162.021 131.196 163.437 130.419C166.403 128.76 166.777 125.119 166.216 122.094C165.895 120.408 163.33 121.131 163.651 122.817C164.051 125.066 163.677 128.331 160.792 128.439C159.536 128.492 158.147 128.117 156.998 127.662C155.662 127.127 155.368 126.163 155.021 124.851C153.845 120.354 151.547 115.563 147.059 113.635C146.391 113.341 145.642 113.448 145.242 114.117C144.894 114.679 145.055 115.67 145.723 115.937L145.696 115.911Z" fill="#131309"/>
<path d="M50.017 105.898C49.2956 104.56 47.7192 101.936 48.494 100.41C49.1086 99.2057 50.5514 98.5633 51.8606 98.59C55.0401 98.6436 56.1355 102.391 54.3721 104.693C53.3835 105.978 55.3874 107.183 56.4829 106.326C57.8722 105.202 59.7425 104.854 61.4792 104.988C62.8953 105.095 65.1931 105.55 65.7008 107.129C66.155 108.521 64.8725 109.994 63.6701 110.475C61.6663 111.279 59.3418 110.449 57.4447 109.672C56.376 109.244 55.6546 110.449 55.7882 111.332C55.9218 112.215 56.1088 113.393 55.7615 114.277C55.3874 115.267 54.3454 115.455 53.4103 115.508C52.4751 115.562 50.8453 115.695 50.2842 114.732C49.83 113.955 50.5514 112.965 50.1506 112.082C49.162 109.86 46.7306 112.055 45.4214 110.449C44.326 109.137 45.9825 107.29 47.452 107.986C49.0017 108.709 50.3643 106.407 48.788 105.684C46.1428 104.452 42.5625 106.059 42.3488 109.191C42.2419 110.69 43.0435 112.135 44.2458 112.992C44.8336 113.42 45.5016 113.715 46.223 113.795C46.6772 113.848 47.078 113.848 47.5322 113.795C47.7459 113.768 47.9597 113.715 48.1734 113.634C47.8528 112.965 47.6391 112.831 47.6123 113.233C47.1314 113.634 47.5589 115.214 47.7459 115.669C48.0666 116.391 48.6009 117.034 49.2956 117.435C50.7651 118.346 52.6621 118.346 54.3187 118.105C55.9752 117.864 57.3913 117.141 58.1127 115.615C58.8341 114.089 58.6471 112.296 58.3799 110.636L56.7233 112.296C59.4219 113.393 62.7083 114.17 65.4068 112.617C67.4909 111.439 68.9871 108.843 68.2657 106.433C67.4909 103.864 64.7656 102.766 62.3609 102.418C59.5555 102.016 56.8035 102.632 54.5859 104.426L56.6966 106.059C59.7692 102.07 56.8837 95.9934 51.8606 95.9399C49.6162 95.9131 47.265 97.0642 46.1695 99.0987C44.7535 101.722 46.3833 104.934 47.6925 107.29C48.5208 108.789 50.8453 107.451 49.9903 105.952L50.017 105.898Z" fill="#131309"/>
<path d="M180.243 115.295C179.735 114.224 178.987 112.698 179.415 111.52C179.842 110.342 181.365 110.021 182.434 110.048C185.132 110.101 186.869 112.511 186.602 115.08C186.495 116.124 187.804 116.687 188.606 116.231C189.755 115.562 191.037 115.187 192.373 115.161C193.228 115.161 194.778 115.214 195.285 116.071C195.766 116.847 194.35 117.49 193.816 117.811C192.667 118.507 191.465 119.123 190.209 119.578C188.953 120.033 187.617 120.381 186.281 120.568C185.213 120.729 183.556 121.077 182.594 120.488C181.873 120.059 181.632 119.042 181.365 118.293C180.991 117.249 180.59 116.312 179.896 115.428C179.441 114.866 178.48 114.973 177.999 115.428C177.437 115.991 177.544 116.767 177.999 117.329C178.586 118.079 178.8 119.123 179.147 120.006C179.575 121.05 180.109 122.04 181.071 122.683C182.193 123.459 183.636 123.486 184.945 123.406C186.361 123.299 187.778 123.084 189.14 122.736C191.759 122.04 194.404 120.889 196.541 119.23C197.53 118.453 198.251 117.383 198.091 116.098C197.957 114.893 197.102 113.929 196.087 113.34C193.415 111.815 189.808 112.484 187.27 113.929L189.274 115.08C189.701 110.851 186.148 107.103 181.899 107.371C179.842 107.505 177.678 108.495 176.93 110.556C176.182 112.618 177.063 114.813 177.945 116.66C178.693 118.212 180.991 116.847 180.243 115.321V115.295Z" fill="#131309"/>
<path d="M56.002 181.012C54.0248 180.771 51.9942 180.905 50.0705 180.343C48.7345 179.968 47.2383 178.924 46.9978 177.452C46.7841 176.14 47.9597 175.23 49.1353 175.016C50.7384 174.748 52.2346 175.872 53.25 176.997C53.8378 177.639 54.9332 177.452 55.3607 176.729C55.8149 175.926 55.8951 175.069 55.8416 174.159C55.8149 173.624 55.6813 172.981 56.0554 172.526C56.8035 171.643 58.0593 172.098 58.6471 172.901C60.8113 175.899 56.8569 179.7 55.3073 181.976C54.3187 183.394 56.6432 184.733 57.6051 183.314C59.0211 181.253 60.7846 179.406 61.5327 176.97C62.2006 174.855 61.9067 172.446 60.3571 170.786C58.9677 169.287 56.6699 168.939 54.9332 170.037C54.0782 170.572 53.4103 171.455 53.2232 172.446C53.1164 173.008 53.1431 173.57 53.1698 174.159C53.1698 174.587 53.2767 175.016 53.0629 175.39L55.1737 175.123C53.5171 173.302 51.1659 172.018 48.6544 172.419C46.3833 172.794 44.4596 174.641 44.3527 176.997C44.2458 179.352 46.0627 181.467 48.0666 182.404C50.5514 183.582 53.3568 183.368 56.0287 183.689C56.7501 183.769 57.3646 183.02 57.3646 182.35C57.3646 181.547 56.7501 181.092 56.0287 181.012H56.002Z" fill="#131309"/>
<path d="M76.121 141.153C74.3041 141.956 72.6476 143.027 71.0979 144.285C70.6437 144.66 70.617 145.436 70.8841 145.918C71.2048 146.48 71.7926 146.614 72.3804 146.534C73.4491 146.4 74.5446 146.24 75.6133 146.106C76.121 146.025 76.6553 145.972 77.163 145.892C77.5638 145.838 78.1516 145.624 78.5256 145.758L77.9378 145.41C77.8577 145.008 77.8042 144.901 77.8042 145.062C77.8042 145.196 77.7508 145.329 77.7241 145.463C77.6706 145.704 77.6439 145.972 77.6439 146.213C77.6439 146.802 77.8844 147.391 78.2852 147.819C79.0333 148.595 80.2356 148.756 81.2242 148.435C82.2128 148.113 83.0143 147.364 84.0296 147.15C84.4037 147.069 85.5526 147.15 85.3923 147.819C85.0182 149.505 87.6099 150.201 87.9572 148.542C88.358 146.668 87.0755 144.874 85.2052 144.526C84.2434 144.366 83.2815 144.526 82.3731 144.901C81.8921 145.088 81.4379 145.356 81.0104 145.597C80.8768 145.677 80.289 145.865 80.2089 145.945C80.2089 145.945 80.2089 146.507 80.3158 145.972C80.4226 145.57 80.4761 145.115 80.4226 144.687C80.2623 143.563 79.2737 142.974 78.1783 143.054C75.9874 143.268 73.7964 143.643 71.6322 143.937L72.9415 146.186C74.3041 145.088 75.8271 144.178 77.4302 143.482C78.0981 143.188 78.2584 142.224 77.9111 141.662C77.5103 140.993 76.7355 140.886 76.0942 141.18L76.121 141.153Z" fill="#7AC3A5"/>
<path d="M142.062 146.347C140.165 146.989 138.455 147.979 136.986 149.318C136.478 149.8 136.478 150.737 136.986 151.218C137.547 151.727 138.322 151.727 138.883 151.218C139.016 151.085 139.15 150.978 139.283 150.87C139.337 150.817 139.39 150.763 139.47 150.737C139.497 150.71 139.551 150.683 139.604 150.63C139.444 150.763 139.417 150.79 139.524 150.71C139.791 150.522 140.058 150.308 140.352 150.148C140.94 149.773 141.555 149.452 142.196 149.184L141.875 149.318C142.196 149.184 142.49 149.077 142.81 148.97C143.478 148.756 143.986 148.033 143.745 147.31C143.532 146.641 142.81 146.132 142.089 146.373L142.062 146.347Z" fill="#7AC3A5"/>
<path d="M142.623 148.755C142.516 149.344 142.436 149.933 142.329 150.522C142.169 151.512 142.917 152.422 143.986 152.181C145.803 151.726 147.593 151.271 149.41 150.816C149.891 150.709 150.398 150.575 150.853 150.655C150.906 150.655 151.28 150.816 151.066 150.655C151.066 150.655 151.066 150.575 151.066 150.548C151.066 150.602 151.066 150.763 151.04 150.843C150.933 151.539 150.719 152.154 150.933 152.85C151.227 153.734 152.055 154.269 152.937 154.296C153.792 154.323 154.673 153.948 155.448 153.707C156.357 153.439 157.238 153.172 158.147 152.904C159.777 152.395 159.082 149.826 157.425 150.334C156.517 150.602 155.635 150.87 154.727 151.137C154.273 151.271 153.818 151.432 153.364 151.539C153.284 151.539 153.017 151.592 152.963 151.646C152.776 151.592 152.856 151.673 153.177 151.914C153.391 152.262 153.498 152.315 153.444 152.021C153.738 151.592 153.711 150.682 153.631 150.2C153.524 149.478 153.097 148.862 152.482 148.46C151.334 147.764 149.891 147.952 148.662 148.246C146.845 148.701 145.055 149.156 143.238 149.611L144.894 151.271C145.001 150.682 145.081 150.093 145.188 149.504C145.295 148.782 145.001 148.059 144.253 147.845C143.612 147.657 142.73 148.059 142.597 148.782L142.623 148.755Z" fill="#7AC3A5"/>
<path d="M80.2891 93.1825C79.2738 91.2016 78.3119 89.2207 77.2699 87.2665C76.5485 85.9013 75.6668 84.8038 74.0904 84.429C72.2735 84.0007 70.2429 84.081 68.3726 83.9204C66.0481 83.733 63.7236 83.5724 61.3991 83.385C56.9905 83.037 52.5553 82.7158 48.1467 82.3678C44.8336 82.1269 41.1999 81.9127 38.2876 80.0924C34.7875 77.8974 34.4669 72.7309 33.9058 68.9833C33.1576 63.9507 32.7836 58.8646 32.4897 53.8052C32.2492 49.4954 32.1423 45.1856 31.9286 40.8758C31.6881 35.7361 32.4362 30.9712 33.9859 26.0457C34.8142 23.3956 35.7493 20.8258 36.5509 18.1489C37.2456 15.7932 37.8868 13.3572 38.8754 11.0818C40.1045 8.24431 43.2305 6.90586 45.8756 5.72803C49.7498 4.01481 53.7843 2.91728 58.0058 2.67635C62.2274 2.43543 66.6359 2.67635 70.9109 2.75666C75.1858 2.83697 79.7814 2.91728 84.2167 2.97081C92.8467 3.10466 101.504 3.26527 110.134 3.39912C118.764 3.53296 127.875 3.69358 136.718 3.85419C140.887 3.9345 145.215 3.69358 149.356 4.20219C151.2 4.44311 152.856 5.00526 154.406 6.04925C156.009 7.14678 157.399 8.56554 159.055 9.60954C160.498 10.4929 162.101 10.948 163.704 11.4834C165.601 12.0991 167.204 13.036 168.62 14.4547C170.624 16.4892 172.04 19.1125 173.109 21.7359C174.472 25.1623 175.38 28.8297 176.102 32.4168C177.384 38.7343 177.918 45.1856 177.705 51.6369C177.571 55.5452 177.17 59.4267 176.422 63.2547C176.021 65.3159 175.54 67.3504 174.953 69.3848C174.365 71.4192 173.911 73.882 172.601 75.5417C170.411 78.3524 166.723 80.3066 163.464 81.5647C160.204 82.8229 156.517 83.6527 152.963 84.2684C144.921 85.6604 136.665 86.7579 128.516 85.7407C124.375 85.2053 120.26 84.3487 116.092 84.1078C111.924 83.8669 107.382 84.1613 103.053 84.1613C98.7248 84.1613 94.5567 83.385 90.3085 83.4118C86.9152 83.4118 83.6289 84.2149 81.0639 86.5705C78.873 88.5782 77.7508 91.3622 78.3653 94.3336C78.7127 96.02 81.3044 95.2972 80.9303 93.6108C80.1287 89.7025 84.19 86.8918 87.5565 86.3028C91.778 85.5533 96.1866 86.6776 100.435 86.8114C105.004 86.9453 109.573 86.5973 114.141 86.7044C118.47 86.8114 122.665 87.5878 126.94 88.2034C135.383 89.3813 143.719 88.4444 152.082 87.1059C159.215 85.9816 166.483 84.2148 172.227 79.5838C173.537 78.5398 174.846 77.362 175.594 75.8629C176.502 74.0962 177.01 72.0082 177.571 70.1076C178.747 66.0387 179.522 61.8895 179.976 57.6867C180.751 50.6732 180.537 43.5794 179.548 36.566C178.88 31.9081 177.865 27.2503 176.342 22.7799C174.819 18.3095 172.361 13.384 168.193 10.6C166.697 9.58277 165.013 9.07415 163.303 8.51201C161.112 7.78924 159.509 6.63817 157.746 5.21941C154.86 2.89051 151.975 1.6859 148.261 1.41821C143.772 1.09698 139.257 1.20406 134.768 1.15052C130.279 1.09698 125.898 0.989905 121.462 0.936367C103.294 0.641907 85.1251 0.320679 66.9565 0.0262193C62.8152 -0.0540878 58.6738 -0.241471 54.5592 0.374217C50.4445 0.989905 46.6505 2.38189 42.9901 4.14865C40.4785 5.35326 37.8334 6.98617 36.6311 9.6363C35.5356 12.0187 34.8409 14.5886 34.1195 17.0781C32.4897 22.5122 30.2988 27.8125 29.5239 33.4608C28.856 38.3327 29.5239 43.2582 29.6575 48.157C29.7911 52.4668 30.0049 56.7498 30.3789 61.0329C30.8064 66.0654 31.2874 71.2586 32.65 76.1306C33.1042 77.7367 33.6653 79.3964 34.8142 80.6546C37.0585 83.1173 40.4251 84.1078 43.6046 84.5896C47.6123 85.1785 51.727 85.3124 55.7882 85.6336C60.3303 85.9816 64.8458 86.3296 69.3879 86.6776C70.4834 86.7579 71.6055 86.8114 72.701 86.9185C73.9568 87.0256 74.3843 87.4807 74.9721 88.605C76.0141 90.5591 76.976 92.54 77.9913 94.5209C78.7661 96.0468 81.0906 94.7083 80.2891 93.1825V93.1825Z" fill="#7AC3A5"/>
<path d="M65.2765 221.102C65.2765 222.591 65.0553 224 64.7234 225.33C69.4011 225.71 73.668 228.085 75.6908 232.946C76.8444 235.732 74.7742 238.82 71.7558 238.82C69.9701 238.82 68.5004 237.632 67.7734 236.001C66.6356 233.484 64.4232 232.106 61.5312 231.806C58.3706 235.859 53.7403 238.471 49.5525 238.851C47.2136 239.073 45.2857 237.79 44.9854 235.78C44.6851 233.895 45.7597 232.186 47.8458 231.774C52.9976 230.713 56.411 226.644 56.4584 221.102H49.1258C46.5657 221.102 45.5543 219.266 45.5543 217.524C45.5543 215.783 46.5341 213.898 49.1258 213.898H72.6408C75.2325 213.898 76.2123 215.814 76.2123 217.524C76.2123 219.234 75.1851 221.102 72.6408 221.102H65.2607H65.2765Z" fill="#131309"/>
<path d="M96.5666 222.212C101.924 222.782 106.981 227.167 108.688 234.625C109.272 237.158 107.502 238.821 104.911 238.821H104.31C102.382 238.821 100.849 237.411 100.375 235.527C99.506 232.028 97.1513 229.796 94.1013 229.131C90.9881 234.846 85.8837 238.393 81.1428 239.074C79.0568 239.375 76.9708 238.171 76.6231 236.081C76.2755 234.039 77.2553 232.456 79.3887 231.68C84.2876 229.891 87.8275 225.315 88.3016 216.86C88.4754 214.169 90.6405 212.854 93.0267 213.013C95.492 213.219 97.0723 214.849 97.0249 217.541C96.9775 219.156 96.8511 220.692 96.5508 222.196L96.5666 222.212Z" fill="#131309"/>
<path d="M129.358 222.212C134.715 222.782 139.535 226.407 141.242 233.849C141.827 236.382 140.294 238.821 137.702 238.821H137.101C135.174 238.821 133.641 237.411 133.167 235.527C132.297 232.028 129.943 229.796 126.893 229.131C123.78 234.846 118.675 238.393 113.934 239.074C111.848 239.375 109.762 238.171 109.415 236.081C109.067 234.039 110.047 232.456 112.18 231.68C117.079 229.891 120.619 225.315 121.093 216.86C121.267 214.169 123.432 212.854 125.818 213.013C128.283 213.219 129.864 214.849 129.816 217.541C129.769 219.156 129.642 220.692 129.342 222.196L129.358 222.212Z" fill="#131309"/>
<path d="M143.628 225.316C143.628 218.919 148.448 213.014 156.192 213.014H162.45C170.209 213.014 175.06 218.904 175.06 225.316V227.881C175.06 234.277 170.209 240.183 162.45 240.183H156.192C148.432 240.183 143.628 234.293 143.628 227.881V225.316ZM166.211 225.189C166.211 222.323 163.824 220.028 160.458 220.028H158.199C154.833 220.028 152.494 222.339 152.494 225.189V228.055C152.494 230.873 154.833 233.169 158.199 233.169H160.458C163.824 233.169 166.211 230.857 166.211 228.055V225.189Z" fill="#131309"/>
<path d="M79.3887 231.696C76.8602 232.646 75.8646 232.962 75.0745 231.696C74.2843 230.429 70.9815 232.107 70.9815 232.107L67.7576 236.002C67.7576 236.002 68.4214 237.57 70.0965 238.884C72.2457 240.546 77.1605 241.528 83.9084 238.361C84.5405 238.061 85.4255 235.179 85.4255 235.179L79.3729 231.696H79.3887Z" fill="#131309"/>
<path d="M112.148 231.694C109.62 232.644 108.482 233.103 107.423 230.839C106.112 228.021 103.741 232.106 103.741 232.106L100.517 236.001C100.517 236.001 100.976 237.695 102.667 238.993C104.816 240.656 109.92 241.511 116.684 238.344C117.316 238.043 118.201 235.162 118.201 235.162L112.148 231.678V231.694Z" fill="#131309"/>
<path d="M147.563 233.167C141.653 233.167 141.321 233.103 140.278 230.839C138.966 228.021 136.596 232.106 136.596 232.106L133.372 236.001C133.372 236.001 133.83 237.695 135.521 238.993C137.67 240.656 147.042 240.165 156.808 240.165C160.474 240.165 151.04 235.162 151.04 235.162L147.563 233.167V233.167Z" fill="#131309"/>
<path d="M47.8795 26.5016C47.4787 29.2321 47.3451 31.9625 47.5322 34.7197C47.6391 36.4329 50.1506 36.4597 50.204 34.7197C50.2575 32.9797 51.3796 31.2665 52.9827 30.4902C53.5706 30.1958 54.2652 29.8478 54.479 30.6241C54.6126 31.1059 54.5324 31.6681 54.479 32.1499C54.4255 32.8191 54.479 33.4616 54.5591 34.1308C54.8263 35.6299 57.231 35.2551 57.1775 33.7828C57.1241 32.0161 58.4333 30.169 60.357 30.4634C62.6281 30.8114 62.548 33.2742 62.4144 35.0677C62.2808 36.8613 64.9793 36.7809 65.0862 35.0677C65.1931 33.3545 65.2465 31.5074 64.2579 30.0351C63.3762 28.6967 61.9334 27.9472 60.357 27.7865C56.9905 27.4653 54.3988 30.5973 54.5057 33.7828L57.1241 33.4348C56.9905 32.6317 57.2043 31.7751 57.1775 30.9721C57.1241 30.2493 56.9638 29.4998 56.563 28.8841C55.6012 27.3582 53.8377 27.2512 52.2881 27.8936C49.4826 29.0179 47.5856 31.7216 47.4787 34.7465H50.1506C49.9903 32.257 50.0437 29.7139 50.3911 27.2512C50.4979 26.5284 50.204 25.8056 49.4559 25.5915C48.8414 25.4309 47.9062 25.8056 47.7994 26.5284L47.8795 26.5016Z" fill="#131309"/>
<path d="M68.6932 30.6236C68.5864 31.3463 68.5329 32.0423 68.5596 32.7651C68.5864 33.4878 68.6932 34.1838 68.8535 34.8798C69.0139 35.5758 69.8154 36.0309 70.5101 35.8168C71.2048 35.5758 71.6055 34.9066 71.4452 34.1571C71.3651 33.8358 71.3116 33.4878 71.2582 33.1666L71.3116 33.5146C71.2048 32.6848 71.2048 31.8549 71.3116 31.0251L71.2582 31.3731V31.3196C71.3116 30.9448 71.3384 30.6236 71.1246 30.2756C70.9643 30.0079 70.6437 29.7402 70.3231 29.6599C69.9757 29.5796 69.6017 29.6063 69.281 29.7937C69.0139 29.9811 68.7199 30.2488 68.6665 30.5968L68.6932 30.6236Z" fill="#131309"/>
<path d="M67.5978 24.8953C67.7314 25.1897 67.9451 25.4842 68.1589 25.7251C68.3726 25.966 68.6398 26.1802 68.9337 26.3676C69.4948 26.7423 70.1627 26.9297 70.8574 26.9832C71.178 26.9832 71.5788 26.8226 71.7926 26.5817C72.0063 26.3408 72.1933 25.966 72.1933 25.6448C72.1933 25.3236 72.0598 24.9488 71.7926 24.7079L71.5254 24.4937C71.3116 24.3599 71.0979 24.3063 70.8574 24.3063C70.804 24.3063 70.7505 24.3063 70.6971 24.3063L71.0445 24.3599C70.8307 24.3331 70.617 24.2796 70.4299 24.1993L70.7505 24.3331C70.5368 24.2528 70.3498 24.119 70.1627 23.9851L70.4299 24.1993C70.2696 24.0654 70.1093 23.9048 69.9757 23.7442L70.1895 24.0119C70.0826 23.878 70.0024 23.7174 69.9223 23.5568C69.7887 23.2624 69.4146 23.0214 69.1207 22.9411C68.8001 22.8608 68.3726 22.8876 68.0787 23.075C67.7848 23.2624 67.5443 23.53 67.4642 23.878L67.4107 24.226C67.4107 24.467 67.4642 24.6811 67.5978 24.8953V24.8953Z" fill="#131309"/>
<path d="M76.3614 27.705C76.2813 30.0607 76.4683 32.4164 76.9225 34.7185L79.4875 33.9958C79.4875 33.9958 79.434 33.8084 79.4073 33.7013C79.3272 33.4068 79.4073 33.9422 79.4073 33.6478C79.4073 33.4336 79.4073 33.2462 79.4073 33.0321C79.4073 32.9785 79.4073 32.925 79.4073 32.8715C79.4073 32.7644 79.4073 32.7912 79.4073 32.9785L79.4608 32.6841C79.5142 32.4967 79.5676 32.2825 79.6478 32.0952C79.5676 32.3093 79.6211 32.1755 79.6745 32.0416C79.7279 31.9613 79.7814 31.8542 79.8348 31.7739C79.8883 31.6936 79.9417 31.6133 79.9951 31.5062C80.1287 31.2921 79.8883 31.6133 79.9951 31.5062C80.1287 31.3724 80.289 31.2118 80.4226 31.0779C80.5028 31.0244 80.4761 31.0244 80.3425 31.1315C80.3959 31.1047 80.4226 31.0779 80.4761 31.0512C80.5562 30.9976 80.6364 30.9441 80.7432 30.8906C80.8234 30.837 80.9036 30.8102 80.9837 30.7835C81.2509 30.6496 80.7967 30.837 81.0372 30.7835C81.1975 30.7299 81.4914 30.5961 81.625 30.6229C81.4646 30.6229 81.4379 30.6229 81.5181 30.6229C81.5715 30.6229 81.625 30.6229 81.6784 30.6229C81.7853 30.6229 81.8921 30.6229 81.999 30.6229C82.1059 30.6229 82.2128 30.6229 82.3196 30.6229C82.667 30.6229 82.0525 30.5693 82.3731 30.6229C82.5868 30.6764 82.7739 30.7032 82.9876 30.7835C83.0678 30.7835 83.3617 30.9441 83.0678 30.7835C83.1746 30.837 83.2548 30.8638 83.3349 30.9173C83.4151 30.9709 83.522 31.0244 83.6021 31.0779C83.6288 31.0779 83.8693 31.2653 83.709 31.1582C83.5487 31.0512 83.8159 31.2653 83.8426 31.2921C83.9227 31.3724 84.0029 31.4527 84.0831 31.5598C84.564 32.0684 85.4991 32.0684 85.9801 31.5598C86.4877 30.9976 86.4877 30.2213 85.9801 29.6592C84.3502 27.8657 81.4914 27.4106 79.3806 28.6152C77.2698 29.8198 76.2545 32.4432 76.8958 34.7453C77.0828 35.4145 77.8577 35.8964 78.5523 35.6822C79.2737 35.4413 79.6211 34.7721 79.4875 34.0225C79.2737 32.8715 79.1669 32.1487 79.0867 30.9976C79.0066 29.9001 78.9798 28.8293 79.0333 27.7318C79.0333 27.0358 78.392 26.3666 77.6973 26.3934C76.9492 26.4201 76.3881 26.9823 76.3614 27.7318V27.705Z" fill="#131309"/>
<path d="M95.2514 28.4826C93.0605 28.4022 90.9764 29.5265 89.694 31.2933C88.4916 32.953 88.0107 35.7102 89.7474 37.2093C91.6444 38.8422 94.3964 37.5037 95.6522 35.737C96.7744 34.1576 97.1217 32.0428 96.9347 30.169C96.8545 29.4462 96.3736 28.8305 95.5987 28.8305C94.8773 28.8305 94.2628 29.4462 94.2628 30.169C94.3163 32.8459 96.1331 35.3622 98.7515 36.0582C101.37 36.7542 104.229 35.4693 105.565 33.1404C106.42 31.6413 104.122 30.3028 103.267 31.8019C102.519 33.0868 100.942 33.8899 99.4729 33.4884C98.0034 33.0868 96.9614 31.6948 96.9347 30.1958H94.2628C94.3697 31.3468 94.3163 32.5782 93.8086 33.649C93.5949 34.0773 93.3277 34.5324 92.9536 34.8536C92.6597 35.0945 91.9383 35.5228 91.5375 35.2819C91.2436 35.0945 91.2703 34.5056 91.3238 34.2111C91.4039 33.649 91.6978 33.1136 92.0452 32.6853C92.8467 31.7216 94.0224 31.1862 95.2781 31.213C96.9881 31.2665 96.9881 28.5896 95.2781 28.5361L95.2514 28.4826Z" fill="#131309"/>
<path d="M115.05 26.1006C112.378 25.6723 109.412 26.8769 108.183 29.4199C107.809 30.1962 107.622 31.1064 107.889 31.9362C108.103 32.6322 108.53 33.2479 109.092 33.703C110.24 34.6399 111.683 35.0682 113.153 35.1485C114.756 35.2556 116.386 34.8273 117.802 34.051C118.416 33.703 118.657 32.8196 118.283 32.2307C117.909 31.6417 117.107 31.3741 116.466 31.7488C115.825 32.1236 115.504 32.2307 114.702 32.4181C114.569 32.4181 114.435 32.4716 114.302 32.4984C114.569 32.4716 114.061 32.4984 114.008 32.4984C113.66 32.4984 113.313 32.4984 112.966 32.4984C112.805 32.4984 112.779 32.4984 112.939 32.4984C112.886 32.4984 112.805 32.4984 112.752 32.4716C112.592 32.4448 112.458 32.4181 112.298 32.3645C112.137 32.311 111.95 32.2842 111.79 32.2307C111.71 32.2039 111.63 32.1771 111.55 32.1504C111.683 32.2039 111.683 32.2039 111.55 32.1504C111.309 32.0165 111.069 31.8827 110.828 31.7221C111.069 31.8827 110.695 31.5882 110.668 31.5347C110.561 31.4276 110.561 31.4276 110.668 31.5347C110.615 31.4811 110.588 31.4008 110.534 31.3473C110.454 31.2134 110.454 31.2134 110.534 31.3473C110.534 31.267 110.481 31.2134 110.481 31.1331C110.454 30.9725 110.454 30.9993 110.481 31.1331C110.481 31.0528 110.481 30.9725 110.481 30.8922C110.454 31.1064 110.561 30.7316 110.561 30.7048C110.508 30.8654 110.721 30.4371 110.748 30.3836C110.775 30.3301 111.069 29.9553 110.882 30.1695C110.989 30.0356 111.095 29.9285 111.202 29.8215C111.282 29.7411 111.363 29.6608 111.47 29.5805C111.523 29.527 111.576 29.4735 111.657 29.4199C111.55 29.5002 111.55 29.5002 111.657 29.4199C111.924 29.2593 112.191 29.0987 112.458 28.9648C112.592 28.9113 112.592 28.9113 112.458 28.9648C112.538 28.9381 112.592 28.9113 112.672 28.8845C112.779 28.8578 112.886 28.8042 113.019 28.7775C113.179 28.7239 113.313 28.6972 113.473 28.6704C113.634 28.6704 113.634 28.6704 113.473 28.6704C113.554 28.6704 113.634 28.6704 113.714 28.6704C113.874 28.6704 114.034 28.6704 114.195 28.6704C114.248 28.6704 114.756 28.7239 114.435 28.6704C115.13 28.7775 115.905 28.483 116.092 27.7335C116.225 27.091 115.905 26.2076 115.157 26.0738L115.05 26.1006Z" fill="#131309"/>
<path d="M118.336 18.9522C119.325 23.8509 120.581 28.6693 122.103 33.4074C122.638 35.0404 125.203 34.3444 124.668 32.6847C123.146 27.9466 121.89 23.1014 120.901 18.2294C120.554 16.543 117.989 17.2657 118.336 18.9522Z" fill="#131309"/>
<path d="M129.344 31.3464C130.707 31.8818 132.203 32.1227 133.646 31.9888C135.089 31.855 136.772 31.4802 137.707 30.1685C138.642 28.8569 138.188 27.0901 137.173 25.9926C136.157 24.895 134.474 24.4667 133.005 24.3864C129.959 24.199 127.821 26.8224 127.447 29.6599C127.1 32.2565 128.169 34.8799 130.386 36.3254C132.604 37.7709 136.024 37.8245 138.241 36.1648C138.829 35.7365 139.123 35.0137 138.722 34.3445C138.402 33.7824 137.467 33.4344 136.906 33.8627C136.745 33.9965 136.558 34.1036 136.371 34.2107C136.264 34.2642 136.157 34.3177 136.051 34.398C135.837 34.5319 135.97 34.4516 136.051 34.398C135.863 34.4784 135.65 34.5319 135.463 34.5854C135.329 34.6122 135.222 34.639 135.089 34.6657C135.089 34.6657 134.661 34.7193 134.955 34.6925C134.528 34.746 134.127 34.7193 133.699 34.6925C133.272 34.6657 133.94 34.746 133.566 34.6925C133.486 34.6925 133.405 34.6657 133.325 34.639C133.085 34.5854 132.844 34.5051 132.604 34.4248C132.23 34.291 132.818 34.5319 132.47 34.3713C132.39 34.3445 132.31 34.291 132.257 34.2642C132.069 34.1571 131.909 34.05 131.722 33.943C131.402 33.7288 131.882 34.1036 131.589 33.8359C131.535 33.7824 131.455 33.7288 131.402 33.6753C131.321 33.595 131.214 33.4879 131.134 33.4076C131.108 33.3808 130.867 33.0864 131.027 33.2737C130.894 33.1131 130.787 32.9257 130.68 32.7384C130.627 32.6313 130.573 32.5242 130.493 32.3904C130.493 32.3636 130.386 32.1494 130.493 32.3636C130.413 32.1762 130.359 31.9621 130.306 31.7479C130.279 31.6141 130.253 31.507 130.226 31.3731C130.226 31.3196 130.172 30.9448 130.199 31.2125C130.146 30.7842 130.146 30.3559 130.199 29.9276C130.199 30.1685 130.199 29.9276 130.199 29.8473C130.199 29.7402 130.253 29.6332 130.253 29.5261C130.306 29.2852 130.386 29.0442 130.493 28.8033C130.413 29.0175 130.493 28.7765 130.547 28.723C130.6 28.6159 130.653 28.5356 130.707 28.4285C130.76 28.3215 130.814 28.2412 130.867 28.1609C130.894 28.1073 131.054 27.8932 130.921 28.0805C131.241 27.6522 131.562 27.3578 131.963 27.1704C131.802 27.2507 132.043 27.1436 132.069 27.1436C132.043 27.1436 132.524 27.0366 132.337 27.0633C132.604 27.0098 132.871 27.0366 133.138 27.0633C133.592 27.0901 134.073 27.2239 134.581 27.3846C134.848 27.4649 135.249 27.7326 135.463 27.9467C135.329 27.7861 135.676 28.375 135.596 28.1609C135.623 28.2412 135.65 28.3215 135.676 28.4285C135.596 28.1341 135.676 28.8033 135.676 28.5089C135.676 28.5892 135.65 28.6962 135.596 28.7498C135.65 28.6427 135.623 28.6427 135.543 28.7765C135.596 28.6962 135.596 28.6962 135.543 28.7765C135.489 28.8301 135.276 28.9639 135.463 28.8569C135.356 28.9372 135.222 28.9907 135.115 29.0442C135.329 28.9372 134.928 29.0978 134.928 29.0978C134.795 29.1245 134.661 29.1781 134.528 29.2048C134.234 29.2584 133.966 29.3119 133.779 29.3387C132.47 29.419 131.428 29.2852 130.172 28.8033C129.505 28.5356 128.703 29.0978 128.516 29.7402C128.302 30.4898 128.783 31.1322 129.451 31.3999L129.344 31.3464Z" fill="#131309"/>
<path d="M52.7957 44.7571C51.3529 49.8432 50.7651 55.1434 51.0056 60.4437C51.0857 62.1569 53.7576 62.1569 53.6774 60.4437C53.437 55.3844 53.9981 50.3518 55.3874 45.4798C55.8416 43.8201 53.2767 43.0974 52.8224 44.7571H52.7957Z" fill="#131309"/>
<path d="M45.555 55.2512C49.9636 55.733 54.3721 55.733 58.7807 55.278C59.5021 55.1977 60.1166 54.7158 60.1166 53.9395C60.1166 53.2703 59.5021 52.5208 58.7807 52.6011C54.3721 53.0561 49.9368 53.0294 45.555 52.5743C44.8336 52.494 44.2191 53.2435 44.2191 53.9127C44.2191 54.689 44.8336 55.1709 45.555 55.2512Z" fill="#131309"/>
<path d="M61.6663 44.8123C61.5594 49.6842 61.5327 54.583 61.5861 59.4549C61.5861 61.2217 64.0709 61.1146 64.258 59.4549C64.4183 58.1432 64.7122 55.9482 66.155 55.386C66.9031 55.0916 67.0634 56.1623 67.197 56.7245C67.5176 57.9291 67.5978 59.1605 67.5176 60.4186C67.4107 62.1318 70.0826 62.1318 70.1895 60.4186C70.3498 57.7685 69.8154 51.9596 65.8611 52.7091C62.7617 53.298 61.88 56.8048 61.5594 59.4549H64.2312C64.1778 54.583 64.2045 49.6842 64.3114 44.8123C64.3381 43.099 61.6663 43.099 61.6395 44.8123H61.6663Z" fill="#131309"/>
<path d="M72.1666 53.9673C72.3804 56.2695 72.8346 58.5716 73.5293 60.7934C73.7163 61.4359 74.3308 61.8374 74.9988 61.7571C75.7202 61.65 76.0675 61.1147 76.1477 60.4454C76.121 60.6864 76.2011 60.2581 76.2278 60.1777C76.2813 60.0171 76.3347 59.8565 76.3881 59.6959C76.4149 59.6156 76.4683 59.5353 76.3881 59.6691C76.4149 59.5888 76.4683 59.5085 76.495 59.4282C76.5752 59.2676 76.6553 59.1338 76.7622 58.9731C76.8156 58.8928 76.8691 58.8393 76.8958 58.759C76.8156 58.8661 76.8958 58.759 76.9225 58.7322C77.0294 58.5984 77.163 58.4645 77.2698 58.3575C77.3233 58.3039 77.4034 58.2504 77.4569 58.1701C77.5103 58.1165 77.5905 58.0362 77.4836 58.1433C77.6439 58.0362 77.8042 57.9291 77.9645 57.8221C78.0447 57.7685 78.1248 57.7418 78.205 57.6882C78.205 57.6882 78.4455 57.5812 78.3653 57.6079C78.2851 57.6347 78.4989 57.5544 78.5256 57.5544C78.6058 57.5276 78.7126 57.5008 78.7928 57.4741C79.2203 57.3402 79.2203 57.3402 79.6745 57.3402C80.3158 57.3402 80.957 57.4741 81.4914 57.7418C82.1326 58.063 82.9342 57.9024 83.3082 57.2599C83.6556 56.671 83.4685 55.7609 82.8273 55.4396C80.8768 54.4492 78.5256 54.4224 76.6019 55.5199C74.785 56.5639 73.7163 58.411 73.4491 60.4722L76.0675 60.1242C75.453 58.1165 74.9988 56.0285 74.8117 54.0209C74.7316 53.3249 74.2507 52.6556 73.4758 52.6824C72.8079 52.7092 72.0597 53.2713 72.1399 54.0209L72.1666 53.9673Z" fill="#131309"/>
<path d="M83.4151 58.3303C84.7778 58.9193 86.2206 59.2405 87.7168 59.1066C89.0527 58.9996 90.5222 58.598 91.2436 57.3667C92.0452 56.0282 91.5375 54.3685 90.3886 53.4048C89.5069 52.6553 88.3313 52.2538 87.1557 52.3608C84.8846 52.575 82.7472 54.1544 82.3197 56.4833C81.8654 58.9728 83.1479 61.5159 85.2854 62.8275C87.8237 64.3801 91.2169 63.8715 93.5681 62.2119C94.1559 61.7836 94.4231 61.034 94.0491 60.3916C93.7017 59.8026 92.82 59.4814 92.2322 59.9097C91.4039 60.4986 90.7894 60.7931 89.8276 60.9805C89.7474 60.9805 89.6405 61.0072 89.5336 61.034C89.0794 61.1143 89.6672 61.034 89.4001 61.034C89.1863 61.034 88.9726 61.0608 88.7588 61.0608C88.2512 61.0608 88.1443 61.0608 87.5832 60.9002C87.129 60.7663 87.0221 60.7128 86.5946 60.4719C86.5145 60.4183 86.4076 60.3648 86.3274 60.2845C86.4877 60.4183 86.3274 60.2845 86.3007 60.2845C86.1137 60.1239 85.9267 59.9365 85.7663 59.7491C85.7129 59.6956 85.6595 59.6153 85.606 59.5617C85.7396 59.7223 85.606 59.5617 85.606 59.535C85.4992 59.3476 85.3656 59.187 85.2854 58.9996C85.2587 58.9193 85.2053 58.839 85.1785 58.7587C85.2854 58.9996 85.1251 58.6248 85.1251 58.598C85.0449 58.4107 85.0182 58.1965 84.9648 57.9823C84.8846 57.6076 84.9648 58.143 84.9648 57.902C84.9648 57.795 84.9648 57.6879 84.9648 57.5808C84.9648 57.5005 84.9648 57.4202 84.9648 57.3399C84.9648 57.3399 84.9915 56.9384 84.9648 57.1525C84.9381 57.3667 85.0182 56.9384 85.0182 56.9651C85.0182 56.8848 85.0717 56.8045 85.0717 56.7242C85.0717 56.7242 85.2053 56.3494 85.1251 56.5636C85.0717 56.7242 85.2053 56.403 85.232 56.3762C85.2854 56.2959 85.5526 55.9211 85.3656 56.1353C85.4724 56.0014 85.606 55.8676 85.7396 55.7337C85.7931 55.6802 85.8465 55.6267 85.8999 55.5999C85.6862 55.7605 85.8999 55.5999 85.9534 55.5999C86.1404 55.4928 86.3007 55.3858 86.4877 55.3054C86.7015 55.1984 86.5145 55.3054 86.4877 55.3054C86.5946 55.2787 86.7015 55.2251 86.8084 55.1984C86.942 55.1448 87.1023 55.1181 87.2359 55.0913C86.9152 55.1716 87.2359 55.0913 87.316 55.0913C87.3962 55.0913 87.4496 55.0913 87.5298 55.0913C87.6099 55.0913 87.6634 55.0913 87.7435 55.0913C88.0107 55.0913 87.5298 55.011 87.8771 55.0913C88.0374 55.1448 88.1977 55.1716 88.3313 55.2251C88.0374 55.1181 88.5183 55.359 88.5985 55.3858C88.3848 55.2519 88.839 55.6267 88.8123 55.5731C88.8924 55.6802 88.9993 55.8944 88.9993 55.9747C89.026 55.7337 88.9993 55.9747 88.9993 56.0014C89.026 55.8676 88.9993 55.8676 88.9993 56.0282L89.0527 55.9211L88.9993 56.0282C88.9993 56.0282 89.0794 55.9211 88.9993 56.0282L88.9191 56.1085C88.9191 56.1085 89.026 56.0282 88.9191 56.1085C88.839 56.1353 88.7855 56.1888 88.7054 56.2156C88.9191 56.1085 88.6252 56.2424 88.5451 56.2691C88.4382 56.2959 88.3313 56.3227 88.2512 56.3494C88.1977 56.3494 87.9038 56.403 87.984 56.403C86.9152 56.5636 85.7931 56.403 84.8846 56.0014C84.2167 55.707 83.4418 55.8141 83.0678 56.4833C82.7472 57.0454 82.8807 58.0359 83.5487 58.3036L83.4151 58.3303Z" fill="#131309"/>
<path d="M95.5186 58.1147C96.8812 58.302 98.2973 58.543 99.6332 58.0611C100.809 57.6596 101.797 56.803 102.225 55.6519C103.187 53.1089 100.649 50.7799 98.1904 51.235C95.5186 51.7169 94.3697 54.6079 94.8506 57.0439C95.3316 59.4799 97.1751 61.4876 99.5264 62.1568C102.412 62.9866 105.672 62.3442 108.37 61.1396C109.038 60.8451 109.198 59.8814 108.851 59.3193C108.45 58.65 107.676 58.543 107.034 58.8374C105.485 59.5334 103.775 59.8814 102.065 59.8279C100.622 59.8011 99.2325 59.4531 98.2973 58.2753C97.5225 57.2581 96.9614 55.5448 97.8431 54.4473C98.0034 54.2331 98.1904 54.0725 98.4309 53.9655C98.5912 53.8852 98.8851 53.8316 98.9386 53.8316C99.3661 53.8852 99.7668 54.2331 99.7936 54.5544C99.7936 54.6882 99.7401 54.8756 99.5798 55.0362C99.4195 55.1968 99.1523 55.411 98.9386 55.4913C98.137 55.8125 97.095 55.6519 96.2667 55.5448C95.5453 55.4378 94.8239 55.7322 94.6102 56.4817C94.4499 57.1242 94.8239 58.0344 95.5453 58.1414L95.5186 58.1147Z" fill="#131309"/>
<path d="M126.165 44.383C124.695 48.4519 124.428 52.842 125.283 57.0983L127.714 56.0543C126.699 53.8057 124.909 51.8516 122.344 51.5839C119.779 51.3162 118.096 53.1633 117.241 55.3583C116.893 56.2952 116.546 57.4195 116.573 58.4368C116.626 59.9091 117.668 60.8192 119.084 60.9531C121.729 61.2208 124.642 60.6051 127.127 59.7217C128.73 59.1595 128.035 56.5629 126.405 57.1519C124.615 57.7675 122.771 58.1959 120.874 58.2762C120.393 58.2762 119.886 58.3297 119.405 58.2762C119.325 58.2762 119.191 58.2494 119.111 58.2494C119.485 58.2494 119.111 58.7045 119.245 58.1958C119.432 57.5534 119.512 56.8842 119.752 56.2417C120.18 55.0639 120.955 54.0199 122.317 54.234C123.894 54.5017 124.802 56.0276 125.39 57.366C125.657 57.9549 126.512 58.1691 127.046 57.9014C127.688 57.6337 127.955 56.9912 127.821 56.322C127.046 52.5476 127.394 48.6661 128.703 45.0255C128.943 44.3563 128.436 43.5532 127.768 43.3658C127.02 43.1516 126.378 43.6067 126.111 44.3027L126.165 44.383Z" fill="#131309"/>
<path d="M136.264 51.0483C134.127 50.5664 131.909 51.3695 130.547 53.0827C129.184 54.7959 128.81 57.5531 130.493 59.186C131.909 60.578 134.287 60.7386 135.97 59.7214C138.001 58.5168 138.829 56.0808 138.883 53.859C138.909 52.119 136.371 52.1726 136.211 53.859C135.97 56.5091 137.627 59.1057 140.085 60.0427C142.41 60.9528 145.322 60.1497 146.872 58.1956C147.326 57.6334 147.433 56.8571 146.872 56.295C146.391 55.8131 145.429 55.7328 144.974 56.295C144.013 57.4728 142.463 58.0885 140.993 57.5264C139.524 56.9642 138.749 55.3581 138.883 53.8322H136.211C136.184 55.0368 135.864 56.4556 134.848 57.2319C134.207 57.7137 133.165 57.8476 132.497 57.3657C131.642 56.7501 132.043 55.3848 132.604 54.6888C133.299 53.8322 134.447 53.3236 135.516 53.5645C137.199 53.9393 137.894 51.3695 136.238 50.9947L136.264 51.0483Z" fill="#131309"/>
<path d="M146.578 52.2526C147.192 55.4114 148.394 58.4898 150.104 61.2203C150.479 61.8359 151.307 62.0769 151.921 61.7021C152.536 61.3273 152.776 60.4975 152.402 59.8818C150.772 57.2852 149.73 54.5815 149.143 51.5566C149.009 50.8606 148.154 50.4056 147.486 50.6197C146.765 50.8606 146.417 51.5299 146.551 52.2794L146.578 52.2526Z" fill="#131309"/>
<path d="M154.807 51.5305C153.738 55.5726 151.814 59.4006 149.116 62.6129C147.833 64.1387 146.31 65.8252 144.6 66.8692C143.639 67.4581 142.41 67.4313 141.341 67.7258C140.272 68.0202 139.177 68.5021 138.161 69.0374C136.665 69.8673 138.001 72.1694 139.497 71.3396C140.593 70.7507 141.715 70.3224 142.944 70.0814C144.173 69.8405 145.162 69.7067 146.177 69.0107C148.047 67.7258 149.73 66.0125 151.173 64.2726C154.086 60.7658 156.223 56.6701 157.372 52.2533C157.799 50.5936 155.234 49.8708 154.807 51.5305V51.5305Z" fill="#131309"/>
<path d="M166.67 45.6417C165.735 48.5327 164.96 51.5041 164.372 54.5022C164.239 55.1982 164.559 55.9745 165.307 56.1619C165.975 56.3225 166.803 55.9745 166.964 55.225C167.552 52.2269 168.3 49.2823 169.262 46.3644C169.475 45.6952 169.021 44.8654 168.326 44.7048C167.605 44.5442 166.91 44.9189 166.67 45.6417Z" fill="#131309"/>
<path d="M162.849 61.2472L161.967 62.1306C161.967 62.1306 161.754 62.3983 161.7 62.5589C161.62 62.7195 161.567 62.8801 161.593 63.0675C161.593 63.2549 161.62 63.4155 161.7 63.5761C161.754 63.7368 161.834 63.8974 161.967 64.0045L162.235 64.2186C162.448 64.3524 162.662 64.406 162.903 64.406L163.25 64.3525C163.464 64.2989 163.677 64.1651 163.838 64.0045L164.719 63.1211C164.719 63.1211 164.933 62.8534 164.987 62.6928C165.067 62.5322 165.12 62.3715 165.094 62.1842C165.094 61.9968 165.067 61.8362 164.987 61.6755C164.933 61.5149 164.853 61.3543 164.719 61.2472L164.452 61.0331C164.239 60.8992 164.025 60.8457 163.784 60.8457L163.437 60.8992C163.223 60.9528 163.009 61.0866 162.849 61.2472Z" fill="#131309"/>
</g>
<defs>
<clipPath id="clip0_1186_5885">
<rect width="220" height="258" fill="white"/>
</clipPath>
</defs>
</svg>
