<svg width="191" height="169" viewBox="0 0 191 169" fill="none" xmlns="http://www.w3.org/2000/svg">
<g clip-path="url(#clip0_775_2882)">
<g clip-path="url(#clip1_775_2882)">
<path d="M56.0439 42.3603V44.3487C56.0439 45.2623 55.9901 46.0684 55.9363 46.9282C65.7297 47.3581 70.5187 52.7322 70.3035 64.4475H58.2501C58.6806 59.181 56.3668 56.279 52.8153 56.0641C49.1563 61.9755 42.6991 65.1462 36.4034 65.4149C33.2286 65.5224 30.5919 63.5877 30.4843 60.6857C30.3767 57.6763 31.8295 55.7954 34.4124 55.3117C40.2777 54.3444 43.7215 49.8839 43.7215 44.2949V42.3065H35.65C32.6367 42.3603 30.9686 39.512 30.9686 37.2012C30.9686 34.8904 32.3676 31.9884 35.65 31.9884H65.1916C68.474 31.9884 69.9268 34.8904 69.9268 37.2012C69.9268 39.512 68.2587 42.3603 65.1916 42.3603H56.0977H56.0439ZM39.5243 78.2051C35.9191 78.2051 33.9281 76.1629 33.9281 73.0997C33.9281 70.0365 35.9191 67.9944 39.5243 67.9944H78.1059C86.1774 67.9944 87.6302 70.1978 87.6302 77.9364V90.5116H74.7159V79.7635C74.7159 78.7962 74.1778 78.2051 73.1554 78.2051H39.5243V78.2051ZM74.1778 36.3951C74.1778 32.2034 77.1373 30 80.5811 30C84.025 30 86.9845 32.2571 86.9845 36.3951V42.0916H88.9755C92.9036 42.0916 94.0874 45.0473 94.0874 47.6268C94.0874 50.2064 92.8498 53.1621 88.9755 53.1621H86.9845V65.5224H74.2316V36.3951H74.1778Z" fill="black"/>
<path d="M108.078 37.04V36.6638C108.078 32.5258 111.414 30.5911 114.858 30.6449C118.194 30.6986 121.1 32.7945 121.1 36.6638V37.04C121.1 38.9746 120.885 40.8018 120.669 42.4678C129.978 43.65 136.167 49.669 135.521 62.4592H122.929C123.521 56.6552 121.584 53.1621 117.441 52.356C113.674 59.0735 107.486 62.9966 101.352 63.6414C98.0155 64.0176 95.325 62.083 94.8407 59.8259C93.9798 56.9239 95.2712 54.0757 97.8541 53.3233C104.419 51.3887 108.078 46.1758 108.078 37.0937V37.04ZM108.186 90.5116C100.383 90.5116 98.9841 88.2008 98.9841 80.7309V75.5181C98.9841 68.0482 100.383 65.7373 108.186 65.7373H144.399C152.202 65.7373 153.601 68.0482 153.601 75.5181V90.5116H108.186V90.5116ZM113.244 81.4295H140.956V76.3779C140.956 74.9807 140.633 74.7119 139.341 74.7119H113.244C111.952 74.7119 111.683 74.9807 111.683 76.3779V79.6561C111.683 81.2145 111.952 81.3758 113.244 81.3758V81.4295ZM140.256 36.3951C140.256 32.2034 143.377 30 146.767 30C150.157 30 153.278 32.2571 153.278 36.3951V63.319H140.256V36.3951V36.3951Z" fill="black"/>
<path d="M43.2372 101.528V101.152C43.2372 97.0142 46.4658 95.0795 49.9096 95.1333C53.2458 95.187 56.0977 97.2829 56.0977 101.152V101.528C56.0977 103.571 55.9901 105.451 55.6672 107.279C64.7073 108.461 70.6263 114.426 70.1959 126.948H57.7658C58.1425 121.412 56.3668 117.973 52.4925 117.167C48.8334 123.723 42.9143 127.485 36.8876 128.13C33.5514 128.452 30.861 126.571 30.3767 124.314C29.5157 121.412 30.8071 118.51 33.39 117.812C40.0624 115.931 43.3448 110.825 43.3448 101.582L43.2372 101.528ZM43.6139 155C35.8115 155 34.4124 152.689 34.4124 145.219V139.953C34.4124 132.483 35.8115 130.172 43.6139 130.172H78.1597C85.9621 130.172 87.3612 132.483 87.3612 139.953V155.054H43.6139V155ZM48.672 145.918H74.6621V140.813C74.6621 139.415 74.3392 139.147 73.0478 139.147H48.672C47.3805 139.147 47.1115 139.415 47.1115 140.813V144.144C47.1115 145.703 47.3805 145.864 48.672 145.864V145.918ZM74.2316 100.883C74.2316 96.6918 77.1911 94.4884 80.635 94.4884C84.0788 94.4884 87.0383 96.7455 87.0383 100.883V105.666H89.0293C92.9574 105.666 94.1412 108.622 94.1412 111.202C94.1412 113.781 92.9036 116.737 89.0293 116.737H87.0383V127.807H74.2854V100.883H74.2316Z" fill="black"/>
<path d="M96.0783 109.374C96.0783 99.1101 103.45 95.187 114.481 95.187C125.512 95.187 132.884 99.1101 132.884 109.374V111.094C132.884 121.359 125.512 125.282 114.481 125.282C103.45 125.282 96.0783 121.359 96.0783 111.094V109.374V109.374ZM107.755 155C101.89 155 98.6074 150.862 98.6074 146.24V145.488C98.6074 140.866 101.89 137.857 107.755 137.857H140.202V136.191C140.202 135.439 139.987 135.17 139.18 135.17H102.858C100.329 135.17 99.3069 133.289 99.3069 131.354C99.3069 129.527 100.383 127.592 102.858 127.592H145.476C151.233 127.592 153.332 129.258 153.332 134.364V144.682H113.62C112.652 144.682 112.221 145.273 112.221 145.918V146.133C112.221 146.778 112.652 147.369 113.62 147.369H151.287C153.87 147.369 154.946 149.357 154.946 151.292C154.946 153.119 153.924 155.054 151.287 155.054H107.755V155ZM108.777 111.578C108.777 114.802 111.037 116.199 114.481 116.199C117.925 116.199 120.185 114.802 120.185 111.578V108.945C120.185 105.774 117.925 104.323 114.481 104.323C111.037 104.323 108.777 105.828 108.777 108.945V111.578V111.578ZM140.256 100.883C140.256 96.6918 143.377 94.4884 146.767 94.4884C150.157 94.4884 153.278 96.7455 153.278 100.883V125.55H140.256V100.883V100.883Z" fill="black"/>
</g>
<path d="M156.252 168H32.8106C25.7415 168 20 162.278 20 155.233V32.2175C20 25.1727 25.7415 19.451 32.8106 19.451H156.252C163.321 19.451 169.063 25.1727 169.063 32.2175V155.233C169.063 162.278 163.321 168 156.252 168ZM32.8106 26.6031C29.6887 26.6031 27.1768 29.1421 27.1768 32.2175V155.233C27.1768 158.345 29.7246 160.848 32.8106 160.848H156.252C159.374 160.848 161.886 158.309 161.886 155.233V32.2175C161.886 29.1064 159.338 26.6031 156.252 26.6031H32.8106V26.6031Z" fill="black"/>
<path d="M177.652 20C175.624 20 173.432 19.5193 172.391 18.0772C171.789 17.276 171.898 16.1009 172.61 15.4065C173.268 14.8724 174.145 14.8724 174.802 15.0326C175.241 15.1395 175.569 15.4599 175.789 15.6202C176.282 15.9407 176.83 15.9941 177.542 15.9941C178.693 15.9941 179.569 15.1395 179.569 13.9644C179.569 12.6825 178.364 11.9881 176.884 11.9881H175.789C175.131 11.9881 174.528 11.454 174.364 10.8131C174.145 10.0119 174.364 9.37092 175.131 8.67656L178.583 5.63205H174.145C172.775 5.68546 172.282 4.67062 172.282 3.81602C172.282 2.96142 172.83 2 174.145 2H181.104C183.515 2 184.446 4.77745 182.912 6.273L179.789 9.31751C181.871 9.53116 183.953 11.3472 183.953 14.0712C183.953 17.8101 181.049 19.9466 177.597 19.9466L177.652 20Z" fill="black"/>
</g>
<defs>
<clipPath id="clip0_775_2882">
<rect width="166" height="166" fill="white" transform="translate(20 2)"/>
</clipPath>
<clipPath id="clip1_775_2882">
<rect width="125" height="125" fill="white" transform="translate(30 30)"/>
</clipPath>
</defs>
</svg>
