<svg width="166" height="166" viewBox="0 0 166 166" fill="none" xmlns="http://www.w3.org/2000/svg">
<g clip-path="url(#clip0_329_6103)">
<path d="M34.5205 49.7428C33.1928 53.1758 31.1833 56.1439 28.4202 58.6829C25.693 61.2219 22.2482 63.1172 18.1215 64.3688L12.7747 57.0737C16.3273 56.0366 19.2339 54.5347 21.5305 52.6036C23.8271 50.6726 25.5136 48.4912 26.5543 46.131C27.5949 43.735 28.1332 41.2676 28.1332 38.6928V35.1525H36.4583V38.6928C36.4583 42.6265 35.8124 46.3098 34.4846 49.7428H34.5205ZM50.8478 39.8014H15.4661V32.2559H50.8478V39.8014ZM65.5244 89.2581H55.3333V75.24H21.6022V67.7303H65.5603V89.2581H65.5244ZM39.939 45.7376C40.9438 47.9548 42.5227 49.9931 44.7475 51.8169C46.9723 53.6407 49.7713 55.0711 53.2521 56.0724L48.1206 63.3675C44.0657 62.1517 40.7285 60.3279 38.0372 57.8604C35.3818 55.3929 33.3722 52.5321 32.1163 49.2779C30.8245 46.0237 30.1786 42.5192 30.2144 38.7286V35.1168H38.5037V38.7286C38.5037 41.1603 38.9702 43.4847 39.9749 45.7376H39.939ZM65.5244 65.3344H55.3333V28.966H65.5244V65.3701V65.3344ZM73.9213 50.9586H62.6537V43.1629H73.9213V50.9586Z" fill="black"/>
<path d="M97.6407 47.8475C96.313 51.209 94.2317 54.1056 91.4328 56.6088C88.6338 59.112 85.1172 60.9358 80.8828 62.1159L75.9308 54.7135C79.4833 53.748 82.4258 52.3175 84.7224 50.4938C87.019 48.67 88.6697 46.5959 89.7103 44.2714C90.751 41.9828 91.2533 39.5511 91.2533 37.0478V31.2546H99.6502V37.0478C99.6502 40.91 98.9684 44.5218 97.6407 47.8833V47.8475ZM130.834 88.6859H87.0549V65.5847H130.834V88.6859ZM103.31 43.9496C104.315 46.0952 105.93 48.0263 108.119 49.7786C110.308 51.4951 113.143 52.854 116.588 53.7837L111.707 61.0431C107.545 59.9345 104.1 58.218 101.373 55.8936C98.6455 53.5692 96.636 50.7799 95.3441 47.5972C94.0523 44.4145 93.4064 40.91 93.4064 37.0478V31.2546H101.875V37.0478C101.875 39.4795 102.342 41.804 103.346 43.9496H103.31ZM97.0666 81.1405H120.894V73.0229H97.0666V81.1405ZM130.834 63.0457H120.642V29.0733H130.834V63.0099V63.0457Z" fill="black"/>
<path d="M34.7359 112.896C33.444 116.436 31.4345 119.547 28.6714 122.193C25.9442 124.875 22.4635 126.842 18.3009 128.201L12.8465 120.727C16.4349 119.654 19.3774 118.081 21.674 116.078C23.9706 114.076 25.6572 111.823 26.6619 109.32C27.7026 106.816 28.2049 104.17 28.2408 101.381V96.5175H36.6736V101.381C36.6736 105.529 35.9918 109.355 34.7 112.896H34.7359ZM65.5603 153.019H22.7864V130.311H65.5603V153.019ZM39.939 108.533C40.9079 110.857 42.4868 112.967 44.6399 114.827C46.7929 116.686 49.5919 118.117 53.0009 119.082L47.5824 126.449C43.671 125.162 40.4055 123.302 37.8578 120.799C35.2741 118.296 33.3723 115.399 32.1522 112.037C30.9321 108.676 30.3221 105.028 30.3221 101.059V96.5175H38.5037V101.059C38.5037 103.705 38.9702 106.209 39.939 108.533ZM32.7981 145.474H55.5128V137.785H32.7981V145.474ZM65.5603 128.094H55.3692V93.3348H65.5603V128.094ZM73.9572 114.326H62.6896V106.709H73.9572V114.326Z" fill="black"/>
<path d="M103.777 96.7678C106.432 97.9479 108.55 99.6286 110.057 101.738C111.564 103.848 112.353 106.244 112.353 108.891C112.353 111.537 111.6 113.897 110.057 115.971C108.55 118.081 106.432 119.726 103.777 120.906C101.121 122.122 98.1431 122.694 94.8418 122.694C91.5404 122.694 88.5262 122.086 85.8348 120.906C83.1435 119.726 81.0623 118.045 79.5192 115.971C78.0121 113.861 77.2227 111.501 77.2227 108.891C77.2227 106.28 77.9762 103.848 79.5192 101.738C81.0623 99.6286 83.1794 97.9479 85.8348 96.7678C88.4903 95.5877 91.5045 94.9798 94.8059 94.9798C98.1072 94.9798 101.05 95.5877 103.741 96.7678H103.777ZM130.869 142.648H97.0666V149.443H87.1626V135.818H120.714V132.922H87.019V125.698H130.869V142.648ZM90.8586 103.419C89.7103 103.884 88.7773 104.599 88.0955 105.529C87.4137 106.459 87.0908 107.603 87.1267 108.891C87.1267 110.178 87.4496 111.322 88.0955 112.252C88.7773 113.182 89.6744 113.897 90.8586 114.398C92.0069 114.898 93.3705 115.149 94.8777 115.149C96.3848 115.149 97.7125 114.898 98.8608 114.398C100.009 113.897 100.906 113.182 101.552 112.252C102.198 111.322 102.521 110.178 102.521 108.891C102.521 107.603 102.198 106.459 101.552 105.529C100.906 104.599 100.009 103.884 98.8608 103.419C97.7125 102.954 96.3848 102.704 94.8777 102.704C93.3705 102.704 92.0428 102.954 90.8586 103.419ZM132.448 153.055H87.1626V145.652H132.448V153.055ZM130.869 123.374H120.678V93.3705H130.869V123.374Z" fill="black"/>
<path d="M136.252 166H12.8106C5.74146 166 0 160.278 0 153.234V30.2176C0 23.1728 5.74146 17.4511 12.8106 17.4511H136.252C143.321 17.4511 149.063 23.1728 149.063 30.2176V153.234C149.063 160.278 143.321 166 136.252 166ZM12.8106 24.6032C9.68872 24.6032 7.17683 27.1422 7.17683 30.2176V153.234C7.17683 156.345 9.7246 158.848 12.8106 158.848H136.252C139.374 158.848 141.886 156.309 141.886 153.234V30.2176C141.886 27.1064 139.338 24.6032 136.252 24.6032H12.8106Z" fill="black"/>
<path d="M154.696 17.3081C153.584 16.8432 152.723 16.2352 152.077 15.4127C151.431 14.5903 151.108 13.6962 151.108 12.6234H155.558C155.558 13.0168 155.701 13.3744 155.952 13.6605C156.204 13.9466 156.562 14.1969 156.993 14.3399C157.424 14.5187 157.926 14.5903 158.464 14.5903C159.003 14.5903 159.505 14.483 159.936 14.3042C160.366 14.1254 160.725 13.875 160.94 13.5532C161.192 13.2314 161.299 12.8738 161.299 12.4446C161.299 12.0155 161.156 11.6579 160.904 11.3361C160.653 11.0142 160.259 10.7639 159.792 10.5851C159.29 10.4063 158.716 10.299 158.07 10.299H156.24V7.33089H158.07C158.644 7.33089 159.146 7.25937 159.577 7.08056C160.007 6.90176 160.366 6.65144 160.617 6.32959C160.869 6.00775 160.976 5.65015 160.976 5.22102C160.976 4.82765 160.869 4.47005 160.689 4.14821C160.51 3.82636 160.187 3.6118 159.792 3.433C159.397 3.25419 158.967 3.18267 158.464 3.18267C157.962 3.18267 157.495 3.25419 157.065 3.433C156.634 3.6118 156.311 3.86212 156.06 4.14821C155.809 4.47005 155.665 4.82765 155.665 5.22102H151.431C151.431 4.21973 151.754 3.28996 152.364 2.50323C152.974 1.68073 153.799 1.07281 154.876 0.643682C155.952 0.214557 157.137 -0.0357666 158.464 -0.0357666C159.792 -0.0357666 160.976 0.178796 161.981 0.607922C163.022 1.03705 163.811 1.64497 164.385 2.39594C164.959 3.14691 165.246 4.00516 165.246 4.93494C165.246 5.57862 165.103 6.15079 164.78 6.65144C164.457 7.15208 164.026 7.58121 163.488 7.90305C162.914 8.2249 162.268 8.43946 161.55 8.54674V8.68978C162.483 8.79706 163.309 9.01163 163.955 9.36923C164.601 9.72684 165.103 10.1917 165.462 10.7639C165.785 11.3361 165.964 11.9797 165.964 12.695C165.964 13.6962 165.641 14.5903 164.995 15.377C164.349 16.1637 163.452 16.7716 162.304 17.2365C161.156 17.7014 159.864 17.916 158.428 17.916C156.993 17.916 155.737 17.7014 154.625 17.2365L154.696 17.3081Z" fill="black"/>
</g>
<defs>
<clipPath id="clip0_329_6103">
<rect width="166" height="166" fill="white"/>
</clipPath>
</defs>
</svg>
