<svg width="112" height="71" viewBox="0 0 112 71" fill="none" xmlns="http://www.w3.org/2000/svg">
<rect x="20" y="20" width="72" height="32" rx="2" fill="#70CCA6"/>
<g clip-path="url(#clip0_35_313)">
<path fill-rule="evenodd" clip-rule="evenodd" d="M31.4643 30.6724C31.4643 30.5293 31.5201 30.392 31.6196 30.2907C31.719 30.1894 31.8542 30.1327 31.9951 30.1327H33.1105C33.2533 30.1299 33.391 30.1856 33.4926 30.2872C33.5942 30.3889 33.6516 30.5274 33.6516 30.6724C33.6516 30.8173 33.5942 30.9559 33.4926 31.0575C33.3907 31.1588 33.2529 31.2145 33.1105 31.2116H31.9951C31.8542 31.2116 31.719 31.1549 31.6196 31.0537C31.5198 30.9524 31.464 30.8154 31.4643 30.6724V30.6724ZM45.3569 34.1518C45.3569 34.2948 45.3011 34.4321 45.2016 34.5331C45.1022 34.6344 44.967 34.6911 44.8261 34.6911H43.7097C43.567 34.694 43.4293 34.6382 43.3277 34.5366C43.2257 34.4353 43.1686 34.2964 43.1686 34.1515C43.1686 34.0066 43.226 33.868 43.3277 33.7664C43.4296 33.6651 43.5673 33.6093 43.7097 33.6122H44.8252C44.966 33.6122 45.1012 33.6692 45.2007 33.7702C45.3001 33.8715 45.356 34.0088 45.356 34.1518H45.3569V34.1518ZM33.3292 34.1518C33.3292 34.2948 33.2733 34.4321 33.1739 34.5331C33.0745 34.6344 32.9393 34.6911 32.7984 34.6911H32.7921C32.6046 34.6876 32.433 34.5838 32.3404 34.4184C32.2476 34.2528 32.2476 34.0502 32.3404 33.8849C32.433 33.7192 32.6049 33.6157 32.7921 33.6122H32.7975C32.9383 33.6122 33.0735 33.6692 33.173 33.7702C33.2724 33.8715 33.3282 34.0088 33.3282 34.1518H33.3292ZM38.5 39.9656C37.798 39.9656 37.1251 39.6824 36.6289 39.1784C36.1326 38.6745 35.8537 37.9909 35.8537 37.2783C35.8537 36.5657 36.1326 35.8821 36.6289 35.3782C37.1251 34.8743 37.7983 34.5911 38.5 34.5911C39.2017 34.5911 39.8749 34.8743 40.3711 35.3782C40.8674 35.8821 41.1463 36.5657 41.1463 37.2783C41.1456 37.9909 40.8665 38.6739 40.3702 39.1775C39.874 39.6814 39.2014 39.9646 38.4997 39.9652L38.5 39.9656ZM38.5 33.5122C37.5163 33.5122 36.573 33.9091 35.8776 34.6153C35.1821 35.3215 34.7913 36.2797 34.7913 37.2786C34.7913 38.2776 35.1818 39.2354 35.8776 39.9417C36.573 40.6479 37.5166 41.0448 38.5 41.0448C39.4834 41.0448 40.427 40.6479 41.1224 39.9417C41.8182 39.2354 42.2087 38.2773 42.2087 37.2786C42.2075 36.28 41.8166 35.3228 41.1212 34.6169C40.426 33.9107 39.4834 33.5138 38.5 33.5125V33.5122ZM45.9375 41.5299V33.0267C45.9369 32.8104 45.7647 32.6355 45.552 32.6352H43.0469C42.6884 32.6394 42.3383 32.526 42.0481 32.3119C41.758 32.0978 41.5437 31.7946 41.4371 31.4471L40.9982 30.078H36.0012L35.5633 31.4471C35.4563 31.7946 35.242 32.0975 34.9519 32.3116C34.662 32.5256 34.3116 32.639 33.9534 32.6349H31.4483C31.2356 32.6349 31.0631 32.8104 31.0628 33.0264V41.5293C31.0628 41.7453 31.2356 41.9205 31.4483 41.9208H45.5523C45.765 41.9201 45.9372 41.7453 45.9379 41.5293V41.5299H45.9375ZM45.5517 31.557H43.0466C42.913 31.5595 42.7822 31.5178 42.6739 31.4378C42.5657 31.3579 42.4863 31.2445 42.4474 31.1145L41.8897 29.3724C41.8552 29.2641 41.7878 29.1695 41.6971 29.1026C41.6068 29.036 41.4973 29 41.3853 29H35.6156C35.5033 29 35.3939 29.036 35.3029 29.1029C35.2122 29.1698 35.1445 29.2641 35.1097 29.3724L34.5529 31.1145C34.514 31.2445 34.4343 31.3582 34.3261 31.4381C34.2178 31.5181 34.0867 31.5598 33.9528 31.557H31.448C31.0643 31.5573 30.6961 31.7124 30.4247 31.9879C30.1534 32.2635 30.0006 32.6371 30 33.027V41.5296C30.0003 41.9192 30.1531 42.2932 30.4244 42.5687C30.6958 42.8442 31.064 42.9994 31.4477 43H45.552C45.936 42.9997 46.3039 42.8446 46.5753 42.5687C46.8469 42.2932 46.9994 41.9192 46.9997 41.5296V33.027C46.9991 32.6371 46.8463 32.2635 46.575 31.9879C46.3033 31.7124 45.9353 31.5573 45.5517 31.557V31.557Z" fill="black"/>
</g>
<path d="M54.293 31.0234C52.7051 31.0176 51.5801 32.0137 51.5859 33.4258C51.5801 34.8555 52.7051 35.8398 54.293 35.8398C55.7051 35.8398 56.7773 35.0195 56.959 33.7891H59.1328V36.1211H60.0586V30.5312H59.1328V33.0273H56.9531C56.7539 31.832 55.6875 31.0176 54.293 31.0234ZM52.4648 33.4258C52.4648 32.4648 53.2207 31.7969 54.293 31.8086C55.3418 31.7969 56.0977 32.4648 56.0977 33.4258C56.0977 34.375 55.3418 35.0605 54.293 35.0664C53.2207 35.0605 52.4648 34.375 52.4648 33.4258ZM53.3438 40.8086H60.0586V36.6484H59.1328V37.9727H54.2695V36.6484H53.3438V40.8086ZM54.2695 40.0586V38.7109H59.1328V40.0586H54.2695ZM71.212 38.8867H66.8644V36.918H70.2511V36.1562H63.7823V34.457H70.005V31.3047H62.8448V32.0664H69.1027V33.707H62.8683V36.918H65.962V38.8867H61.673V39.6602H71.212V38.8867ZM80.3381 35.5469H74.0569V32.2656H80.2327V31.5039H73.1428V36.3086H80.3381V35.5469ZM71.9241 39.5312H81.4631V38.7578H71.9241V39.5312Z" fill="black"/>
<rect x="0.5" y="0.5" width="111" height="70" rx="4.5" stroke="#9747FF" stroke-dasharray="10 5"/>
<defs>
<clipPath id="clip0_35_313">
<rect width="17" height="14" fill="white" transform="translate(30 29)"/>
</clipPath>
</defs>
</svg>
