<svg width="70" height="59" viewBox="0 0 70 59" fill="none" xmlns="http://www.w3.org/2000/svg">
<path d="M13.7512 44.5156V53H15.4621V47.4219H15.5324L17.7473 52.9648H18.9191L21.134 47.4453H21.2043V53H22.9152V44.5156H20.7355L18.3801 50.2695H18.2863L15.9309 44.5156H13.7512ZM25.2093 55.3906C26.5511 55.3848 27.2484 54.7285 27.6116 53.7031L30.096 46.6367H28.2562L26.9085 51.3242H26.8382L25.5023 46.6367H23.6859L25.971 53.1758L25.8655 53.4453C25.6546 53.9961 25.3792 54.0312 25.0335 54.0312C24.8167 54.0312 24.553 54.0254 24.3304 54.0078V55.3555C24.553 55.3789 24.8695 55.3848 25.2093 55.3906ZM30.8198 55.3906H32.5541V51.9805H32.601C32.8471 52.5078 33.3803 53.1055 34.4174 53.1055C35.8705 53.1055 37.0014 51.9512 36.9955 49.8242C37.0014 47.6445 35.8237 46.5547 34.4174 46.5547C33.3452 46.5547 32.8412 47.1875 32.601 47.7031H32.5307V46.6367H30.8198V55.3906ZM32.519 49.8125C32.5131 48.6699 32.9995 47.9375 33.8666 47.9375C34.7631 47.9375 35.2319 48.7051 35.226 49.8125C35.2319 50.9375 34.7514 51.7168 33.8666 51.7227C33.0053 51.7168 32.5131 50.9609 32.519 49.8125ZM37.6959 51.2188C37.7017 52.4785 38.5982 53.123 39.817 53.1172C40.7603 53.123 41.3697 52.707 41.6802 52.1211H41.7271V53H43.3677V48.7109C43.3736 47.1758 42.0611 46.5547 40.6724 46.5547C38.9849 46.5547 38.024 47.4219 37.9185 48.5234H39.5709C39.6646 48.0898 40.0337 47.8262 40.6255 47.8203C41.2759 47.8262 41.6392 48.1309 41.6451 48.6641V49.1797C41.3755 49.1914 40.5201 49.2324 40.063 49.2617C38.8384 49.3379 37.7017 49.8008 37.6959 51.2188ZM39.3599 51.1719C39.3599 50.6797 39.7408 50.3926 40.3443 50.3398C40.6373 50.3164 41.3814 50.2754 41.6451 50.2637V50.7266C41.6509 51.4004 41.1002 51.916 40.3091 51.9219C39.7525 51.916 39.3599 51.6582 39.3599 51.1719ZM47.4313 55.5195C49.2419 55.5195 50.5192 54.6934 50.5251 53.0703V46.6367H48.8024V47.7031H48.7321C48.4977 47.1875 47.9821 46.5547 46.9157 46.5547C45.5095 46.5547 44.3259 47.627 44.3259 49.7773C44.3259 51.8984 45.4802 52.9121 46.9157 52.9062C47.9411 52.9121 48.5036 52.3906 48.7321 51.875H48.8141V53.0352C48.8083 53.9199 48.2692 54.2656 47.4665 54.2656C46.7751 54.2656 46.2946 54.0371 46.2009 53.5273H44.4899C44.5895 54.7285 45.6735 55.5195 47.4313 55.5195ZM46.1071 49.8008C46.1012 48.7051 46.57 47.9375 47.4548 47.9375C48.3278 47.9375 48.8141 48.6699 48.8141 49.8008C48.8141 50.9316 48.322 51.5996 47.4548 51.6055C46.5759 51.5996 46.1012 50.9023 46.1071 49.8008ZM54.6355 53.1289C56.2059 53.123 57.2605 52.3613 57.5066 51.1836H55.8543C55.6844 51.5645 55.2625 51.8223 54.6707 51.8281C53.7742 51.8223 53.2059 51.2305 53.2059 50.2695H57.5535V49.7773C57.5535 47.6094 56.2352 46.5547 54.5652 46.5547C52.702 46.5547 51.4891 47.8848 51.4949 49.8477C51.4891 51.8633 52.6844 53.123 54.6355 53.1289ZM53.2059 49.1797C53.241 48.4473 53.8035 47.8496 54.6004 47.8555C55.3738 47.8496 55.907 48.4062 55.9129 49.1797H53.2059Z" fill="#70CCA6"/>
<path d="M43 28V26C43 24.9391 42.5786 23.9217 41.8284 23.1716C41.0783 22.4214 40.0609 22 39 22H31C29.9391 22 28.9217 22.4214 28.1716 23.1716C27.4214 23.9217 27 24.9391 27 26V28" stroke="#70CCA6" stroke-width="2" stroke-linecap="round" stroke-linejoin="round"/>
<path d="M35 18C37.2091 18 39 16.2091 39 14C39 11.7909 37.2091 10 35 10C32.7909 10 31 11.7909 31 14C31 16.2091 32.7909 18 35 18Z" stroke="#70CCA6" stroke-width="2" stroke-linecap="round" stroke-linejoin="round"/>
</svg>
