<svg width="67" height="59" viewBox="0 0 67 59" fill="none" xmlns="http://www.w3.org/2000/svg">
<path d="M9.95656 47.1875H11.0112C10.6948 45.4238 9.30617 44.3984 7.58937 44.3984C5.40969 44.3984 3.83352 46.0742 3.83937 48.7578C3.83352 51.4414 5.40969 53.1172 7.58937 53.1172C9.31203 53.1172 10.7066 52.0742 11.0112 50.3398H9.95656C9.70461 51.5 8.70852 52.127 7.58937 52.1328C6.05422 52.127 4.86477 50.9434 4.85891 48.7578C4.86477 46.5664 6.05422 45.3828 7.58937 45.3828C8.70852 45.3828 9.71047 46.0156 9.95656 47.1875ZM14.8405 53.1289C16.569 53.1348 17.7291 51.8223 17.7233 49.8477C17.7291 47.8613 16.569 46.5547 14.8405 46.5547C13.1061 46.5547 11.9342 47.8613 11.9342 49.8477C11.9342 51.8223 13.1061 53.1348 14.8405 53.1289ZM12.942 49.8477C12.9479 48.582 13.5455 47.4453 14.8405 47.4453C16.1237 47.4453 16.7155 48.582 16.7155 49.8477C16.7155 51.1191 16.1237 52.2383 14.8405 52.2383C13.5455 52.2383 12.9479 51.1191 12.942 49.8477ZM18.9275 53H19.9353V49.0273C19.9353 48.1016 20.6033 47.457 21.365 47.457C22.0974 47.457 22.613 47.9375 22.6072 48.6523V53H23.6267V48.8633C23.6326 48.0547 24.1365 47.457 25.0212 47.457C25.7185 47.457 26.3045 47.8203 26.3103 48.7578V53H27.3181V48.7461C27.3181 47.2461 26.5037 46.5547 25.3728 46.5547C24.4587 46.5547 23.7849 46.9766 23.4627 47.6328H23.3923C23.0935 46.9531 22.5252 46.5547 21.6931 46.5547C20.8611 46.5547 20.2459 46.9531 19.9822 47.6328H19.9002V46.6367H18.9275V53ZM28.8153 53H29.8231V49.0273C29.8231 48.1016 30.4911 47.457 31.2528 47.457C31.9852 47.457 32.5009 47.9375 32.495 48.6523V53H33.5145V48.8633C33.5204 48.0547 34.0243 47.457 34.9091 47.457C35.6063 47.457 36.1923 47.8203 36.1981 48.7578V53H37.2059V48.7461C37.2059 47.2461 36.3915 46.5547 35.2606 46.5547C34.3466 46.5547 33.6727 46.9766 33.3505 47.6328H33.2802C32.9813 46.9531 32.413 46.5547 31.5809 46.5547C30.7489 46.5547 30.1337 46.9531 29.87 47.6328H29.788V46.6367H28.8153V53ZM42.7227 50.3867C42.7168 51.5762 41.8145 52.1152 41.0938 52.1094C40.2793 52.1152 39.7109 51.5234 39.7109 50.6094V46.6367H38.7031V50.6797C38.6973 52.2969 39.5586 53.082 40.7656 53.082C41.7207 53.082 42.3535 52.5664 42.6523 51.9219H42.7227V53H43.7188V46.6367H42.7227V50.3867ZM46.2238 49.1797C46.2238 48.0781 46.9034 47.457 47.8292 47.457C48.7316 47.457 49.2706 48.043 49.2706 49.0273V53H50.2784V48.957C50.2843 47.3398 49.423 46.5547 48.1339 46.5547C47.1671 46.5547 46.5695 46.9824 46.2706 47.6328H46.1886V46.6367H45.2159V53H46.2238V49.1797ZM51.7756 53H52.7834V46.6367H51.7756V53ZM51.5764 44.9141C51.5705 45.2832 51.8928 45.582 52.2795 45.582C52.6662 45.582 52.9885 45.2832 52.9944 44.9141C52.9885 44.5391 52.6662 44.2402 52.2795 44.2461C51.8928 44.2402 51.5705 44.5391 51.5764 44.9141ZM57.0462 46.6367H55.7103V45.1133H54.6908V46.6367H53.7298V47.4805H54.6908V51.4297C54.6966 52.5547 55.5873 53.082 56.4369 53.082C56.7357 53.082 56.9818 53.0586 57.14 53.0352V52.0977C56.9935 52.1035 56.724 52.1211 56.5423 52.1211C56.1146 52.1211 55.7045 51.9863 55.7103 51.1719V47.4805H57.0462V46.6367ZM58.8716 55.3906C59.7739 55.3848 60.395 54.916 60.77 53.9141L63.4653 46.6367H62.3638L60.6294 51.6875H60.5591L58.8247 46.6367H57.7231L60.0786 53.0469L59.8911 53.5273C59.5571 54.459 59.2114 54.4824 58.8013 54.4883C58.643 54.4824 58.4145 54.4766 58.3091 54.4648V55.3672C58.438 55.3789 58.6548 55.3848 58.8716 55.3906Z" fill="#4B4B4B"/>
<path d="M43 25C43 25.5304 42.7893 26.0391 42.4142 26.4142C42.0391 26.7893 41.5304 27 41 27H29L25 31V15C25 14.4696 25.2107 13.9609 25.5858 13.5858C25.9609 13.2107 26.4696 13 27 13H41C41.5304 13 42.0391 13.2107 42.4142 13.5858C42.7893 13.9609 43 14.4696 43 15V25Z" stroke="#4B4B4B" stroke-width="2" stroke-linecap="round" stroke-linejoin="round"/>
</svg>
