<svg width="70" height="59" viewBox="0 0 70 59" fill="none" xmlns="http://www.w3.org/2000/svg">
<path d="M21.7663 46.6484H22.7975C22.7565 45.3594 21.5729 44.3984 19.9264 44.3984C18.2799 44.3984 17.0026 45.3418 17.0084 46.7773C17.0026 47.9258 17.8346 48.6055 19.1647 48.9922L20.2077 49.2734C21.0983 49.5254 21.8834 49.8418 21.8834 50.668C21.8834 51.5938 21.0045 52.1973 19.8327 52.1914C18.8248 52.1973 17.9401 51.7461 17.8522 50.7969H16.7741C16.8737 52.2031 18.0045 53.1465 19.8327 53.1523C21.8014 53.1465 22.9147 52.0742 22.9147 50.6914C22.9147 49.1035 21.4205 48.582 20.5123 48.3477L19.6686 48.1133C19.0241 47.9551 18.0338 47.6211 18.028 46.7305C18.0338 45.9219 18.7663 45.3359 19.8913 45.3359C20.9049 45.3359 21.6784 45.8164 21.7663 46.6484ZM26.8494 53.1289C28.1619 53.1348 29.1052 52.4785 29.4041 51.5117H28.3259C28.0916 51.9043 27.6111 52.2383 26.8494 52.2383C25.7185 52.2383 24.9334 51.5 24.8806 50.1523H29.4978V49.7305C29.5037 47.375 28.0916 46.5547 26.7556 46.5547C25.0271 46.5547 23.8728 47.9141 23.8728 49.8711C23.8728 51.8223 25.0095 53.1348 26.8494 53.1289ZM24.8865 49.2969C24.9568 48.3125 25.6541 47.4453 26.7556 47.4453C27.8045 47.4453 28.4724 48.2363 28.4783 49.2969H24.8865ZM33.4677 46.6367H32.1317V45.1133H31.1122V46.6367H30.1513V47.4805H31.1122V51.4297C31.118 52.5547 32.0087 53.082 32.8583 53.082C33.1571 53.082 33.4032 53.0586 33.5614 53.0352V52.0977C33.4149 52.1035 33.1454 52.1211 32.9638 52.1211C32.536 52.1211 32.1259 51.9863 32.1317 51.1719V47.4805H33.4677V46.6367ZM37.4258 46.6367H36.0898V45.1133H35.0703V46.6367H34.1094V47.4805H35.0703V51.4297C35.0762 52.5547 35.9668 53.082 36.8164 53.082C37.1152 53.082 37.3613 53.0586 37.5195 53.0352V52.0977C37.373 52.1035 37.1035 52.1211 36.9219 52.1211C36.4941 52.1211 36.084 51.9863 36.0898 51.1719V47.4805H37.4258V46.6367ZM38.6066 53H39.6144V46.6367H38.6066V53ZM38.4073 44.9141C38.4015 45.2832 38.7238 45.582 39.1105 45.582C39.4972 45.582 39.8195 45.2832 39.8253 44.9141C39.8195 44.5391 39.4972 44.2402 39.1105 44.2461C38.7238 44.2402 38.4015 44.5391 38.4073 44.9141ZM42.1077 49.1797C42.1077 48.0781 42.7873 47.457 43.7131 47.457C44.6155 47.457 45.1545 48.043 45.1545 49.0273V53H46.1623V48.957C46.1682 47.3398 45.3069 46.5547 44.0178 46.5547C43.051 46.5547 42.4534 46.9824 42.1545 47.6328H42.0725V46.6367H41.0998V53H42.1077V49.1797ZM50.2377 55.5195C51.7904 55.5195 52.9974 54.8164 53.0033 53.1758V46.6367H52.0189V47.6445H51.9369C51.7084 47.3047 51.3099 46.5547 50.0736 46.5547C48.474 46.5547 47.3548 47.7734 47.3548 49.7305C47.3548 51.7344 48.515 52.9004 50.0619 52.9062C51.2923 52.9004 51.6966 52.1797 51.9134 51.8281H51.9955V53.1172C51.9955 54.166 51.3275 54.6406 50.2377 54.6406C49.3353 54.6406 48.7318 54.3184 48.597 53.668H47.5423C47.6537 54.8457 48.6966 55.5195 50.2377 55.5195ZM48.3744 49.7656C48.3744 48.4824 48.9779 47.457 50.2025 47.457C51.3861 47.457 52.013 48.4004 52.0189 49.7656C52.013 51.166 51.3685 52.0039 50.2025 52.0039C48.9955 52.0039 48.3744 51.084 48.3744 49.7656Z" fill="black"/>
<path d="M35.5 22C36.8807 22 38 20.8807 38 19.5C38 18.1193 36.8807 17 35.5 17C34.1193 17 33 18.1193 33 19.5C33 20.8807 34.1193 22 35.5 22Z" stroke="black" stroke-width="2" stroke-linecap="round" stroke-linejoin="round"/>
<path d="M41.8909 22.0909C41.7759 22.3514 41.7417 22.6403 41.7925 22.9205C41.8432 23.2007 41.9768 23.4592 42.1759 23.6627L42.2277 23.7145C42.3883 23.875 42.5157 24.0655 42.6026 24.2751C42.6896 24.4848 42.7343 24.7096 42.7343 24.9366C42.7343 25.1636 42.6896 25.3883 42.6026 25.598C42.5157 25.8077 42.3883 25.9982 42.2277 26.1586C42.0673 26.3192 41.8768 26.4466 41.6671 26.5336C41.4574 26.6205 41.2327 26.6652 41.0057 26.6652C40.7787 26.6652 40.5539 26.6205 40.3442 26.5336C40.1346 26.4466 39.9441 26.3192 39.7836 26.1586L39.7318 26.1068C39.5283 25.9077 39.2698 25.7742 38.9896 25.7234C38.7094 25.6726 38.4205 25.7069 38.16 25.8218C37.9046 25.9313 37.6867 26.1131 37.5333 26.3448C37.3798 26.5765 37.2975 26.848 37.2964 27.1259V27.2727C37.2964 27.7308 37.1144 28.1702 36.7905 28.4941C36.4665 28.818 36.0272 29 35.5691 29C35.111 29 34.6717 28.818 34.3477 28.4941C34.0238 28.1702 33.8418 27.7308 33.8418 27.2727V27.195C33.8351 26.9091 33.7426 26.6319 33.5763 26.3993C33.4099 26.1668 33.1775 25.9896 32.9091 25.8909C32.6486 25.7759 32.3597 25.7417 32.0795 25.7925C31.7993 25.8432 31.5408 25.9768 31.3373 26.1759L31.2855 26.2277C31.125 26.3883 30.9345 26.5157 30.7249 26.6026C30.5152 26.6896 30.2904 26.7343 30.0634 26.7343C29.8364 26.7343 29.6117 26.6896 29.402 26.6026C29.1923 26.5157 29.0018 26.3883 28.8414 26.2277C28.6808 26.0673 28.5534 25.8768 28.4664 25.6671C28.3795 25.4574 28.3348 25.2327 28.3348 25.0057C28.3348 24.7787 28.3795 24.5539 28.4664 24.3442C28.5534 24.1346 28.6808 23.9441 28.8414 23.7836L28.8932 23.7318C29.0923 23.5283 29.2258 23.2698 29.2766 22.9896C29.3274 22.7094 29.2931 22.4205 29.1782 22.16C29.0687 21.9046 28.8869 21.6867 28.6552 21.5333C28.4235 21.3798 28.152 21.2975 27.8741 21.2964H27.7273C27.2692 21.2964 26.8298 21.1144 26.5059 20.7905C26.182 20.4665 26 20.0272 26 19.5691C26 19.111 26.182 18.6717 26.5059 18.3477C26.8298 18.0238 27.2692 17.8418 27.7273 17.8418H27.805C28.0909 17.8351 28.3681 17.7426 28.6007 17.5763C28.8332 17.4099 29.0104 17.1775 29.1091 16.9091C29.2241 16.6486 29.2583 16.3597 29.2075 16.0795C29.1568 15.7993 29.0232 15.5408 28.8241 15.3373L28.7723 15.2855C28.6117 15.125 28.4843 14.9345 28.3974 14.7249C28.3104 14.5152 28.2657 14.2904 28.2657 14.0634C28.2657 13.8364 28.3104 13.6117 28.3974 13.402C28.4843 13.1923 28.6117 13.0018 28.7723 12.8414C28.9327 12.6808 29.1232 12.5534 29.3329 12.4664C29.5426 12.3795 29.7673 12.3348 29.9943 12.3348C30.2213 12.3348 30.4461 12.3795 30.6558 12.4664C30.8654 12.5534 31.0559 12.6808 31.2164 12.8414L31.2682 12.8932C31.4717 13.0923 31.7302 13.2258 32.0104 13.2766C32.2906 13.3274 32.5795 13.2931 32.84 13.1782H32.9091C33.1645 13.0687 33.3824 12.8869 33.5358 12.6552C33.6893 12.4235 33.7716 12.152 33.7727 11.8741V11.7273C33.7727 11.2692 33.9547 10.8298 34.2786 10.5059C34.6026 10.182 35.0419 10 35.5 10C35.9581 10 36.3974 10.182 36.7214 10.5059C37.0453 10.8298 37.2273 11.2692 37.2273 11.7273V11.805C37.2284 12.0829 37.3107 12.3544 37.4642 12.5861C37.6176 12.8178 37.8355 12.9996 38.0909 13.1091C38.3514 13.2241 38.6403 13.2583 38.9205 13.2075C39.2007 13.1568 39.4592 13.0232 39.6627 12.8241L39.7145 12.7723C39.875 12.6117 40.0655 12.4843 40.2751 12.3974C40.4848 12.3104 40.7096 12.2657 40.9366 12.2657C41.1636 12.2657 41.3883 12.3104 41.598 12.3974C41.8077 12.4843 41.9982 12.6117 42.1586 12.7723C42.3192 12.9327 42.4466 13.1232 42.5336 13.3329C42.6205 13.5426 42.6652 13.7673 42.6652 13.9943C42.6652 14.2213 42.6205 14.4461 42.5336 14.6558C42.4466 14.8654 42.3192 15.0559 42.1586 15.2164L42.1068 15.2682C41.9077 15.4717 41.7742 15.7302 41.7234 16.0104C41.6726 16.2906 41.7069 16.5795 41.8218 16.84V16.9091C41.9313 17.1645 42.1131 17.3824 42.3448 17.5358C42.5765 17.6893 42.848 17.7716 43.1259 17.7727H43.2727C43.7308 17.7727 44.1702 17.9547 44.4941 18.2786C44.818 18.6026 45 19.0419 45 19.5C45 19.9581 44.818 20.3974 44.4941 20.7214C44.1702 21.0453 43.7308 21.2273 43.2727 21.2273H43.195C42.9171 21.2284 42.6456 21.3107 42.4139 21.4642C42.1822 21.6176 42.0004 21.8355 41.8909 22.0909V22.0909Z" stroke="black" stroke-width="2" stroke-linecap="round" stroke-linejoin="round"/>
</svg>
