<svg width="375px" height="54" viewBox="0 0 375 54" fill="none" xmlns="http://www.w3.org/2000/svg">
<rect width="375px" height="54" fill="white"/>
<g clip-path="url(#clip0_8_160)">
<path d="M83.9693 27.4734C83.9693 23.1571 80.1046 20 75.4732 20C70.8417 20 67.0383 23.1571 67.0537 27.4734C67.0537 28.846 67.4371 30.0967 68.1272 31.1643L67.5598 31.088C62.3148 30.0509 60.7812 27.0616 60.7812 23.996V20.7474H56.7785V23.996C56.7785 27.0006 55.2603 29.9289 50.276 31.0118C45.2765 29.9289 43.7582 27.0006 43.7736 23.996V20.7474H39.7709V23.996C39.7709 27.0616 38.2219 30.0509 32.9923 31.088V31.0575C28.0695 30.0662 26.5512 27.0921 26.5665 23.996V23.9655H32.3022V20.7169H16.9355V23.9807H22.4411V24.0112C22.4411 27.1073 20.9229 30.0967 16 31.0728L17.8557 34.1689C21.1682 33.3758 23.3 31.6676 24.4962 29.4103C25.677 31.6676 27.8088 33.3758 31.1367 34.1689C31.1367 34.1689 32.747 34.7027 34.94 34.2909C38.2833 33.5435 40.4917 31.9269 41.7799 29.7916C43.0528 31.9421 45.2612 33.5435 48.6198 34.2909C49.2485 34.4129 50.4601 34.5654 51.963 34.2909C55.3063 33.5435 57.5147 31.9269 58.8029 29.7916C59.9991 31.8201 62.0388 33.3605 65.0907 34.1536C65.0907 34.1536 65.2747 34.2146 65.6121 34.2909H65.6428C67.023 34.5807 70.9184 35.2517 76.0866 34.9009H76.0559C80.442 34.6417 83.9847 31.5913 84 27.4886L83.9693 27.4734ZM75.4732 31.1643C73.1574 31.1643 71.2864 29.7764 71.3018 27.4734C71.3018 25.1551 73.1574 23.8435 75.4732 23.8587C77.8042 23.8587 79.5986 25.1398 79.6139 27.4734C79.6139 29.7764 77.8196 31.1795 75.4732 31.1643Z" fill="black"/>
</g>
<defs>
<clipPath id="clip0_8_160">
<rect width="95" height="15" fill="white" transform="translate(16 19.8947)"/>
</clipPath>
</defs>
</svg>
