<svg width="375" height="54" viewBox="0 0 375 54" fill="none" xmlns="http://www.w3.org/2000/svg">
<rect width="375" height="54" fill="white"/>
<path fill-rule="evenodd" clip-rule="evenodd" d="M43.7721 25.0411C46.1189 25.2939 48.3519 26.9218 49.5975 29.7158C49.6049 29.731 49.6124 29.7466 49.6198 29.7626C50.122 30.852 50.6536 30.7931 51.69 30.4091C51.8333 30.3269 51.9906 30.2537 52.1614 30.19C54.7986 29.2185 56.7096 26.7121 56.958 22.1071C57.0536 20.6304 58.2193 19.9115 59.4997 20.0087C60.8374 20.1253 61.6782 21.019 61.6591 22.4763C61.64 23.3701 61.5635 24.2056 61.4107 25.0216V25.0411C63.9138 25.3107 66.2013 26.8378 67.3624 29.8886C67.7716 30.7743 68.0453 30.9707 69.7205 31.0137C69.3104 30.1218 69.0929 29.1367 69.0929 28.1304V26.7315C69.0929 23.2341 71.6727 20.0281 75.8578 20.0281H79.2212C83.3872 20.0281 86.0053 23.2535 86.0053 26.7315V28.1304C86.0053 31.6279 83.3872 34.8338 79.2212 34.8338H76.4245C76.3601 34.8465 76.28 34.8532 76.1827 34.8532C75.1679 34.8532 74.1616 34.8634 73.1901 34.8732C69.1303 34.9141 65.6764 34.9489 64.7358 34.2121C64.205 33.8073 63.8982 33.3246 63.7339 32.9896C63.6131 32.7811 63.5187 32.5516 63.4554 32.3079C62.9777 30.4038 61.7164 29.1797 60.073 28.8105C58.7347 31.3 56.7307 33.0265 54.6776 33.8139C54.6471 33.8455 54.6173 33.8687 54.5884 33.8817C50.9575 35.611 48.2247 35.1447 47.059 34.2315C46.1417 33.532 45.8933 32.5994 45.8933 32.5994L45.9046 32.5855C45.8708 32.4954 45.8415 32.4027 45.8169 32.3079C45.3391 30.4038 44.0779 29.1797 42.4344 28.8105C41.109 31.276 39.1307 32.9932 37.0983 33.7909C37.0605 33.8343 37.0236 33.8657 36.9881 33.8817C33.3572 35.611 30.72 35.0864 29.5543 34.1732C29.0644 33.7893 28.738 33.3665 28.5402 33.0559C28.4388 32.908 28.3496 32.7484 28.2739 32.5799C27.6624 31.2004 26.4775 30.4426 24.9105 30.2872C23.2097 32.5022 20.7254 33.9206 18.4704 34.1343C17.2092 34.2509 16.1772 33.5514 16.0244 32.4634C15.8715 31.4336 16.4448 30.5009 17.5532 30.2678C20.3241 29.6849 22.1587 27.4698 22.1778 24.4387H18.2602C16.8843 24.4387 16.3301 23.4478 16.3301 22.4763C16.3301 21.5048 16.8652 20.4944 18.2602 20.4944H30.9111C32.3061 20.4944 32.8412 21.5437 32.8412 22.4763C32.8412 23.4089 32.287 24.4387 30.9111 24.4387H26.9362C26.9362 25.2548 26.8215 26.032 26.6304 26.7509C28.8865 26.9435 30.9873 28.004 32.1777 30.1599C32.1968 30.1808 32.2141 30.2038 32.2297 30.2289C32.5923 30.8155 33.0403 30.7805 34.0273 30.423C34.1771 30.3352 34.3424 30.2573 34.5229 30.19C37.16 29.2185 39.071 26.7121 39.3195 22.1071C39.415 20.6304 40.5807 19.9115 41.8611 20.0087C43.1988 20.1253 44.0397 21.019 44.0205 22.4763C44.0014 23.3701 43.925 24.2056 43.7721 25.0216V25.0411ZM81.2469 26.6538C81.2469 25.0994 79.9665 23.8364 78.151 23.8364H76.928C75.1125 23.8364 73.8513 25.0994 73.8513 26.6538V28.2082C73.8513 29.7431 75.1125 31.0061 76.928 31.0061H78.151C79.9665 31.0061 81.2469 29.7431 81.2469 28.2082V26.6538Z" fill="black"/>
</svg>
