<svg width="17" height="14" viewBox="0 0 17 14" fill="none" xmlns="http://www.w3.org/2000/svg">
<path d="M3.14583 7.00026C3.4375 7.00026 4.05 7.00026 4.3125 7.00026C4.4 7.00026 4.45833 7.05859 4.45833 7.14609C4.54583 9.74193 6.73333 11.8128 9.3875 11.6669C11.75 11.5211 13.675 9.59609 13.7917 7.23359C13.9083 4.55026 11.7792 2.33359 9.125 2.33359C8.425 2.33359 7.75417 2.50859 7.14167 2.77109L7.66667 3.61693C7.725 3.70443 7.66667 3.82109 7.55 3.82109L4.34167 3.79193C4.25417 3.79193 4.16667 3.70443 4.225 3.58776L5.56667 0.671094C5.59583 0.583594 5.74167 0.583594 5.8 0.671094L6.35417 1.54609C7.22917 1.10859 8.22083 0.846094 9.3 0.87526C12.45 0.96276 15.075 3.52943 15.25 6.70859C15.425 10.2378 12.625 13.1253 9.125 13.1253C5.8 13.1253 3.0875 10.4711 3 7.14609C3 7.05859 3.05833 7.00026 3.14583 7.00026Z" fill="black"/>
</svg>