<svg width="155" height="32" viewBox="0 0 155 32" fill="none" xmlns="http://www.w3.org/2000/svg">
<rect width="155" height="32" rx="2" fill="#70CCA6"/>
<path d="M44.1458 16.0003C44.4375 16.0003 45.05 16.0003 45.3125 16.0003C45.4 16.0003 45.4583 16.0586 45.4583 16.1461C45.5458 18.7419 47.7333 20.8128 50.3875 20.6669C52.75 20.5211 54.675 18.5961 54.7917 16.2336C54.9083 13.5503 52.7792 11.3336 50.125 11.3336C49.425 11.3336 48.7542 11.5086 48.1417 11.7711L48.6667 12.6169C48.725 12.7044 48.6667 12.8211 48.55 12.8211L45.3417 12.7919C45.2542 12.7919 45.1667 12.7044 45.225 12.5878L46.5667 9.67109C46.5958 9.58359 46.7417 9.58359 46.8 9.67109L47.3542 10.5461C48.2292 10.1086 49.2208 9.84609 50.3 9.87526C53.45 9.96276 56.075 12.5294 56.25 15.7086C56.425 19.2378 53.625 22.1253 50.125 22.1253C46.8 22.1253 44.0875 19.4711 44 16.1461C44 16.0586 44.0583 16.0003 44.1458 16.0003Z" fill="black"/>
<path d="M70.6367 11.6445H63.4531V12.4062H69.7344V12.6875C69.7344 13.9648 69.7344 15.5234 69.3125 17.6562L70.25 17.75C70.6367 15.4824 70.6367 14 70.6367 12.6875V11.6445ZM62.4219 19.4141H71.9141V18.6523H62.4219V19.4141ZM81.5792 10.5312H80.7003V14.7266H79.1652V10.7656H78.3214V20.4102H79.1652V15.4883H80.7003V20.9492H81.5792V10.5312ZM73.0597 18.3711H73.7277C75.3273 18.3652 76.3878 18.3242 77.6417 18.0664L77.5597 17.293C76.3995 17.5273 75.4093 17.5801 73.9738 17.5859V12.5703H76.962V11.8086H73.0597V18.3711ZM92.4631 18.8867H88.1155V16.918H91.5022V16.1562H85.0334V14.457H91.2561V11.3047H84.0959V12.0664H90.3538V13.707H84.1194V16.918H87.2131V18.8867H82.9241V19.6602H92.4631V18.8867ZM104.211 10.543H103.297V16.4258H104.211V13.707H105.793V12.9336H104.211V10.543ZM96.5708 15.6289H97.4028C98.9673 15.623 100.543 15.5176 102.313 15.1602L102.196 14.3867C100.514 14.7324 98.9848 14.8496 97.4966 14.8555V11.0703H96.5708V15.6289ZM97.6138 20.8086H104.211V17H97.6138V20.8086ZM98.5161 20.0586V17.7266H103.321V20.0586H98.5161ZM111.603 11.668H106.787V12.418H110.677C110.484 14.8789 109.101 16.8887 106.33 18.2305L106.81 18.9805C109.271 17.7852 110.648 16.0859 111.246 14.1523H114.029V16.1797H111.088V16.9414H114.029V20.9492H114.943V10.5195H114.029V13.4023H111.433C111.55 12.8398 111.603 12.2598 111.603 11.668ZM124.878 14.4336H118.819V11.9141H124.737V11.1523H117.882V15.1719H124.878V14.4336ZM116.557 17.3047H120.846V20.9141H121.749V17.3047H126.096V16.5547H116.557V17.3047ZM135.433 10.5312H134.508V20.9492H135.433V10.5312ZM126.949 18.2422L127.453 18.9922C130.945 17.3164 132.34 14.6621 132.351 11.668H127.43V12.418H131.414C131.209 14.9082 129.767 16.9062 126.949 18.2422Z" fill="black"/>
</svg>
