<svg width="93" height="32" viewBox="0 0 93 32" fill="none" xmlns="http://www.w3.org/2000/svg">
<rect width="93" height="32" rx="2" fill="#DADADA"/>
<path d="M39.9258 12.207V11.0703H39.0234V12.1484C39.0176 13.7246 37.9746 15.0957 36.3984 15.6523L36.8789 16.3906C38.1152 15.9336 39.0527 14.9961 39.4922 13.7832C39.9434 14.8848 40.8633 15.7637 42.0469 16.1797L42.5273 15.4531C40.998 14.9258 39.9199 13.625 39.9258 12.207ZM37.7461 18.1133H43.6523V20.9492H44.5664V17.3633H37.7461V18.1133ZM43.6523 16.8477H44.5664V14.082H46.1367V13.2969H44.5664V10.5312H43.6523V16.8477ZM55.5792 10.5312H54.7003V20.9492H55.5792V10.5312ZM46.5441 18.1719L47.13 18.8633C48.173 18.2129 48.9288 16.9883 49.3038 15.5527C49.6671 16.877 50.3937 18.002 51.4191 18.6172L51.9816 17.9375C50.546 17.1055 49.7316 15.3066 49.7316 13.5078V12.5234H51.6417V11.7617H46.837V12.5234H48.8409V13.5078C48.8468 15.4004 47.9972 17.3047 46.5441 18.1719ZM50.8448 15.043H52.6027V20.4102H53.4698V10.7891H52.6027V14.293H50.8448V15.043Z" fill="black"/>
</svg>
