<svg width="149" height="10" viewBox="0 0 149 10" fill="none" xmlns="http://www.w3.org/2000/svg">
<path d="M1.03375 9H7.10406V7.54688H3.48297V7.5L4.77203 6.24609C6.51813 4.66406 6.98688 3.87305 6.98688 2.90625C6.98688 1.43555 5.77985 0.398438 3.96344 0.398438C2.17633 0.398438 0.945862 1.45898 0.951721 3.11719H2.6275C2.62164 2.30273 3.14313 1.79883 3.94 1.80469C4.7193 1.79883 5.28766 2.26758 5.28766 3.02344C5.28766 3.69727 4.85992 4.16602 4.06891 4.92188L1.02203 7.72266L1.03375 9ZM8.28485 9H10.0427V5.48438H13.5114V4.03125H10.0427V1.96875H13.8747V0.515625H8.28485V9ZM23.2323 3.46875H25.0136C24.7792 1.51758 23.3027 0.398438 21.3456 0.398438C19.1073 0.398438 17.3964 1.98633 17.3964 4.75781C17.3964 7.51758 19.078 9.11719 21.3456 9.11719C23.5019 9.11719 24.8202 7.6875 25.0136 6.11719L23.2323 6.10547C23.0624 7.02539 22.3359 7.55273 21.3691 7.55859C20.0741 7.55273 19.1894 6.58594 19.1894 4.75781C19.1894 2.9707 20.0624 1.96289 21.3808 1.95703C22.371 1.96289 23.0917 2.53125 23.2323 3.46875ZM26.1241 9H31.5381V7.54688H27.8819V0.515625H26.1241V9ZM34.1955 9L34.8341 7.04297H37.9045L38.5431 9H40.4298L37.5002 0.515625H35.2384L32.297 9H34.1955ZM35.2795 5.67188L36.34 2.42578H36.3986L37.4591 5.67188H35.2795ZM45.677 2.94141H47.3645C47.3411 1.44141 46.1048 0.398438 44.2239 0.398438C42.3665 0.398438 41.0071 1.42383 41.013 2.96484C41.013 4.20703 41.8919 4.92188 43.3216 5.27344L44.2473 5.49609C45.1731 5.72461 45.7005 5.99414 45.7005 6.57422C45.7005 7.20703 45.1028 7.64062 44.177 7.64062C43.2395 7.64062 42.5598 7.20703 42.5013 6.35156H40.7903C40.843 8.17383 42.1497 9.12305 44.2005 9.11719C46.2688 9.12305 47.4759 8.12695 47.4817 6.57422C47.4759 5.16211 46.3919 4.42383 44.9388 4.08984L44.177 3.90234C43.4446 3.73828 42.8118 3.46289 42.8177 2.84766C42.8235 2.28516 43.3216 1.875 44.2122 1.875C45.0735 1.875 45.6067 2.26758 45.677 2.94141ZM53.1156 2.94141H54.8031C54.7797 1.44141 53.5434 0.398438 51.6625 0.398438C49.8051 0.398438 48.4457 1.42383 48.4516 2.96484C48.4516 4.20703 49.3305 4.92188 50.7602 5.27344L51.6859 5.49609C52.6117 5.72461 53.1391 5.99414 53.1391 6.57422C53.1391 7.20703 52.5414 7.64062 51.6156 7.64062C50.6781 7.64062 49.9984 7.20703 49.9398 6.35156H48.2289C48.2816 8.17383 49.5883 9.12305 51.6391 9.11719C53.7074 9.12305 54.9145 8.12695 54.9203 6.57422C54.9145 5.16211 53.8305 4.42383 52.3773 4.08984L51.6156 3.90234C50.8832 3.73828 50.2504 3.46289 50.2563 2.84766C50.2621 2.28516 50.7602 1.875 51.6508 1.875C52.5121 1.875 53.0453 2.26758 53.1156 2.94141ZM56.9331 9.10547C57.4546 9.10547 57.9058 8.66602 57.9058 8.12109C57.9058 7.58203 57.4546 7.14258 56.9331 7.14844C56.3823 7.14258 55.937 7.58203 55.9488 8.12109C55.937 8.66602 56.3823 9.10547 56.9331 9.10547ZM63.1736 5.32031C63.1736 4.48242 63.6834 3.99609 64.4158 3.99609C65.1423 3.99609 65.5642 4.45898 65.5642 5.25V9H67.2986V4.94531C67.2986 3.45117 66.4255 2.55469 65.0955 2.55469C64.1287 2.55469 63.49 3.00586 63.197 3.75H63.1267V0.515625H61.4392V9H63.1736V5.32031ZM71.3973 9.12891C72.9677 9.12305 74.0223 8.36133 74.2684 7.18359H72.6161C72.4462 7.56445 72.0243 7.82227 71.4325 7.82812C70.536 7.82227 69.9677 7.23047 69.9677 6.26953H74.3153V5.77734C74.3153 3.60938 72.997 2.55469 71.327 2.55469C69.4638 2.55469 68.2509 3.88477 68.2567 5.84766C68.2509 7.86328 69.4462 9.12305 71.3973 9.12891ZM69.9677 5.17969C70.0028 4.44727 70.5653 3.84961 71.3622 3.85547C72.1356 3.84961 72.6688 4.40625 72.6747 5.17969H69.9677ZM74.9805 7.21875C74.9863 8.47852 75.8828 9.12305 77.1016 9.11719C78.0449 9.12305 78.6543 8.70703 78.9648 8.12109H79.0117V9H80.6523V4.71094C80.6582 3.17578 79.3457 2.55469 77.957 2.55469C76.2695 2.55469 75.3086 3.42188 75.2031 4.52344H76.8555C76.9492 4.08984 77.3184 3.82617 77.9102 3.82031C78.5605 3.82617 78.9238 4.13086 78.9297 4.66406V5.17969C78.6602 5.19141 77.8047 5.23242 77.3477 5.26172C76.123 5.33789 74.9863 5.80078 74.9805 7.21875ZM76.6445 7.17188C76.6445 6.67969 77.0254 6.39258 77.6289 6.33984C77.9219 6.31641 78.666 6.27539 78.9297 6.26367V6.72656C78.9355 7.40039 78.3848 7.91602 77.5938 7.92188C77.0371 7.91602 76.6445 7.6582 76.6445 7.17188ZM83.5909 0.515625H81.8566V9H83.5909V0.515625ZM88.1702 2.63672H86.9748V1.11328H85.2405V2.63672H84.3616V3.9375H85.2405V7.28906C85.2288 8.52539 86.0842 9.08789 87.3381 9.08203C87.7659 9.08789 88.0764 9.05273 88.2639 9.02344V7.65234C88.053 7.66992 87.7483 7.6875 87.5725 7.6875C87.2209 7.67578 86.969 7.55273 86.9748 7.04297V3.9375H88.1702V2.63672ZM91.015 5.32031C91.015 4.48242 91.5248 3.99609 92.2572 3.99609C92.9837 3.99609 93.4056 4.45898 93.4056 5.25V9H95.14V4.94531C95.14 3.45117 94.267 2.55469 92.9369 2.55469C91.9701 2.55469 91.3314 3.00586 91.0384 3.75H90.9681V0.515625H89.2806V9H91.015V5.32031ZM96.3559 9H98.0903V5.37891C98.0845 4.59961 98.6645 4.05469 99.4497 4.05469C99.6899 4.05469 100.024 4.0957 100.188 4.14844V2.60156C100.036 2.56641 99.813 2.54297 99.6372 2.54297C98.9223 2.54297 98.3306 2.95898 98.102 3.73828H98.0317V2.63672H96.3559V9ZM103.595 9.12891C105.166 9.12305 106.22 8.36133 106.466 7.18359H104.814C104.644 7.56445 104.222 7.82227 103.63 7.82812C102.734 7.82227 102.166 7.23047 102.166 6.26953H106.513V5.77734C106.513 3.60938 105.195 2.55469 103.525 2.55469C101.662 2.55469 100.449 3.88477 100.455 5.84766C100.449 7.86328 101.644 9.12305 103.595 9.12891ZM102.166 5.17969C102.201 4.44727 102.763 3.84961 103.56 3.85547C104.334 3.84961 104.867 4.40625 104.873 5.17969H102.166ZM110.366 9.12891C111.936 9.12305 112.991 8.36133 113.237 7.18359H111.585C111.415 7.56445 110.993 7.82227 110.401 7.82812C109.505 7.82227 108.936 7.23047 108.936 6.26953H113.284V5.77734C113.284 3.60938 111.966 2.55469 110.296 2.55469C108.432 2.55469 107.219 3.88477 107.225 5.84766C107.219 7.86328 108.415 9.12305 110.366 9.12891ZM108.936 5.17969C108.971 4.44727 109.534 3.84961 110.331 3.85547C111.104 3.84961 111.637 4.40625 111.643 5.17969H108.936ZM115.273 9.10547C115.795 9.10547 116.246 8.66602 116.246 8.12109C116.246 7.58203 115.795 7.14258 115.273 7.14844C114.723 7.14258 114.277 7.58203 114.289 8.12109C114.277 8.66602 114.723 9.10547 115.273 9.10547ZM119.768 9H125.838V7.54688H122.217V7.5L123.506 6.24609C125.252 4.66406 125.721 3.87305 125.721 2.90625C125.721 1.43555 124.514 0.398438 122.697 0.398438C120.91 0.398438 119.68 1.45898 119.686 3.11719H121.361C121.356 2.30273 121.877 1.79883 122.674 1.80469C123.453 1.79883 124.022 2.26758 124.022 3.02344C124.022 3.69727 123.594 4.16602 122.803 4.92188L119.756 7.72266L119.768 9ZM130.265 9.11719C132.386 9.11719 133.675 7.54688 133.675 4.75781C133.675 1.98633 132.38 0.398438 130.265 0.398438C128.15 0.398438 126.855 1.98633 126.855 4.75781C126.855 7.53516 128.138 9.11719 130.265 9.11719ZM128.659 4.75781C128.659 2.81836 129.286 1.8457 130.265 1.83984C131.243 1.8457 131.876 2.81836 131.87 4.75781C131.876 6.71484 131.249 7.66406 130.265 7.66406C129.28 7.66406 128.648 6.71484 128.659 4.75781ZM134.774 9H140.844V7.54688H137.223V7.5L138.512 6.24609C140.258 4.66406 140.727 3.87305 140.727 2.90625C140.727 1.43555 139.52 0.398438 137.703 0.398438C135.916 0.398438 134.686 1.45898 134.692 3.11719H136.368C136.362 2.30273 136.883 1.79883 137.68 1.80469C138.459 1.79883 139.028 2.26758 139.028 3.02344C139.028 3.69727 138.6 4.16602 137.809 4.92188L134.762 7.72266L134.774 9ZM141.978 9H148.048V7.54688H144.427V7.5L145.716 6.24609C147.462 4.66406 147.931 3.87305 147.931 2.90625C147.931 1.43555 146.724 0.398438 144.908 0.398438C143.121 0.398438 141.89 1.45898 141.896 3.11719H143.572C143.566 2.30273 144.087 1.79883 144.884 1.80469C145.664 1.79883 146.232 2.26758 146.232 3.02344C146.232 3.69727 145.804 4.16602 145.013 4.92188L141.966 7.72266L141.978 9Z" fill="black"/>
</svg>
