<svg width="220" height="258" viewBox="0 0 220 258" fill="none" xmlns="http://www.w3.org/2000/svg">
<g clip-path="url(#clip0_1275_3849)">
<path d="M80.289 93.1825C79.2737 91.2016 78.3119 89.2207 77.2698 87.2665C76.5484 85.9013 75.6667 84.8038 74.0903 84.429C72.2735 84.0007 70.2429 84.081 68.3726 83.9204C66.0481 83.733 63.7236 83.5724 61.3991 83.385C56.9905 83.037 52.5552 82.7158 48.1467 82.3678C44.8336 82.1269 41.1999 81.9127 38.2876 80.0924C34.7874 77.8974 34.4668 72.7309 33.9057 68.9833C33.1576 63.9507 32.7836 58.8646 32.4897 53.8052C32.2492 49.4954 32.1423 45.1856 31.9286 40.8758C31.6881 35.7361 32.4362 30.9712 33.9859 26.0457C34.8142 23.3956 35.7493 20.8258 36.5509 18.1489C37.2455 15.7932 37.8868 13.3572 38.8754 11.0818C40.1044 8.24431 43.2305 6.90586 45.8756 5.72802C49.7498 4.01481 53.7843 2.91728 58.0058 2.67635C62.2273 2.43543 66.6359 2.67635 70.9108 2.75666C75.1858 2.83697 79.7814 2.91728 84.2166 2.97081C92.8467 3.10466 101.504 3.26527 110.134 3.39912C118.764 3.53296 127.875 3.69358 136.718 3.85419C140.887 3.9345 145.215 3.69358 149.356 4.20219C151.2 4.44311 152.856 5.00526 154.406 6.04925C156.009 7.14678 157.399 8.56554 159.055 9.60954C160.498 10.4929 162.101 10.948 163.704 11.4834C165.601 12.0991 167.204 13.036 168.62 14.4547C170.624 16.4892 172.04 19.1125 173.109 21.7359C174.472 25.1623 175.38 28.8297 176.102 32.4168C177.384 38.7342 177.918 45.1856 177.705 51.6369C177.571 55.5452 177.17 59.4267 176.422 63.2547C176.021 65.3159 175.54 67.3504 174.953 69.3848C174.365 71.4193 173.911 73.882 172.601 75.5417C170.41 78.3524 166.723 80.3066 163.464 81.5647C160.204 82.8229 156.517 83.6527 152.963 84.2684C144.921 85.6604 136.665 86.7579 128.516 85.7407C124.375 85.2053 120.26 84.3487 116.092 84.1078C111.924 83.8669 107.382 84.1613 103.053 84.1613C98.7248 84.1613 94.5567 83.385 90.3085 83.4118C86.9152 83.4118 83.6288 84.2149 81.0639 86.5705C78.8729 88.5782 77.7508 91.3622 78.3653 94.3335C78.7126 96.02 81.3043 95.2972 80.9303 93.6108C80.1287 89.7025 84.1899 86.8918 87.5565 86.3028C91.778 85.5533 96.1865 86.6776 100.435 86.8114C105.004 86.9453 109.572 86.5973 114.141 86.7044C118.47 86.8114 122.665 87.5878 126.939 88.2034C135.383 89.3813 143.719 88.4444 152.082 87.1059C159.215 85.9816 166.483 84.2149 172.227 79.5838C173.537 78.5398 174.846 77.362 175.594 75.8629C176.502 74.0962 177.01 72.0082 177.571 70.1076C178.747 66.0387 179.521 61.8895 179.976 57.6867C180.751 50.6732 180.537 43.5794 179.548 36.566C178.88 31.9081 177.865 27.2503 176.342 22.7799C174.819 18.3095 172.361 13.384 168.193 10.6C166.697 9.58277 165.013 9.07415 163.303 8.512C161.112 7.78924 159.509 6.63817 157.746 5.21941C154.86 2.89051 151.975 1.6859 148.261 1.41821C143.772 1.09698 139.257 1.20406 134.768 1.15052C130.279 1.09698 125.897 0.989905 121.462 0.936367C103.294 0.641907 85.1251 0.320679 66.9565 0.0262193C62.8151 -0.0540878 58.6738 -0.241471 54.5591 0.374217C50.4445 0.989905 46.6505 2.38189 42.99 4.14865C40.4785 5.35326 37.8334 6.98617 36.631 9.6363C35.5356 12.0187 34.8409 14.5886 34.1195 17.0781C32.4897 22.5122 30.2987 27.8125 29.5239 33.4608C28.8559 38.3327 29.5239 43.2582 29.6575 48.157C29.7911 52.4668 30.0048 56.7498 30.3789 61.0329C30.8064 66.0654 31.2873 71.2586 32.65 76.1306C33.1042 77.7367 33.6653 79.3964 34.8142 80.6546C37.0585 83.1173 40.425 84.1078 43.6045 84.5896C47.6123 85.1785 51.727 85.3124 55.7882 85.6336C60.3303 85.9816 64.8457 86.3296 69.3879 86.6776C70.4833 86.7579 71.6055 86.8114 72.701 86.9185C73.9567 87.0256 74.3842 87.4807 74.972 88.605C76.0141 90.5591 76.9759 92.54 77.9912 94.5209C78.7661 96.0468 81.0906 94.7083 80.289 93.1825Z" fill="#7AC3A5"/>
<path d="M65.2765 221.102C65.2765 222.591 65.0553 224 64.7234 225.33C69.4011 225.71 73.668 228.085 75.6908 232.946C76.8444 235.732 74.7742 238.82 71.7558 238.82C69.9701 238.82 68.5004 237.632 67.7734 236.001C66.6356 233.484 64.4232 232.106 61.5312 231.806C58.3706 235.859 53.7403 238.471 49.5525 238.851C47.2136 239.073 45.2857 237.79 44.9854 235.78C44.6851 233.895 45.7597 232.186 47.8458 231.774C52.9976 230.713 56.411 226.644 56.4584 221.102H49.1258C46.5657 221.102 45.5543 219.266 45.5543 217.524C45.5543 215.783 46.5341 213.898 49.1258 213.898H72.6408C75.2325 213.898 76.2123 215.814 76.2123 217.524C76.2123 219.234 75.1851 221.102 72.6408 221.102H65.2607H65.2765Z" fill="#131309"/>
<path d="M96.5666 222.212C101.924 222.782 106.981 227.167 108.688 234.625C109.272 237.158 107.502 238.821 104.911 238.821H104.31C102.382 238.821 100.849 237.411 100.375 235.527C99.506 232.028 97.1513 229.796 94.1013 229.131C90.9881 234.846 85.8837 238.393 81.1428 239.074C79.0568 239.375 76.9708 238.171 76.6231 236.081C76.2755 234.039 77.2553 232.456 79.3887 231.68C84.2876 229.891 87.8275 225.315 88.3016 216.86C88.4754 214.169 90.6405 212.854 93.0267 213.013C95.492 213.219 97.0723 214.849 97.0249 217.541C96.9775 219.156 96.8511 220.692 96.5508 222.196L96.5666 222.212Z" fill="#131309"/>
<path d="M129.358 222.212C134.715 222.782 139.535 226.407 141.242 233.849C141.827 236.382 140.294 238.821 137.702 238.821H137.101C135.174 238.821 133.641 237.411 133.167 235.527C132.297 232.028 129.943 229.796 126.893 229.131C123.78 234.846 118.675 238.393 113.934 239.074C111.848 239.375 109.762 238.171 109.415 236.081C109.067 234.039 110.047 232.456 112.18 231.68C117.079 229.891 120.619 225.315 121.093 216.86C121.267 214.169 123.432 212.854 125.818 213.013C128.283 213.219 129.864 214.849 129.816 217.541C129.769 219.156 129.642 220.692 129.342 222.196L129.358 222.212Z" fill="#131309"/>
<path d="M143.628 225.316C143.628 218.919 148.448 213.014 156.192 213.014H162.45C170.209 213.014 175.06 218.904 175.06 225.316V227.881C175.06 234.277 170.209 240.183 162.45 240.183H156.192C148.432 240.183 143.628 234.293 143.628 227.881V225.316ZM166.211 225.189C166.211 222.323 163.824 220.028 160.458 220.028H158.199C154.833 220.028 152.494 222.339 152.494 225.189V228.055C152.494 230.873 154.833 233.169 158.199 233.169H160.458C163.824 233.169 166.211 230.857 166.211 228.055V225.189Z" fill="#131309"/>
<path d="M79.3887 231.696C76.8602 232.646 75.8646 232.962 75.0745 231.696C74.2843 230.429 70.9815 232.107 70.9815 232.107L67.7576 236.002C67.7576 236.002 68.4214 237.57 70.0965 238.884C72.2457 240.546 77.1605 241.528 83.9084 238.361C84.5405 238.061 85.4255 235.179 85.4255 235.179L79.3729 231.696H79.3887Z" fill="#131309"/>
<path d="M112.148 231.694C109.62 232.644 108.482 233.103 107.423 230.839C106.112 228.021 103.741 232.106 103.741 232.106L100.517 236.001C100.517 236.001 100.976 237.695 102.667 238.993C104.816 240.656 109.92 241.511 116.684 238.344C117.316 238.043 118.201 235.162 118.201 235.162L112.148 231.678V231.694Z" fill="#131309"/>
<path d="M147.563 233.167C141.653 233.167 141.321 233.103 140.278 230.839C138.966 228.021 136.596 232.106 136.596 232.106L133.372 236.001C133.372 236.001 133.83 237.695 135.521 238.993C137.67 240.656 147.042 240.165 156.808 240.165C160.474 240.165 151.04 235.162 151.04 235.162L147.563 233.167Z" fill="#131309"/>
<path d="M170.104 108.54C169.77 106.13 170.187 103.359 172.16 101.918C173.383 101.004 175.05 100.81 176.551 101.17C178.051 101.53 179.385 102.334 180.552 103.331C182.192 104.689 183.553 106.379 184.554 108.263C185.86 110.729 186.694 113.694 189 115.273C187.277 116.299 185.11 116.021 183.137 115.744C180.747 115.384 178.329 115.052 176.05 114.165C173.772 113.278 171.66 111.865 170.437 109.787" fill="#74C4A3"/>
<path d="M90.5 144.691C88.3108 145.704 89.4561 145.708 87.6804 147.351C85.852 149.042 84.869 151.342 84.8212 153.73C84.7736 156.108 83.8992 158.677 81.8311 160.25C79.943 161.686 77.7574 162.774 75.5889 163.803C70.2969 166.313 67.1422 170.404 67.1422 175.794" stroke="#7CDAEF" stroke-width="3" stroke-linecap="round"/>
<path d="M103.679 144C102.401 145.182 101.058 146.226 99.9357 147.543C98.8157 148.858 98.0379 150.295 97.2947 151.822C96.6803 153.085 96.4108 154.247 96.4108 155.628C96.4108 157.233 96.8409 158.683 96.9892 160.261C97.19 162.397 95.5235 164.307 94.0536 165.802C92.2257 167.662 89.9723 169.088 87.6149 170.344C82.8309 172.894 80.2222 178.427 81.1872 183.425C81.6214 185.674 81.4384 187.543 80.6961 189.603" stroke="#7CDAEF" stroke-width="3" stroke-linecap="round"/>
<path d="M139.43 146.543C139.821 147.548 140.563 148.427 141.001 149.43C141.663 150.943 142.153 152.467 142.18 154.113C142.219 156.545 141.487 158.791 141.099 161.158C140.643 163.944 141.308 166.254 142.878 168.648C144.146 170.58 145.881 172.313 146.861 174.411C147.805 176.43 147.33 179.359 146.883 181.426C146.398 183.669 145.071 185.672 144.69 187.947C144.348 189.985 144.15 191.949 144.843 193.962C144.991 194.395 145.626 196.366 145.716 196.324" stroke="#7CDAEF" stroke-width="3" stroke-linecap="round"/>
<path d="M150 146C152.306 148.133 152.595 151.053 153.18 154C153.735 156.796 153.258 160.28 153.18 163.075C153.119 165.273 153.139 167.093 154.752 168.848C156.191 170.414 157.407 172.246 158.396 174.076C158.716 174.667 158.863 175.962 158.877 176.62C158.896 177.588 158.877 178.559 158.877 179.527C158.877 180.979 158.329 182.352 158.287 183.786C158.239 185.44 157.962 186.922 158.527 188.551C158.794 189.316 159.466 189.879 159.466 190.69" stroke="#7CDAEF" stroke-width="3" stroke-linecap="round"/>
<path d="M125.365 95.0225C119.797 92.238 113.617 91.709 107.52 92.1266C101.423 92.5443 94.7692 93.3797 89.0621 96.025C83.3551 98.6703 78.678 102.791 74.4743 107.163C70.2705 111.535 66.7628 116.547 64.4521 122.172C61.9187 128.353 60.7216 135.036 60.2205 141.663C59.7194 148.29 60.0535 154.806 61.4176 161.239C63.8396 172.627 69.8251 183.375 79.0956 190.56C89.0343 198.245 101.646 200.25 113.784 201.948C120.771 202.923 127.62 203.647 134.607 202.115C140.593 200.807 146.523 198.635 152.202 196.351C162.53 192.175 172.386 186.132 177.174 175.635C179.791 169.898 181.016 163.661 182.129 157.479C183.187 151.66 184.078 145.757 183.995 139.826C183.911 133.895 182.825 128.465 179.986 123.508C176.868 118.051 171.717 114.013 166.818 110.198C156.823 102.457 145.437 96.0528 132.631 94.7998C129.429 94.4935 126.2 94.5492 123.026 94.9669C121.272 95.1896 121.245 97.9741 123.026 97.7514C135.303 96.1364 147.191 100.425 157.436 106.94C162.447 110.143 167.291 113.818 171.662 117.856C176.032 121.893 179.039 126.488 180.348 132.252C181.573 137.626 181.35 143.25 180.71 148.68C180.069 154.11 179.011 160.041 177.675 165.555C176.339 171.068 174.279 176.693 170.52 181.148C167.207 185.102 162.976 188.081 158.466 190.476C153.956 192.871 148.917 194.764 143.961 196.463C137.781 198.579 131.573 200.472 124.975 200.333C118.377 200.194 112.364 199.08 106.183 198.022C100.393 197.02 94.5743 195.739 89.1735 193.344C79.1513 188.889 71.6068 180.535 67.2639 170.567C62.3641 159.234 61.8352 146.202 63.9788 134.173C65.0646 128.186 66.9298 122.367 70.187 117.187C73.2493 112.314 77.2582 108.082 81.629 104.379C86.3339 100.369 91.4842 97.5565 97.581 96.3034C103.344 95.1061 109.524 94.4378 115.398 95.0504C118.405 95.3567 121.328 96.1642 124.028 97.5008C125.615 98.3083 127.035 95.8857 125.42 95.1061L125.365 95.0225Z" fill="black"/>
<path d="M175.728 107.096C176.31 105.804 175.95 104.426 174.73 103.68C173.372 102.848 171.903 103.393 170.794 104.426C170.268 104.914 169.852 105.546 169.242 105.919C169.187 105.948 168.909 106.149 168.826 106.091C168.965 106.177 168.965 105.919 168.965 105.89C168.965 105.46 169.103 105.029 169.076 104.599C169.02 103.163 168.106 102.101 166.831 101.699C165.556 101.297 164.225 101.642 162.895 101.871C162.23 101.986 161.592 102.101 161.232 101.441C160.899 100.838 160.816 100.034 160.511 99.4027C159.125 96.6756 155.051 96.5608 152.64 97.6229C149.618 98.9434 147.928 102.79 149.757 105.833C150.699 107.412 153.083 105.948 152.141 104.398C151.475 103.278 151.753 101.843 152.667 100.953C153.748 99.9194 155.411 99.7472 156.797 100.063C158.405 100.436 158.183 101.785 158.876 103.048C159.569 104.312 160.982 104.943 162.396 104.857C163.172 104.8 165.445 103.881 166.11 104.541C166.47 104.886 166.165 105.632 166.138 106.12C166.138 106.838 166.304 107.555 166.775 108.101C167.69 109.192 169.298 109.22 170.434 108.56C171.044 108.216 171.57 107.699 172.069 107.153C172.346 106.838 172.651 106.579 172.956 106.321C173.039 106.264 173.122 106.206 173.206 106.206C173.4 106.407 173.427 106.264 173.261 105.747C172.513 107.412 174.896 108.876 175.645 107.182L175.728 107.096Z" fill="black"/>
<path d="M95.0909 97C91.1289 97.9069 89.5107 103.037 92.6635 105.899C94.198 107.317 96.3743 107.572 98.3553 107.685C99.7503 107.742 101.173 107.685 102.568 107.543C103.545 107.43 105.107 106.75 105.721 107.6C106.251 108.365 106.53 109.13 107.256 109.811C107.981 110.491 108.846 111.001 109.767 111.426C111.971 112.418 114.426 112.815 116.826 112.872C119.42 112.928 121.904 112.418 124.387 111.681C125.81 111.256 127.233 110.859 128.46 111.851C129.269 112.503 129.911 113.325 130.748 113.949C134.431 116.669 139.676 116.669 143.387 114.034C144.838 112.985 143.443 110.548 141.992 111.596C140.151 112.9 138.002 113.438 135.77 113.07C133.371 112.673 132.087 111.228 130.33 109.726C128.572 108.223 126.396 108.195 124.247 108.79C121.429 109.527 118.835 110.236 115.905 110.009C113.645 109.839 110.548 109.357 108.93 107.487C108.288 106.75 108.204 105.673 107.507 104.964C106.809 104.256 105.861 104.227 104.94 104.341C102.178 104.709 99.3876 105.248 96.5975 104.709C95.3978 104.482 94.198 103.944 93.8911 102.612C93.5284 101.138 94.5887 100.061 95.9 99.7775C97.6578 99.3807 96.9044 96.6316 95.1467 97.0567L95.0909 97Z" fill="black"/>
<path d="M151.681 116.484C154.47 117.633 156.281 119.85 157.518 122.422C158.122 123.681 158.553 124.994 158.927 126.335C159.358 127.895 159.875 129.345 161.342 130.303C162.636 131.151 164.361 131.589 165.885 131.835C167.524 132.109 169.249 132.109 170.773 131.315C173.965 129.619 174.367 125.897 173.764 122.805C173.419 121.081 170.658 121.82 171.003 123.544C171.435 125.842 171.032 129.181 167.927 129.29C166.575 129.345 165.08 128.962 163.844 128.497C162.406 127.949 162.09 126.964 161.716 125.623C160.451 121.026 157.978 116.128 153.147 114.158C152.428 113.857 151.623 113.967 151.192 114.651C150.818 115.225 150.991 116.238 151.709 116.511L151.681 116.484Z" fill="black"/>
<path d="M39.1346 108.416C35.7906 111.943 37.164 116.664 39.5526 120.302C41.0156 122.496 42.8966 124.578 43.6431 127.106C44.4791 129.91 43.4341 131.799 41.2843 133.687C39.7616 135.02 38.1792 136.353 37.4626 138.242C36.6564 140.436 37.2536 142.685 38.1493 144.74C39.1346 147.017 40.4782 149.184 40.508 151.711C40.5379 154.238 39.4033 156.793 37.4327 158.626C36.0892 159.903 38.1792 161.847 39.5526 160.598C42.9862 157.376 44.3895 152.627 42.9265 148.267C42.1502 145.962 40.5678 143.824 40.1796 141.408C39.7318 138.797 41.5829 137.298 43.4341 135.687C45.0762 134.243 46.4795 132.688 46.8677 130.549C47.3155 128.244 46.5691 125.911 45.4942 123.856C43.5535 120.246 37.3432 114.609 41.2843 110.415C42.5383 109.082 40.4483 107.11 39.1645 108.443L39.1346 108.416Z" fill="black"/>
<path d="M47.6151 114.96C46.2474 118.444 47.3178 121.517 49.2801 124.59C50.3505 126.236 51.2127 127.827 51.0343 129.803C50.8857 131.421 50.2316 132.985 49.6964 134.522C48.626 137.485 47.853 140.42 49.1315 143.438C50.0234 145.469 49.3693 147.142 49.2207 149.227C49.072 151.175 49.2801 153.123 49.7261 155.016C50.1126 156.745 52.9967 156.004 52.5804 154.275C52.1344 152.41 52.0155 150.489 52.2534 148.596C52.4912 146.785 53.0264 145.222 52.3426 143.438C51.7479 141.847 51.183 140.585 51.4803 138.857C51.7479 137.293 52.3723 135.784 52.9075 134.275C53.8887 131.504 54.5725 128.596 53.3237 125.797C52.6399 124.261 51.5993 122.944 50.7965 121.49C49.7559 119.597 49.6964 117.676 50.4694 115.673C51.1235 114 48.2395 113.286 47.6151 114.933V114.96Z" fill="black"/>
<path d="M58.2431 108.025C57.1616 112.443 56.9183 116.943 57.6213 121.443C57.9728 123.79 58.6487 126.136 58.4865 128.511C58.3243 130.885 57.3509 132.956 56.702 135.109C55.3772 139.444 56.1072 143.53 57.405 147.781C58.7028 152.033 60.4332 156.644 58.5676 160.895C57.8646 162.497 60.1898 163.905 60.8928 162.276C62.5421 158.493 62.1366 154.49 61.055 150.57C59.7843 145.876 57.7565 141.321 59.1083 136.407C59.7032 134.281 60.6224 132.266 60.9739 130.057C61.3254 127.848 61.1091 125.722 60.7306 123.569C59.8384 118.517 59.595 113.74 60.8387 108.716C61.2713 107.004 58.6487 106.258 58.2431 107.97V108.025Z" fill="black"/>
<path d="M66.0069 107.383L66.8789 115.617C66.9412 116.336 67.5329 117.027 68.436 116.999C69.2145 116.972 70.0865 116.391 69.9931 115.617L69.1211 107.383C69.0588 106.664 68.4671 105.973 67.564 106.001C66.7855 106.028 65.9135 106.609 66.0069 107.383Z" fill="black"/>
<path d="M31.1634 117.547C29.7486 119.452 29.7209 121.918 30.2757 124.131C30.8582 126.513 33.2439 129.988 31.8569 132.397C31.2189 133.49 30.4144 134.359 29.9151 135.563C29.4158 136.768 29.1938 137.889 29.0829 139.122C28.8055 141.756 29.2771 144.418 29.7209 146.995C30.026 148.761 32.7168 148.004 32.3839 146.239C31.9678 143.829 31.524 141.279 31.8846 138.842C32.051 137.665 32.4117 136.516 33.0497 135.507C33.66 134.555 34.4367 133.798 34.7696 132.677C36.1843 128.166 30.4976 123.095 33.549 119.004C34.6309 117.547 32.2175 116.174 31.1634 117.603V117.547Z" fill="black"/>
<path d="M185.747 121.145C187.252 124.133 185.988 127.819 185.807 130.947C185.596 134.522 185.927 138.125 186.439 141.672C186.921 144.94 188.005 148.291 187.975 151.587C187.975 153.346 187.282 154.491 186.289 155.916C185.927 156.446 185.657 157.005 185.536 157.619C185.386 158.345 185.687 159.295 185.235 159.937C184.212 161.473 186.8 162.87 187.824 161.334C188.757 159.965 188.155 158.457 189.058 157.088C189.961 155.72 190.684 154.575 190.895 152.955C191.376 149.352 190.082 145.61 189.51 142.091C188.878 138.069 188.516 133.992 188.878 129.942C189.179 126.423 190.022 123.072 188.336 119.72C187.523 118.1 184.934 119.497 185.747 121.117V121.145Z" fill="black"/>
<path d="M192.061 120.739C194.377 129.61 191.986 139.013 193.58 147.997C193.903 149.76 196.294 149.004 195.97 147.241C194.377 138.23 196.792 128.911 194.451 119.983C194.003 118.248 191.588 119.004 192.061 120.739Z" fill="black"/>
<path d="M105 162.322C105.341 161.715 105.223 160.859 105.514 160.19C105.968 159.15 106.569 158.267 107.44 157.561C108.707 156.532 110.92 157.128 112.285 157.685C114.008 158.388 114.717 160.121 116.041 161.327C117.975 163.088 119.077 161.729 120.948 160.617C122.2 159.872 123.102 159.25 124.573 159.284C125.58 159.307 126.662 159.827 127.266 160.634C128.543 162.344 129 163.902 129 166" stroke="black" stroke-width="3" stroke-linecap="round"/>
<path d="M152.225 145.096C145.732 146.041 139.096 146.229 132.55 145.736C131.739 145.675 130.951 145.604 130.138 145.604C129.507 145.604 131.237 144.867 131.379 144.833C133.919 144.22 136.407 143.356 138.968 142.819C141.576 142.273 144.234 141.931 146.815 141.239C148.977 140.659 150.923 139.756 153 139" stroke="black" stroke-width="3" stroke-linecap="round"/>
<path d="M90 143.837C92.8342 143.608 95.6992 143.929 98.5486 143.978C101.176 144.022 103.806 143.986 106.434 143.986C107.556 143.986 108.678 143.986 109.799 143.986C110.025 143.986 110.085 143.892 109.85 143.804C109.041 143.502 108.266 143.101 107.463 142.78C104.326 141.528 101.115 140.348 97.8858 139.345C96.2804 138.847 94.5754 138.161 92.9147 137.892C91.9795 137.74 90.8095 137.472 90 137" stroke="black" stroke-width="3" stroke-linecap="round"/>
<path d="M116.84 171.18C115.899 172.121 115.842 173.489 116.251 174.715" stroke="black" stroke-width="3" stroke-linecap="round"/>
<path d="M122.144 173.734V175.306" stroke="black" stroke-width="3" stroke-linecap="round"/>
<path d="M111.143 169.02C110.064 170.099 109.263 171.208 108.59 172.555" stroke="black" stroke-width="3" stroke-linecap="round"/>
<path d="M103.679 126.59C106.58 126.59 110.016 126.149 112.497 124.527C113.461 123.897 115.528 122.536 116.054 121.482" stroke="black" stroke-width="3" stroke-linecap="round"/>
<path d="M126.662 122.072C126.85 124.519 129.47 126.215 131.398 127.267C133.306 128.308 136.233 129.833 138.448 128.947" stroke="black" stroke-width="3" stroke-linecap="round"/>
<path d="M77.546 49.048C76.547 49.048 76.251 48.826 76.473 48.012L80.58 34.359C81.098 32.102 79.507 30.474 77.546 30.252C75.659 30.03 74.142 31.029 73.513 33.286L68.814 48.789C67.741 52.6 69.517 55.116 73.994 55.116H81.579V60.222H88.424V55.116H91.754V49.048H88.424V40.427C88.424 38.133 86.722 37.097 85.02 37.097C83.318 37.097 81.579 38.133 81.579 40.427V49.048H77.546ZM103.232 60.925C109.078 60.925 113.592 57.558 113.592 51.009V40.168C113.592 33.656 109.078 30.252 103.232 30.252C97.3864 30.252 92.8724 33.656 92.8724 40.168V51.009C92.8724 57.558 97.3864 60.925 103.232 60.925ZM103.232 54.635C101.937 54.635 100.309 53.895 100.309 51.527V39.65C100.309 37.356 101.937 36.542 103.232 36.542C104.527 36.542 106.155 37.356 106.155 39.65V51.527C106.155 53.895 104.527 54.635 103.232 54.635ZM123.708 49.048C122.709 49.048 122.413 48.826 122.635 48.012L126.742 34.359C127.26 32.102 125.669 30.474 123.708 30.252C121.821 30.03 120.304 31.029 119.675 33.286L114.976 48.789C113.903 52.6 115.679 55.116 120.156 55.116H127.741V60.222H134.586V55.116H137.916V49.048H134.586V40.427C134.586 38.133 132.884 37.097 131.182 37.097C129.48 37.097 127.741 38.133 127.741 40.427V49.048H123.708Z" fill="#70CCA6"/>
</g>
<defs>
<clipPath id="clip0_1275_3849">
<rect width="220" height="258" fill="white"/>
</clipPath>
</defs>
</svg>
