<svg width="70" height="59" viewBox="0 0 70 59" fill="none" xmlns="http://www.w3.org/2000/svg">
<path d="M15.3756 53H16.4303V49.707H18.2702C18.3405 49.707 18.4108 49.707 18.4752 49.7012L20.2506 53H21.4811L19.5709 49.5078C20.6491 49.1328 21.153 48.2539 21.153 47.1289C21.153 45.6172 20.2448 44.5156 18.2584 44.5156H15.3756V53ZM16.4303 48.7461V45.4531H18.2116C19.5768 45.4531 20.1041 46.1152 20.11 47.1289C20.1041 48.1367 19.5768 48.7461 18.2233 48.7461H16.4303ZM22.1228 51.1953C22.1228 52.4375 23.0838 53.1465 24.2908 53.1523C25.3982 53.1465 25.9783 52.5605 26.1892 52.1328H26.2361V53H27.2322V48.8047C27.238 46.8008 25.6736 46.5547 24.8416 46.5547C23.4353 46.5547 22.4392 47.2637 22.3103 48.2891H23.365C23.5056 47.8027 23.992 47.4336 24.7947 47.4336C25.7556 47.4336 26.2361 47.9023 26.2361 48.7109V49.2266C25.949 49.2324 24.9236 49.291 24.5134 49.3203C23.4119 49.4023 22.1228 49.7363 22.1228 51.1953ZM23.1306 51.2422C23.1365 50.5449 23.7166 50.2227 24.6306 50.1641C24.9353 50.1465 25.9373 50.0703 26.2361 50.0527V50.6914C26.2361 51.4941 25.6033 52.2559 24.4666 52.25C23.6931 52.2559 23.1365 51.916 23.1306 51.2422ZM29.7372 49.1797C29.7372 48.0781 30.4169 47.457 31.3427 47.457C32.245 47.457 32.7841 48.043 32.7841 49.0273V53H33.7919V48.957C33.7977 47.3398 32.9364 46.5547 31.6473 46.5547C30.6805 46.5547 30.0829 46.9824 29.7841 47.6328H29.702V46.6367H28.7294V53H29.7372V49.1797ZM35.2891 53H36.2969V50.627L36.9707 50L39.332 53H40.6094L37.7266 49.3613L40.4102 46.6367H39.168L36.4141 49.4492H36.2969V44.5156H35.2891V53ZM41.3683 53H42.3761V46.6367H41.3683V53ZM41.1691 44.9141C41.1632 45.2832 41.4855 45.582 41.8722 45.582C42.2589 45.582 42.5812 45.2832 42.587 44.9141C42.5812 44.5391 42.2589 44.2402 41.8722 44.2461C41.4855 44.2402 41.1632 44.5391 41.1691 44.9141ZM44.8694 49.1797C44.8694 48.0781 45.5491 47.457 46.4748 47.457C47.3772 47.457 47.9163 48.043 47.9163 49.0273V53H48.9241V48.957C48.9299 47.3398 48.0686 46.5547 46.7795 46.5547C45.8127 46.5547 45.2151 46.9824 44.9163 47.6328H44.8342V46.6367H43.8616V53H44.8694V49.1797ZM52.9994 55.5195C54.5521 55.5195 55.7591 54.8164 55.765 53.1758V46.6367H54.7806V47.6445H54.6986C54.4701 47.3047 54.0716 46.5547 52.8353 46.5547C51.2357 46.5547 50.1166 47.7734 50.1166 49.7305C50.1166 51.7344 51.2767 52.9004 52.8236 52.9062C54.0541 52.9004 54.4584 52.1797 54.6752 51.8281H54.7572V53.1172C54.7572 54.166 54.0892 54.6406 52.9994 54.6406C52.097 54.6406 51.4935 54.3184 51.3587 53.668H50.3041C50.4154 54.8457 51.4584 55.5195 52.9994 55.5195ZM51.1361 49.7656C51.1361 48.4824 51.7396 47.457 52.9642 47.457C54.1478 47.457 54.7748 48.4004 54.7806 49.7656C54.7748 51.166 54.1302 52.0039 52.9642 52.0039C51.7572 52.0039 51.1361 51.084 51.1361 49.7656Z" fill="black"/>
<path d="M31.0909 22L29.4204 28.1148C29.3864 28.2266 29.4886 28.3384 29.6023 28.3161L31.4318 27.9136L32.8068 29.1656C32.8977 29.2439 33.0341 29.1992 33.0682 29.0874L34.6591 23.2297" stroke="black" stroke-width="2" stroke-miterlimit="10"/>
<path d="M38.8864 22L40.5568 28.1148C40.5909 28.2266 40.4886 28.3384 40.375 28.3161L38.5454 27.9136L37.1704 29.1656C37.0795 29.2439 36.9432 29.1992 36.9091 29.0874L35.3182 23.2297" stroke="black" stroke-width="2" stroke-miterlimit="10"/>
<path d="M35 9.11789H35.0227C35.2046 9.12907 35.4546 9.28557 35.7046 9.44207C35.9773 9.60976 36.2841 9.78862 36.6364 9.87805C36.9205 9.9563 37.1932 9.9563 37.4091 9.9563C37.5 9.9563 37.6023 9.9563 37.7046 9.9563C37.7841 9.9563 37.875 9.9563 37.9546 9.9563C38.0682 9.9563 38.25 9.9563 38.375 10.001H38.4091C38.4091 10.001 38.4091 10.0122 38.4091 10.0234L38.4546 10.0457C38.4546 10.0457 38.4773 10.0681 38.5 10.0793C38.6364 10.1911 38.75 10.4258 38.875 10.6494C39.0227 10.9289 39.2046 11.2419 39.4659 11.499C39.7273 11.7561 40.0568 11.9238 40.3409 12.0803C40.5909 12.2144 40.875 12.3598 40.9546 12.5051C41.0227 12.6169 41.0227 12.8293 41.0227 12.9746C41.0227 13.064 41.0227 13.1423 41.0227 13.2652C41.0227 13.3659 41.0227 13.4665 41.0227 13.5671C41.0227 13.7571 41.0341 14.0142 41.1023 14.2713C41.1932 14.6179 41.3864 14.9197 41.5568 15.188C41.7159 15.4451 41.875 15.7022 41.875 15.8811C41.875 16.06 41.7159 16.3171 41.5568 16.5742C41.3864 16.8425 41.2046 17.1443 41.1023 17.4909C41.0114 17.8486 41.0114 18.2063 41.0227 18.5305C41.0227 18.81 41.0341 19.123 40.9546 19.2571C40.8636 19.4024 40.5909 19.5478 40.3409 19.6819C40.0568 19.8272 39.7386 20.0061 39.4659 20.2632C39.2046 20.5203 39.0341 20.8333 38.875 21.124C38.75 21.3476 38.625 21.5711 38.5 21.6829C38.4773 21.7053 38.4546 21.7165 38.4432 21.7276C38.3296 21.7947 38.1136 21.7947 37.9546 21.7947C37.8636 21.7947 37.7841 21.7947 37.6818 21.7947C37.5909 21.7947 37.4886 21.7947 37.3977 21.7947C37.1932 21.7947 36.9205 21.7947 36.6364 21.873C36.2841 21.9624 35.9773 22.1524 35.7046 22.3201C35.4546 22.4654 35.2046 22.622 34.9773 22.6331C34.7955 22.622 34.5455 22.4654 34.2955 22.3201C34.0227 22.1524 33.7159 21.9736 33.3636 21.873C33.0909 21.7947 32.8182 21.7947 32.6023 21.7947C32.5114 21.7947 32.4205 21.7947 32.2955 21.7947C32.2159 21.7947 32.125 21.7947 32.0455 21.7947C31.9318 21.7947 31.7727 21.7947 31.6591 21.7612L31.5796 21.7276C31.5796 21.7276 31.5682 21.7276 31.5568 21.7276C31.5341 21.7276 31.5227 21.7053 31.5 21.6829C31.3636 21.56 31.2386 21.3252 31.125 21.1128C30.9773 20.8333 30.7955 20.5203 30.5341 20.2632C30.2727 20.0061 29.9432 19.8272 29.6591 19.6819C29.4091 19.5478 29.125 19.4024 29.0455 19.2571C28.9773 19.1453 28.9773 18.9329 28.9773 18.7764C28.9773 18.6982 28.9773 18.6199 28.9773 18.497C28.9773 18.3963 28.9773 18.2846 28.9773 18.1951C28.9773 18.0163 28.9773 17.7591 28.8977 17.4797C28.8068 17.1331 28.6136 16.8313 28.4432 16.563C28.2841 16.3059 28.125 16.0488 28.125 15.8699C28.125 15.6911 28.2841 15.4339 28.4432 15.1768C28.6136 14.9085 28.7955 14.6067 28.8977 14.2602C29 13.9024 28.9886 13.5335 28.9773 13.2205C28.9773 12.9411 28.9659 12.628 29.0455 12.4939C29.125 12.3486 29.4091 12.2033 29.6591 12.0691C29.9432 11.9238 30.2614 11.7449 30.5341 11.4878C30.7955 11.2307 30.9659 10.9177 31.125 10.627C31.2386 10.4146 31.3636 10.1799 31.5 10.0681C31.5227 10.0457 31.5455 10.0346 31.5568 10.0234C31.6705 9.9563 31.8864 9.9563 32.0455 9.9563C32.1364 9.9563 32.2159 9.9563 32.3068 9.9563C32.4091 9.9563 32.5 9.9563 32.5909 9.9563C32.8068 9.9563 33.0796 9.9563 33.3523 9.87805C33.7046 9.78862 34.0114 9.59858 34.2841 9.43089C34.5341 9.28557 34.7841 9.12907 34.9773 9.11789M34.9773 8C34.9773 8 34.9091 8 34.875 8C34.4205 8.03354 34.0227 8.26829 33.6818 8.48069C33.4546 8.61484 33.2386 8.74898 33.0568 8.7937C32.9205 8.82724 32.7614 8.83841 32.5796 8.83841C32.5 8.83841 32.4091 8.83841 32.3182 8.83841C32.2273 8.83841 32.125 8.83841 32.0341 8.83841C31.6818 8.83841 31.3068 8.87195 30.9773 9.06199C30.8864 9.11789 30.7955 9.17378 30.7273 9.25203C30.4546 9.49797 30.2727 9.82215 30.1136 10.1128C29.9886 10.3476 29.8636 10.5711 29.7159 10.7053C29.5682 10.8506 29.3523 10.9624 29.1136 11.0965C28.7273 11.2978 28.2955 11.5325 28.0568 11.9461C27.8182 12.3598 27.8296 12.8404 27.8409 13.2652C27.8409 13.5335 27.8523 13.7907 27.7955 13.9919C27.7386 14.1819 27.6136 14.3831 27.4773 14.6067C27.25 14.9756 26.9886 15.3892 26.9886 15.8811C26.9886 16.373 27.2614 16.7866 27.4886 17.1555C27.625 17.3791 27.7614 17.5915 27.8068 17.7703C27.8409 17.8933 27.8523 18.0386 27.8523 18.1951C27.8523 18.2846 27.8523 18.3852 27.8523 18.4858C27.8523 18.5752 27.8523 18.6758 27.8523 18.7764C27.8523 19.123 27.8864 19.4807 28.0796 19.8049C28.3296 20.2185 28.7614 20.4533 29.1364 20.6545C29.375 20.7774 29.6023 20.9004 29.7386 21.0457C29.8864 21.1911 30 21.4146 30.1364 21.6382C30.2955 21.9289 30.4773 22.253 30.75 22.499C30.8296 22.5661 30.9091 22.6331 31.0114 22.689C31.0227 22.689 31.0455 22.7114 31.0568 22.7114C31.0682 22.7114 31.0909 22.7226 31.1023 22.7337C31.1364 22.7449 31.1705 22.7673 31.2046 22.7785C31.2159 22.7785 31.2386 22.7785 31.25 22.7896C31.2614 22.7896 31.2841 22.7896 31.2955 22.8008C31.5341 22.8679 31.7841 22.8902 32.0341 22.8902C32.125 22.8902 32.2273 22.8902 32.3182 22.8902C32.4091 22.8902 32.5 22.8902 32.5909 22.8902C32.7614 22.8902 32.9205 22.8902 33.0568 22.935C33.25 22.9797 33.4546 23.1138 33.6818 23.248C34.0341 23.4604 34.4205 23.6951 34.875 23.7287C34.9091 23.7287 34.9432 23.7287 34.9773 23.7287C35.0114 23.7287 35.0455 23.7287 35.0796 23.7287C35.5341 23.6951 35.9318 23.4604 36.2727 23.248C36.5 23.1138 36.7159 22.9797 36.8977 22.935C37.0341 22.9014 37.1932 22.8902 37.3636 22.8902C37.4546 22.8902 37.5455 22.8902 37.6364 22.8902C37.7273 22.8902 37.8296 22.8902 37.9205 22.8902C38.2727 22.8902 38.6477 22.8567 38.9773 22.6667C39.0682 22.6108 39.1591 22.5549 39.2273 22.4766C39.5 22.2307 39.6818 21.9065 39.8409 21.6159C39.9659 21.3811 40.0909 21.1575 40.2386 21.0234C40.3864 20.878 40.6023 20.7663 40.8409 20.6321C41.2273 20.4309 41.6591 20.1961 41.8977 19.7825C42.1364 19.3689 42.125 18.8882 42.1136 18.4634C42.1136 18.1951 42.1023 17.938 42.1591 17.7368C42.2159 17.5467 42.3409 17.3455 42.4773 17.122C42.7046 16.753 42.9659 16.3394 42.9659 15.8476C42.9659 15.3557 42.7046 14.9421 42.4773 14.5732C42.3409 14.3496 42.2046 14.1372 42.1591 13.9583C42.125 13.8354 42.1136 13.69 42.1136 13.5335C42.1136 13.4441 42.1136 13.3435 42.1136 13.2429C42.1136 13.1535 42.1136 13.0528 42.1136 12.9634C42.1136 12.6169 42.0796 12.2591 41.8864 11.935C41.6364 11.5102 41.2046 11.2866 40.8296 11.0854C40.5909 10.9624 40.3636 10.8394 40.2273 10.6941C40.0796 10.5488 39.9659 10.3364 39.8296 10.1016C39.6705 9.81098 39.4886 9.48679 39.2159 9.24085C39.1364 9.17378 39.0568 9.10671 38.9659 9.05081C38.9546 9.05081 38.9318 9.02846 38.9205 9.02846C38.9091 9.02846 38.8864 9.01728 38.875 9.0061C38.8409 8.99492 38.8068 8.97256 38.7727 8.96138C38.7614 8.96138 38.7386 8.96138 38.7273 8.9502C38.7159 8.9502 38.6932 8.9502 38.6818 8.93902C38.4432 8.87195 38.1932 8.84959 37.9432 8.84959C37.8409 8.84959 37.75 8.84959 37.6591 8.84959C37.5682 8.84959 37.4773 8.84959 37.3977 8.84959C37.2273 8.84959 37.0682 8.84959 36.9205 8.80488C36.7273 8.76016 36.5227 8.62602 36.2955 8.49187C35.9546 8.26829 35.5568 8.03354 35.1023 8C35.0682 8 35.0341 8 35 8L34.9773 8Z" fill="black"/>
<path d="M35 9.11789H35.0227C35.2046 9.12907 35.4546 9.28557 35.7046 9.44207C35.9773 9.60976 36.2841 9.78862 36.6364 9.87805C36.9205 9.9563 37.1932 9.9563 37.4091 9.9563C37.5 9.9563 37.6023 9.9563 37.7046 9.9563C37.7841 9.9563 37.875 9.9563 37.9546 9.9563C38.0682 9.9563 38.25 9.9563 38.375 10.001H38.4091C38.4091 10.001 38.4091 10.0122 38.4091 10.0234L38.4546 10.0457C38.4546 10.0457 38.4773 10.0681 38.5 10.0793C38.6364 10.1911 38.75 10.4258 38.875 10.6494C39.0227 10.9289 39.2046 11.2419 39.4659 11.499C39.7273 11.7561 40.0568 11.9238 40.3409 12.0803C40.5909 12.2144 40.875 12.3598 40.9546 12.5051C41.0227 12.6169 41.0227 12.8293 41.0227 12.9746C41.0227 13.064 41.0227 13.1423 41.0227 13.2652C41.0227 13.3659 41.0227 13.4665 41.0227 13.5671C41.0227 13.7571 41.0341 14.0142 41.1023 14.2713C41.1932 14.6179 41.3864 14.9197 41.5568 15.188C41.7159 15.4451 41.875 15.7022 41.875 15.8811C41.875 16.06 41.7159 16.3171 41.5568 16.5742C41.3864 16.8425 41.2046 17.1443 41.1023 17.4909C41.0114 17.8486 41.0114 18.2063 41.0227 18.5305C41.0227 18.81 41.0341 19.123 40.9546 19.2571C40.8636 19.4024 40.5909 19.5478 40.3409 19.6819C40.0568 19.8272 39.7386 20.0061 39.4659 20.2632C39.2046 20.5203 39.0341 20.8333 38.875 21.124C38.75 21.3476 38.625 21.5711 38.5 21.6829C38.4773 21.7053 38.4546 21.7165 38.4432 21.7276C38.3296 21.7947 38.1136 21.7947 37.9546 21.7947C37.8636 21.7947 37.7841 21.7947 37.6818 21.7947C37.5909 21.7947 37.4886 21.7947 37.3977 21.7947C37.1932 21.7947 36.9205 21.7947 36.6364 21.873C36.2841 21.9624 35.9773 22.1524 35.7046 22.3201C35.4546 22.4654 35.2046 22.622 34.9773 22.6331C34.7955 22.622 34.5455 22.4654 34.2955 22.3201C34.0227 22.1524 33.7159 21.9736 33.3636 21.873C33.0909 21.7947 32.8182 21.7947 32.6023 21.7947C32.5114 21.7947 32.4205 21.7947 32.2955 21.7947C32.2159 21.7947 32.125 21.7947 32.0455 21.7947C31.9318 21.7947 31.7727 21.7947 31.6591 21.7612L31.5796 21.7276C31.5796 21.7276 31.5682 21.7276 31.5568 21.7276C31.5341 21.7276 31.5227 21.7053 31.5 21.6829C31.3636 21.56 31.2386 21.3252 31.125 21.1128C30.9773 20.8333 30.7955 20.5203 30.5341 20.2632C30.2727 20.0061 29.9432 19.8272 29.6591 19.6819C29.4091 19.5478 29.125 19.4024 29.0455 19.2571C28.9773 19.1453 28.9773 18.9329 28.9773 18.7764C28.9773 18.6982 28.9773 18.6199 28.9773 18.497C28.9773 18.3963 28.9773 18.2846 28.9773 18.1951C28.9773 18.0163 28.9773 17.7591 28.8977 17.4797C28.8068 17.1331 28.6136 16.8313 28.4432 16.563C28.2841 16.3059 28.125 16.0488 28.125 15.8699C28.125 15.6911 28.2841 15.4339 28.4432 15.1768C28.6136 14.9085 28.7955 14.6067 28.8977 14.2602C29 13.9024 28.9886 13.5335 28.9773 13.2205C28.9773 12.9411 28.9659 12.628 29.0455 12.4939C29.125 12.3486 29.4091 12.2033 29.6591 12.0691C29.9432 11.9238 30.2614 11.7449 30.5341 11.4878C30.7955 11.2307 30.9659 10.9177 31.125 10.627C31.2386 10.4146 31.3636 10.1799 31.5 10.0681C31.5227 10.0457 31.5455 10.0346 31.5568 10.0234C31.6705 9.9563 31.8864 9.9563 32.0455 9.9563C32.1364 9.9563 32.2159 9.9563 32.3068 9.9563C32.4091 9.9563 32.5 9.9563 32.5909 9.9563C32.8068 9.9563 33.0796 9.9563 33.3523 9.87805C33.7046 9.78862 34.0114 9.59858 34.2841 9.43089C34.5341 9.28557 34.7841 9.12907 34.9773 9.11789M34.9773 8C34.9773 8 34.9091 8 34.875 8C34.4205 8.03354 34.0227 8.26829 33.6818 8.48069C33.4546 8.61484 33.2386 8.74898 33.0568 8.7937C32.9205 8.82724 32.7614 8.83841 32.5796 8.83841C32.5 8.83841 32.4091 8.83841 32.3182 8.83841C32.2273 8.83841 32.125 8.83841 32.0341 8.83841C31.6818 8.83841 31.3068 8.87195 30.9773 9.06199C30.8864 9.11789 30.7955 9.17378 30.7273 9.25203C30.4546 9.49797 30.2727 9.82215 30.1136 10.1128C29.9886 10.3476 29.8636 10.5711 29.7159 10.7053C29.5682 10.8506 29.3523 10.9624 29.1136 11.0965C28.7273 11.2978 28.2955 11.5325 28.0568 11.9461C27.8182 12.3598 27.8296 12.8404 27.8409 13.2652C27.8409 13.5335 27.8523 13.7907 27.7955 13.9919C27.7386 14.1819 27.6136 14.3831 27.4773 14.6067C27.25 14.9756 26.9886 15.3892 26.9886 15.8811C26.9886 16.373 27.2614 16.7866 27.4886 17.1555C27.625 17.3791 27.7614 17.5915 27.8068 17.7703C27.8409 17.8933 27.8523 18.0386 27.8523 18.1951C27.8523 18.2846 27.8523 18.3852 27.8523 18.4858C27.8523 18.5752 27.8523 18.6758 27.8523 18.7764C27.8523 19.123 27.8864 19.4807 28.0796 19.8049C28.3296 20.2185 28.7614 20.4533 29.1364 20.6545C29.375 20.7774 29.6023 20.9004 29.7386 21.0457C29.8864 21.1911 30 21.4146 30.1364 21.6382C30.2955 21.9289 30.4773 22.253 30.75 22.499C30.8296 22.5661 30.9091 22.6331 31.0114 22.689C31.0227 22.689 31.0455 22.7114 31.0568 22.7114C31.0682 22.7114 31.0909 22.7226 31.1023 22.7337C31.1364 22.7449 31.1705 22.7673 31.2046 22.7785C31.2159 22.7785 31.2386 22.7785 31.25 22.7896C31.2614 22.7896 31.2841 22.7896 31.2955 22.8008C31.5341 22.8679 31.7841 22.8902 32.0341 22.8902C32.125 22.8902 32.2273 22.8902 32.3182 22.8902C32.4091 22.8902 32.5 22.8902 32.5909 22.8902C32.7614 22.8902 32.9205 22.8902 33.0568 22.935C33.25 22.9797 33.4546 23.1138 33.6818 23.248C34.0341 23.4604 34.4205 23.6951 34.875 23.7287C34.9091 23.7287 34.9432 23.7287 34.9773 23.7287C35.0114 23.7287 35.0455 23.7287 35.0796 23.7287C35.5341 23.6951 35.9318 23.4604 36.2727 23.248C36.5 23.1138 36.7159 22.9797 36.8977 22.935C37.0341 22.9014 37.1932 22.8902 37.3636 22.8902C37.4546 22.8902 37.5455 22.8902 37.6364 22.8902C37.7273 22.8902 37.8296 22.8902 37.9205 22.8902C38.2727 22.8902 38.6477 22.8567 38.9773 22.6667C39.0682 22.6108 39.1591 22.5549 39.2273 22.4766C39.5 22.2307 39.6818 21.9065 39.8409 21.6159C39.9659 21.3811 40.0909 21.1575 40.2386 21.0234C40.3864 20.878 40.6023 20.7663 40.8409 20.6321C41.2273 20.4309 41.6591 20.1961 41.8977 19.7825C42.1364 19.3689 42.125 18.8882 42.1136 18.4634C42.1136 18.1951 42.1023 17.938 42.1591 17.7368C42.2159 17.5467 42.3409 17.3455 42.4773 17.122C42.7046 16.753 42.9659 16.3394 42.9659 15.8476C42.9659 15.3557 42.7046 14.9421 42.4773 14.5732C42.3409 14.3496 42.2046 14.1372 42.1591 13.9583C42.125 13.8354 42.1136 13.69 42.1136 13.5335C42.1136 13.4441 42.1136 13.3435 42.1136 13.2429C42.1136 13.1535 42.1136 13.0528 42.1136 12.9634C42.1136 12.6169 42.0796 12.2591 41.8864 11.935C41.6364 11.5102 41.2046 11.2866 40.8296 11.0854C40.5909 10.9624 40.3636 10.8394 40.2273 10.6941C40.0796 10.5488 39.9659 10.3364 39.8296 10.1016C39.6705 9.81098 39.4886 9.48679 39.2159 9.24085C39.1364 9.17378 39.0568 9.10671 38.9659 9.05081C38.9546 9.05081 38.9318 9.02846 38.9205 9.02846C38.9091 9.02846 38.8864 9.01728 38.875 9.0061C38.8409 8.99492 38.8068 8.97256 38.7727 8.96138C38.7614 8.96138 38.7386 8.96138 38.7273 8.9502C38.7159 8.9502 38.6932 8.9502 38.6818 8.93902C38.4432 8.87195 38.1932 8.84959 37.9432 8.84959C37.8409 8.84959 37.75 8.84959 37.6591 8.84959C37.5682 8.84959 37.4773 8.84959 37.3977 8.84959C37.2273 8.84959 37.0682 8.84959 36.9205 8.80488C36.7273 8.76016 36.5227 8.62602 36.2955 8.49187C35.9546 8.26829 35.5568 8.03354 35.1023 8C35.0682 8 35.0341 8 35 8L34.9773 8Z" stroke="black"/>
</svg>
