<svg width="70" height="59" viewBox="0 0 70 59" fill="none" xmlns="http://www.w3.org/2000/svg">
<path d="M20.737 46.9414H22.4245C22.401 45.4414 21.1647 44.3984 19.2838 44.3984C17.4264 44.3984 16.067 45.4238 16.0729 46.9648C16.0729 48.207 16.9518 48.9219 18.3815 49.2734L19.3073 49.4961C20.233 49.7246 20.7604 49.9941 20.7604 50.5742C20.7604 51.207 20.1627 51.6406 19.237 51.6406C18.2995 51.6406 17.6198 51.207 17.5612 50.3516H15.8502C15.903 52.1738 17.2096 53.123 19.2604 53.1172C21.3288 53.123 22.5358 52.127 22.5416 50.5742C22.5358 49.1621 21.4518 48.4238 19.9987 48.0898L19.237 47.9023C18.5045 47.7383 17.8717 47.4629 17.8776 46.8477C17.8834 46.2852 18.3815 45.875 19.2721 45.875C20.1334 45.875 20.6666 46.2676 20.737 46.9414ZM26.4177 53.1289C27.988 53.123 29.0427 52.3613 29.2888 51.1836H27.6365C27.4666 51.5645 27.0447 51.8223 26.4529 51.8281C25.5564 51.8223 24.988 51.2305 24.988 50.2695H29.3357V49.7773C29.3357 47.6094 28.0173 46.5547 26.3474 46.5547C24.4841 46.5547 23.2713 47.8848 23.2771 49.8477C23.2713 51.8633 24.4666 53.123 26.4177 53.1289ZM24.988 49.1797C25.0232 48.4473 25.5857 47.8496 26.3826 47.8555C27.156 47.8496 27.6892 48.4062 27.6951 49.1797H24.988ZM33.6571 46.6367H32.4618V45.1133H30.7274V46.6367H29.8485V47.9375H30.7274V51.2891C30.7157 52.5254 31.5712 53.0879 32.8251 53.082C33.2528 53.0879 33.5634 53.0527 33.7509 53.0234V51.6523C33.5399 51.6699 33.2352 51.6875 33.0595 51.6875C32.7079 51.6758 32.4559 51.5527 32.4618 51.043V47.9375H33.6571V46.6367ZM37.9785 46.6367H36.7832V45.1133H35.0488V46.6367H34.1699V47.9375H35.0488V51.2891C35.0371 52.5254 35.8926 53.0879 37.1465 53.082C37.5742 53.0879 37.8848 53.0527 38.0723 53.0234V51.6523C37.8613 51.6699 37.5566 51.6875 37.3809 51.6875C37.0293 51.6758 36.7773 51.5527 36.7832 51.043V47.9375H37.9785V46.6367ZM38.9484 53H40.6827V46.6367H38.9484V53ZM38.8663 44.9258C38.8663 45.4062 39.2941 45.8047 39.8155 45.8047C40.3312 45.8047 40.7589 45.4062 40.753 44.9258C40.7589 44.4336 40.3312 44.041 39.8155 44.0352C39.2941 44.041 38.8663 44.4336 38.8663 44.9258ZM43.6448 49.3203C43.6448 48.4824 44.1428 47.9961 44.8635 47.9961C45.5842 47.9961 46.0061 48.4648 46.012 49.25V53H47.7346V48.9453C47.7405 47.4629 46.8733 46.5547 45.5432 46.5547C44.5998 46.5547 43.9202 47.0176 43.633 47.75H43.5627V46.6367H41.9104V53H43.6448V49.3203ZM51.8216 55.5195C53.6322 55.5195 54.9095 54.6934 54.9154 53.0703V46.6367H53.1927V47.7031H53.1224C52.888 47.1875 52.3724 46.5547 51.306 46.5547C49.8998 46.5547 48.7162 47.627 48.7162 49.7773C48.7162 51.8984 49.8705 52.9121 51.306 52.9062C52.3314 52.9121 52.8939 52.3906 53.1224 51.875H53.2045V53.0352C53.1986 53.9199 52.6595 54.2656 51.8568 54.2656C51.1654 54.2656 50.6849 54.0371 50.5912 53.5273H48.8802C48.9798 54.7285 50.0638 55.5195 51.8216 55.5195ZM50.4974 49.8008C50.4916 48.7051 50.9603 47.9375 51.8451 47.9375C52.7181 47.9375 53.2045 48.6699 53.2045 49.8008C53.2045 50.9316 52.7123 51.5996 51.8451 51.6055C50.9662 51.5996 50.4916 50.9023 50.4974 49.8008Z" fill="#70CCA6"/>
<path d="M35.5 21C36.8807 21 38 19.8807 38 18.5C38 17.1193 36.8807 16 35.5 16C34.1193 16 33 17.1193 33 18.5C33 19.8807 34.1193 21 35.5 21Z" stroke="#70CCA6" stroke-width="2" stroke-linecap="round" stroke-linejoin="round"/>
<path d="M41.8909 21.0909C41.7759 21.3514 41.7417 21.6403 41.7925 21.9205C41.8432 22.2007 41.9768 22.4592 42.1759 22.6627L42.2277 22.7145C42.3883 22.875 42.5157 23.0655 42.6026 23.2751C42.6896 23.4848 42.7343 23.7096 42.7343 23.9366C42.7343 24.1636 42.6896 24.3883 42.6026 24.598C42.5157 24.8077 42.3883 24.9982 42.2277 25.1586C42.0673 25.3192 41.8768 25.4466 41.6671 25.5336C41.4574 25.6205 41.2327 25.6652 41.0057 25.6652C40.7787 25.6652 40.5539 25.6205 40.3442 25.5336C40.1346 25.4466 39.9441 25.3192 39.7836 25.1586L39.7318 25.1068C39.5283 24.9077 39.2698 24.7742 38.9896 24.7234C38.7094 24.6726 38.4205 24.7069 38.16 24.8218C37.9046 24.9313 37.6867 25.1131 37.5333 25.3448C37.3798 25.5765 37.2975 25.848 37.2964 26.1259V26.2727C37.2964 26.7308 37.1144 27.1702 36.7905 27.4941C36.4665 27.818 36.0272 28 35.5691 28C35.111 28 34.6717 27.818 34.3477 27.4941C34.0238 27.1702 33.8418 26.7308 33.8418 26.2727V26.195C33.8351 25.9091 33.7426 25.6319 33.5763 25.3993C33.4099 25.1668 33.1775 24.9896 32.9091 24.8909C32.6486 24.7759 32.3597 24.7417 32.0795 24.7925C31.7993 24.8432 31.5408 24.9768 31.3373 25.1759L31.2855 25.2277C31.125 25.3883 30.9345 25.5157 30.7249 25.6026C30.5152 25.6896 30.2904 25.7343 30.0634 25.7343C29.8364 25.7343 29.6117 25.6896 29.402 25.6026C29.1923 25.5157 29.0018 25.3883 28.8414 25.2277C28.6808 25.0673 28.5534 24.8768 28.4664 24.6671C28.3795 24.4574 28.3348 24.2327 28.3348 24.0057C28.3348 23.7787 28.3795 23.5539 28.4664 23.3442C28.5534 23.1346 28.6808 22.9441 28.8414 22.7836L28.8932 22.7318C29.0923 22.5283 29.2258 22.2698 29.2766 21.9896C29.3274 21.7094 29.2931 21.4205 29.1782 21.16C29.0687 20.9046 28.8869 20.6867 28.6552 20.5333C28.4235 20.3798 28.152 20.2975 27.8741 20.2964H27.7273C27.2692 20.2964 26.8298 20.1144 26.5059 19.7905C26.182 19.4665 26 19.0272 26 18.5691C26 18.111 26.182 17.6717 26.5059 17.3477C26.8298 17.0238 27.2692 16.8418 27.7273 16.8418H27.805C28.0909 16.8351 28.3681 16.7426 28.6007 16.5763C28.8332 16.4099 29.0104 16.1775 29.1091 15.9091C29.2241 15.6486 29.2583 15.3597 29.2075 15.0795C29.1568 14.7993 29.0232 14.5408 28.8241 14.3373L28.7723 14.2855C28.6117 14.125 28.4843 13.9345 28.3974 13.7249C28.3104 13.5152 28.2657 13.2904 28.2657 13.0634C28.2657 12.8364 28.3104 12.6117 28.3974 12.402C28.4843 12.1923 28.6117 12.0018 28.7723 11.8414C28.9327 11.6808 29.1232 11.5534 29.3329 11.4664C29.5426 11.3795 29.7673 11.3348 29.9943 11.3348C30.2213 11.3348 30.4461 11.3795 30.6558 11.4664C30.8654 11.5534 31.0559 11.6808 31.2164 11.8414L31.2682 11.8932C31.4717 12.0923 31.7302 12.2258 32.0104 12.2766C32.2906 12.3274 32.5795 12.2931 32.84 12.1782H32.9091C33.1645 12.0687 33.3824 11.8869 33.5358 11.6552C33.6893 11.4235 33.7716 11.152 33.7727 10.8741V10.7273C33.7727 10.2692 33.9547 9.82983 34.2786 9.50591C34.6026 9.18198 35.0419 9 35.5 9C35.9581 9 36.3974 9.18198 36.7214 9.50591C37.0453 9.82983 37.2273 10.2692 37.2273 10.7273V10.805C37.2284 11.0829 37.3107 11.3544 37.4642 11.5861C37.6176 11.8178 37.8355 11.9996 38.0909 12.1091C38.3514 12.2241 38.6403 12.2583 38.9205 12.2075C39.2007 12.1568 39.4592 12.0232 39.6627 11.8241L39.7145 11.7723C39.875 11.6117 40.0655 11.4843 40.2751 11.3974C40.4848 11.3104 40.7096 11.2657 40.9366 11.2657C41.1636 11.2657 41.3883 11.3104 41.598 11.3974C41.8077 11.4843 41.9982 11.6117 42.1586 11.7723C42.3192 11.9327 42.4466 12.1232 42.5336 12.3329C42.6205 12.5426 42.6652 12.7673 42.6652 12.9943C42.6652 13.2213 42.6205 13.4461 42.5336 13.6558C42.4466 13.8654 42.3192 14.0559 42.1586 14.2164L42.1068 14.2682C41.9077 14.4717 41.7742 14.7302 41.7234 15.0104C41.6726 15.2906 41.7069 15.5795 41.8218 15.84V15.9091C41.9313 16.1645 42.1131 16.3824 42.3448 16.5358C42.5765 16.6893 42.848 16.7716 43.1259 16.7727H43.2727C43.7308 16.7727 44.1702 16.9547 44.4941 17.2786C44.818 17.6026 45 18.0419 45 18.5C45 18.9581 44.818 19.3974 44.4941 19.7214C44.1702 20.0453 43.7308 20.2273 43.2727 20.2273H43.195C42.9171 20.2284 42.6456 20.3107 42.4139 20.4642C42.1822 20.6176 42.0004 20.8355 41.8909 21.0909V21.0909Z" stroke="#70CCA6" stroke-width="2" stroke-linecap="round" stroke-linejoin="round"/>
</svg>
