<svg width="146" height="156" viewBox="0 0 146 156" fill="none" xmlns="http://www.w3.org/2000/svg">
<g clip-path="url(#clip0_701_1379)">
<path d="M115.311 62.0485C113.237 61.2893 111.163 59.7711 110.809 57.5949C110.607 56.2032 111.138 54.7861 112.048 53.7233C112.959 52.6605 114.198 51.9267 115.488 51.3953C117.284 50.6615 119.231 50.2566 121.153 50.2566C123.708 50.2566 126.439 50.8386 128.69 49.624C128.792 51.4459 127.679 53.0907 126.591 54.5584C125.301 56.355 123.986 58.1516 122.342 59.6192C120.698 61.0869 118.65 62.175 116.449 62.3015" fill="#74C4A3"/>
<path d="M37.8676 99.9032C36.1478 100.662 34.5797 101.675 33.1128 102.864C32.6828 103.218 32.6575 103.952 32.9104 104.407C33.2139 104.939 33.7703 105.065 34.3268 104.989C35.3384 104.863 36.3754 104.711 37.3871 104.585L38.854 104.382C39.2334 104.332 39.7898 104.129 40.1439 104.256L39.5875 103.927C39.5116 103.547 39.461 103.446 39.461 103.598C39.461 103.724 39.4104 103.851 39.3851 103.977C39.3345 104.205 39.3092 104.458 39.3092 104.686C39.3092 105.242 39.5369 105.799 39.9162 106.204C40.6244 106.938 41.7626 107.09 42.6983 106.786C43.6341 106.482 44.3929 105.774 45.354 105.571C45.7081 105.496 46.7956 105.571 46.6439 106.204C46.2898 107.798 48.7431 108.456 49.0719 106.887C49.4513 105.116 48.2373 103.421 46.4668 103.092C45.5563 102.94 44.6458 103.092 43.7859 103.446C43.3306 103.623 42.9007 103.876 42.496 104.104C42.3696 104.18 41.8131 104.357 41.7373 104.433C41.7373 104.433 41.7373 104.964 41.8384 104.458C41.9396 104.078 41.9902 103.648 41.9396 103.243C41.7878 102.181 40.852 101.624 39.8151 101.7C37.7412 101.902 35.6672 102.257 33.6186 102.535L34.8579 104.66C36.1478 103.623 37.5894 102.763 39.1069 102.105C39.7392 101.826 39.891 100.915 39.5622 100.384C39.1828 99.7514 38.4493 99.6502 37.8423 99.9286L37.8676 99.9032Z" fill="#74C4A3"/>
<path d="M100.288 104.812C98.492 105.42 96.8734 106.356 95.4823 107.621C95.0018 108.077 95.0018 108.962 95.4823 109.418C96.0135 109.899 96.7469 109.899 97.278 109.418C97.4045 109.291 97.531 109.19 97.6574 109.089C97.708 109.038 97.7586 108.988 97.8345 108.962L97.9609 108.861C97.8092 108.988 97.7839 109.013 97.885 108.937C98.138 108.76 98.3909 108.557 98.6691 108.406C99.2255 108.051 99.8072 107.748 100.414 107.495L100.111 107.621C100.414 107.495 100.692 107.393 100.996 107.292C101.628 107.09 102.109 106.407 101.881 105.723C101.679 105.091 100.996 104.61 100.313 104.838L100.288 104.812Z" fill="#74C4A3"/>
<path d="M100.794 107.09C100.692 107.647 100.617 108.204 100.515 108.76C100.364 109.697 101.072 110.557 102.083 110.329C103.803 109.899 105.498 109.469 107.218 109.039C107.673 108.937 108.154 108.811 108.583 108.887C108.634 108.887 108.988 109.039 108.786 108.887C108.786 108.887 108.786 108.811 108.786 108.786C108.786 108.836 108.786 108.988 108.761 109.064C108.659 109.722 108.457 110.304 108.659 110.962C108.938 111.797 109.722 112.303 110.556 112.328C111.366 112.354 112.2 111.999 112.934 111.772L115.488 111.012C117.031 110.532 116.373 108.102 114.805 108.583L112.251 109.342C111.821 109.469 111.391 109.621 110.961 109.722C110.885 109.722 110.632 109.772 110.582 109.823C110.404 109.772 110.48 109.848 110.784 110.076C110.986 110.405 111.087 110.456 111.037 110.177C111.315 109.772 111.29 108.912 111.214 108.457C111.113 107.773 110.708 107.191 110.126 106.812C109.039 106.154 107.673 106.331 106.51 106.609C104.79 107.04 103.095 107.47 101.375 107.9L102.943 109.469C103.045 108.912 103.12 108.355 103.222 107.799C103.323 107.116 103.045 106.432 102.336 106.23C101.729 106.053 100.895 106.432 100.768 107.116L100.794 107.09Z" fill="#74C4A3"/>
<path d="M73.9337 51.674L71.4804 39.9581C71.3287 39.2242 70.5699 38.9965 69.9123 39.0724C63.3364 39.9581 56.4824 40.8943 49.9824 39.123C44.5193 37.6554 39.5874 34.214 37.5641 28.7735C35.5408 23.3331 36.4007 17.5131 39.6127 12.8065C42.8248 8.09989 48.1867 5.34172 53.8267 4.30424C59.8209 3.19085 66.1185 3.4945 72.1886 3.57041C78.2586 3.64633 83.8987 3.92467 89.387 5.97433C99.6302 9.82059 105.65 21.41 102.033 31.9366C100.945 35.0996 98.9473 37.7566 96.0387 39.4014C92.9784 41.1474 89.3364 41.8559 85.8714 42.2608C83.9493 42.4885 82.0524 42.5897 80.1302 42.5897C78.6127 42.5897 77.0699 42.6656 75.7547 43.4754C73.4026 44.8924 72.6691 47.8277 72.2392 50.3328C71.961 51.927 74.4143 52.6102 74.6672 51.0161C74.8948 49.6749 75.1224 48.2579 75.78 47.0686C76.7917 45.2467 78.4609 45.1455 80.3831 45.1202C84.0251 45.0695 87.6925 44.7153 91.2333 43.8549C97.3792 42.3873 102.21 38.8953 104.385 32.8222C108.331 21.8148 102.488 9.06146 91.9921 4.30424C86.2002 1.67259 79.7761 1.1665 73.5038 1.03998C67.2314 0.913457 60.175 0.635109 53.675 1.7485C47.6049 2.78598 41.9649 5.54415 38.1711 10.5038C34.3773 15.4635 33.0875 21.2835 34.4279 27.1288C35.9454 33.7838 40.9026 38.5916 47.2003 40.8943C54.7372 43.6525 62.8812 42.5644 70.6205 41.5016L69.0524 40.616L71.5057 52.3319C71.8345 53.9261 74.2878 53.2428 73.9337 51.6487V51.674Z" fill="#74C4A3"/>
<path d="M68.5719 111.392C68.5213 109.773 68.5719 107.647 70.1906 106.736C71.4551 106.002 72.745 107.065 73.2256 108.254C73.8831 109.975 73.5291 112.278 73.0232 113.998C72.6691 115.213 71.6069 116.984 70.0641 116.63C68.066 116.175 68.4454 113.113 68.5466 111.67C68.5972 110.987 67.9143 110.405 67.282 110.405C66.5485 110.405 66.068 110.987 66.0174 111.67C65.7898 114.226 65.9415 117.44 68.5719 118.756C71.0505 119.996 73.8579 118.326 74.9201 116.023C75.5018 114.783 75.7547 113.442 75.9065 112.101C76.0582 110.76 76.1341 109.267 75.7547 107.9C75.0466 105.471 72.6691 103.396 70.0388 104.079C66.8014 104.914 65.9668 108.507 66.0427 111.392C66.0933 113.012 68.6225 113.012 68.5719 111.392V111.392Z" fill="#A0A0A0"/>
<path d="M53.1691 87.3528L52.5874 90.4146C52.5116 90.7435 52.5368 91.0725 52.7139 91.4014C52.8656 91.6545 53.1691 91.9075 53.4726 91.9835C53.8014 92.0594 54.1555 92.0341 54.459 91.8569C54.7119 91.6798 54.9902 91.4268 55.0407 91.0978L55.6225 88.036C55.6983 87.707 55.673 87.3781 55.496 87.0491C55.3442 86.7961 55.0407 86.543 54.7372 86.4671C54.4084 86.3912 54.0544 86.4165 53.7509 86.5936C53.4979 86.7708 53.2197 87.0238 53.1691 87.3528Z" fill="#A0A0A0"/>
<path d="M49.1477 94.2357L51.6516 94.5394C51.9551 94.5647 52.3345 94.3622 52.5368 94.1598C52.7645 93.9321 52.9162 93.5778 52.9162 93.2741C52.9162 92.9705 52.7898 92.6162 52.5368 92.3885L52.2839 92.1861C52.0816 92.0595 51.8793 92.0089 51.6516 92.0089L49.1477 91.7053C48.8442 91.68 48.4649 91.8824 48.2625 92.0848C48.0349 92.3126 47.8831 92.6668 47.8831 92.9705C47.8831 93.2741 48.0096 93.6284 48.2625 93.8561L48.5154 94.0586C48.7178 94.1851 48.9201 94.2357 49.1477 94.2357Z" fill="#A0A0A0"/>
<path d="M56.9376 95.0959H59.7197C60.0485 95.0959 60.3773 94.944 60.6049 94.7163C60.8325 94.4886 60.9843 94.1343 60.9843 93.8306C60.9843 93.527 60.8578 93.1727 60.6049 92.945C60.352 92.7172 60.0485 92.5654 59.7197 92.5654H56.9376C56.6088 92.5654 56.28 92.7172 56.0524 92.945C55.8248 93.1727 55.673 93.527 55.673 93.8306C55.673 94.1343 55.7995 94.4886 56.0524 94.7163C56.3053 94.944 56.6088 95.0959 56.9376 95.0959Z" fill="#A0A0A0"/>
<path d="M52.3598 95.4496C52.1828 96.0063 52.0816 96.5883 52.031 97.1703C51.9805 97.7523 52.031 98.3343 52.1069 98.9163C52.1575 99.1947 52.461 99.5236 52.6886 99.6755C52.9668 99.8273 53.3715 99.9032 53.675 99.802C53.9785 99.7008 54.282 99.5236 54.4338 99.22L54.5602 98.9163C54.6108 98.6886 54.6108 98.4609 54.5602 98.2331V98.1825L54.6108 98.5115C54.5349 97.9548 54.5349 97.4234 54.6108 96.8667L54.5602 97.1956C54.6108 96.8161 54.6867 96.4618 54.8131 96.1076C54.9143 95.8039 54.8384 95.399 54.6867 95.1207C54.5349 94.8423 54.2314 94.6146 53.9279 94.5387C53.2451 94.3869 52.5875 94.7411 52.3598 95.4243V95.4496Z" fill="#A0A0A0"/>
<path d="M85.7702 90.4397L85.2138 93.5015C85.1632 93.8305 85.1632 94.1594 85.3403 94.4884C85.492 94.7414 85.7955 94.9945 86.099 95.0704C86.4278 95.1463 86.7819 95.121 87.0854 94.9438C87.3383 94.7667 87.6165 94.5137 87.6671 94.1847L88.2235 91.1229C88.2741 90.7939 88.2741 90.465 88.0971 90.136C87.9453 89.883 87.6418 89.6299 87.3383 89.554C87.0095 89.4781 86.6555 89.5034 86.352 89.6805C86.099 89.8577 85.8208 90.1107 85.7702 90.4397Z" fill="#A0A0A0"/>
<path d="M81.1166 95.8297C81.3442 96.0321 81.5972 96.2345 81.8501 96.3864C82.103 96.5382 82.4065 96.6647 82.6847 96.7912C83.1652 96.9937 83.6964 97.0696 84.2275 97.0696C84.5563 97.0696 84.8851 96.9178 85.1127 96.69C85.3403 96.4623 85.4921 96.108 85.4921 95.8044C85.4921 95.5007 85.3656 95.1465 85.1127 94.9187C84.8598 94.691 84.5563 94.5645 84.2275 94.5391C84.101 94.5391 83.9493 94.5392 83.8228 94.5138L84.1516 94.5644C83.8481 94.5138 83.5699 94.4379 83.2664 94.3367L83.5699 94.4632C83.2917 94.3367 83.0388 94.2102 82.8112 94.0331L83.0641 94.2355C83.0641 94.2355 82.9376 94.1343 82.8617 94.0837C82.6088 93.8559 82.3053 93.7041 81.9765 93.7041C81.673 93.7041 81.2937 93.8306 81.0913 94.0837C80.889 94.3367 80.7119 94.6404 80.7119 94.9693C80.7119 95.2983 80.8384 95.6272 81.0913 95.855L81.1166 95.8297Z" fill="#A0A0A0"/>
<path d="M88.4006 98.714H90.6263C90.9551 98.714 91.2839 98.5622 91.5115 98.3345C91.7392 98.1067 91.8909 97.7525 91.8909 97.4488C91.8909 97.1452 91.7644 96.7909 91.5115 96.5632C91.2586 96.3354 90.9551 96.1836 90.6263 96.1836H88.4006C88.0718 96.1836 87.743 96.3354 87.5154 96.5632C87.2878 96.7909 87.136 97.1452 87.136 97.4488C87.136 97.7525 87.2625 98.1067 87.5154 98.3345C87.7683 98.5622 88.0718 98.714 88.4006 98.714Z" fill="#A0A0A0"/>
<path d="M84.1769 98.5119L83.8987 100.46C83.8481 100.638 83.8481 100.789 83.8987 100.966C83.8987 101.144 83.9492 101.295 84.0504 101.447C84.2022 101.7 84.5057 101.953 84.8092 102.029C85.138 102.105 85.492 102.08 85.7955 101.903L86.0485 101.7C86.2002 101.548 86.3014 101.346 86.3772 101.144L86.6555 99.1952C86.706 99.018 86.706 98.8662 86.6555 98.6891C86.6555 98.5119 86.6049 98.3601 86.5037 98.2083C86.352 97.9552 86.0485 97.7022 85.745 97.6263C85.4162 97.5504 85.0621 97.5757 84.7586 97.7528L84.5057 97.9552C84.3539 98.1071 84.2527 98.3095 84.1769 98.5119Z" fill="#A0A0A0"/>
<path d="M5.59527 86.5933L5.26648 90.2119C5.24119 90.5155 5.41823 90.8951 5.64586 91.0975C5.87348 91.3253 6.22757 91.4771 6.53107 91.4771C6.83457 91.4771 7.18866 91.3506 7.41628 91.0975C7.64391 90.8445 7.74507 90.5661 7.79566 90.2119L8.12445 86.5933C8.14974 86.2897 7.9727 85.9101 7.74507 85.7077C7.51745 85.4799 7.16336 85.3281 6.85986 85.3281C6.55636 85.3281 6.20228 85.4546 5.97465 85.7077C5.74702 85.9607 5.64586 86.2391 5.59527 86.5933Z" fill="#A0A0A0"/>
<path d="M1.47269 93.9827L4.533 94.5141C4.88708 94.5647 5.19059 94.5647 5.51938 94.3875C5.7723 94.2357 6.02522 93.932 6.10109 93.6284C6.17697 93.2994 6.15168 92.9452 5.97463 92.6415C5.79759 92.3885 5.54467 92.1101 5.21588 92.0595L2.15557 91.5281C1.80149 91.4775 1.49798 91.4775 1.16919 91.6547C0.916273 91.8065 0.663355 92.1101 0.587479 92.4138C0.511604 92.7427 0.536896 93.097 0.713938 93.4007C0.890981 93.6537 1.1439 93.932 1.47269 93.9827V93.9827Z" fill="#A0A0A0"/>
<path d="M8.4785 94.817L11.817 95.146C12.1205 95.1713 12.4999 94.9942 12.7022 94.7664C12.9299 94.5387 13.0816 94.1844 13.0816 93.8808C13.0816 93.5771 12.9552 93.2228 12.7022 92.9951C12.4493 92.7674 12.1711 92.6662 11.817 92.6156L8.4785 92.2866C8.175 92.2613 7.79562 92.4384 7.59329 92.6662C7.36566 92.8939 7.21391 93.2482 7.21391 93.5518C7.21391 93.8555 7.34037 94.2097 7.59329 94.4375C7.84621 94.6652 8.12442 94.7664 8.4785 94.817V94.817Z" fill="#A0A0A0"/>
<path d="M6.17698 96.5637L5.87348 98.7905C5.82289 98.9676 5.82289 99.1194 5.87348 99.2966C5.87348 99.4737 5.92406 99.6255 6.02523 99.7773C6.17698 100.03 6.48048 100.283 6.78398 100.359C7.11278 100.435 7.46686 100.41 7.77036 100.233L8.02328 100.03C8.17503 99.8786 8.2762 99.6761 8.35208 99.4737L8.65558 97.2469C8.70616 97.0698 8.70616 96.918 8.65558 96.7408C8.65558 96.5637 8.60499 96.4119 8.50383 96.26C8.35208 96.007 8.04857 95.754 7.74507 95.678C7.41628 95.6021 7.06219 95.6274 6.75869 95.8046L6.50577 96.007C6.35402 96.1588 6.25286 96.3613 6.17698 96.5637Z" fill="#A0A0A0"/>
<path d="M142.297 74.2706L141.513 70.728C141.362 70.0701 140.578 69.6399 139.945 69.8424C139.262 70.0701 138.908 70.7027 139.06 71.4112L139.844 74.9539C139.996 75.6118 140.78 76.0419 141.412 75.8395C142.095 75.6118 142.449 74.9792 142.297 74.2706Z" fill="#A0A0A0"/>
<path d="M143.663 65.9706L140.578 66.4007C140.299 66.4514 139.971 66.7297 139.819 66.9828C139.667 67.2611 139.591 67.666 139.692 67.9696C139.794 68.2733 139.971 68.5769 140.274 68.7287L140.578 68.8553C140.805 68.9059 141.033 68.9059 141.26 68.8553L144.346 68.4251C144.624 68.3745 144.953 68.0961 145.105 67.8431C145.257 67.5648 145.332 67.1599 145.231 66.8562C145.13 66.5526 144.953 66.2489 144.65 66.0971L144.346 65.9706C144.118 65.92 143.891 65.92 143.663 65.9706Z" fill="#A0A0A0"/>
<path d="M137.062 67.2613L133.774 67.9699C133.471 68.0458 133.167 68.2988 133.015 68.5519C132.864 68.8302 132.788 69.2351 132.889 69.5387C133.117 70.222 133.749 70.5762 134.457 70.4244L137.745 69.7159C138.048 69.64 138.352 69.3869 138.504 69.1339C138.655 68.8555 138.731 68.4507 138.63 68.147C138.403 67.4638 137.77 67.1095 137.062 67.2613Z" fill="#A0A0A0"/>
<path d="M138.63 64.6039L138.251 62.4024C138.2 62.0988 137.922 61.7951 137.669 61.6433C137.391 61.4915 136.986 61.4156 136.683 61.5168C136.379 61.618 136.076 61.7951 135.924 62.0988L135.797 62.4024C135.747 62.6302 135.747 62.8579 135.797 63.0857L136.177 65.2871C136.227 65.5908 136.506 65.8944 136.759 66.0463C137.037 66.1981 137.441 66.274 137.745 66.1728C138.048 66.0716 138.352 65.8944 138.504 65.5908L138.63 65.2871C138.681 65.0594 138.681 64.8317 138.63 64.6039Z" fill="#A0A0A0"/>
<path d="M133.218 139.581L132.535 143.782C132.484 144.136 132.484 144.44 132.661 144.769C132.813 145.022 133.116 145.275 133.42 145.351C133.749 145.427 134.103 145.401 134.406 145.224C134.659 145.047 134.937 144.794 134.988 144.465L135.671 140.264C135.722 139.91 135.722 139.607 135.544 139.278C135.393 139.025 135.089 138.772 134.786 138.696C134.457 138.62 134.103 138.645 133.799 138.822C133.546 138.999 133.268 139.252 133.218 139.581Z" fill="#A0A0A0"/>
<path d="M128.589 146.135L131.093 146.691C131.422 146.767 131.776 146.742 132.08 146.565C132.332 146.413 132.585 146.109 132.661 145.806C132.737 145.477 132.712 145.122 132.535 144.819C132.358 144.54 132.105 144.313 131.776 144.237L129.272 143.68C128.943 143.604 128.589 143.629 128.286 143.807C128.033 143.958 127.78 144.262 127.704 144.566C127.628 144.895 127.653 145.249 127.831 145.553C128.008 145.831 128.26 146.059 128.589 146.135Z" fill="#A0A0A0"/>
<path d="M136.43 148.412L139.212 148.741C139.515 148.767 139.895 148.564 140.097 148.362C140.325 148.134 140.476 147.78 140.476 147.476C140.476 147.173 140.35 146.818 140.097 146.591L139.844 146.388C139.642 146.262 139.439 146.211 139.212 146.211L136.43 145.882C136.126 145.857 135.747 146.059 135.545 146.262C135.317 146.489 135.165 146.844 135.165 147.147C135.165 147.451 135.292 147.805 135.545 148.033L135.797 148.235C136 148.362 136.202 148.412 136.43 148.412Z" fill="#A0A0A0"/>
<path d="M132.636 148.488L131.574 152.688C131.422 153.321 131.776 154.08 132.459 154.257C133.142 154.434 133.85 154.055 134.027 153.371L135.089 149.171C135.241 148.538 134.887 147.779 134.204 147.602C133.521 147.425 132.813 147.804 132.636 148.488Z" fill="#A0A0A0"/>
<path d="M58.3287 24.6232C59.9473 24.6232 59.9473 22.0928 58.3287 22.0928C56.71 22.0928 56.71 24.6232 58.3287 24.6232Z" fill="#A0A0A0"/>
<path d="M73.0738 22.0928H72.5174C72.3403 22.0928 72.1886 22.1181 72.0369 22.194C71.8851 22.2446 71.7333 22.3205 71.6322 22.447C71.5057 22.5736 71.4298 22.7001 71.3793 22.8519C71.3034 23.0037 71.2528 23.1556 71.2781 23.3327L71.3287 23.6616C71.3793 23.8641 71.5057 24.0665 71.6575 24.2183L71.9104 24.4208C72.1127 24.5473 72.3151 24.5979 72.5427 24.5979H73.0991C73.2762 24.5979 73.4279 24.5726 73.5796 24.4967C73.7314 24.4461 73.8832 24.3702 73.9843 24.2436C74.1108 24.1171 74.1867 23.9906 74.2372 23.8388C74.3131 23.6869 74.3637 23.5351 74.3384 23.358L74.2878 23.029C74.2372 22.8266 74.1108 22.6242 73.959 22.4723L73.7061 22.2699C73.5038 22.1434 73.3014 22.0928 73.0738 22.0928Z" fill="#A0A0A0"/>
<path d="M83.3929 22.6494H82.28C82.103 22.6494 81.9512 22.6747 81.7995 22.7506C81.6477 22.8012 81.496 22.8772 81.3948 23.0037C81.2684 23.1302 81.1925 23.2567 81.1419 23.4085C81.066 23.5604 81.0154 23.7122 81.0407 23.8893L81.0913 24.2183C81.1419 24.4207 81.2684 24.6232 81.4201 24.775L81.673 24.9774C81.8754 25.1039 82.0777 25.1545 82.3053 25.1545H83.4182C83.5952 25.1545 83.7469 25.1292 83.8987 25.0533C84.0505 25.0027 84.2022 24.9268 84.3034 24.8003C84.4298 24.6738 84.5057 24.5472 84.5563 24.3954C84.6322 24.2436 84.6827 24.0918 84.6575 23.9146L84.6069 23.5857C84.5563 23.3832 84.4298 23.1808 84.2781 23.029L84.0252 22.8265C83.8228 22.7 83.6205 22.6494 83.3929 22.6494V22.6494Z" fill="#A0A0A0"/>
<path d="M117.967 54.6848L115.589 55.368C115.286 55.4692 115.008 55.6716 114.831 55.95C114.654 56.2283 114.603 56.6332 114.704 56.9368C114.805 57.2405 114.982 57.5442 115.286 57.696C115.589 57.8478 115.918 57.9237 116.272 57.8225L118.65 57.1393C118.953 57.0381 119.231 56.8356 119.408 56.5573C119.585 56.2789 119.636 55.8741 119.535 55.5704C119.434 55.2668 119.257 54.9631 118.953 54.8113C118.65 54.6595 118.321 54.5835 117.967 54.6848Z" fill="#A0A0A0"/>
<path d="M112.959 57.3666L111.745 58.1257C111.593 58.2016 111.467 58.3028 111.391 58.4547C111.29 58.5812 111.214 58.7077 111.163 58.8848C111.113 59.062 111.113 59.2138 111.163 59.3909C111.163 59.5681 111.214 59.7199 111.315 59.8717L111.517 60.1248C111.669 60.2766 111.871 60.3778 112.074 60.4537L112.403 60.5043C112.63 60.5043 112.832 60.4537 113.035 60.3272L114.249 59.5681C114.401 59.4922 114.527 59.3909 114.603 59.2391C114.704 59.1126 114.78 58.9861 114.831 58.8089C114.881 58.6318 114.881 58.48 114.831 58.3028C114.831 58.1257 114.78 57.9739 114.679 57.8221L114.476 57.569C114.325 57.4172 114.122 57.316 113.92 57.2401L113.591 57.1895C113.364 57.1895 113.161 57.2401 112.959 57.3666Z" fill="#A0A0A0"/>
<path d="M108.735 59.8973C108.735 59.8973 108.583 60.0491 108.482 60.1251L108.735 59.9226C108.609 60.0238 108.457 60.0997 108.305 60.1757L108.609 60.0491C108.609 60.0491 108.406 60.1251 108.28 60.1504C108.103 60.201 107.976 60.2769 107.85 60.3781C107.724 60.4793 107.597 60.5805 107.521 60.7324C107.42 60.8842 107.369 61.036 107.369 61.2131C107.344 61.3903 107.344 61.5421 107.369 61.7192L107.496 62.0229C107.597 62.2253 107.749 62.3518 107.951 62.4784L108.255 62.6049C108.482 62.6555 108.71 62.6555 108.938 62.6049C109.039 62.6049 109.14 62.5543 109.216 62.529C109.393 62.4531 109.595 62.3771 109.772 62.2759C109.949 62.1747 110.101 62.0482 110.253 61.9217C110.329 61.8458 110.405 61.7951 110.48 61.7192C110.607 61.5927 110.683 61.4662 110.733 61.3144C110.809 61.1625 110.86 61.0107 110.834 60.8336C110.834 60.6564 110.809 60.5046 110.733 60.3528C110.683 60.201 110.607 60.0491 110.48 59.9479L110.227 59.7455C110.025 59.619 109.823 59.5684 109.595 59.5684L109.266 59.619C109.064 59.6696 108.862 59.7961 108.71 59.9479L108.735 59.8973Z" fill="#A0A0A0"/>
<path d="M105.245 62.0736L104.461 62.6556C104.309 62.7315 104.183 62.8327 104.107 62.9846C104.006 63.1111 103.93 63.2376 103.879 63.4147C103.829 63.5919 103.829 63.7437 103.879 63.9208C103.879 64.098 103.93 64.2498 104.031 64.4016L104.233 64.6547C104.385 64.8065 104.587 64.9077 104.79 64.9836L105.119 65.0342C105.346 65.0342 105.548 64.9836 105.751 64.8571L106.535 64.2751C106.687 64.1992 106.813 64.098 106.889 63.9461C106.99 63.8196 107.066 63.6931 107.117 63.516C107.167 63.3388 107.167 63.187 107.117 63.0099C107.117 62.8327 107.066 62.6809 106.965 62.5291L106.762 62.276C106.611 62.1242 106.408 62.023 106.206 61.9471L105.877 61.8965C105.65 61.8965 105.447 61.9471 105.245 62.0736Z" fill="#A0A0A0"/>
<path d="M102.109 65.4135L101.527 65.793C101.375 65.8689 101.249 65.9702 101.173 66.122C101.072 66.2485 100.996 66.375 100.945 66.5522C100.895 66.7293 100.895 66.8811 100.945 67.0582C100.945 67.2354 100.996 67.3872 101.097 67.539L101.299 67.7921C101.451 67.9439 101.654 68.0451 101.856 68.121L102.185 68.1716C102.412 68.1716 102.615 68.121 102.817 67.9945L103.399 67.6149C103.55 67.539 103.677 67.4378 103.753 67.286C103.854 67.1595 103.93 67.0329 103.98 66.8558C104.031 66.6787 104.031 66.5269 103.98 66.3497C103.98 66.1726 103.93 66.0208 103.829 65.8689L103.626 65.6159C103.475 65.4641 103.272 65.3629 103.07 65.2869L102.741 65.2363C102.513 65.2363 102.311 65.2869 102.109 65.4135Z" fill="#A0A0A0"/>
<path d="M102.235 61.1878C102.235 61.1878 102.083 61.036 101.982 60.9601C101.805 60.8336 101.654 60.6817 101.451 60.5805C101.35 60.5299 101.249 60.4793 101.148 60.4287C100.945 60.3275 100.743 60.2516 100.541 60.1757C100.364 60.125 100.212 60.125 100.035 60.1757C99.8578 60.1757 99.706 60.2263 99.5543 60.3275C99.4025 60.4034 99.2761 60.5046 99.2002 60.6564C99.099 60.783 99.0232 60.9095 98.9726 61.0866L98.922 61.4156C98.922 61.6433 98.9726 61.8457 99.099 62.0482L99.3014 62.3012C99.4531 62.453 99.6555 62.5543 99.8578 62.6302C99.9337 62.6302 100.01 62.6808 100.06 62.7061L99.7566 62.5796C99.9842 62.6808 100.187 62.8073 100.389 62.9338L100.136 62.7314C100.136 62.7314 100.338 62.8832 100.414 62.9844C100.541 63.111 100.667 63.1869 100.819 63.2375C100.971 63.3134 101.122 63.364 101.299 63.3387C101.476 63.3387 101.628 63.3134 101.78 63.2375C101.932 63.1869 102.083 63.111 102.185 62.9844L102.387 62.7314C102.513 62.529 102.564 62.3265 102.564 62.0988L102.513 61.7698C102.463 61.5674 102.336 61.365 102.185 61.2131L102.235 61.1878Z" fill="#A0A0A0"/>
<path d="M96.671 59.0375L95.5582 58.6073C95.3811 58.5567 95.2294 58.5567 95.0524 58.6073C94.8753 58.6073 94.7236 58.6579 94.5718 58.7591C94.4201 58.835 94.2936 58.9363 94.2177 59.0881C94.1166 59.2146 94.0407 59.3411 93.9901 59.5183L93.9395 59.8472C93.9395 60.0749 93.9901 60.2774 94.1166 60.4798L94.3189 60.7329C94.4706 60.8847 94.673 60.9859 94.8753 61.0618L95.9882 61.492C96.1652 61.5426 96.3169 61.5426 96.494 61.492C96.671 61.492 96.8228 61.4414 96.9745 61.3402C97.1263 61.2643 97.2527 61.163 97.3286 61.0112C97.4298 60.8847 97.5057 60.7582 97.5562 60.581L97.6068 60.2521C97.6068 60.0243 97.5563 59.8219 97.4298 59.6195L97.2275 59.3664C97.0757 59.2146 96.8734 59.1134 96.671 59.0375Z" fill="#A0A0A0"/>
<path d="M90.8286 57.4935L90.1458 57.3417C89.9687 57.2911 89.817 57.2911 89.6399 57.3417C89.4629 57.3417 89.3111 57.3923 89.1594 57.4935C89.0076 57.5694 88.8812 57.6706 88.8053 57.8225C88.7041 57.949 88.6283 58.0755 88.5777 58.2526L88.5271 58.5816C88.5271 58.8093 88.5777 59.0118 88.7041 59.2142L88.9065 59.4672C89.0582 59.6191 89.2606 59.7203 89.4629 59.7962L90.1458 59.948C90.3228 59.9986 90.4746 59.9986 90.6516 59.948C90.8287 59.948 90.9804 59.8974 91.1321 59.7962C91.2839 59.7203 91.4104 59.6191 91.4862 59.4672C91.5874 59.3407 91.6633 59.2142 91.7139 59.0371L91.7644 58.7081C91.7644 58.4804 91.7139 58.2779 91.5874 58.0755L91.3851 57.8225C91.2333 57.6706 91.031 57.5694 90.8286 57.4935Z" fill="#A0A0A0"/>
<path d="M85.0621 56.6333L83.5446 56.4814C83.3675 56.4814 83.2158 56.5068 83.064 56.5827C82.9123 56.6333 82.7605 56.7092 82.6594 56.8357C82.5329 56.9622 82.457 57.0888 82.4064 57.2406C82.3306 57.3924 82.28 57.5442 82.3053 57.7214C82.3053 58.0503 82.4317 58.3793 82.6847 58.607L82.9376 58.8094C83.1399 58.936 83.3422 58.9866 83.5699 58.9866L85.0874 59.1384C85.2644 59.1384 85.4162 59.1131 85.5679 59.0372C85.7197 58.9866 85.8714 58.9107 85.9726 58.7841C86.099 58.6576 86.1749 58.5311 86.2255 58.3793C86.3014 58.2274 86.352 58.0756 86.3267 57.8985C86.3267 57.5695 86.2002 57.2406 85.9473 57.0128L85.6944 56.8104C85.492 56.6839 85.2897 56.6333 85.0621 56.6333Z" fill="#A0A0A0"/>
<path d="M80.029 56.3545H78.638C78.4609 56.3545 78.3092 56.3798 78.1574 56.4557C78.0057 56.5063 77.8539 56.5822 77.7528 56.7088C77.6263 56.8353 77.5504 56.9618 77.4998 57.1136C77.424 57.2654 77.3734 57.4173 77.3987 57.5944L77.4493 57.9234C77.4998 58.1258 77.6263 58.3282 77.7781 58.4801C78.031 58.7078 78.3345 58.8596 78.6633 58.8596H80.0543C80.2314 58.8596 80.3831 58.8343 80.5349 58.7584C80.6866 58.7078 80.8384 58.6319 80.9395 58.5054C81.066 58.3788 81.1419 58.2523 81.1924 58.1005C81.2683 57.9487 81.3189 57.7968 81.2936 57.6197L81.243 57.2908C81.1924 57.0883 81.066 56.8859 80.9142 56.7341C80.6613 56.5063 80.3578 56.3545 80.029 56.3545Z" fill="#A0A0A0"/>
<path d="M74.6672 55.0389L73.2761 54.7352C73.0991 54.6846 72.9473 54.6846 72.7703 54.7352C72.5933 54.7352 72.4415 54.7858 72.2898 54.887C72.138 54.963 72.0116 55.0642 71.9357 55.216C71.8345 55.3425 71.7586 55.469 71.7081 55.6462L71.6575 55.9751C71.6575 56.2029 71.7081 56.4053 71.8345 56.6077C72.0116 56.8861 72.2645 57.1138 72.5933 57.1897L73.9843 57.4934C74.1614 57.544 74.3131 57.544 74.4901 57.4934C74.6672 57.4934 74.8189 57.4428 74.9707 57.3416C75.1224 57.2657 75.2489 57.1644 75.3248 57.0126C75.4259 56.8861 75.5018 56.7596 75.5524 56.5824L75.603 56.2535C75.603 56.0257 75.5524 55.8233 75.4259 55.6209C75.2489 55.3425 74.996 55.1148 74.6672 55.0389Z" fill="#A0A0A0"/>
<path d="M68.7742 53.6982H66.8267C66.4979 53.6982 66.1691 53.8501 65.9415 54.0778C65.7139 54.3055 65.5621 54.6598 65.5621 54.9635C65.5621 55.2671 65.6886 55.6214 65.9415 55.8491C66.1944 56.0768 66.4979 56.2287 66.8267 56.2287H68.7742C69.103 56.2287 69.4318 56.0768 69.6594 55.8491C69.887 55.6214 70.0388 55.2671 70.0388 54.9635C70.0388 54.6598 69.9123 54.3055 69.6594 54.0778C69.4065 53.8501 69.103 53.6982 68.7742 53.6982Z" fill="#A0A0A0"/>
<path d="M62.78 53.6982H61.5154C61.3384 53.6982 61.1866 53.7235 61.0349 53.7995C60.8831 53.8501 60.7314 53.926 60.6302 54.0525C60.5038 54.179 60.4279 54.3055 60.3773 54.4574C60.3014 54.6092 60.2508 54.761 60.2761 54.9382L60.3267 55.2671C60.3773 55.4695 60.5038 55.672 60.6555 55.8238C60.9084 56.0515 61.2119 56.2034 61.5407 56.2034H62.8053C62.9824 56.2034 63.1341 56.1781 63.2859 56.1022C63.4376 56.0515 63.5894 55.9756 63.6905 55.8491C63.817 55.7226 63.8929 55.5961 63.9434 55.4442C64.0193 55.2924 64.0699 55.1406 64.0446 54.9635L63.994 54.6345C63.9434 54.4321 63.817 54.2296 63.6652 54.0778C63.4123 53.8501 63.1088 53.6982 62.78 53.6982Z" fill="#A0A0A0"/>
<path d="M56.28 54.5833C56.28 54.5833 56.0777 54.7098 55.9765 54.7604L56.28 54.6339C56.28 54.6339 56.0271 54.7098 55.9006 54.7351L56.2294 54.6845C56.2294 54.6845 56.1283 54.6845 56.0777 54.6845C55.9006 54.6845 55.7489 54.7098 55.5971 54.7857C55.4454 54.8363 55.2936 54.9123 55.1925 55.0388C55.066 55.1653 54.9901 55.2918 54.9396 55.4436C54.8637 55.5955 54.8131 55.7473 54.8384 55.9244L54.889 56.2534C54.9395 56.4558 55.066 56.6583 55.2178 56.8101L55.4707 57.0125C55.673 57.139 55.8753 57.1896 56.103 57.1896C56.1283 57.1896 56.1788 57.1896 56.2041 57.1896C56.3559 57.1896 56.4824 57.1643 56.6341 57.139C56.71 57.139 56.7859 57.1137 56.8617 57.0884C56.9376 57.0631 57.0388 57.0125 57.1146 56.9872C57.1905 56.9619 57.2917 56.9113 57.3676 56.886C57.4434 56.8607 57.494 56.8101 57.5699 56.7595C57.7216 56.6836 57.8481 56.5823 57.924 56.4305C58.0252 56.304 58.101 56.1775 58.1516 56.0003C58.2022 55.8232 58.2022 55.6714 58.1516 55.4943C58.1516 55.3171 58.101 55.1653 57.9999 55.0135L57.7975 54.7604C57.6458 54.6086 57.4434 54.5074 57.2411 54.4315L56.9123 54.3809C56.6847 54.3809 56.4824 54.4315 56.28 54.558V54.5833Z" fill="#A0A0A0"/>
<path d="M51.8792 55.1905C51.4999 55.2918 51.0952 55.393 50.6905 55.4436L51.0193 55.393C50.7158 55.4436 50.4123 55.4689 50.1088 55.4689C49.78 55.4689 49.4512 55.5954 49.2236 55.8484C48.996 56.0762 48.8442 56.4304 48.8442 56.7341C48.8442 57.0377 48.9707 57.392 49.2236 57.6197C49.4765 57.8475 49.78 57.9993 50.1088 57.9993C50.9182 57.9993 51.7528 57.8475 52.5368 57.6197C52.8403 57.5185 53.1185 57.3161 53.2956 57.0377C53.4726 56.7594 53.5232 56.3545 53.422 56.0509C53.3209 55.7472 53.1438 55.4436 52.8403 55.2917C52.5368 55.1399 52.208 55.064 51.8539 55.1652L51.8792 55.1905Z" fill="#A0A0A0"/>
<path d="M45.3034 57.9232L43.7606 58.733C43.6088 58.8089 43.4824 58.9101 43.4065 59.0619C43.3053 59.1884 43.2295 59.315 43.1789 59.4921C43.1283 59.6692 43.1283 59.8211 43.1789 59.9982C43.1789 60.1753 43.2295 60.3271 43.3306 60.479C43.5077 60.7573 43.7606 60.9851 44.0894 61.061L44.4182 61.1116C44.6458 61.1116 44.8481 61.061 45.0505 60.9344L46.5933 60.1247C46.745 60.0488 46.8715 59.9476 46.9474 59.7957C47.0485 59.6692 47.1244 59.5427 47.175 59.3656C47.2256 59.1884 47.2256 59.0366 47.175 58.8595C47.175 58.6824 47.1244 58.5305 47.0232 58.3787C46.8462 58.1004 46.5933 57.8726 46.2645 57.7967L45.9357 57.7461C45.7081 57.7461 45.5057 57.7967 45.3034 57.9232Z" fill="#A0A0A0"/>
<path d="M39.3092 61.4159L36.3501 63.2884C36.0719 63.4655 35.8443 63.7186 35.7684 64.0475C35.6925 64.3765 35.7178 64.7561 35.8948 65.0344C36.0719 65.3128 36.3248 65.5405 36.6536 65.6164C36.9824 65.6923 37.3365 65.667 37.64 65.4899L40.5991 63.6174C40.8773 63.4402 41.105 63.1872 41.1808 62.8582C41.2567 62.5293 41.2314 62.1497 41.0544 61.8714C40.8773 61.593 40.6244 61.3653 40.2956 61.2894C39.9668 61.2135 39.6127 61.2388 39.3092 61.4159V61.4159Z" fill="#A0A0A0"/>
<path d="M34.0232 66.9574C34.0232 66.9574 33.7703 67.0839 33.6692 67.1598C33.4668 67.2864 33.2898 67.4382 33.1127 67.6153C33.0622 67.6659 33.0116 67.7165 32.9863 67.7671C32.8851 67.8937 32.7839 68.0455 32.6828 68.172C32.6069 68.2985 32.531 68.3997 32.4804 68.5263C32.3793 68.6781 32.3287 68.8299 32.3287 69.0071C32.3034 69.1842 32.3034 69.336 32.3287 69.5131C32.3793 69.6903 32.4552 69.8168 32.5563 69.9433C32.6575 70.0698 32.7587 70.1964 32.9104 70.2723L33.2139 70.3988C33.4415 70.4494 33.6692 70.4494 33.8968 70.3988L34.2003 70.2723C34.4026 70.1711 34.5291 70.0192 34.6555 69.8168C34.7314 69.6397 34.8326 69.4878 34.9337 69.336L34.7314 69.5891C34.8326 69.4372 34.9843 69.3107 35.1108 69.2095L34.8579 69.4119C34.9843 69.3107 35.1361 69.2095 35.2878 69.1589C35.4396 69.083 35.566 68.9817 35.6419 68.8299C35.7431 68.7034 35.819 68.5769 35.8695 68.3997C35.9201 68.2226 35.9201 68.0708 35.8695 67.8937C35.8695 67.7165 35.819 67.5647 35.7178 67.4129L35.5155 67.1598C35.3637 67.008 35.1614 66.9068 34.959 66.8309L34.6302 66.7803C34.4026 66.7803 34.2003 66.8309 33.998 66.9574H34.0232Z" fill="#A0A0A0"/>
<path d="M30.1283 70.9813L29.4201 71.9682C29.319 72.12 29.2684 72.2718 29.2684 72.4489C29.2431 72.6261 29.2431 72.7779 29.2684 72.955C29.319 73.1322 29.3948 73.2587 29.496 73.3852C29.5972 73.5117 29.6984 73.6382 29.8501 73.7142L30.1536 73.8407C30.3812 73.8913 30.6089 73.8913 30.8365 73.8407L31.14 73.7142C31.3423 73.6129 31.4688 73.4611 31.5952 73.2587L32.3034 72.2718C32.4046 72.12 32.4552 71.9682 32.4552 71.791C32.4804 71.6139 32.4804 71.4621 32.4552 71.2849C32.4046 71.1078 32.3287 70.9813 32.2275 70.8548C32.1264 70.7282 32.0252 70.6017 31.8734 70.5258L31.5699 70.3993C31.3423 70.3487 31.1147 70.3487 30.8871 70.3993L30.5836 70.5258C30.3812 70.627 30.2548 70.7789 30.1283 70.9813Z" fill="#A0A0A0"/>
<path d="M27.498 74.9793C27.498 74.9793 27.2956 75.1817 27.2198 75.3082C27.068 75.4853 26.9163 75.6878 26.7898 75.8902C26.7139 76.0167 26.6633 76.118 26.5875 76.2445C26.4863 76.4722 26.3851 76.7 26.3093 76.9277C26.2587 77.1048 26.2587 77.2567 26.3093 77.4338C26.3093 77.6109 26.3598 77.7627 26.461 77.9146C26.5369 78.0664 26.638 78.1929 26.7898 78.2688C26.9163 78.37 27.0427 78.446 27.2198 78.4966L27.5486 78.5472C27.7762 78.5472 27.9785 78.4966 28.1808 78.3701L28.4338 78.1676C28.5855 78.0158 28.6867 77.8134 28.7626 77.6109C28.7879 77.535 28.8131 77.4591 28.8637 77.3579L28.7373 77.6615C28.8637 77.3832 29.0155 77.1048 29.2178 76.8518L29.0155 77.1048C29.0155 77.1048 29.1925 76.8771 29.319 76.7759C29.4454 76.6494 29.5213 76.5228 29.5719 76.371C29.6478 76.2192 29.6984 76.0673 29.6731 75.8902C29.6731 75.7131 29.6478 75.5613 29.5719 75.4094C29.5213 75.2576 29.4454 75.1058 29.319 75.0046C29.0661 74.7768 28.7626 74.625 28.4338 74.625C28.105 74.625 27.7762 74.7515 27.5486 75.0046L27.498 74.9793Z" fill="#A0A0A0"/>
<path d="M24.21 80.3683L23.2489 81.9119C23.1478 82.0637 23.0972 82.2155 23.0972 82.3927C23.0719 82.5698 23.0719 82.7216 23.0972 82.8988C23.1478 83.0759 23.2236 83.2024 23.3248 83.3289C23.426 83.4555 23.5271 83.582 23.6789 83.6579C23.9824 83.8097 24.3365 83.8856 24.6653 83.7844C24.9941 83.6832 25.247 83.4808 25.424 83.2024L26.3851 81.6588C26.4863 81.507 26.5369 81.3552 26.5369 81.1781C26.5622 81.0009 26.5622 80.8491 26.5369 80.672C26.4863 80.4948 26.4104 80.3683 26.3092 80.2418C26.2081 80.1153 26.1069 79.9888 25.9552 79.9128C25.6517 79.761 25.2976 79.6851 24.9688 79.7863C24.64 79.8875 24.3871 80.09 24.21 80.3683V80.3683Z" fill="#A0A0A0"/>
<path d="M22.1108 87.049C21.8326 87.4539 21.6303 87.884 21.4785 88.3648C21.3268 88.8456 21.2762 89.3264 21.2762 89.8072C21.2762 90.1361 21.4279 90.4651 21.6555 90.6928C21.8832 90.9205 22.2373 91.0724 22.5408 91.0724C22.8443 91.0724 23.1983 90.9458 23.426 90.6928C23.6536 90.4398 23.8053 90.1361 23.8053 89.8072C23.8053 89.63 23.8053 89.4782 23.8306 89.3011L23.7801 89.63C23.8306 89.3264 23.9065 89.0227 24.033 88.7191L23.9065 89.0227C24.0077 88.7697 24.1341 88.5419 24.2859 88.3395C24.3871 88.1877 24.4376 88.0359 24.4376 87.8587C24.4629 87.6816 24.4629 87.5298 24.4376 87.3526C24.3618 87.049 24.1341 86.7453 23.8559 86.5935C23.5524 86.4417 23.1983 86.3658 22.8696 86.467L22.5661 86.5935C22.3637 86.6947 22.2373 86.8465 22.1108 87.049Z" fill="#A0A0A0"/>
<path d="M20.4921 93.907L20.3151 95.1469C20.2645 95.324 20.2645 95.4758 20.3151 95.653C20.3151 95.8301 20.3657 95.9819 20.4668 96.1337C20.5427 96.2856 20.6439 96.4121 20.7956 96.488C20.9221 96.5892 21.0485 96.6651 21.2256 96.7157L21.5544 96.7664C21.782 96.7664 21.9843 96.7157 22.1867 96.5892L22.4396 96.3868C22.5913 96.235 22.6925 96.0325 22.7684 95.8301L22.9454 94.5902C22.996 94.4131 22.996 94.2612 22.9454 94.0841C22.9454 93.907 22.8948 93.7551 22.7937 93.6033C22.7178 93.4515 22.6166 93.325 22.4649 93.2491C22.3384 93.1478 22.212 93.0719 22.0349 93.0213L21.7061 92.9707C21.4785 92.9707 21.2762 93.0213 21.0738 93.1478L20.8209 93.3503C20.6692 93.5021 20.568 93.7045 20.4921 93.907Z" fill="#A0A0A0"/>
<path d="M20.1634 100.233V101.776C20.1634 102.105 20.3151 102.434 20.5427 102.662C20.6692 102.788 20.7957 102.864 20.9474 102.915C21.0992 102.991 21.2509 103.042 21.428 103.016C21.7567 103.016 22.0855 102.89 22.3132 102.637C22.5408 102.384 22.6925 102.08 22.6925 101.751V100.207C22.6925 99.8785 22.5408 99.5495 22.3132 99.3218C22.1867 99.1953 22.0602 99.1193 21.9085 99.0687C21.7567 98.9928 21.605 98.9422 21.428 98.9675C21.0992 98.9675 20.7704 99.094 20.5427 99.3471C20.3151 99.6001 20.1634 99.9038 20.1634 100.233Z" fill="#A0A0A0"/>
<path d="M20.1634 105.825V107.773C20.1634 108.102 20.3151 108.431 20.5427 108.659C20.7704 108.887 21.1244 109.038 21.428 109.038C21.7315 109.038 22.0855 108.912 22.3132 108.659C22.5408 108.406 22.6925 108.102 22.6925 107.773V105.825C22.6925 105.496 22.5408 105.167 22.3132 104.939C22.0855 104.711 21.7315 104.56 21.428 104.56C21.1244 104.56 20.7704 104.686 20.5427 104.939C20.3151 105.192 20.1634 105.496 20.1634 105.825Z" fill="#A0A0A0"/>
<path d="M20.3151 111.873L20.745 114.378C20.7956 114.682 21.0738 114.985 21.3267 115.137C21.605 115.289 22.0096 115.365 22.3131 115.264C22.6166 115.162 22.9201 114.985 23.0719 114.682L23.1983 114.378C23.2489 114.15 23.2489 113.922 23.1983 113.695L22.7684 111.19C22.7178 110.886 22.4396 110.582 22.1867 110.43C21.9085 110.279 21.5038 110.203 21.2003 110.304C20.8968 110.405 20.5933 110.582 20.4415 110.886L20.3151 111.19C20.2645 111.417 20.2645 111.645 20.3151 111.873V111.873Z" fill="#A0A0A0"/>
<path d="M21.2256 117.414L21.6555 118.806C21.7567 119.109 21.959 119.388 22.2373 119.565C22.389 119.666 22.5408 119.717 22.7178 119.717C22.8948 119.742 23.0466 119.742 23.2236 119.717C23.5271 119.615 23.8306 119.438 23.9824 119.135C24.1341 118.831 24.21 118.502 24.1088 118.148L23.6789 116.756C23.5777 116.452 23.3754 116.174 23.0972 115.997C22.9454 115.896 22.7937 115.845 22.6166 115.845C22.4396 115.82 22.2878 115.82 22.1108 115.845C21.8073 115.946 21.5038 116.124 21.352 116.427C21.2003 116.731 21.1244 117.06 21.2256 117.414Z" fill="#A0A0A0"/>
<path d="M23.4766 123.133C23.7042 124.043 24.0836 124.929 24.5894 125.714C24.7664 125.992 25.0194 126.194 25.3482 126.296C25.6517 126.371 26.0563 126.346 26.3345 126.169C26.6127 125.992 26.8404 125.739 26.9162 125.41C26.9921 125.081 26.9668 124.727 26.7898 124.423C26.5369 124.043 26.3345 123.664 26.1575 123.259L26.2839 123.563C26.1322 123.208 26.0057 122.829 25.9299 122.449C25.854 122.146 25.6011 121.842 25.3482 121.69C25.0952 121.538 24.6653 121.462 24.3618 121.564C24.0583 121.665 23.7548 121.842 23.603 122.146C23.4513 122.449 23.4007 122.778 23.4766 123.133V123.133Z" fill="#A0A0A0"/>
<path d="M26.2839 130.294L27.4221 132.925C27.5485 133.204 27.9026 133.432 28.1808 133.507C28.4843 133.583 28.889 133.558 29.1672 133.381C29.4454 133.204 29.673 132.951 29.7489 132.622L29.7995 132.293C29.7995 132.065 29.7489 131.863 29.6225 131.66L28.4843 129.029C28.3579 128.75 28.0038 128.523 27.7256 128.447C27.4221 128.371 27.0174 128.396 26.7392 128.573C26.461 128.75 26.2334 129.003 26.1575 129.332L26.1069 129.661C26.1069 129.889 26.1575 130.091 26.2839 130.294Z" fill="#A0A0A0"/>
<path d="M29.7742 136.975C30.3306 137.835 30.9629 138.67 31.6964 139.429C31.924 139.657 32.2781 139.809 32.5816 139.809C32.8851 139.809 33.2645 139.682 33.4668 139.429C33.6691 139.176 33.8462 138.872 33.8462 138.543C33.8462 138.214 33.7197 137.911 33.4668 137.658C33.1127 137.304 32.7839 136.899 32.4804 136.519L32.6828 136.772C32.4298 136.443 32.1769 136.089 31.9493 135.735C31.7723 135.456 31.5193 135.229 31.1905 135.153C30.8617 135.077 30.4824 135.102 30.2042 135.279C29.926 135.456 29.6983 135.709 29.6225 136.038C29.5466 136.367 29.5719 136.722 29.7489 137.025L29.7742 136.975Z" fill="#A0A0A0"/>
<path d="M34.605 142.238C35.4649 143.098 36.5272 143.731 37.6653 144.11C37.9688 144.211 38.3735 144.136 38.6517 143.984C38.9299 143.832 39.1575 143.528 39.2334 143.225C39.3851 142.541 39.031 141.883 38.3482 141.656C38.1711 141.605 37.9688 141.529 37.7917 141.453L38.0952 141.58C37.6147 141.377 37.1847 141.124 36.7548 140.795L37.0077 140.998C36.7801 140.821 36.5777 140.644 36.3754 140.441C36.1478 140.213 35.7937 140.062 35.4902 140.062C35.1867 140.062 34.8073 140.188 34.605 140.441C34.4026 140.694 34.2256 140.998 34.2256 141.327C34.2256 141.656 34.3521 141.985 34.605 142.212V142.238Z" fill="#A0A0A0"/>
<path d="M42.9513 147.678L44.8987 148.386C45.0758 148.437 45.2275 148.437 45.4046 148.386C45.5816 148.386 45.7334 148.336 45.8851 148.235C46.138 148.083 46.3909 147.779 46.4668 147.476C46.5427 147.147 46.5174 146.792 46.3404 146.489L46.138 146.236C45.9863 146.084 45.7839 145.983 45.5816 145.907L43.6341 145.198C43.4571 145.148 43.3053 145.148 43.1283 145.198C42.9513 145.198 42.7995 145.249 42.6478 145.35C42.3948 145.502 42.1419 145.805 42.066 146.109C41.9902 146.438 42.0155 146.792 42.1925 147.096L42.3948 147.349C42.5466 147.501 42.7489 147.602 42.9513 147.678Z" fill="#A0A0A0"/>
<path d="M50.3364 150.917C51.3481 151.195 52.4104 151.347 53.4473 151.423C53.7508 151.423 54.1302 151.271 54.3325 151.043C54.5349 150.816 54.7119 150.461 54.7119 150.158C54.6866 149.449 54.1555 148.918 53.4473 148.892C53.0932 148.892 52.7392 148.842 52.3851 148.791L52.7139 148.842C52.1322 148.766 51.5504 148.639 50.994 148.488C50.6652 148.412 50.3111 148.437 50.0076 148.614C49.7547 148.766 49.5018 149.07 49.4259 149.373C49.3501 149.702 49.3753 150.056 49.5524 150.36C49.7294 150.664 49.9824 150.841 50.3111 150.942L50.3364 150.917Z" fill="#A0A0A0"/>
<path d="M57.1399 152.638L59.5174 153.043C59.6944 153.093 59.8462 153.093 60.0232 153.043C60.2003 153.043 60.352 152.992 60.5037 152.891C60.7567 152.739 61.0096 152.435 61.0855 152.132C61.1613 151.803 61.136 151.449 60.959 151.145C60.782 150.892 60.529 150.614 60.2003 150.563L57.8228 150.158C57.6458 150.107 57.494 150.107 57.317 150.158C57.1399 150.158 56.9882 150.209 56.8364 150.31C56.5835 150.462 56.3306 150.765 56.2547 151.069C56.1789 151.398 56.2041 151.752 56.3812 152.056C56.5582 152.309 56.8111 152.587 57.1399 152.638Z" fill="#A0A0A0"/>
<path d="M64.0952 153.726C64.5252 153.878 64.9804 153.954 65.4357 154.005C65.7897 154.055 66.1691 154.055 66.5232 154.005C66.7003 154.005 66.852 153.979 67.0038 153.904C67.1555 153.853 67.3073 153.777 67.4084 153.65C67.6361 153.423 67.7878 153.068 67.7878 152.765C67.7878 152.461 67.6613 152.107 67.4084 151.879C67.1808 151.677 66.852 151.474 66.5232 151.5C66.1438 151.55 65.7392 151.525 65.3598 151.5L65.6886 151.55C65.3598 151.5 65.0563 151.424 64.7528 151.322C64.4493 151.221 64.0446 151.297 63.7664 151.449C63.4882 151.601 63.2606 151.904 63.1847 152.208C63.1088 152.537 63.1341 152.891 63.3112 153.195L63.5135 153.448C63.6652 153.6 63.8676 153.701 64.0699 153.777L64.0952 153.726Z" fill="#A0A0A0"/>
<path d="M70.7975 154.409L73.3267 154.89C73.6555 154.966 73.9843 154.94 74.313 154.763C74.566 154.611 74.8189 154.308 74.8948 154.004C74.9706 153.675 74.9453 153.321 74.7683 153.017C74.5913 152.764 74.3383 152.486 74.0095 152.435L71.4804 151.954C71.1516 151.878 70.8228 151.904 70.494 152.081C70.2411 152.233 69.9882 152.536 69.9123 152.84C69.8364 153.169 69.8617 153.523 70.0387 153.827C70.2158 154.08 70.4687 154.358 70.7975 154.409Z" fill="#A0A0A0"/>
<path d="M77.3987 155.27H81.2936C81.9512 155.27 82.5835 154.688 82.5582 154.004C82.5329 153.321 82.0018 152.739 81.2936 152.739H77.3987C76.7411 152.739 76.1088 153.321 76.1341 154.004C76.1594 154.688 76.6905 155.27 77.3987 155.27Z" fill="#A0A0A0"/>
<path d="M85.2645 155.143L87.8948 154.535C88.1983 154.459 88.5018 154.206 88.6536 153.953C88.8053 153.7 88.8812 153.27 88.78 152.966C88.5524 152.283 87.9201 151.929 87.2119 152.081L84.5816 152.688C84.2781 152.764 83.9746 153.017 83.8228 153.27C83.6711 153.523 83.5952 153.953 83.6964 154.257C83.924 154.94 84.5563 155.294 85.2645 155.143Z" fill="#A0A0A0"/>
<path d="M91.3092 153.625C92.4473 153.625 93.5602 153.347 94.5718 152.841C94.8501 152.714 95.0777 152.36 95.1536 152.081C95.2294 151.778 95.2041 151.373 95.0271 151.095C94.8501 150.816 94.5971 150.588 94.2683 150.513L93.9396 150.462C93.7119 150.462 93.5096 150.513 93.3073 150.639C93.2314 150.69 93.1302 150.715 93.0543 150.766L93.3578 150.639C92.852 150.841 92.3209 150.993 91.7898 151.069L92.1185 151.019C91.8403 151.044 91.5874 151.069 91.3092 151.069C90.9804 151.069 90.6516 151.221 90.424 151.449C90.1964 151.677 90.0446 152.031 90.0446 152.334C90.0699 153.018 90.601 153.6 91.3092 153.6V153.625Z" fill="#A0A0A0"/>
<path d="M98.745 151.727L100.566 151.044C100.743 150.993 100.869 150.918 100.996 150.816C101.122 150.715 101.249 150.614 101.325 150.462C101.426 150.31 101.476 150.158 101.476 149.981C101.502 149.804 101.502 149.652 101.476 149.475C101.375 149.172 101.198 148.868 100.895 148.716C100.591 148.564 100.237 148.463 99.9084 148.59L98.0874 149.273C97.9103 149.323 97.7839 149.399 97.6574 149.5C97.531 149.602 97.4045 149.703 97.3286 149.855C97.2275 150.007 97.1769 150.158 97.1769 150.336C97.1516 150.513 97.1516 150.664 97.1769 150.842C97.278 151.145 97.4551 151.449 97.7586 151.601C98.0621 151.753 98.4162 151.854 98.745 151.727Z" fill="#A0A0A0"/>
<path d="M104.866 148.893C106.408 148.311 107.901 147.577 109.266 146.666C109.823 146.312 110.101 145.528 109.722 144.946C109.368 144.389 108.584 144.111 108.002 144.49C106.914 145.199 105.776 145.806 104.587 146.312L104.891 146.186C104.663 146.287 104.436 146.388 104.183 146.464C103.854 146.59 103.601 146.742 103.424 147.046C103.272 147.324 103.196 147.729 103.298 148.033C103.5 148.64 104.183 149.171 104.866 148.918V148.893Z" fill="#A0A0A0"/>
<path d="M111.846 144.92C113.465 144.515 114.982 143.705 116.222 142.566C116.702 142.111 116.702 141.225 116.222 140.77C115.69 140.289 114.957 140.289 114.426 140.77C114.249 140.922 114.072 141.073 113.895 141.225L114.148 141.023C113.541 141.478 112.908 141.858 112.225 142.162L112.529 142.035C112.099 142.212 111.644 142.364 111.189 142.465C110.556 142.617 110.101 143.376 110.303 144.034C110.506 144.692 111.163 145.097 111.871 144.92H111.846Z" fill="#A0A0A0"/>
<path d="M118.119 141.175C118.473 141.023 118.751 140.796 119.054 140.568C119.257 140.391 119.459 140.214 119.636 139.986C119.762 139.859 119.838 139.733 119.889 139.581C119.965 139.429 120.015 139.277 119.99 139.1C119.99 138.923 119.965 138.771 119.889 138.619C119.838 138.468 119.762 138.316 119.636 138.215L119.383 138.012C119.181 137.886 118.978 137.835 118.751 137.835L118.422 137.886C118.22 137.936 118.017 138.063 117.866 138.215C117.689 138.442 117.512 138.619 117.284 138.797L117.537 138.594C117.334 138.746 117.107 138.898 116.879 138.999C116.727 139.075 116.601 139.176 116.525 139.328C116.424 139.454 116.348 139.581 116.298 139.758C116.247 139.935 116.247 140.087 116.298 140.264C116.298 140.441 116.348 140.593 116.449 140.745L116.652 140.998C116.803 141.15 117.006 141.251 117.208 141.327L117.537 141.378C117.764 141.378 117.967 141.327 118.169 141.2L118.119 141.175Z" fill="#A0A0A0"/>
<path d="M122.519 136.544L123.455 134.722C123.607 134.419 123.683 134.09 123.582 133.735C123.506 133.432 123.278 133.128 123 132.976C122.696 132.824 122.342 132.749 122.013 132.85C121.71 132.951 121.406 133.128 121.255 133.432L120.319 135.254C120.167 135.557 120.091 135.886 120.192 136.241C120.268 136.544 120.496 136.848 120.774 137C121.078 137.152 121.432 137.227 121.761 137.126C122.064 137.025 122.368 136.848 122.519 136.544Z" fill="#A0A0A0"/>
<path d="M125.832 131.103L126.794 128.877C126.895 128.725 126.945 128.573 126.945 128.396C126.971 128.219 126.971 128.067 126.945 127.89C126.869 127.586 126.642 127.282 126.364 127.131C126.06 126.979 125.706 126.903 125.377 127.004C125.099 127.105 124.745 127.282 124.618 127.586L123.657 129.813C123.556 129.965 123.506 130.117 123.506 130.294C123.48 130.471 123.48 130.623 123.506 130.8C123.581 131.103 123.809 131.407 124.087 131.559C124.391 131.711 124.745 131.787 125.074 131.685C125.352 131.584 125.706 131.407 125.832 131.103Z" fill="#A0A0A0"/>
<path d="M128.716 125.106C129.222 124.347 129.601 123.462 129.829 122.576C129.904 122.247 129.879 121.893 129.702 121.589C129.55 121.336 129.247 121.083 128.943 121.007C128.615 120.931 128.26 120.957 127.957 121.134C127.653 121.311 127.451 121.564 127.375 121.893C127.299 122.247 127.173 122.576 127.046 122.905L127.173 122.601C126.996 123.031 126.768 123.436 126.515 123.816C126.338 124.069 126.313 124.499 126.389 124.803C126.465 125.106 126.692 125.41 126.971 125.562C127.274 125.714 127.628 125.79 127.957 125.688C128.286 125.587 128.513 125.385 128.716 125.106V125.106Z" fill="#A0A0A0"/>
<path d="M130.41 118.123L130.866 115.769C130.941 115.44 130.916 115.111 130.739 114.783C130.587 114.529 130.284 114.276 129.98 114.201C129.652 114.125 129.297 114.15 128.994 114.327C128.741 114.504 128.463 114.757 128.412 115.086L127.957 117.439C127.881 117.768 127.906 118.097 128.083 118.426C128.235 118.679 128.539 118.932 128.842 119.008C129.171 119.084 129.525 119.059 129.829 118.882C130.082 118.705 130.36 118.452 130.41 118.123Z" fill="#A0A0A0"/>
<path d="M131.827 111.24L131.953 107.621C131.978 106.964 131.346 106.331 130.688 106.356C129.98 106.382 129.449 106.913 129.424 107.621L129.297 111.24C129.272 111.898 129.904 112.53 130.562 112.505C131.27 112.48 131.801 111.948 131.827 111.24Z" fill="#A0A0A0"/>
<path d="M132.51 104.206C132.661 103.371 132.737 102.485 132.661 101.65C132.661 101.473 132.636 101.321 132.56 101.169C132.51 101.017 132.434 100.866 132.307 100.764C132.08 100.537 131.725 100.385 131.422 100.385C131.118 100.385 130.764 100.511 130.537 100.764C130.309 100.992 130.132 101.321 130.157 101.65C130.208 102.232 130.208 102.839 130.107 103.421L130.157 103.092C130.157 103.244 130.107 103.396 130.082 103.548C130.006 103.877 130.031 104.206 130.208 104.535C130.36 104.788 130.663 105.041 130.967 105.117C131.296 105.193 131.65 105.167 131.953 104.99C132.206 104.813 132.484 104.56 132.535 104.231L132.51 104.206Z" fill="#A0A0A0"/>
<path d="M132.408 97.8798V94.818C132.408 94.489 132.257 94.16 132.029 93.9323C131.801 93.7046 131.447 93.5527 131.144 93.5527C130.461 93.578 129.879 94.1094 129.879 94.818V97.8798C129.879 98.2087 130.031 98.5377 130.259 98.7654C130.486 98.9932 130.84 99.145 131.144 99.145C131.827 99.1197 132.408 98.5883 132.408 97.8798Z" fill="#A0A0A0"/>
<path d="M132.105 90.7688C132.054 90.1615 131.953 89.5795 131.801 88.9975C131.65 88.4155 131.422 87.8588 131.169 87.3274C131.043 87.0491 130.688 86.8213 130.41 86.7454C130.107 86.6695 129.702 86.6948 129.424 86.872C129.146 87.0491 128.918 87.3021 128.842 87.6311C128.766 87.9853 128.817 88.289 128.969 88.618C129.019 88.7445 129.095 88.871 129.146 88.9975L129.019 88.6939C129.297 89.3518 129.5 90.0603 129.576 90.7688L129.525 90.4399C129.525 90.4399 129.55 90.6676 129.576 90.7941C129.601 91.1484 129.702 91.4267 129.955 91.6798C130.183 91.9075 130.537 92.0593 130.84 92.0593C131.144 92.0593 131.498 91.9328 131.725 91.6798C131.928 91.452 132.13 91.1231 132.105 90.7941V90.7688Z" fill="#A0A0A0"/>
<path d="M129.879 84.5689C129.829 84.2399 129.727 83.9109 129.601 83.6073C129.424 83.2024 129.247 82.8228 128.994 82.4686C128.918 82.3168 128.817 82.1902 128.665 82.1143C128.539 82.0131 128.412 81.9372 128.235 81.8866C128.058 81.836 127.906 81.836 127.729 81.8866C127.552 81.8866 127.401 81.9372 127.249 82.0384C126.971 82.2155 126.743 82.4686 126.667 82.7975C126.591 83.1265 126.591 83.5061 126.794 83.7844C126.971 84.0375 127.122 84.3158 127.249 84.5942L127.122 84.2905C127.249 84.5942 127.35 84.9231 127.401 85.2774C127.451 85.4545 127.527 85.581 127.628 85.7075C127.729 85.8341 127.831 85.9606 127.982 86.0365C128.134 86.1377 128.286 86.1883 128.463 86.1883C128.64 86.2136 128.792 86.2136 128.969 86.1883C129.272 86.0871 129.576 85.91 129.727 85.6063L129.854 85.3027C129.904 85.0749 129.904 84.8472 129.854 84.6195L129.879 84.5689Z" fill="#A0A0A0"/>
<path d="M126.768 78.7494L125.276 76.7757C125.2 76.6238 125.099 76.4973 124.947 76.4214C124.821 76.3202 124.694 76.2443 124.517 76.1937C124.214 76.1178 123.809 76.1431 123.531 76.3202C123.253 76.4973 123.025 76.7504 122.949 77.0793L122.899 77.4083C122.899 77.636 122.949 77.8385 123.076 78.0409L124.568 80.0146C124.644 80.1665 124.745 80.293 124.897 80.3689C125.023 80.4701 125.15 80.546 125.327 80.5966C125.63 80.6725 126.035 80.6472 126.313 80.4701C126.591 80.293 126.819 80.0399 126.895 79.711L126.945 79.382C126.945 79.1543 126.895 78.9518 126.768 78.7494Z" fill="#A0A0A0"/>
<path d="M122.292 73.9922L121.179 73.0054C121.179 73.0054 120.926 72.8029 120.774 72.7523C120.622 72.6764 120.471 72.6258 120.294 72.6511C120.117 72.6511 119.965 72.6764 119.813 72.7523C119.661 72.8029 119.51 72.8789 119.408 73.0054L119.206 73.2584C119.08 73.4609 119.029 73.6633 119.029 73.891L119.08 74.22C119.13 74.4224 119.257 74.6249 119.408 74.7767L120.521 75.7635C120.521 75.7635 120.774 75.966 120.926 76.0166C121.078 76.0925 121.229 76.1431 121.406 76.1178C121.583 76.1178 121.735 76.0925 121.887 76.0166C122.039 75.966 122.19 75.8901 122.292 75.7635L122.494 75.5105C122.62 75.3081 122.671 75.1056 122.671 74.8779L122.62 74.5489C122.57 74.3465 122.443 74.1441 122.292 73.9922Z" fill="#A0A0A0"/>
<path d="M117.436 70.4497L116.045 69.4628C115.893 69.3616 115.741 69.311 115.564 69.311C115.387 69.2857 115.235 69.2857 115.058 69.311C114.881 69.3616 114.755 69.4375 114.628 69.5387C114.502 69.6399 114.375 69.7411 114.299 69.893C114.148 70.1966 114.072 70.5509 114.173 70.8798L114.299 71.1835C114.401 71.3859 114.552 71.5124 114.755 71.639L116.146 72.6258C116.297 72.7271 116.449 72.7777 116.626 72.7777C116.803 72.803 116.955 72.803 117.132 72.7777C117.309 72.7271 117.436 72.6511 117.562 72.5499C117.689 72.4487 117.815 72.3475 117.891 72.1957C118.043 71.892 118.118 71.5378 118.017 71.2088L117.891 70.9051C117.79 70.7027 117.638 70.5762 117.436 70.4497Z" fill="#A0A0A0"/>
<path d="M113.515 67.1847L111.998 65.9194C111.998 65.9194 111.745 65.717 111.593 65.6664C111.441 65.5905 111.29 65.5399 111.113 65.5652C110.936 65.5652 110.784 65.5905 110.632 65.6664C110.48 65.717 110.329 65.7929 110.227 65.9194C110 66.1725 109.848 66.4761 109.848 66.8051C109.848 67.134 109.975 67.4883 110.227 67.6907L111.745 68.956C111.745 68.956 111.998 69.1584 112.15 69.209C112.301 69.2849 112.453 69.3355 112.63 69.3102C112.807 69.3102 112.959 69.2849 113.111 69.209C113.262 69.1584 113.414 69.0825 113.515 68.956C113.743 68.7029 113.895 68.3993 113.895 68.0703C113.895 67.7414 113.768 67.3871 113.515 67.1847Z" fill="#A0A0A0"/>
<path d="M108.761 64.5534C107.85 63.8196 106.889 63.1364 105.877 62.5038C105.599 62.3267 105.22 62.3014 104.891 62.3773C104.562 62.4532 104.284 62.6809 104.132 62.9593C103.803 63.5919 103.98 64.3257 104.587 64.68C105.371 65.186 106.155 65.7174 106.889 66.2741L106.636 66.0717C106.636 66.0717 106.838 66.2235 106.939 66.3247C107.066 66.4513 107.192 66.5272 107.344 66.5778C107.496 66.6537 107.648 66.7043 107.825 66.679C108.128 66.679 108.508 66.5525 108.71 66.2994C108.912 66.0464 109.089 65.7427 109.089 65.4138C109.089 65.1101 108.988 64.7306 108.71 64.5281L108.761 64.5534Z" fill="#A0A0A0"/>
<path d="M104.208 76.3707C104.208 76.3707 104.36 76.4213 104.436 76.4466L104.132 76.3201C104.461 76.4719 104.79 76.6491 105.093 76.8768L104.84 76.6744C105.119 76.9021 105.371 77.1552 105.599 77.4335L105.397 77.1805C105.498 77.307 105.599 77.4588 105.675 77.6106C105.827 77.889 106.13 78.1167 106.434 78.1926C106.737 78.2686 107.142 78.2432 107.42 78.0661C107.698 77.889 107.926 77.6359 108.002 77.307C108.078 76.978 108.052 76.6238 107.875 76.3201C107.572 75.814 107.167 75.3332 106.712 74.9537C106.434 74.7259 106.155 74.5235 105.852 74.3464C105.548 74.1692 105.22 74.0427 104.891 73.9162C104.587 73.815 104.183 73.8909 103.905 74.0427C103.626 74.1946 103.399 74.4982 103.323 74.8019C103.247 75.1308 103.272 75.4851 103.449 75.7887L103.652 76.0418C103.803 76.1936 104.006 76.2948 104.208 76.3707V76.3707Z" fill="#A0A0A0"/>
<path d="M108.078 80.3689L109.064 82.7222C109.115 82.8993 109.19 83.0258 109.292 83.1523C109.393 83.2789 109.494 83.4054 109.646 83.4813C109.924 83.6331 110.329 83.709 110.632 83.6078C110.936 83.5066 111.239 83.3295 111.391 83.0258C111.543 82.7222 111.644 82.3679 111.517 82.0389L110.531 79.6856C110.48 79.5085 110.404 79.382 110.303 79.2555C110.202 79.1289 110.101 79.0024 109.949 78.9265C109.671 78.7747 109.266 78.6988 108.963 78.8C108.659 78.9012 108.356 79.0783 108.204 79.382C108.052 79.6856 107.951 80.0399 108.078 80.3689V80.3689Z" fill="#A0A0A0"/>
<path d="M111.264 86.2391C111.416 86.9476 111.694 87.6561 112.074 88.2887C112.301 88.6177 112.529 88.9466 112.807 89.2503C113.085 89.5539 113.414 89.8323 113.768 90.0853C114.021 90.2625 114.451 90.2878 114.755 90.2118C115.058 90.1359 115.362 89.9082 115.513 89.6298C115.665 89.3262 115.741 88.9719 115.64 88.643L115.513 88.3393C115.412 88.1369 115.261 88.0104 115.058 87.8838L114.982 87.8332L115.235 88.0357C114.906 87.7826 114.603 87.479 114.35 87.15L114.552 87.4031C114.274 87.0488 114.047 86.6439 113.869 86.2391L113.996 86.5427C113.869 86.2391 113.768 85.9101 113.692 85.5811C113.642 85.2775 113.364 84.9738 113.111 84.822C112.833 84.6702 112.428 84.5943 112.124 84.6955C111.821 84.7967 111.517 84.9738 111.366 85.2775C111.189 85.5812 111.163 85.9101 111.239 86.2644L111.264 86.2391Z" fill="#A0A0A0"/>
<path d="M117.967 91.8316C118.978 92.1858 120.142 92.1858 121.153 91.8569C121.457 91.7557 121.735 91.5532 121.912 91.2749C122.064 90.9965 122.14 90.5917 122.039 90.288C121.938 89.9844 121.76 89.6807 121.457 89.5289C121.153 89.3771 120.799 89.3011 120.471 89.4024C120.243 89.4783 120.015 89.5289 119.762 89.5542L120.091 89.5036C119.737 89.5542 119.408 89.5542 119.054 89.5036L119.383 89.5542C119.105 89.5289 118.852 89.453 118.599 89.3518C118.296 89.2505 117.891 89.3264 117.613 89.4783C117.334 89.6301 117.107 89.9337 117.031 90.2374C116.955 90.5664 116.98 90.9206 117.157 91.2243C117.334 91.5279 117.587 91.6797 117.916 91.8063L117.967 91.8316Z" fill="#A0A0A0"/>
<path d="M123.91 88.2129C124.087 87.8333 124.239 87.4538 124.34 87.0742C124.441 86.6946 124.517 86.2392 124.568 85.8343C124.669 85.1005 124.593 84.3413 124.467 83.6075C124.416 83.3039 124.138 83.0002 123.885 82.8484C123.607 82.6966 123.202 82.6207 122.899 82.7219C122.595 82.8231 122.292 83.0002 122.14 83.3039C121.963 83.6075 121.938 83.9365 122.013 84.2907C122.013 84.392 122.039 84.4932 122.064 84.6197L122.013 84.2907C122.089 84.8474 122.089 85.4041 122.013 85.9608L122.064 85.6319C121.988 86.1633 121.836 86.6693 121.634 87.1754L121.76 86.8718L121.71 86.9983C121.558 87.3273 121.482 87.6309 121.583 87.9852C121.659 88.2888 121.887 88.5925 122.165 88.7443C122.469 88.8961 122.823 88.972 123.152 88.8708C123.455 88.7696 123.784 88.5925 123.91 88.2888V88.2129Z" fill="#A0A0A0"/>
<path d="M96.0135 71.8915C95.6341 72.1446 95.2547 72.347 94.8501 72.5241L95.1536 72.3976C94.5718 72.6506 93.9648 72.8025 93.3578 72.9037L93.6866 72.8531C93.5349 72.8531 93.3578 72.9037 93.2061 72.9037C92.8773 72.9037 92.5485 73.0302 92.3209 73.2833C92.0933 73.511 91.9415 73.8653 91.9415 74.1689C91.9415 74.4726 92.068 74.8268 92.3209 75.0546C92.5738 75.2823 92.8773 75.4594 93.2061 75.4341C94.673 75.3329 96.0894 74.9027 97.3034 74.093C97.5816 73.9159 97.7839 73.6628 97.8851 73.3339C97.961 73.0302 97.9357 72.6253 97.7586 72.347C97.4045 71.7903 96.6205 71.512 96.0388 71.8915H96.0135Z" fill="#A0A0A0"/>
<path d="M89.7664 73.3344C89.4376 73.2837 89.1341 73.1825 88.8306 73.056L89.1341 73.1825C88.78 73.0307 88.4765 72.8536 88.173 72.6258L88.4259 72.8283C88.4259 72.8283 88.2994 72.7271 88.2489 72.6764C87.9959 72.4487 87.6924 72.2969 87.3636 72.2969C87.0601 72.2969 86.6808 72.4234 86.4784 72.6764C86.2761 72.9295 86.0991 73.2331 86.0991 73.5621C86.0991 73.891 86.2255 74.2453 86.4784 74.4477C87.2372 75.1057 88.1477 75.5864 89.1341 75.7636C89.3111 75.8142 89.4629 75.8142 89.6399 75.7636C89.8169 75.7636 89.9687 75.713 90.1204 75.6117C90.3734 75.4599 90.6263 75.1563 90.7022 74.8526C90.778 74.5237 90.7527 74.1694 90.5757 73.8657C90.3987 73.6127 90.1457 73.3344 89.8169 73.2837L89.7664 73.3344Z" fill="#A0A0A0"/>
<path d="M86.0485 71.0316C85.6438 70.3737 85.2392 69.6905 84.6574 69.1844C84.2528 68.8301 83.8481 68.6024 83.3676 68.3999C83.2158 68.3493 83.0641 68.2987 82.9123 68.2734C82.6594 68.2228 82.3812 68.1975 82.1283 68.2228C81.7742 68.2481 81.496 68.3493 81.2431 68.6024C81.0154 68.8301 80.8637 69.1844 80.8637 69.488C80.8637 69.7917 80.9901 70.1459 81.2431 70.3737C81.4707 70.5761 81.7995 70.7786 82.1283 70.7533C82.2547 70.7533 82.4065 70.7533 82.5329 70.7533L82.2041 70.7026C82.3812 70.7279 82.5582 70.7786 82.7353 70.8545L82.4318 70.7279C82.6341 70.8039 82.8111 70.9304 82.9882 71.0569L82.7353 70.8545C82.9882 71.0569 83.2158 71.2846 83.4181 71.5377L83.2158 71.2846C83.4687 71.6136 83.6711 71.9679 83.8987 72.3221C84.0757 72.6005 84.3539 72.8282 84.6574 72.9041C84.9609 72.98 85.3656 72.9547 85.6438 72.7776C86.2255 72.398 86.4532 71.6642 86.0991 71.0569L86.0485 71.0316Z" fill="#A0A0A0"/>
<path d="M78.031 69.1844L76.9181 69.4881C76.7411 69.5387 76.6146 69.6146 76.4882 69.7158C76.3617 69.8171 76.2352 69.9183 76.1594 70.0701C76.0582 70.2219 76.0076 70.3737 76.0076 70.5509C75.9823 70.728 75.9823 70.8798 76.0076 71.057L76.1341 71.3606C76.2352 71.5631 76.387 71.6896 76.5893 71.8161L76.8928 71.9426C77.1205 71.9932 77.3481 71.9932 77.5757 71.9426L78.6885 71.639C78.8656 71.5884 78.992 71.5124 79.1185 71.4112C79.245 71.31 79.3714 71.2088 79.4473 71.057C79.5485 70.9051 79.5991 70.7533 79.5991 70.5762C79.6243 70.3991 79.6243 70.2472 79.5991 70.0701L79.4726 69.7664C79.3714 69.564 79.2197 69.4375 79.0173 69.311L78.7138 69.1844C78.4862 69.1338 78.2586 69.1338 78.031 69.1844Z" fill="#A0A0A0"/>
<path d="M74.0602 70.8034C73.3773 70.8793 72.6944 70.854 72.0115 70.7781L72.3403 70.8287C71.9862 70.7781 71.6574 70.7275 71.3034 70.6263C70.9746 70.5504 70.6205 70.5757 70.317 70.7528C70.0641 70.9046 69.8111 71.2083 69.7353 71.5119C69.5835 72.1699 69.9376 72.9037 70.6205 73.0808C71.7333 73.3592 72.8967 73.4604 74.0349 73.3592C74.389 73.3338 74.6672 73.2326 74.9201 72.9796C75.1477 72.7518 75.2995 72.3976 75.2995 72.0939C75.2995 71.7903 75.173 71.436 74.9201 71.2083C74.6925 71.0059 74.3637 70.8034 74.0349 70.8287L74.0602 70.8034Z" fill="#A0A0A0"/>
<path d="M67.2819 70.0448C66.9532 69.9942 66.6497 69.8929 66.3462 69.7664L66.6497 69.8929C66.3462 69.7664 66.0427 69.5893 65.7644 69.3869L66.0174 69.5893C65.8656 69.4881 65.7392 69.3616 65.6127 69.235C65.3851 69.0073 65.031 68.8555 64.7275 68.8555C64.424 68.8555 64.0446 68.982 63.8423 69.235C63.6399 69.4881 63.4629 69.7917 63.4629 70.1207C63.4629 70.4496 63.5894 70.7786 63.8423 71.0063C64.2216 71.3859 64.6516 71.7149 65.1069 71.9426C65.5621 72.1703 66.0932 72.3728 66.5991 72.474C66.7761 72.5246 66.9279 72.5246 67.1049 72.474C67.282 72.474 67.4337 72.4234 67.5855 72.3222C67.8384 72.1703 68.0913 71.8667 68.1672 71.563C68.243 71.2341 68.2177 70.8798 68.0407 70.5762C67.8637 70.3231 67.6107 70.0448 67.2819 69.9942V70.0448Z" fill="#A0A0A0"/>
<path d="M63.7664 66.8817C63.5894 65.9201 62.6789 65.2622 61.7937 65.0345C61.3637 64.9333 60.9337 64.908 60.4785 64.9586C60.0232 65.0092 59.6439 65.0345 59.2139 64.9586L59.5427 65.0092C59.5427 65.0092 59.3151 64.9586 59.2139 64.9333C58.5816 64.7561 57.7976 65.161 57.6458 65.8189C57.4941 66.4768 57.8481 67.1854 58.531 67.3878C59.0116 67.5396 59.5427 67.5396 60.0485 67.5143C60.4279 67.489 60.8326 67.4384 61.2119 67.489L60.8832 67.4384C61.0855 67.4637 61.2625 67.5143 61.4396 67.5902L61.1361 67.4637C61.2625 67.5143 61.389 67.5902 61.4902 67.6661L61.2372 67.4637C61.2372 67.4637 61.3637 67.5902 61.4396 67.6408L61.2372 67.3878C61.2372 67.3878 61.3384 67.5396 61.3637 67.6155L61.2372 67.3119C61.2372 67.3119 61.2878 67.4637 61.2878 67.5396C61.3384 67.8433 61.6166 68.1469 61.8695 68.2988C62.1477 68.4506 62.5524 68.5265 62.8559 68.4253C63.1594 68.3241 63.4629 68.1469 63.6147 67.8433C63.7917 67.5396 63.817 67.2107 63.7411 66.8564L63.7664 66.8817Z" fill="#A0A0A0"/>
<path d="M54.7372 66.1476C54.3326 66.1982 53.9026 66.1729 53.4979 66.1476L53.8267 66.1982C53.3462 66.1223 52.8909 66.021 52.461 65.8186L52.7645 65.9451H52.7139C52.5621 65.8439 52.4104 65.7933 52.2333 65.768C52.0563 65.7427 51.9045 65.7427 51.7275 65.768C51.424 65.8439 51.1205 66.0717 50.9687 66.35C50.817 66.6537 50.7411 67.0079 50.8423 67.3369C50.9434 67.6405 51.1205 67.9695 51.424 68.096C51.9551 68.3237 52.461 68.5009 53.0174 68.6021C53.5738 68.7033 54.1302 68.7286 54.7119 68.678C55.066 68.6527 55.3442 68.5515 55.5971 68.2984C55.8248 68.0707 55.9765 67.7164 55.9765 67.4128C55.9765 67.1091 55.8501 66.7549 55.5971 66.5271C55.3695 66.3247 55.0407 66.1223 54.7119 66.1476H54.7372Z" fill="#A0A0A0"/>
<path d="M49.2742 64.098C49.173 63.9715 49.0972 63.8197 49.0213 63.6678L49.1477 63.9715C49.0719 63.7944 49.0213 63.5919 48.996 63.3895L49.0466 63.7184C49.0213 63.516 49.0213 63.3136 49.0466 63.1111L48.996 63.4401V63.3895C49.0466 63.2124 49.0719 63.0605 49.0213 62.8834C49.0213 62.7063 48.9707 62.5544 48.8695 62.4026C48.7937 62.2508 48.6925 62.1243 48.5407 62.0484C48.4143 61.9471 48.2878 61.8712 48.1108 61.8206C47.782 61.7447 47.4279 61.77 47.1244 61.9471L46.8715 62.1496C46.7197 62.3014 46.6186 62.5038 46.5427 62.7063C46.4921 62.9593 46.4668 63.2124 46.4668 63.4654C46.4668 63.7184 46.5174 63.9968 46.568 64.2498C46.6186 64.5029 46.7197 64.7306 46.8209 64.9584C46.8968 65.1102 46.9726 65.2367 47.0485 65.3632C47.1244 65.5151 47.2256 65.6416 47.3773 65.7175C47.5038 65.8187 47.6302 65.8946 47.8073 65.9452C47.9843 65.9958 48.1361 65.9958 48.3131 65.9452C48.4902 65.9452 48.6419 65.8946 48.7937 65.7934C49.0719 65.6163 49.2995 65.3632 49.3754 65.0343C49.4512 64.7053 49.4512 64.3258 49.2489 64.0474L49.2742 64.098Z" fill="#A0A0A0"/>
<path d="M50.8929 60.9852C51.2975 60.6815 51.7275 60.4285 52.1828 60.2513L51.8793 60.3778C52.0563 60.3019 52.2333 60.2513 52.4104 60.1754C52.7139 60.0742 52.9921 59.8718 53.1691 59.5934C53.2703 59.4416 53.3209 59.2898 53.3209 59.1126C53.3462 58.9355 53.3462 58.7837 53.3209 58.6065C53.2197 58.3029 53.0427 57.9992 52.7392 57.8474C52.4357 57.6956 52.0816 57.6197 51.7528 57.7209C50.994 57.9486 50.2606 58.3029 49.6283 58.7837C49.4765 58.8596 49.3501 58.9608 49.2742 59.1126C49.173 59.2392 49.0972 59.3657 49.0466 59.5428C48.996 59.7199 48.996 59.8718 49.0466 60.0489C49.0466 60.226 49.0972 60.3778 49.1983 60.5297C49.3754 60.808 49.6283 61.0358 49.9571 61.1117L50.2859 61.1623C50.5135 61.1623 50.7158 61.1117 50.9182 60.9852H50.8929Z" fill="#A0A0A0"/>
</g>
<defs>
<clipPath id="clip0_701_1379">
<rect width="144.745" height="154.357" fill="white" transform="translate(0.536911 0.913086)"/>
</clipPath>
</defs>
</svg>

