<svg width="42" height="42" viewBox="0 0 42 42" fill="none" xmlns="http://www.w3.org/2000/svg">
<path d="M0 0H21V42H0V0Z" fill="#70CCA6"/>
<path d="M0 21C0 9.40202 9.40202 0 21 0C32.598 0 42 9.40202 42 21C42 32.598 32.598 42 21 42C9.40202 42 0 32.598 0 21Z" fill="#70CCA6"/>
<path d="M18.2354 16.8086H16.4327L14.1602 18.2559V19.9443L16.2676 18.624H16.3184V26H18.2354V16.8086ZM20.2382 26H26.8144V24.4258H22.8915V24.375L24.288 23.0166C26.1796 21.3027 26.6874 20.4458 26.6874 19.3984C26.6874 17.8052 25.3798 16.6816 23.4121 16.6816C21.476 16.6816 20.143 17.8306 20.1494 19.627H21.9648C21.9584 18.7446 22.5234 18.1987 23.3867 18.2051C24.2309 18.1987 24.8466 18.7065 24.8466 19.5254C24.8466 20.2554 24.3832 20.7632 23.5263 21.582L20.2255 24.6162L20.2382 26Z" fill="white"/>
</svg>
