<svg width="42" height="42" viewBox="0 0 42 42" fill="none" xmlns="http://www.w3.org/2000/svg">
<path d="M21 0H42V42H21V0Z" fill="#70CCA6"/>
<path d="M0 21C0 9.40202 9.40202 0 21 0C32.598 0 42 9.40202 42 21C42 32.598 32.598 42 21 42C9.40202 42 0 32.598 0 21Z" fill="#70CCA6"/>
<path d="M18.4117 16.8086H16.6089L14.3365 18.2559V19.9443L16.4439 18.624H16.4947V26H18.4117V16.8086ZM23.9819 26.127C26.2797 26.127 27.6762 24.4258 27.6762 21.4043C27.6762 18.4019 26.2734 16.6816 23.9819 16.6816C21.6904 16.6816 20.2875 18.4019 20.2875 21.4043C20.2875 24.4131 21.6777 26.127 23.9819 26.127ZM22.2426 21.4043C22.2426 19.3032 22.9218 18.2495 23.9819 18.2432C25.0419 18.2495 25.7275 19.3032 25.7211 21.4043C25.7275 23.5244 25.0483 24.5527 23.9819 24.5527C22.9155 24.5527 22.2299 23.5244 22.2426 21.4043Z" fill="white"/>
</svg>
