<svg width="102" height="34" viewBox="0 0 102 34" fill="none" xmlns="http://www.w3.org/2000/svg">
<path d="M1.01953 17H3.62109V11.2695C3.6123 10.1885 4.29785 9.47656 5.18555 9.47656C6.07324 9.47656 6.6709 10.083 6.66211 11.0234V17H9.19336V11.1641C9.18457 10.1533 9.76465 9.47656 10.7402 9.47656C11.5928 9.47656 12.2432 10.0039 12.2344 11.0938V17H14.8359V10.584C14.8359 8.50098 13.5967 7.33203 11.8301 7.33203C10.4326 7.33203 9.34277 8.04395 8.94727 9.125H8.85938C8.54297 8.02637 7.56738 7.33203 6.25781 7.33203C4.97461 7.33203 4.00781 8.00879 3.60352 9.125H3.49805V7.45508H1.01953V17ZM17.8376 20.5859C19.8503 20.5771 20.8962 19.5928 21.4411 18.0547L25.1677 7.45508H22.4079L20.3864 14.4863H20.2809L18.277 7.45508H15.5524L18.9802 17.2637L18.822 17.668C18.5055 18.4941 18.0925 18.5469 17.5739 18.5469C17.2487 18.5469 16.8532 18.5381 16.5192 18.5117V20.5332C16.8532 20.5684 17.3278 20.5771 17.8376 20.5859ZM34.5108 17.1934C37.042 17.1846 38.6329 15.6992 38.7471 13.5371H36.3037C36.1368 14.5479 35.46 15.1191 34.5459 15.1191C33.2803 15.1191 32.4717 14.0645 32.4717 12.2188C32.4717 10.4082 33.2979 9.3623 34.5459 9.35352C35.5303 9.3623 36.1455 10.0127 36.3037 10.9531H38.7471C38.6416 8.76465 36.9717 7.33203 34.5108 7.33203C31.6192 7.33203 29.8262 9.33594 29.835 12.2539C29.8262 15.1631 31.584 17.1846 34.5108 17.1934ZM39.7273 14.3281C39.7361 16.2178 41.0808 17.1846 42.9089 17.1758C44.3239 17.1846 45.238 16.5605 45.7038 15.6816H45.7741V17H48.2351V10.5664C48.2439 8.26367 46.2751 7.33203 44.1921 7.33203C41.6609 7.33203 40.2195 8.63281 40.0612 10.2852H42.5398C42.6804 9.63477 43.2341 9.23926 44.1218 9.23047C45.0974 9.23926 45.6423 9.69629 45.6511 10.4961V11.2695C45.2468 11.2871 43.9636 11.3486 43.278 11.3926C41.4411 11.5068 39.7361 12.2012 39.7273 14.3281ZM42.2234 14.2578C42.2234 13.5195 42.7946 13.0889 43.6999 13.0098C44.1394 12.9746 45.2556 12.9131 45.6511 12.8955V13.5898C45.6599 14.6006 44.8337 15.374 43.6472 15.3828C42.8122 15.374 42.2234 14.9873 42.2234 14.2578ZM52.643 4.27344H50.0414V17H52.643V4.27344ZM58.8087 17.1934C61.1641 17.1846 62.7462 16.042 63.1153 14.2754H60.6368C60.3819 14.8467 59.7491 15.2334 58.8614 15.2422C57.5167 15.2334 56.6641 14.3457 56.6641 12.9043H63.1856V12.166C63.1856 8.91406 61.2081 7.33203 58.7032 7.33203C55.9083 7.33203 54.0889 9.32715 54.0977 12.2715C54.0889 15.2949 55.8819 17.1846 58.8087 17.1934ZM56.6641 11.2695C56.7169 10.1709 57.5606 9.27441 58.7559 9.2832C59.9161 9.27441 60.7159 10.1094 60.7247 11.2695H56.6641ZM67.242 11.4805C67.242 10.2236 67.989 9.49414 69.0701 9.49414C70.1511 9.49414 70.7839 10.1973 70.7927 11.375V17H73.3767V10.918C73.3855 8.69434 72.0847 7.33203 70.0896 7.33203C68.6746 7.33203 67.655 8.02637 67.2244 9.125H67.1189V7.45508H64.6404V17H67.242V11.4805ZM78.7338 17.1582C80.2895 17.1582 81.0805 16.2617 81.4409 15.4707H81.5639V17H84.1303V4.27344H81.5287V9.05469H81.4409C81.0981 8.28125 80.3334 7.33203 78.7338 7.33203C76.6245 7.33203 74.8491 8.9668 74.8491 12.2363C74.8491 15.4268 76.5541 17.1582 78.7338 17.1582ZM77.5209 12.2188C77.5121 10.5576 78.2153 9.40625 79.5424 9.40625C80.852 9.40625 81.5815 10.5049 81.5815 12.2188C81.5815 13.9414 80.8432 15.0752 79.5424 15.084C78.2241 15.0752 77.5121 13.9062 77.5209 12.2188ZM85.5851 14.3281C85.5939 16.2178 86.9386 17.1846 88.7667 17.1758C90.1818 17.1846 91.0958 16.5605 91.5616 15.6816H91.632V17H94.0929V10.5664C94.1017 8.26367 92.1329 7.33203 90.0499 7.33203C87.5187 7.33203 86.0773 8.63281 85.9191 10.2852H88.3976C88.5382 9.63477 89.0919 9.23926 89.9796 9.23047C90.9552 9.23926 91.5001 9.69629 91.5089 10.4961V11.2695C91.1046 11.2871 89.8214 11.3486 89.1359 11.3926C87.2989 11.5068 85.5939 12.2012 85.5851 14.3281ZM88.0812 14.2578C88.0812 13.5195 88.6525 13.0889 89.5577 13.0098C89.9972 12.9746 91.1134 12.9131 91.5089 12.8955V13.5898C91.5177 14.6006 90.6915 15.374 89.505 15.3828C88.67 15.374 88.0812 14.9873 88.0812 14.2578ZM95.8992 17H98.5008V11.5684C98.492 10.3994 99.3621 9.58203 100.54 9.58203C100.9 9.58203 101.401 9.64355 101.647 9.72266V7.40234C101.419 7.34961 101.085 7.31445 100.821 7.31445C99.7488 7.31445 98.8611 7.93848 98.5184 9.10742H98.4129V7.45508H95.8992V17Z" fill="black"/>
</svg>
