<svg width="76" height="34" viewBox="0 0 76 34" fill="none" xmlns="http://www.w3.org/2000/svg">
<path d="M1.4259 17H4.02746V11.2695C4.01867 10.1885 4.70422 9.47656 5.59192 9.47656C6.47961 9.47656 7.07727 10.083 7.06848 11.0234V17H9.59973V11.1641C9.59094 10.1533 10.171 9.47656 11.1466 9.47656C11.9991 9.47656 12.6495 10.0039 12.6407 11.0938V17H15.2423V10.584C15.2423 8.50098 14.003 7.33203 12.2364 7.33203C10.839 7.33203 9.74914 8.04395 9.35363 9.125H9.26574C8.94934 8.02637 7.97375 7.33203 6.66418 7.33203C5.38098 7.33203 4.41418 8.00879 4.00988 9.125H3.90442V7.45508H1.4259V17ZM18.2439 20.5859C20.2566 20.5771 21.3025 19.5928 21.8475 18.0547L25.574 7.45508H22.8143L20.7928 14.4863H20.6873L18.6834 7.45508H15.9588L19.3865 17.2637L19.2283 17.668C18.9119 18.4941 18.4988 18.5469 17.9803 18.5469C17.6551 18.5469 17.2596 18.5381 16.9256 18.5117V20.5332C17.2596 20.5684 17.7342 20.5771 18.2439 20.5859ZM39.4875 7.45508H36.7277L34.7238 14.3105H34.6183L32.6144 7.45508H29.8722L33.2121 17H36.13L39.4875 7.45508ZM40.5731 17H43.1746V7.45508H40.5731V17ZM40.45 4.88867C40.45 5.60938 41.0916 6.20703 41.8739 6.20703C42.6473 6.20703 43.2889 5.60938 43.2801 4.88867C43.2889 4.15039 42.6473 3.56152 41.8739 3.55273C41.0916 3.56152 40.45 4.15039 40.45 4.88867ZM48.5318 17.1582C50.0874 17.1582 50.8784 16.2617 51.2388 15.4707H51.3618V17H53.9282V4.27344H51.3267V9.05469H51.2388C50.896 8.28125 50.1314 7.33203 48.5318 7.33203C46.4224 7.33203 44.647 8.9668 44.647 12.2363C44.647 15.4268 46.3521 17.1582 48.5318 17.1582ZM47.3189 12.2188C47.3101 10.5576 48.0132 9.40625 49.3404 9.40625C50.6499 9.40625 51.3794 10.5049 51.3794 12.2188C51.3794 13.9414 50.6411 15.0752 49.3404 15.084C48.022 15.0752 47.3101 13.9062 47.3189 12.2188ZM60.1643 17.1934C62.5197 17.1846 64.1018 16.042 64.4709 14.2754H61.9924C61.7375 14.8467 61.1047 15.2334 60.217 15.2422C58.8723 15.2334 58.0197 14.3457 58.0197 12.9043H64.5412V12.166C64.5412 8.91406 62.5637 7.33203 60.0588 7.33203C57.2639 7.33203 55.4445 9.32715 55.4533 12.2715C55.4445 15.2949 57.2375 17.1846 60.1643 17.1934ZM58.0197 11.2695C58.0725 10.1709 58.9162 9.27441 60.1115 9.2832C61.2717 9.27441 62.0715 10.1094 62.0803 11.2695H58.0197ZM70.285 17.1934C73.1766 17.1846 74.9696 15.207 74.9784 12.2539C74.9696 9.30957 73.1766 7.33203 70.285 7.33203C67.4022 7.33203 65.6005 9.30957 65.6093 12.2539C65.6005 15.207 67.4022 17.1846 70.285 17.1934ZM68.246 12.2539C68.246 10.5752 68.9403 9.31836 70.3026 9.31836C71.6298 9.31836 72.3329 10.5752 72.3241 12.2539C72.3329 13.9238 71.6298 15.1631 70.3026 15.1719C68.9403 15.1631 68.246 13.9238 68.246 12.2539Z" fill="#70CCA6"/>
<rect y="32" width="76" height="2" fill="#70CCA6"/>
</svg>
