<svg width="73" height="22" viewBox="0 0 73 22" fill="none" xmlns="http://www.w3.org/2000/svg">
<path d="M1.21789 17H3.09875V11.1113C3.09875 9.82812 3.99524 8.94922 5.04992 8.94922C6.07824 8.94922 6.79016 9.62598 6.79016 10.6719V17H8.65344V10.918C8.65344 9.77539 9.34777 8.94922 10.5519 8.94922C11.5363 8.94922 12.3448 9.48535 12.3448 10.7773V17H14.2257V10.6016C14.2169 8.41309 12.9952 7.33203 11.2726 7.33203C9.8927 7.33203 8.85559 7.99121 8.40734 9.01953H8.30188C7.89758 7.95605 7.00988 7.33203 5.73547 7.33203C4.47863 7.33203 3.5382 7.95605 3.13391 9.01953H3.02844V7.45508H1.21789V17ZM17.1219 20.5859C18.6951 20.5771 19.6619 19.7773 20.2156 18.2656L24.1531 7.45508H22.1316L19.7234 14.8555H19.618L17.2098 7.45508H15.2059L18.7039 17.123L18.4754 17.7559C18.0271 18.96 17.5438 18.9951 16.9637 19.0039C16.7 18.9951 16.3309 18.9863 16.1199 18.9688V20.5332C16.3572 20.5684 16.7352 20.5771 17.1219 20.5859ZM37.9084 7.45508H35.8869L33.4787 14.7852H33.3908L30.9826 7.45508H28.9611L32.424 17H34.4455L37.9084 7.45508ZM39.2577 17H41.1385V7.45508H39.2577V17ZM39.0116 4.87109C39.0204 5.48633 39.5565 5.9873 40.2069 5.97852C40.8485 5.9873 41.3846 5.48633 41.3846 4.87109C41.3846 4.25586 40.8485 3.76367 40.2069 3.76367C39.5565 3.76367 39.0204 4.25586 39.0116 4.87109ZM46.812 17.1934C48.5523 17.1846 49.2378 16.1299 49.5894 15.5059H49.73V17H51.5581V4.27344H49.6773V9.00195H49.5894C49.2466 8.4043 48.605 7.33203 46.8296 7.33203C44.5357 7.33203 42.8218 9.14258 42.8218 12.2539C42.8218 15.3301 44.5093 17.1846 46.812 17.1934ZM44.7378 12.2188C44.729 10.3379 45.5728 8.92285 47.2339 8.93164C48.8511 8.92285 49.73 10.2324 49.73 12.2188C49.73 14.2227 48.8335 15.585 47.2339 15.5938C45.5904 15.585 44.729 14.1348 44.7378 12.2188ZM57.9348 17.1934C60.0354 17.1934 61.5031 16.1562 61.925 14.6094H60.0266C59.7102 15.1895 59.0158 15.6465 57.9523 15.6465C56.3879 15.6465 55.3156 14.6182 55.2629 12.7988H62.048V12.1309C62.048 8.67676 59.9826 7.33203 57.8117 7.33203C55.1486 7.33203 53.3908 9.35352 53.3996 12.2891C53.3908 15.251 55.1223 17.1934 57.9348 17.1934ZM55.2717 11.3926C55.3508 10.0479 56.3264 8.87012 57.8293 8.87891C59.2619 8.87012 60.2023 9.94238 60.2023 11.3926H55.2717ZM67.7743 17.1934C70.4638 17.1934 72.2216 15.2246 72.2216 12.2715C72.2216 9.30078 70.4638 7.33203 67.7743 7.33203C65.0673 7.33203 63.3007 9.30078 63.3095 12.2715C63.3007 15.2246 65.0673 17.1934 67.7743 17.1934ZM65.1903 12.2715C65.1903 10.4434 66.0253 8.8877 67.7743 8.87891C69.497 8.8877 70.3231 10.4434 70.3231 12.2715C70.3231 14.0908 69.497 15.6289 67.7743 15.6289C66.0253 15.6289 65.1903 14.0908 65.1903 12.2715Z" fill="#4B4B4B"/>
</svg>
